%TF.GenerationSoftware,KiCad,Pcbnew,(6.0.0)*%
%TF.CreationDate,2022-01-30T17:18:11+00:00*%
%TF.ProjectId,aistompboxadapter,61697374-6f6d-4706-926f-786164617074,rev?*%
%TF.SameCoordinates,Original*%
%TF.FileFunction,Soldermask,Top*%
%TF.FilePolarity,Negative*%
%FSLAX46Y46*%
G04 Gerber Fmt 4.6, Leading zero omitted, Abs format (unit mm)*
G04 Created by KiCad (PCBNEW (6.0.0)) date 2022-01-30 17:18:11*
%MOMM*%
%LPD*%
G01*
G04 APERTURE LIST*
G04 Aperture macros list*
%AMRoundRect*
0 Rectangle with rounded corners*
0 $1 Rounding radius*
0 $2 $3 $4 $5 $6 $7 $8 $9 X,Y pos of 4 corners*
0 Add a 4 corners polygon primitive as box body*
4,1,4,$2,$3,$4,$5,$6,$7,$8,$9,$2,$3,0*
0 Add four circle primitives for the rounded corners*
1,1,$1+$1,$2,$3*
1,1,$1+$1,$4,$5*
1,1,$1+$1,$6,$7*
1,1,$1+$1,$8,$9*
0 Add four rect primitives between the rounded corners*
20,1,$1+$1,$2,$3,$4,$5,0*
20,1,$1+$1,$4,$5,$6,$7,0*
20,1,$1+$1,$6,$7,$8,$9,0*
20,1,$1+$1,$8,$9,$2,$3,0*%
G04 Aperture macros list end*
%ADD10R,1.700000X1.700000*%
%ADD11O,1.700000X1.700000*%
%ADD12RoundRect,0.150000X0.150000X-0.825000X0.150000X0.825000X-0.150000X0.825000X-0.150000X-0.825000X0*%
%ADD13RoundRect,0.250000X0.450000X-0.262500X0.450000X0.262500X-0.450000X0.262500X-0.450000X-0.262500X0*%
%ADD14R,2.200000X2.200000*%
%ADD15O,2.200000X2.200000*%
%ADD16C,3.200000*%
%ADD17R,1.600000X1.600000*%
%ADD18C,1.600000*%
%ADD19RoundRect,0.250000X-0.475000X0.250000X-0.475000X-0.250000X0.475000X-0.250000X0.475000X0.250000X0*%
%ADD20RoundRect,0.250000X0.475000X-0.250000X0.475000X0.250000X-0.475000X0.250000X-0.475000X-0.250000X0*%
%ADD21RoundRect,0.250000X-0.450000X0.262500X-0.450000X-0.262500X0.450000X-0.262500X0.450000X0.262500X0*%
%ADD22R,1.727200X1.727200*%
%ADD23O,1.727200X1.727200*%
G04 APERTURE END LIST*
D10*
%TO.C,SI*%
X232660000Y-46400000D03*
D11*
X235200000Y-46400000D03*
%TD*%
D12*
%TO.C,U1*%
X221995000Y-39462500D03*
X223265000Y-39462500D03*
X224535000Y-39462500D03*
X225805000Y-39462500D03*
X225805000Y-34512500D03*
X224535000Y-34512500D03*
X223265000Y-34512500D03*
X221995000Y-34512500D03*
%TD*%
D13*
%TO.C,R2*%
X224400000Y-31675000D03*
X224400000Y-29850000D03*
%TD*%
%TO.C,R1*%
X222200000Y-31687500D03*
X222200000Y-29862500D03*
%TD*%
D14*
%TO.C,D1*%
X216460000Y-46500000D03*
D15*
X219000000Y-46500000D03*
%TD*%
D16*
%TO.C,H1*%
X224300000Y-47000000D03*
%TD*%
D10*
%TO.C,ES*%
X232725000Y-38600000D03*
D11*
X235265000Y-38600000D03*
%TD*%
D14*
%TO.C,D2*%
X216160000Y-27400000D03*
D15*
X218700000Y-27400000D03*
%TD*%
D13*
%TO.C,R7*%
X219900000Y-43700000D03*
X219900000Y-41875000D03*
%TD*%
%TO.C,R3*%
X227800000Y-39512500D03*
X227800000Y-37687500D03*
%TD*%
%TO.C,R6*%
X224300000Y-43712500D03*
X224300000Y-41887500D03*
%TD*%
D17*
%TO.C,C3*%
X218600000Y-38100000D03*
D18*
X216600000Y-38100000D03*
%TD*%
D13*
%TO.C,R4*%
X227800000Y-35912500D03*
X227800000Y-34087500D03*
%TD*%
D19*
%TO.C,C6*%
X222100000Y-41837500D03*
X222100000Y-43737500D03*
%TD*%
D10*
%TO.C,SO*%
X232725000Y-34700000D03*
D11*
X235265000Y-34700000D03*
%TD*%
D17*
%TO.C,C1*%
X218555113Y-32000000D03*
D18*
X216555113Y-32000000D03*
%TD*%
D10*
%TO.C,IL*%
X230220000Y-42500000D03*
D11*
X232760000Y-42500000D03*
X235300000Y-42500000D03*
%TD*%
D10*
%TO.C,OL*%
X230260000Y-30700000D03*
D11*
X232800000Y-30700000D03*
X235340000Y-30700000D03*
%TD*%
D20*
%TO.C,C2*%
X226600000Y-31712500D03*
X226600000Y-29812500D03*
%TD*%
D21*
%TO.C,R5*%
X226400000Y-41875000D03*
X226400000Y-43700000D03*
%TD*%
D22*
%TO.C,J3*%
X208330000Y-32120000D03*
D23*
X210870000Y-32120000D03*
X208330000Y-34660000D03*
X210870000Y-34660000D03*
X208330000Y-37200000D03*
X210870000Y-37200000D03*
X208330000Y-39740000D03*
X210870000Y-39740000D03*
X208330000Y-42280000D03*
X210870000Y-42280000D03*
%TD*%
D10*
%TO.C,ER*%
X232800000Y-26725000D03*
D11*
X235340000Y-26725000D03*
%TD*%
M02*
