%FSLAX45Y45*%
G04 Gerber Fmt 4.5, Leading zero omitted, Abs format (unit mm)*
G04 Created by KiCad (PCBNEW (6.0.0)) date 2022-01-30 17:17:49*
%MOMM*%
%LPD*%
G01*
G04 APERTURE LIST*
%TA.AperFunction,Profile*%
%ADD10C,0.100000*%
%TD*%
%ADD11C,0.200000*%
%ADD12C,0.320000*%
G04 APERTURE END LIST*
D10*
X20400000Y-2300000D02*
X23800000Y-2300000D01*
X23800000Y-2300000D02*
X23800000Y-5000000D01*
X23800000Y-5000000D02*
X20400000Y-5000000D01*
X20400000Y-5000000D02*
X20400000Y-2300000D01*
D11*
D12*
X22270000Y-4540000D02*
X22590000Y-4860000D01*
X22590000Y-4540000D02*
X22270000Y-4860000D01*
D11*
X20652619Y-5315476D02*
X20652619Y-5115476D01*
X20700238Y-5115476D01*
X20728810Y-5125000D01*
X20747857Y-5144048D01*
X20757381Y-5163095D01*
X20766905Y-5201190D01*
X20766905Y-5229762D01*
X20757381Y-5267857D01*
X20747857Y-5286905D01*
X20728810Y-5305952D01*
X20700238Y-5315476D01*
X20652619Y-5315476D01*
X20852619Y-5315476D02*
X20852619Y-5182143D01*
X20852619Y-5220238D02*
X20862143Y-5201190D01*
X20871667Y-5191667D01*
X20890714Y-5182143D01*
X20909762Y-5182143D01*
X20976429Y-5315476D02*
X20976429Y-5182143D01*
X20976429Y-5115476D02*
X20966905Y-5125000D01*
X20976429Y-5134524D01*
X20985952Y-5125000D01*
X20976429Y-5115476D01*
X20976429Y-5134524D01*
X21100238Y-5315476D02*
X21081190Y-5305952D01*
X21071667Y-5286905D01*
X21071667Y-5115476D01*
X21205000Y-5315476D02*
X21185952Y-5305952D01*
X21176429Y-5286905D01*
X21176429Y-5115476D01*
X21433571Y-5315476D02*
X21433571Y-5115476D01*
X21500238Y-5258333D01*
X21566905Y-5115476D01*
X21566905Y-5315476D01*
X21747857Y-5315476D02*
X21747857Y-5210714D01*
X21738333Y-5191667D01*
X21719286Y-5182143D01*
X21681190Y-5182143D01*
X21662143Y-5191667D01*
X21747857Y-5305952D02*
X21728810Y-5315476D01*
X21681190Y-5315476D01*
X21662143Y-5305952D01*
X21652619Y-5286905D01*
X21652619Y-5267857D01*
X21662143Y-5248810D01*
X21681190Y-5239286D01*
X21728810Y-5239286D01*
X21747857Y-5229762D01*
X21843095Y-5182143D02*
X21843095Y-5382143D01*
X21843095Y-5191667D02*
X21862143Y-5182143D01*
X21900238Y-5182143D01*
X21919286Y-5191667D01*
X21928810Y-5201190D01*
X21938333Y-5220238D01*
X21938333Y-5277381D01*
X21928810Y-5296429D01*
X21919286Y-5305952D01*
X21900238Y-5315476D01*
X21862143Y-5315476D01*
X21843095Y-5305952D01*
X22024048Y-5296429D02*
X22033571Y-5305952D01*
X22024048Y-5315476D01*
X22014524Y-5305952D01*
X22024048Y-5296429D01*
X22024048Y-5315476D01*
X22024048Y-5191667D02*
X22033571Y-5201190D01*
X22024048Y-5210714D01*
X22014524Y-5201190D01*
X22024048Y-5191667D01*
X22024048Y-5210714D01*
X20195000Y-5545000D02*
X20395000Y-5745000D01*
X20395000Y-5545000D02*
X20195000Y-5745000D01*
X20633571Y-5535476D02*
X20757381Y-5535476D01*
X20690714Y-5611667D01*
X20719286Y-5611667D01*
X20738333Y-5621190D01*
X20747857Y-5630714D01*
X20757381Y-5649762D01*
X20757381Y-5697381D01*
X20747857Y-5716428D01*
X20738333Y-5725952D01*
X20719286Y-5735476D01*
X20662143Y-5735476D01*
X20643095Y-5725952D01*
X20633571Y-5716428D01*
X20843095Y-5716428D02*
X20852619Y-5725952D01*
X20843095Y-5735476D01*
X20833571Y-5725952D01*
X20843095Y-5716428D01*
X20843095Y-5735476D01*
X20928810Y-5554524D02*
X20938333Y-5545000D01*
X20957381Y-5535476D01*
X21005000Y-5535476D01*
X21024048Y-5545000D01*
X21033571Y-5554524D01*
X21043095Y-5573571D01*
X21043095Y-5592619D01*
X21033571Y-5621190D01*
X20919286Y-5735476D01*
X21043095Y-5735476D01*
X21166905Y-5535476D02*
X21185952Y-5535476D01*
X21205000Y-5545000D01*
X21214524Y-5554524D01*
X21224048Y-5573571D01*
X21233571Y-5611667D01*
X21233571Y-5659286D01*
X21224048Y-5697381D01*
X21214524Y-5716428D01*
X21205000Y-5725952D01*
X21185952Y-5735476D01*
X21166905Y-5735476D01*
X21147857Y-5725952D01*
X21138333Y-5716428D01*
X21128810Y-5697381D01*
X21119286Y-5659286D01*
X21119286Y-5611667D01*
X21128810Y-5573571D01*
X21138333Y-5554524D01*
X21147857Y-5545000D01*
X21166905Y-5535476D01*
X21357381Y-5535476D02*
X21376429Y-5535476D01*
X21395476Y-5545000D01*
X21405000Y-5554524D01*
X21414524Y-5573571D01*
X21424048Y-5611667D01*
X21424048Y-5659286D01*
X21414524Y-5697381D01*
X21405000Y-5716428D01*
X21395476Y-5725952D01*
X21376429Y-5735476D01*
X21357381Y-5735476D01*
X21338333Y-5725952D01*
X21328810Y-5716428D01*
X21319286Y-5697381D01*
X21309762Y-5659286D01*
X21309762Y-5611667D01*
X21319286Y-5573571D01*
X21328810Y-5554524D01*
X21338333Y-5545000D01*
X21357381Y-5535476D01*
X21509762Y-5735476D02*
X21509762Y-5602143D01*
X21509762Y-5621190D02*
X21519286Y-5611667D01*
X21538333Y-5602143D01*
X21566905Y-5602143D01*
X21585952Y-5611667D01*
X21595476Y-5630714D01*
X21595476Y-5735476D01*
X21595476Y-5630714D02*
X21605000Y-5611667D01*
X21624048Y-5602143D01*
X21652619Y-5602143D01*
X21671667Y-5611667D01*
X21681190Y-5630714D01*
X21681190Y-5735476D01*
X21776429Y-5735476D02*
X21776429Y-5602143D01*
X21776429Y-5621190D02*
X21785952Y-5611667D01*
X21805000Y-5602143D01*
X21833571Y-5602143D01*
X21852619Y-5611667D01*
X21862143Y-5630714D01*
X21862143Y-5735476D01*
X21862143Y-5630714D02*
X21871667Y-5611667D01*
X21890714Y-5602143D01*
X21919286Y-5602143D01*
X21938333Y-5611667D01*
X21947857Y-5630714D01*
X21947857Y-5735476D01*
X22338333Y-5525952D02*
X22166905Y-5783095D01*
X22595476Y-5535476D02*
X22614524Y-5535476D01*
X22633571Y-5545000D01*
X22643095Y-5554524D01*
X22652619Y-5573571D01*
X22662143Y-5611667D01*
X22662143Y-5659286D01*
X22652619Y-5697381D01*
X22643095Y-5716428D01*
X22633571Y-5725952D01*
X22614524Y-5735476D01*
X22595476Y-5735476D01*
X22576428Y-5725952D01*
X22566905Y-5716428D01*
X22557381Y-5697381D01*
X22547857Y-5659286D01*
X22547857Y-5611667D01*
X22557381Y-5573571D01*
X22566905Y-5554524D01*
X22576428Y-5545000D01*
X22595476Y-5535476D01*
X22747857Y-5716428D02*
X22757381Y-5725952D01*
X22747857Y-5735476D01*
X22738333Y-5725952D01*
X22747857Y-5716428D01*
X22747857Y-5735476D01*
X22947857Y-5735476D02*
X22833571Y-5735476D01*
X22890714Y-5735476D02*
X22890714Y-5535476D01*
X22871667Y-5564048D01*
X22852619Y-5583095D01*
X22833571Y-5592619D01*
X23024048Y-5554524D02*
X23033571Y-5545000D01*
X23052619Y-5535476D01*
X23100238Y-5535476D01*
X23119286Y-5545000D01*
X23128809Y-5554524D01*
X23138333Y-5573571D01*
X23138333Y-5592619D01*
X23128809Y-5621190D01*
X23014524Y-5735476D01*
X23138333Y-5735476D01*
X23309762Y-5535476D02*
X23271667Y-5535476D01*
X23252619Y-5545000D01*
X23243095Y-5554524D01*
X23224048Y-5583095D01*
X23214524Y-5621190D01*
X23214524Y-5697381D01*
X23224048Y-5716428D01*
X23233571Y-5725952D01*
X23252619Y-5735476D01*
X23290714Y-5735476D01*
X23309762Y-5725952D01*
X23319286Y-5716428D01*
X23328809Y-5697381D01*
X23328809Y-5649762D01*
X23319286Y-5630714D01*
X23309762Y-5621190D01*
X23290714Y-5611667D01*
X23252619Y-5611667D01*
X23233571Y-5621190D01*
X23224048Y-5630714D01*
X23214524Y-5649762D01*
X23452619Y-5535476D02*
X23471667Y-5535476D01*
X23490714Y-5545000D01*
X23500238Y-5554524D01*
X23509762Y-5573571D01*
X23519286Y-5611667D01*
X23519286Y-5659286D01*
X23509762Y-5697381D01*
X23500238Y-5716428D01*
X23490714Y-5725952D01*
X23471667Y-5735476D01*
X23452619Y-5735476D01*
X23433571Y-5725952D01*
X23424048Y-5716428D01*
X23414524Y-5697381D01*
X23405000Y-5659286D01*
X23405000Y-5611667D01*
X23414524Y-5573571D01*
X23424048Y-5554524D01*
X23433571Y-5545000D01*
X23452619Y-5535476D01*
X23595476Y-5535476D02*
X23595476Y-5573571D01*
X23671667Y-5535476D02*
X23671667Y-5573571D01*
X23966905Y-5811667D02*
X23957381Y-5802143D01*
X23938333Y-5773571D01*
X23928809Y-5754524D01*
X23919286Y-5725952D01*
X23909762Y-5678333D01*
X23909762Y-5640238D01*
X23919286Y-5592619D01*
X23928809Y-5564048D01*
X23938333Y-5545000D01*
X23957381Y-5516429D01*
X23966905Y-5506905D01*
X24147857Y-5735476D02*
X24033571Y-5735476D01*
X24090714Y-5735476D02*
X24090714Y-5535476D01*
X24071667Y-5564048D01*
X24052619Y-5583095D01*
X24033571Y-5592619D01*
X24385952Y-5735476D02*
X24385952Y-5535476D01*
X24471667Y-5735476D02*
X24471667Y-5630714D01*
X24462143Y-5611667D01*
X24443095Y-5602143D01*
X24414524Y-5602143D01*
X24395476Y-5611667D01*
X24385952Y-5621190D01*
X24595476Y-5735476D02*
X24576428Y-5725952D01*
X24566905Y-5716428D01*
X24557381Y-5697381D01*
X24557381Y-5640238D01*
X24566905Y-5621190D01*
X24576428Y-5611667D01*
X24595476Y-5602143D01*
X24624048Y-5602143D01*
X24643095Y-5611667D01*
X24652619Y-5621190D01*
X24662143Y-5640238D01*
X24662143Y-5697381D01*
X24652619Y-5716428D01*
X24643095Y-5725952D01*
X24624048Y-5735476D01*
X24595476Y-5735476D01*
X24776428Y-5735476D02*
X24757381Y-5725952D01*
X24747857Y-5706905D01*
X24747857Y-5535476D01*
X24928809Y-5725952D02*
X24909762Y-5735476D01*
X24871667Y-5735476D01*
X24852619Y-5725952D01*
X24843095Y-5706905D01*
X24843095Y-5630714D01*
X24852619Y-5611667D01*
X24871667Y-5602143D01*
X24909762Y-5602143D01*
X24928809Y-5611667D01*
X24938333Y-5630714D01*
X24938333Y-5649762D01*
X24843095Y-5668809D01*
X25005000Y-5811667D02*
X25014524Y-5802143D01*
X25033571Y-5773571D01*
X25043095Y-5754524D01*
X25052619Y-5725952D01*
X25062143Y-5678333D01*
X25062143Y-5640238D01*
X25052619Y-5592619D01*
X25043095Y-5564048D01*
X25033571Y-5545000D01*
X25014524Y-5516429D01*
X25005000Y-5506905D01*
X25366905Y-5811667D02*
X25357381Y-5802143D01*
X25338333Y-5773571D01*
X25328809Y-5754524D01*
X25319286Y-5725952D01*
X25309762Y-5678333D01*
X25309762Y-5640238D01*
X25319286Y-5592619D01*
X25328809Y-5564048D01*
X25338333Y-5545000D01*
X25357381Y-5516429D01*
X25366905Y-5506905D01*
X25443095Y-5602143D02*
X25443095Y-5735476D01*
X25443095Y-5621190D02*
X25452619Y-5611667D01*
X25471667Y-5602143D01*
X25500238Y-5602143D01*
X25519286Y-5611667D01*
X25528809Y-5630714D01*
X25528809Y-5735476D01*
X25652619Y-5735476D02*
X25633571Y-5725952D01*
X25624048Y-5716428D01*
X25614524Y-5697381D01*
X25614524Y-5640238D01*
X25624048Y-5621190D01*
X25633571Y-5611667D01*
X25652619Y-5602143D01*
X25681190Y-5602143D01*
X25700238Y-5611667D01*
X25709762Y-5621190D01*
X25719286Y-5640238D01*
X25719286Y-5697381D01*
X25709762Y-5716428D01*
X25700238Y-5725952D01*
X25681190Y-5735476D01*
X25652619Y-5735476D01*
X25776428Y-5602143D02*
X25852619Y-5602143D01*
X25805000Y-5535476D02*
X25805000Y-5706905D01*
X25814524Y-5725952D01*
X25833571Y-5735476D01*
X25852619Y-5735476D01*
X26071667Y-5602143D02*
X26071667Y-5802143D01*
X26071667Y-5611667D02*
X26090714Y-5602143D01*
X26128809Y-5602143D01*
X26147857Y-5611667D01*
X26157381Y-5621190D01*
X26166905Y-5640238D01*
X26166905Y-5697381D01*
X26157381Y-5716428D01*
X26147857Y-5725952D01*
X26128809Y-5735476D01*
X26090714Y-5735476D01*
X26071667Y-5725952D01*
X26281190Y-5735476D02*
X26262143Y-5725952D01*
X26252619Y-5706905D01*
X26252619Y-5535476D01*
X26443095Y-5735476D02*
X26443095Y-5630714D01*
X26433571Y-5611667D01*
X26414524Y-5602143D01*
X26376428Y-5602143D01*
X26357381Y-5611667D01*
X26443095Y-5725952D02*
X26424048Y-5735476D01*
X26376428Y-5735476D01*
X26357381Y-5725952D01*
X26347857Y-5706905D01*
X26347857Y-5687857D01*
X26357381Y-5668809D01*
X26376428Y-5659286D01*
X26424048Y-5659286D01*
X26443095Y-5649762D01*
X26509762Y-5602143D02*
X26585952Y-5602143D01*
X26538333Y-5535476D02*
X26538333Y-5706905D01*
X26547857Y-5725952D01*
X26566905Y-5735476D01*
X26585952Y-5735476D01*
X26728809Y-5725952D02*
X26709762Y-5735476D01*
X26671667Y-5735476D01*
X26652619Y-5725952D01*
X26643095Y-5706905D01*
X26643095Y-5630714D01*
X26652619Y-5611667D01*
X26671667Y-5602143D01*
X26709762Y-5602143D01*
X26728809Y-5611667D01*
X26738333Y-5630714D01*
X26738333Y-5649762D01*
X26643095Y-5668809D01*
X26909762Y-5735476D02*
X26909762Y-5535476D01*
X26909762Y-5725952D02*
X26890714Y-5735476D01*
X26852619Y-5735476D01*
X26833571Y-5725952D01*
X26824048Y-5716428D01*
X26814524Y-5697381D01*
X26814524Y-5640238D01*
X26824048Y-5621190D01*
X26833571Y-5611667D01*
X26852619Y-5602143D01*
X26890714Y-5602143D01*
X26909762Y-5611667D01*
X26985952Y-5811667D02*
X26995476Y-5802143D01*
X27014524Y-5773571D01*
X27024048Y-5754524D01*
X27033571Y-5725952D01*
X27043095Y-5678333D01*
X27043095Y-5640238D01*
X27033571Y-5592619D01*
X27024048Y-5564048D01*
X27014524Y-5545000D01*
X26995476Y-5516429D01*
X26985952Y-5506905D01*
M02*
