M48
; DRILL file {KiCad (6.0.0)} date Sun Jan 30 17:17:48 2022
; FORMAT={-:-/ absolute / metric / decimal}
; #@! TF.CreationDate,2022-01-30T17:17:48+00:00
; #@! TF.GenerationSoftware,Kicad,Pcbnew,(6.0.0)
; #@! TF.FileFunction,Plated,1,2,PTH
FMAT,2
METRIC
; #@! TA.AperFunction,Plated,PTH,ViaDrill
T1C0.400
; #@! TA.AperFunction,Plated,PTH,ComponentDrill
T2C0.800
; #@! TA.AperFunction,Plated,PTH,ComponentDrill
T3C1.000
; #@! TA.AperFunction,Plated,PTH,ComponentDrill
T4C1.016
; #@! TA.AperFunction,Plated,PTH,ComponentDrill
T5C1.100
%
G90
G05
T1
X220.776Y-44.004
X221.0Y-32.6
X221.0Y-46.0
X224.0Y-36.3
X225.8Y-37.5
X227.7Y-41.1
T2
X216.555Y-32.0
X216.6Y-38.1
X218.555Y-32.0
X218.6Y-38.1
T3
X230.22Y-42.5
X230.26Y-30.7
X232.66Y-46.4
X232.725Y-34.7
X232.725Y-38.6
X232.76Y-42.5
X232.8Y-26.725
X232.8Y-30.7
X235.2Y-46.4
X235.265Y-34.7
X235.265Y-38.6
X235.3Y-42.5
X235.34Y-26.725
X235.34Y-30.7
T4
X208.33Y-32.12
X208.33Y-34.66
X208.33Y-37.2
X208.33Y-39.74
X208.33Y-42.28
X210.87Y-32.12
X210.87Y-34.66
X210.87Y-37.2
X210.87Y-39.74
X210.87Y-42.28
T5
X216.16Y-27.4
X216.46Y-46.5
X218.7Y-27.4
X219.0Y-46.5
T0
M30
