%TF.GenerationSoftware,KiCad,Pcbnew,(6.0.0)*%
%TF.CreationDate,2022-01-09T16:20:31+00:00*%
%TF.ProjectId,aistompboxadapter,61697374-6f6d-4706-926f-786164617074,rev?*%
%TF.SameCoordinates,Original*%
%TF.FileFunction,Copper,L2,Bot*%
%TF.FilePolarity,Positive*%
%FSLAX46Y46*%
G04 Gerber Fmt 4.6, Leading zero omitted, Abs format (unit mm)*
G04 Created by KiCad (PCBNEW (6.0.0)) date 2022-01-09 16:20:31*
%MOMM*%
%LPD*%
G01*
G04 APERTURE LIST*
%TA.AperFunction,ComponentPad*%
%ADD10C,1.600000*%
%TD*%
%TA.AperFunction,ComponentPad*%
%ADD11R,2.400000X1.600000*%
%TD*%
%TA.AperFunction,ComponentPad*%
%ADD12O,2.400000X1.600000*%
%TD*%
%TA.AperFunction,ComponentPad*%
%ADD13O,1.700000X1.700000*%
%TD*%
%TA.AperFunction,ComponentPad*%
%ADD14R,1.700000X1.700000*%
%TD*%
%TA.AperFunction,ComponentPad*%
%ADD15O,1.600000X1.600000*%
%TD*%
%TA.AperFunction,ComponentPad*%
%ADD16R,1.727200X1.727200*%
%TD*%
%TA.AperFunction,ComponentPad*%
%ADD17O,1.727200X1.727200*%
%TD*%
%TA.AperFunction,ComponentPad*%
%ADD18R,2.200000X2.200000*%
%TD*%
%TA.AperFunction,ComponentPad*%
%ADD19O,2.200000X2.200000*%
%TD*%
%TA.AperFunction,ComponentPad*%
%ADD20R,1.600000X1.600000*%
%TD*%
G04 APERTURE END LIST*
D10*
%TO.P,C6,1*%
%TO.N,Net-(C6-Pad1)*%
X241000000Y-29000000D03*
%TO.P,C6,2*%
%TO.N,Net-(C6-Pad2)*%
X236000000Y-29000000D03*
%TD*%
%TO.P,C2,1*%
%TO.N,Net-(C1-Pad1)*%
X236000000Y-39000000D03*
%TO.P,C2,2*%
%TO.N,GND*%
X241000000Y-39000000D03*
%TD*%
D11*
%TO.P,U1,1*%
%TO.N,Net-(C6-Pad2)*%
X245200000Y-31200000D03*
D12*
%TO.P,U1,5,+*%
%TO.N,GND*%
X252820000Y-38820000D03*
%TO.P,U1,2,-*%
%TO.N,Net-(C6-Pad1)*%
X245200000Y-33740000D03*
%TO.P,U1,6,-*%
%TO.N,Net-(U1-Pad6)*%
X252820000Y-36280000D03*
%TO.P,U1,3,+*%
%TO.N,Net-(C1-Pad1)*%
X245200000Y-36280000D03*
%TO.P,U1,7*%
%TO.N,Net-(U1-Pad6)*%
X252820000Y-33740000D03*
%TO.P,U1,4,V-*%
%TO.N,+12V*%
X245200000Y-38820000D03*
%TO.P,U1,8,V+*%
%TO.N,-12V*%
X252820000Y-31200000D03*
%TD*%
D13*
%TO.P,RV2,3,3*%
%TO.N,Net-(R7-Pad1)*%
X228700000Y-22420000D03*
%TO.P,RV2,2,2*%
%TO.N,Net-(RV2-Pad2)*%
X228700000Y-24960000D03*
D14*
%TO.P,RV2,1,1*%
%TO.N,GND*%
X228700000Y-27500000D03*
%TD*%
D13*
%TO.P,RV1,3,3*%
%TO.N,Net-(RV1-Pad3)*%
X225000000Y-48055000D03*
%TO.P,RV1,2,2*%
%TO.N,Net-(R3-Pad1)*%
X225000000Y-45515000D03*
D14*
%TO.P,RV1,1,1*%
%TO.N,GND*%
X225000000Y-42975000D03*
%TD*%
D10*
%TO.P,R7,1*%
%TO.N,Net-(R7-Pad1)*%
X242190000Y-22000000D03*
D15*
%TO.P,R7,2*%
%TO.N,Net-(C6-Pad2)*%
X249810000Y-22000000D03*
%TD*%
D10*
%TO.P,R6,1*%
%TO.N,Net-(C6-Pad2)*%
X234690000Y-35650000D03*
D15*
%TO.P,R6,2*%
%TO.N,Net-(C6-Pad1)*%
X242310000Y-35650000D03*
%TD*%
D10*
%TO.P,R5,1*%
%TO.N,Net-(C6-Pad1)*%
X242310000Y-32500000D03*
D15*
%TO.P,R5,2*%
%TO.N,Net-(C3-Pad1)*%
X234690000Y-32500000D03*
%TD*%
D10*
%TO.P,R4,1*%
%TO.N,GND*%
X228500000Y-38310000D03*
D15*
%TO.P,R4,2*%
%TO.N,Net-(J4-Pad1)*%
X228500000Y-30690000D03*
%TD*%
D10*
%TO.P,R3,1*%
%TO.N,Net-(R3-Pad1)*%
X225000000Y-38310000D03*
D15*
%TO.P,R3,2*%
%TO.N,Net-(J4-Pad1)*%
X225000000Y-30690000D03*
%TD*%
D10*
%TO.P,R2,1*%
%TO.N,GND*%
X236190000Y-48000000D03*
D15*
%TO.P,R2,2*%
%TO.N,Net-(C1-Pad1)*%
X243810000Y-48000000D03*
%TD*%
D10*
%TO.P,R1,1*%
%TO.N,GND*%
X243810000Y-44500000D03*
D15*
%TO.P,R1,2*%
%TO.N,Net-(J2-Pad1)*%
X236190000Y-44500000D03*
%TD*%
D14*
%TO.P,J5,1,Pin_1*%
%TO.N,Net-(RV2-Pad2)*%
X239000000Y-24775000D03*
D13*
%TO.P,J5,2,Pin_2*%
%TO.N,GND*%
X239000000Y-22235000D03*
%TD*%
D14*
%TO.P,J4,1,Pin_1*%
%TO.N,Net-(J4-Pad1)*%
X229000000Y-45225000D03*
D13*
%TO.P,J4,2,Pin_2*%
%TO.N,GND*%
X229000000Y-47765000D03*
%TD*%
D16*
%TO.P,J3,1,Pin_1*%
%TO.N,Net-(D2-Pad1)*%
X258230000Y-29920000D03*
D17*
%TO.P,J3,2,Pin_2*%
X260770000Y-29920000D03*
%TO.P,J3,3,Pin_3*%
%TO.N,GND*%
X258230000Y-32460000D03*
%TO.P,J3,4,Pin_4*%
X260770000Y-32460000D03*
%TO.P,J3,5,Pin_5*%
X258230000Y-35000000D03*
%TO.P,J3,6,Pin_6*%
X260770000Y-35000000D03*
%TO.P,J3,7,Pin_7*%
X258230000Y-37540000D03*
%TO.P,J3,8,Pin_8*%
X260770000Y-37540000D03*
%TO.P,J3,9,Pin_9*%
%TO.N,Net-(D1-Pad2)*%
X258230000Y-40080000D03*
%TO.P,J3,10,Pin_10*%
X260770000Y-40080000D03*
%TD*%
D14*
%TO.P,J2,1,Pin_1*%
%TO.N,Net-(J2-Pad1)*%
X233000000Y-24775000D03*
D13*
%TO.P,J2,2,Pin_2*%
%TO.N,GND*%
X233000000Y-22235000D03*
%TD*%
D14*
%TO.P,J1,1,Pin_1*%
%TO.N,Net-(RV1-Pad3)*%
X233000000Y-45225000D03*
D13*
%TO.P,J1,2,Pin_2*%
%TO.N,GND*%
X233000000Y-47765000D03*
%TD*%
D18*
%TO.P,D2,1,K*%
%TO.N,Net-(D2-Pad1)*%
X263080000Y-22000000D03*
D19*
%TO.P,D2,2,A*%
%TO.N,-12V*%
X252920000Y-22000000D03*
%TD*%
D18*
%TO.P,D1,1,K*%
%TO.N,+12V*%
X252920000Y-47500000D03*
D19*
%TO.P,D1,2,A*%
%TO.N,Net-(D1-Pad2)*%
X263080000Y-47500000D03*
%TD*%
D10*
%TO.P,C5,1*%
%TO.N,GND*%
X247750000Y-31000000D03*
%TO.P,C5,2*%
%TO.N,-12V*%
X250250000Y-31000000D03*
%TD*%
%TO.P,C4,1*%
%TO.N,+12V*%
X247750000Y-38500000D03*
%TO.P,C4,2*%
%TO.N,GND*%
X250250000Y-38500000D03*
%TD*%
D20*
%TO.P,C3,1*%
%TO.N,Net-(C3-Pad1)*%
X246455113Y-26500000D03*
D10*
%TO.P,C3,2*%
%TO.N,GND*%
X244455113Y-26500000D03*
%TD*%
D20*
%TO.P,C1,1*%
%TO.N,Net-(C1-Pad1)*%
X249455113Y-44000000D03*
D10*
%TO.P,C1,2*%
%TO.N,Net-(J2-Pad1)*%
X247455113Y-44000000D03*
%TD*%
%TA.AperFunction,Conductor*%
%TO.N,GND*%
G36*
X241813621Y-20528002D02*
G01*
X241860114Y-20581658D01*
X241870218Y-20651932D01*
X241840724Y-20716512D01*
X241778111Y-20755707D01*
X241746067Y-20764293D01*
X241746065Y-20764294D01*
X241740757Y-20765716D01*
X241735776Y-20768039D01*
X241735775Y-20768039D01*
X241538238Y-20860151D01*
X241538233Y-20860154D01*
X241533251Y-20862477D01*
X241452128Y-20919280D01*
X241350211Y-20990643D01*
X241350208Y-20990645D01*
X241345700Y-20993802D01*
X241183802Y-21155700D01*
X241180645Y-21160208D01*
X241180643Y-21160211D01*
X241138955Y-21219748D01*
X241052477Y-21343251D01*
X241050154Y-21348233D01*
X241050151Y-21348238D01*
X240978727Y-21501409D01*
X240955716Y-21550757D01*
X240954294Y-21556065D01*
X240954293Y-21556067D01*
X240897881Y-21766598D01*
X240896457Y-21771913D01*
X240876502Y-22000000D01*
X240896457Y-22228087D01*
X240897881Y-22233400D01*
X240897881Y-22233402D01*
X240946982Y-22416646D01*
X240955716Y-22449243D01*
X240958039Y-22454224D01*
X240958039Y-22454225D01*
X241050151Y-22651762D01*
X241050154Y-22651767D01*
X241052477Y-22656749D01*
X241183802Y-22844300D01*
X241345700Y-23006198D01*
X241350208Y-23009355D01*
X241350211Y-23009357D01*
X241399257Y-23043699D01*
X241533251Y-23137523D01*
X241538233Y-23139846D01*
X241538238Y-23139849D01*
X241701514Y-23215985D01*
X241740757Y-23234284D01*
X241746065Y-23235706D01*
X241746067Y-23235707D01*
X241956598Y-23292119D01*
X241956600Y-23292119D01*
X241961913Y-23293543D01*
X242190000Y-23313498D01*
X242418087Y-23293543D01*
X242423400Y-23292119D01*
X242423402Y-23292119D01*
X242633933Y-23235707D01*
X242633935Y-23235706D01*
X242639243Y-23234284D01*
X242678486Y-23215985D01*
X242841762Y-23139849D01*
X242841767Y-23139846D01*
X242846749Y-23137523D01*
X242980743Y-23043699D01*
X243029789Y-23009357D01*
X243029792Y-23009355D01*
X243034300Y-23006198D01*
X243196198Y-22844300D01*
X243327523Y-22656749D01*
X243329846Y-22651767D01*
X243329849Y-22651762D01*
X243421961Y-22454225D01*
X243421961Y-22454224D01*
X243424284Y-22449243D01*
X243433019Y-22416646D01*
X243482119Y-22233402D01*
X243482119Y-22233400D01*
X243483543Y-22228087D01*
X243503498Y-22000000D01*
X243483543Y-21771913D01*
X243482119Y-21766598D01*
X243425707Y-21556067D01*
X243425706Y-21556065D01*
X243424284Y-21550757D01*
X243401273Y-21501409D01*
X243329849Y-21348238D01*
X243329846Y-21348233D01*
X243327523Y-21343251D01*
X243241045Y-21219748D01*
X243199357Y-21160211D01*
X243199355Y-21160208D01*
X243196198Y-21155700D01*
X243034300Y-20993802D01*
X243029792Y-20990645D01*
X243029789Y-20990643D01*
X242927872Y-20919280D01*
X242846749Y-20862477D01*
X242841767Y-20860154D01*
X242841762Y-20860151D01*
X242644225Y-20768039D01*
X242644224Y-20768039D01*
X242639243Y-20765716D01*
X242633935Y-20764294D01*
X242633933Y-20764293D01*
X242601889Y-20755707D01*
X242541266Y-20718755D01*
X242510245Y-20654895D01*
X242518673Y-20584400D01*
X242563876Y-20529653D01*
X242634500Y-20508000D01*
X249365500Y-20508000D01*
X249433621Y-20528002D01*
X249480114Y-20581658D01*
X249490218Y-20651932D01*
X249460724Y-20716512D01*
X249398111Y-20755707D01*
X249366067Y-20764293D01*
X249366065Y-20764294D01*
X249360757Y-20765716D01*
X249355776Y-20768039D01*
X249355775Y-20768039D01*
X249158238Y-20860151D01*
X249158233Y-20860154D01*
X249153251Y-20862477D01*
X249072128Y-20919280D01*
X248970211Y-20990643D01*
X248970208Y-20990645D01*
X248965700Y-20993802D01*
X248803802Y-21155700D01*
X248800645Y-21160208D01*
X248800643Y-21160211D01*
X248758955Y-21219748D01*
X248672477Y-21343251D01*
X248670154Y-21348233D01*
X248670151Y-21348238D01*
X248598727Y-21501409D01*
X248575716Y-21550757D01*
X248574294Y-21556065D01*
X248574293Y-21556067D01*
X248517881Y-21766598D01*
X248516457Y-21771913D01*
X248496502Y-22000000D01*
X248516457Y-22228087D01*
X248517881Y-22233400D01*
X248517881Y-22233402D01*
X248566982Y-22416646D01*
X248575716Y-22449243D01*
X248578039Y-22454224D01*
X248578039Y-22454225D01*
X248670151Y-22651762D01*
X248670154Y-22651767D01*
X248672477Y-22656749D01*
X248803802Y-22844300D01*
X248965700Y-23006198D01*
X248970208Y-23009355D01*
X248970211Y-23009357D01*
X249019257Y-23043699D01*
X249153251Y-23137523D01*
X249158233Y-23139846D01*
X249158238Y-23139849D01*
X249321514Y-23215985D01*
X249360757Y-23234284D01*
X249366065Y-23235706D01*
X249366067Y-23235707D01*
X249576598Y-23292119D01*
X249576600Y-23292119D01*
X249581913Y-23293543D01*
X249810000Y-23313498D01*
X250038087Y-23293543D01*
X250043400Y-23292119D01*
X250043402Y-23292119D01*
X250253933Y-23235707D01*
X250253935Y-23235706D01*
X250259243Y-23234284D01*
X250298486Y-23215985D01*
X250461762Y-23139849D01*
X250461767Y-23139846D01*
X250466749Y-23137523D01*
X250600743Y-23043699D01*
X250649789Y-23009357D01*
X250649792Y-23009355D01*
X250654300Y-23006198D01*
X250816198Y-22844300D01*
X250947523Y-22656749D01*
X250949846Y-22651767D01*
X250949849Y-22651762D01*
X251041961Y-22454225D01*
X251041961Y-22454224D01*
X251044284Y-22449243D01*
X251089594Y-22280146D01*
X251126545Y-22219524D01*
X251190405Y-22188503D01*
X251260900Y-22196931D01*
X251315647Y-22242134D01*
X251333819Y-22283344D01*
X251385495Y-22498591D01*
X251387388Y-22503162D01*
X251387389Y-22503164D01*
X251474316Y-22713023D01*
X251482384Y-22732502D01*
X251614672Y-22948376D01*
X251779102Y-23140898D01*
X251971624Y-23305328D01*
X252187498Y-23437616D01*
X252192068Y-23439509D01*
X252192072Y-23439511D01*
X252416836Y-23532611D01*
X252421409Y-23534505D01*
X252488513Y-23550615D01*
X252662784Y-23592454D01*
X252662790Y-23592455D01*
X252667597Y-23593609D01*
X252920000Y-23613474D01*
X253172403Y-23593609D01*
X253177210Y-23592455D01*
X253177216Y-23592454D01*
X253351487Y-23550615D01*
X253418591Y-23534505D01*
X253423164Y-23532611D01*
X253647928Y-23439511D01*
X253647932Y-23439509D01*
X253652502Y-23437616D01*
X253868376Y-23305328D01*
X254060898Y-23140898D01*
X254225328Y-22948376D01*
X254357616Y-22732502D01*
X254365685Y-22713023D01*
X254452611Y-22503164D01*
X254452612Y-22503162D01*
X254454505Y-22498591D01*
X254506181Y-22283344D01*
X254512454Y-22257216D01*
X254512455Y-22257210D01*
X254513609Y-22252403D01*
X254533474Y-22000000D01*
X254513609Y-21747597D01*
X254506949Y-21719853D01*
X254465156Y-21545775D01*
X254454505Y-21501409D01*
X254422048Y-21423051D01*
X254359511Y-21272072D01*
X254359509Y-21272068D01*
X254357616Y-21267498D01*
X254225328Y-21051624D01*
X254060898Y-20859102D01*
X253909518Y-20729810D01*
X253870709Y-20670360D01*
X253870203Y-20599366D01*
X253908159Y-20539367D01*
X253972527Y-20509414D01*
X253991349Y-20508000D01*
X261402055Y-20508000D01*
X261470176Y-20528002D01*
X261516669Y-20581658D01*
X261526773Y-20651932D01*
X261520037Y-20678229D01*
X261481029Y-20782282D01*
X261481027Y-20782288D01*
X261478255Y-20789684D01*
X261471500Y-20851866D01*
X261471500Y-23148134D01*
X261478255Y-23210316D01*
X261529385Y-23346705D01*
X261616739Y-23463261D01*
X261733295Y-23550615D01*
X261869684Y-23601745D01*
X261931866Y-23608500D01*
X264228134Y-23608500D01*
X264290316Y-23601745D01*
X264297717Y-23598970D01*
X264297719Y-23598970D01*
X264321769Y-23589954D01*
X264392576Y-23584770D01*
X264454946Y-23618690D01*
X264489075Y-23680945D01*
X264492000Y-23707935D01*
X264492000Y-46334983D01*
X264471998Y-46403104D01*
X264418342Y-46449597D01*
X264348068Y-46459701D01*
X264283488Y-46430207D01*
X264270189Y-46416814D01*
X264224106Y-46362858D01*
X264220898Y-46359102D01*
X264028376Y-46194672D01*
X263812502Y-46062384D01*
X263807932Y-46060491D01*
X263807928Y-46060489D01*
X263583164Y-45967389D01*
X263583162Y-45967388D01*
X263578591Y-45965495D01*
X263493968Y-45945179D01*
X263337216Y-45907546D01*
X263337210Y-45907545D01*
X263332403Y-45906391D01*
X263080000Y-45886526D01*
X262827597Y-45906391D01*
X262822790Y-45907545D01*
X262822784Y-45907546D01*
X262666032Y-45945179D01*
X262581409Y-45965495D01*
X262576838Y-45967388D01*
X262576836Y-45967389D01*
X262352072Y-46060489D01*
X262352068Y-46060491D01*
X262347498Y-46062384D01*
X262131624Y-46194672D01*
X261939102Y-46359102D01*
X261774672Y-46551624D01*
X261642384Y-46767498D01*
X261640491Y-46772068D01*
X261640489Y-46772072D01*
X261575174Y-46929757D01*
X261545495Y-47001409D01*
X261544340Y-47006221D01*
X261491188Y-47227617D01*
X261486391Y-47247597D01*
X261466526Y-47500000D01*
X261486391Y-47752403D01*
X261487545Y-47757210D01*
X261487546Y-47757216D01*
X261504382Y-47827342D01*
X261545495Y-47998591D01*
X261547388Y-48003162D01*
X261547389Y-48003164D01*
X261596443Y-48121590D01*
X261642384Y-48232502D01*
X261774672Y-48448376D01*
X261939102Y-48640898D01*
X262131624Y-48805328D01*
X262347498Y-48937616D01*
X262352068Y-48939509D01*
X262352072Y-48939511D01*
X262576836Y-49032611D01*
X262581409Y-49034505D01*
X262648513Y-49050615D01*
X262822784Y-49092454D01*
X262822790Y-49092455D01*
X262827597Y-49093609D01*
X263080000Y-49113474D01*
X263332403Y-49093609D01*
X263337210Y-49092455D01*
X263337216Y-49092454D01*
X263511487Y-49050615D01*
X263578591Y-49034505D01*
X263583164Y-49032611D01*
X263807928Y-48939511D01*
X263807932Y-48939509D01*
X263812502Y-48937616D01*
X264028376Y-48805328D01*
X264220898Y-48640898D01*
X264270189Y-48583186D01*
X264329640Y-48544377D01*
X264400635Y-48543871D01*
X264460633Y-48581827D01*
X264490586Y-48646196D01*
X264492000Y-48665017D01*
X264492000Y-49366000D01*
X264471998Y-49434121D01*
X264418342Y-49480614D01*
X264366000Y-49492000D01*
X244254500Y-49492000D01*
X244186379Y-49471998D01*
X244139886Y-49418342D01*
X244129782Y-49348068D01*
X244159276Y-49283488D01*
X244221889Y-49244293D01*
X244253933Y-49235707D01*
X244253935Y-49235706D01*
X244259243Y-49234284D01*
X244272359Y-49228168D01*
X244461762Y-49139849D01*
X244461767Y-49139846D01*
X244466749Y-49137523D01*
X244613874Y-49034505D01*
X244649789Y-49009357D01*
X244649792Y-49009355D01*
X244654300Y-49006198D01*
X244816198Y-48844300D01*
X244820402Y-48838297D01*
X244910015Y-48710316D01*
X244947523Y-48656749D01*
X244949846Y-48651767D01*
X244949849Y-48651762D01*
X244951541Y-48648134D01*
X251311500Y-48648134D01*
X251318255Y-48710316D01*
X251369385Y-48846705D01*
X251456739Y-48963261D01*
X251573295Y-49050615D01*
X251709684Y-49101745D01*
X251771866Y-49108500D01*
X254068134Y-49108500D01*
X254130316Y-49101745D01*
X254266705Y-49050615D01*
X254383261Y-48963261D01*
X254470615Y-48846705D01*
X254521745Y-48710316D01*
X254528500Y-48648134D01*
X254528500Y-46351866D01*
X254521745Y-46289684D01*
X254470615Y-46153295D01*
X254383261Y-46036739D01*
X254266705Y-45949385D01*
X254130316Y-45898255D01*
X254068134Y-45891500D01*
X251771866Y-45891500D01*
X251709684Y-45898255D01*
X251573295Y-45949385D01*
X251456739Y-46036739D01*
X251369385Y-46153295D01*
X251318255Y-46289684D01*
X251311500Y-46351866D01*
X251311500Y-48648134D01*
X244951541Y-48648134D01*
X245041961Y-48454225D01*
X245041961Y-48454224D01*
X245044284Y-48449243D01*
X245064976Y-48372022D01*
X245102119Y-48233402D01*
X245102119Y-48233400D01*
X245103543Y-48228087D01*
X245123498Y-48000000D01*
X245103543Y-47771913D01*
X245066981Y-47635461D01*
X245045707Y-47556067D01*
X245045706Y-47556065D01*
X245044284Y-47550757D01*
X245032202Y-47524846D01*
X244949849Y-47348238D01*
X244949846Y-47348233D01*
X244947523Y-47343251D01*
X244816198Y-47155700D01*
X244654300Y-46993802D01*
X244649792Y-46990645D01*
X244649789Y-46990643D01*
X244571611Y-46935902D01*
X244466749Y-46862477D01*
X244461767Y-46860154D01*
X244461762Y-46860151D01*
X244264225Y-46768039D01*
X244264224Y-46768039D01*
X244259243Y-46765716D01*
X244253935Y-46764294D01*
X244253933Y-46764293D01*
X244043402Y-46707881D01*
X244043400Y-46707881D01*
X244038087Y-46706457D01*
X243810000Y-46686502D01*
X243581913Y-46706457D01*
X243576600Y-46707881D01*
X243576598Y-46707881D01*
X243366067Y-46764293D01*
X243366065Y-46764294D01*
X243360757Y-46765716D01*
X243355776Y-46768039D01*
X243355775Y-46768039D01*
X243158238Y-46860151D01*
X243158233Y-46860154D01*
X243153251Y-46862477D01*
X243048389Y-46935902D01*
X242970211Y-46990643D01*
X242970208Y-46990645D01*
X242965700Y-46993802D01*
X242803802Y-47155700D01*
X242672477Y-47343251D01*
X242670154Y-47348233D01*
X242670151Y-47348238D01*
X242587798Y-47524846D01*
X242575716Y-47550757D01*
X242574294Y-47556065D01*
X242574293Y-47556067D01*
X242553019Y-47635461D01*
X242516457Y-47771913D01*
X242496502Y-48000000D01*
X242516457Y-48228087D01*
X242517881Y-48233400D01*
X242517881Y-48233402D01*
X242555025Y-48372022D01*
X242575716Y-48449243D01*
X242578039Y-48454224D01*
X242578039Y-48454225D01*
X242670151Y-48651762D01*
X242670154Y-48651767D01*
X242672477Y-48656749D01*
X242709985Y-48710316D01*
X242799599Y-48838297D01*
X242803802Y-48844300D01*
X242965700Y-49006198D01*
X242970208Y-49009355D01*
X242970211Y-49009357D01*
X243006126Y-49034505D01*
X243153251Y-49137523D01*
X243158233Y-49139846D01*
X243158238Y-49139849D01*
X243347641Y-49228168D01*
X243360757Y-49234284D01*
X243366065Y-49235706D01*
X243366067Y-49235707D01*
X243398111Y-49244293D01*
X243458734Y-49281245D01*
X243489755Y-49345105D01*
X243481327Y-49415600D01*
X243436124Y-49470347D01*
X243365500Y-49492000D01*
X236632570Y-49492000D01*
X236564449Y-49471998D01*
X236517956Y-49418342D01*
X236507852Y-49348068D01*
X236537346Y-49283488D01*
X236599959Y-49244293D01*
X236633761Y-49235236D01*
X236644053Y-49231490D01*
X236841511Y-49139414D01*
X236851006Y-49133931D01*
X236903048Y-49097491D01*
X236911424Y-49087012D01*
X236904356Y-49073566D01*
X236202812Y-48372022D01*
X236188868Y-48364408D01*
X236187035Y-48364539D01*
X236180420Y-48368790D01*
X235474923Y-49074287D01*
X235468493Y-49086062D01*
X235477789Y-49098077D01*
X235528994Y-49133931D01*
X235538489Y-49139414D01*
X235735947Y-49231490D01*
X235746239Y-49235236D01*
X235780041Y-49244293D01*
X235840664Y-49281245D01*
X235871685Y-49345105D01*
X235863257Y-49415600D01*
X235818054Y-49470347D01*
X235747430Y-49492000D01*
X225698408Y-49492000D01*
X225630287Y-49471998D01*
X225583794Y-49418342D01*
X225573690Y-49348068D01*
X225603184Y-49283488D01*
X225642972Y-49252851D01*
X225697994Y-49225896D01*
X225879860Y-49096173D01*
X225890007Y-49086062D01*
X226034435Y-48942137D01*
X226038096Y-48938489D01*
X226042426Y-48932464D01*
X226165435Y-48761277D01*
X226168453Y-48757077D01*
X226175963Y-48741883D01*
X226265136Y-48561453D01*
X226265137Y-48561451D01*
X226267430Y-48556811D01*
X226300375Y-48448376D01*
X226330865Y-48348023D01*
X226330865Y-48348021D01*
X226332370Y-48343069D01*
X226361529Y-48121590D01*
X226363156Y-48055000D01*
X226361345Y-48032966D01*
X227668257Y-48032966D01*
X227698565Y-48167446D01*
X227701645Y-48177275D01*
X227781770Y-48374603D01*
X227786413Y-48383794D01*
X227897694Y-48565388D01*
X227903777Y-48573699D01*
X228043213Y-48734667D01*
X228050580Y-48741883D01*
X228214434Y-48877916D01*
X228222881Y-48883831D01*
X228406756Y-48991279D01*
X228416042Y-48995729D01*
X228615001Y-49071703D01*
X228624899Y-49074579D01*
X228728250Y-49095606D01*
X228742299Y-49094410D01*
X228746000Y-49084065D01*
X228746000Y-49083517D01*
X229254000Y-49083517D01*
X229258064Y-49097359D01*
X229271478Y-49099393D01*
X229278184Y-49098534D01*
X229288262Y-49096392D01*
X229492255Y-49035191D01*
X229501842Y-49031433D01*
X229693095Y-48937739D01*
X229701945Y-48932464D01*
X229875328Y-48808792D01*
X229883200Y-48802139D01*
X230034052Y-48651812D01*
X230040730Y-48643965D01*
X230165003Y-48471020D01*
X230170313Y-48462183D01*
X230264670Y-48271267D01*
X230268469Y-48261672D01*
X230330377Y-48057910D01*
X230332555Y-48047837D01*
X230333986Y-48036962D01*
X230333363Y-48032966D01*
X231668257Y-48032966D01*
X231698565Y-48167446D01*
X231701645Y-48177275D01*
X231781770Y-48374603D01*
X231786413Y-48383794D01*
X231897694Y-48565388D01*
X231903777Y-48573699D01*
X232043213Y-48734667D01*
X232050580Y-48741883D01*
X232214434Y-48877916D01*
X232222881Y-48883831D01*
X232406756Y-48991279D01*
X232416042Y-48995729D01*
X232615001Y-49071703D01*
X232624899Y-49074579D01*
X232728250Y-49095606D01*
X232742299Y-49094410D01*
X232746000Y-49084065D01*
X232746000Y-49083517D01*
X233254000Y-49083517D01*
X233258064Y-49097359D01*
X233271478Y-49099393D01*
X233278184Y-49098534D01*
X233288262Y-49096392D01*
X233492255Y-49035191D01*
X233501842Y-49031433D01*
X233693095Y-48937739D01*
X233701945Y-48932464D01*
X233875328Y-48808792D01*
X233883200Y-48802139D01*
X234034052Y-48651812D01*
X234040730Y-48643965D01*
X234165003Y-48471020D01*
X234170313Y-48462183D01*
X234264670Y-48271267D01*
X234268469Y-48261672D01*
X234330377Y-48057910D01*
X234332555Y-48047837D01*
X234333986Y-48036962D01*
X234331775Y-48022778D01*
X234318617Y-48019000D01*
X233272115Y-48019000D01*
X233256876Y-48023475D01*
X233255671Y-48024865D01*
X233254000Y-48032548D01*
X233254000Y-49083517D01*
X232746000Y-49083517D01*
X232746000Y-48037115D01*
X232741525Y-48021876D01*
X232740135Y-48020671D01*
X232732452Y-48019000D01*
X231683225Y-48019000D01*
X231669694Y-48022973D01*
X231668257Y-48032966D01*
X230333363Y-48032966D01*
X230331775Y-48022778D01*
X230318617Y-48019000D01*
X229272115Y-48019000D01*
X229256876Y-48023475D01*
X229255671Y-48024865D01*
X229254000Y-48032548D01*
X229254000Y-49083517D01*
X228746000Y-49083517D01*
X228746000Y-48037115D01*
X228741525Y-48021876D01*
X228740135Y-48020671D01*
X228732452Y-48019000D01*
X227683225Y-48019000D01*
X227669694Y-48022973D01*
X227668257Y-48032966D01*
X226361345Y-48032966D01*
X226359085Y-48005475D01*
X234877483Y-48005475D01*
X234896472Y-48222519D01*
X234898375Y-48233312D01*
X234954764Y-48443761D01*
X234958510Y-48454053D01*
X235050586Y-48651511D01*
X235056069Y-48661006D01*
X235092509Y-48713048D01*
X235102988Y-48721424D01*
X235116434Y-48714356D01*
X235817978Y-48012812D01*
X235824356Y-48001132D01*
X236554408Y-48001132D01*
X236554539Y-48002965D01*
X236558790Y-48009580D01*
X237264287Y-48715077D01*
X237276062Y-48721507D01*
X237288077Y-48712211D01*
X237323931Y-48661006D01*
X237329414Y-48651511D01*
X237421490Y-48454053D01*
X237425236Y-48443761D01*
X237481625Y-48233312D01*
X237483528Y-48222519D01*
X237502517Y-48005475D01*
X237502517Y-47994525D01*
X237483528Y-47777481D01*
X237481625Y-47766688D01*
X237425236Y-47556239D01*
X237421490Y-47545947D01*
X237329414Y-47348489D01*
X237323931Y-47338994D01*
X237287491Y-47286952D01*
X237277012Y-47278576D01*
X237263566Y-47285644D01*
X236562022Y-47987188D01*
X236554408Y-48001132D01*
X235824356Y-48001132D01*
X235825592Y-47998868D01*
X235825461Y-47997035D01*
X235821210Y-47990420D01*
X235115713Y-47284923D01*
X235103938Y-47278493D01*
X235091923Y-47287789D01*
X235056069Y-47338994D01*
X235050586Y-47348489D01*
X234958510Y-47545947D01*
X234954764Y-47556239D01*
X234898375Y-47766688D01*
X234896472Y-47777481D01*
X234877483Y-47994525D01*
X234877483Y-48005475D01*
X226359085Y-48005475D01*
X226344852Y-47832361D01*
X226290431Y-47615702D01*
X226201354Y-47410840D01*
X226143314Y-47321124D01*
X226082822Y-47227617D01*
X226082820Y-47227614D01*
X226080014Y-47223277D01*
X225929670Y-47058051D01*
X225925619Y-47054852D01*
X225925615Y-47054848D01*
X225758414Y-46922800D01*
X225758410Y-46922798D01*
X225754359Y-46919598D01*
X225713053Y-46896796D01*
X225663084Y-46846364D01*
X225648312Y-46776921D01*
X225673428Y-46710516D01*
X225700780Y-46683909D01*
X225766077Y-46637333D01*
X225879860Y-46556173D01*
X226038096Y-46398489D01*
X226068704Y-46355894D01*
X226165435Y-46221277D01*
X226168453Y-46217077D01*
X226180494Y-46192715D01*
X226214883Y-46123134D01*
X227641500Y-46123134D01*
X227648255Y-46185316D01*
X227699385Y-46321705D01*
X227786739Y-46438261D01*
X227903295Y-46525615D01*
X227911704Y-46528767D01*
X227911705Y-46528768D01*
X228020960Y-46569726D01*
X228077725Y-46612367D01*
X228102425Y-46678929D01*
X228087218Y-46748278D01*
X228067825Y-46774759D01*
X227944590Y-46903717D01*
X227938104Y-46911727D01*
X227818098Y-47087649D01*
X227813000Y-47096623D01*
X227723338Y-47289783D01*
X227719775Y-47299470D01*
X227664389Y-47499183D01*
X227665912Y-47507607D01*
X227678292Y-47511000D01*
X230318344Y-47511000D01*
X230331875Y-47507027D01*
X230333180Y-47497947D01*
X230291214Y-47330875D01*
X230287894Y-47321124D01*
X230202972Y-47125814D01*
X230198105Y-47116739D01*
X230082426Y-46937926D01*
X230076136Y-46929757D01*
X229932293Y-46771677D01*
X229901241Y-46707831D01*
X229909635Y-46637333D01*
X229954812Y-46582564D01*
X229981256Y-46568895D01*
X230088297Y-46528767D01*
X230096705Y-46525615D01*
X230213261Y-46438261D01*
X230300615Y-46321705D01*
X230351745Y-46185316D01*
X230358500Y-46123134D01*
X231641500Y-46123134D01*
X231648255Y-46185316D01*
X231699385Y-46321705D01*
X231786739Y-46438261D01*
X231903295Y-46525615D01*
X231911704Y-46528767D01*
X231911705Y-46528768D01*
X232020960Y-46569726D01*
X232077725Y-46612367D01*
X232102425Y-46678929D01*
X232087218Y-46748278D01*
X232067825Y-46774759D01*
X231944590Y-46903717D01*
X231938104Y-46911727D01*
X231818098Y-47087649D01*
X231813000Y-47096623D01*
X231723338Y-47289783D01*
X231719775Y-47299470D01*
X231664389Y-47499183D01*
X231665912Y-47507607D01*
X231678292Y-47511000D01*
X234318344Y-47511000D01*
X234331875Y-47507027D01*
X234333180Y-47497947D01*
X234291214Y-47330875D01*
X234287894Y-47321124D01*
X234202972Y-47125814D01*
X234198105Y-47116739D01*
X234082426Y-46937926D01*
X234076136Y-46929757D01*
X234060877Y-46912988D01*
X235468576Y-46912988D01*
X235475644Y-46926434D01*
X236177188Y-47627978D01*
X236191132Y-47635592D01*
X236192965Y-47635461D01*
X236199580Y-47631210D01*
X236905077Y-46925713D01*
X236911507Y-46913938D01*
X236902211Y-46901923D01*
X236851006Y-46866069D01*
X236841511Y-46860586D01*
X236644053Y-46768510D01*
X236633761Y-46764764D01*
X236423312Y-46708375D01*
X236412519Y-46706472D01*
X236195475Y-46687483D01*
X236184525Y-46687483D01*
X235967481Y-46706472D01*
X235956688Y-46708375D01*
X235746239Y-46764764D01*
X235735947Y-46768510D01*
X235538489Y-46860586D01*
X235528994Y-46866069D01*
X235476952Y-46902509D01*
X235468576Y-46912988D01*
X234060877Y-46912988D01*
X233932293Y-46771677D01*
X233901241Y-46707831D01*
X233909635Y-46637333D01*
X233954812Y-46582564D01*
X233981256Y-46568895D01*
X234088297Y-46528767D01*
X234096705Y-46525615D01*
X234213261Y-46438261D01*
X234300615Y-46321705D01*
X234351745Y-46185316D01*
X234358500Y-46123134D01*
X234358500Y-44500000D01*
X234876502Y-44500000D01*
X234896457Y-44728087D01*
X234897881Y-44733400D01*
X234897881Y-44733402D01*
X234935981Y-44875590D01*
X234955716Y-44949243D01*
X234958039Y-44954224D01*
X234958039Y-44954225D01*
X235050151Y-45151762D01*
X235050154Y-45151767D01*
X235052477Y-45156749D01*
X235055634Y-45161257D01*
X235154005Y-45301745D01*
X235183802Y-45344300D01*
X235345700Y-45506198D01*
X235350208Y-45509355D01*
X235350211Y-45509357D01*
X235363076Y-45518365D01*
X235533251Y-45637523D01*
X235538233Y-45639846D01*
X235538238Y-45639849D01*
X235734765Y-45731490D01*
X235740757Y-45734284D01*
X235746065Y-45735706D01*
X235746067Y-45735707D01*
X235956598Y-45792119D01*
X235956600Y-45792119D01*
X235961913Y-45793543D01*
X236190000Y-45813498D01*
X236418087Y-45793543D01*
X236423400Y-45792119D01*
X236423402Y-45792119D01*
X236633933Y-45735707D01*
X236633935Y-45735706D01*
X236639243Y-45734284D01*
X236645235Y-45731490D01*
X236841762Y-45639849D01*
X236841767Y-45639846D01*
X236846749Y-45637523D01*
X236920243Y-45586062D01*
X243088493Y-45586062D01*
X243097789Y-45598077D01*
X243148994Y-45633931D01*
X243158489Y-45639414D01*
X243355947Y-45731490D01*
X243366239Y-45735236D01*
X243576688Y-45791625D01*
X243587481Y-45793528D01*
X243804525Y-45812517D01*
X243815475Y-45812517D01*
X244032519Y-45793528D01*
X244043312Y-45791625D01*
X244253761Y-45735236D01*
X244264053Y-45731490D01*
X244461511Y-45639414D01*
X244471006Y-45633931D01*
X244523048Y-45597491D01*
X244531424Y-45587012D01*
X244524356Y-45573566D01*
X243822812Y-44872022D01*
X243808868Y-44864408D01*
X243807035Y-44864539D01*
X243800420Y-44868790D01*
X243094923Y-45574287D01*
X243088493Y-45586062D01*
X236920243Y-45586062D01*
X237016924Y-45518365D01*
X237029789Y-45509357D01*
X237029792Y-45509355D01*
X237034300Y-45506198D01*
X237196198Y-45344300D01*
X237225996Y-45301745D01*
X237324366Y-45161257D01*
X237327523Y-45156749D01*
X237329846Y-45151767D01*
X237329849Y-45151762D01*
X237421961Y-44954225D01*
X237421961Y-44954224D01*
X237424284Y-44949243D01*
X237444020Y-44875590D01*
X237482119Y-44733402D01*
X237482119Y-44733400D01*
X237483543Y-44728087D01*
X237503019Y-44505475D01*
X242497483Y-44505475D01*
X242516472Y-44722519D01*
X242518375Y-44733312D01*
X242574764Y-44943761D01*
X242578510Y-44954053D01*
X242670586Y-45151511D01*
X242676069Y-45161006D01*
X242712509Y-45213048D01*
X242722988Y-45221424D01*
X242736434Y-45214356D01*
X243437978Y-44512812D01*
X243444356Y-44501132D01*
X244174408Y-44501132D01*
X244174539Y-44502965D01*
X244178790Y-44509580D01*
X244884287Y-45215077D01*
X244896062Y-45221507D01*
X244908077Y-45212211D01*
X244943931Y-45161006D01*
X244949414Y-45151511D01*
X245041490Y-44954053D01*
X245045236Y-44943761D01*
X245101625Y-44733312D01*
X245103528Y-44722519D01*
X245122517Y-44505475D01*
X245122517Y-44494525D01*
X245103528Y-44277481D01*
X245101625Y-44266688D01*
X245045236Y-44056239D01*
X245041490Y-44045947D01*
X245020065Y-44000000D01*
X246141615Y-44000000D01*
X246161570Y-44228087D01*
X246162994Y-44233400D01*
X246162994Y-44233402D01*
X246202168Y-44379598D01*
X246220829Y-44449243D01*
X246223152Y-44454224D01*
X246223152Y-44454225D01*
X246315264Y-44651762D01*
X246315267Y-44651767D01*
X246317590Y-44656749D01*
X246448915Y-44844300D01*
X246610813Y-45006198D01*
X246615321Y-45009355D01*
X246615324Y-45009357D01*
X246692971Y-45063726D01*
X246798364Y-45137523D01*
X246803346Y-45139846D01*
X246803351Y-45139849D01*
X246963134Y-45214356D01*
X247005870Y-45234284D01*
X247011178Y-45235706D01*
X247011180Y-45235707D01*
X247221711Y-45292119D01*
X247221713Y-45292119D01*
X247227026Y-45293543D01*
X247455113Y-45313498D01*
X247683200Y-45293543D01*
X247688513Y-45292119D01*
X247688515Y-45292119D01*
X247899046Y-45235707D01*
X247899048Y-45235706D01*
X247904356Y-45234284D01*
X247947092Y-45214356D01*
X248106875Y-45139849D01*
X248106880Y-45139846D01*
X248111862Y-45137523D01*
X248117315Y-45133705D01*
X248117799Y-45133541D01*
X248121132Y-45131617D01*
X248121519Y-45132287D01*
X248184587Y-45111012D01*
X248253448Y-45128293D01*
X248278850Y-45151002D01*
X248280121Y-45149731D01*
X248286471Y-45156081D01*
X248291852Y-45163261D01*
X248408408Y-45250615D01*
X248544797Y-45301745D01*
X248606979Y-45308500D01*
X250303247Y-45308500D01*
X250365429Y-45301745D01*
X250501818Y-45250615D01*
X250618374Y-45163261D01*
X250705728Y-45046705D01*
X250756858Y-44910316D01*
X250763613Y-44848134D01*
X250763613Y-43151866D01*
X250756858Y-43089684D01*
X250705728Y-42953295D01*
X250618374Y-42836739D01*
X250501818Y-42749385D01*
X250365429Y-42698255D01*
X250303247Y-42691500D01*
X248606979Y-42691500D01*
X248544797Y-42698255D01*
X248408408Y-42749385D01*
X248291852Y-42836739D01*
X248286471Y-42843919D01*
X248280121Y-42850269D01*
X248277881Y-42848029D01*
X248233548Y-42881171D01*
X248162729Y-42886190D01*
X248121323Y-42868051D01*
X248121132Y-42868383D01*
X248118149Y-42866661D01*
X248117316Y-42866296D01*
X248111862Y-42862477D01*
X248106880Y-42860154D01*
X248106875Y-42860151D01*
X247909338Y-42768039D01*
X247909337Y-42768039D01*
X247904356Y-42765716D01*
X247899048Y-42764294D01*
X247899046Y-42764293D01*
X247688515Y-42707881D01*
X247688513Y-42707881D01*
X247683200Y-42706457D01*
X247455113Y-42686502D01*
X247227026Y-42706457D01*
X247221713Y-42707881D01*
X247221711Y-42707881D01*
X247011180Y-42764293D01*
X247011178Y-42764294D01*
X247005870Y-42765716D01*
X247000889Y-42768039D01*
X247000888Y-42768039D01*
X246803351Y-42860151D01*
X246803346Y-42860154D01*
X246798364Y-42862477D01*
X246693502Y-42935902D01*
X246615324Y-42990643D01*
X246615321Y-42990645D01*
X246610813Y-42993802D01*
X246448915Y-43155700D01*
X246317590Y-43343251D01*
X246315267Y-43348233D01*
X246315264Y-43348238D01*
X246278801Y-43426434D01*
X246220829Y-43550757D01*
X246219407Y-43556065D01*
X246219406Y-43556067D01*
X246192709Y-43655700D01*
X246161570Y-43771913D01*
X246141615Y-44000000D01*
X245020065Y-44000000D01*
X244949414Y-43848489D01*
X244943931Y-43838994D01*
X244907491Y-43786952D01*
X244897012Y-43778576D01*
X244883566Y-43785644D01*
X244182022Y-44487188D01*
X244174408Y-44501132D01*
X243444356Y-44501132D01*
X243445592Y-44498868D01*
X243445461Y-44497035D01*
X243441210Y-44490420D01*
X242735713Y-43784923D01*
X242723938Y-43778493D01*
X242711923Y-43787789D01*
X242676069Y-43838994D01*
X242670586Y-43848489D01*
X242578510Y-44045947D01*
X242574764Y-44056239D01*
X242518375Y-44266688D01*
X242516472Y-44277481D01*
X242497483Y-44494525D01*
X242497483Y-44505475D01*
X237503019Y-44505475D01*
X237503498Y-44500000D01*
X237483543Y-44271913D01*
X237479911Y-44258357D01*
X237425707Y-44056067D01*
X237425706Y-44056065D01*
X237424284Y-44050757D01*
X237367868Y-43929771D01*
X237329849Y-43848238D01*
X237329846Y-43848233D01*
X237327523Y-43843251D01*
X237196198Y-43655700D01*
X237034300Y-43493802D01*
X237029792Y-43490645D01*
X237029789Y-43490643D01*
X236918886Y-43412988D01*
X243088576Y-43412988D01*
X243095644Y-43426434D01*
X243797188Y-44127978D01*
X243811132Y-44135592D01*
X243812965Y-44135461D01*
X243819580Y-44131210D01*
X244525077Y-43425713D01*
X244531507Y-43413938D01*
X244522211Y-43401923D01*
X244471006Y-43366069D01*
X244461511Y-43360586D01*
X244264053Y-43268510D01*
X244253761Y-43264764D01*
X244043312Y-43208375D01*
X244032519Y-43206472D01*
X243815475Y-43187483D01*
X243804525Y-43187483D01*
X243587481Y-43206472D01*
X243576688Y-43208375D01*
X243366239Y-43264764D01*
X243355947Y-43268510D01*
X243158489Y-43360586D01*
X243148994Y-43366069D01*
X243096952Y-43402509D01*
X243088576Y-43412988D01*
X236918886Y-43412988D01*
X236903920Y-43402509D01*
X236846749Y-43362477D01*
X236841767Y-43360154D01*
X236841762Y-43360151D01*
X236644225Y-43268039D01*
X236644224Y-43268039D01*
X236639243Y-43265716D01*
X236633935Y-43264294D01*
X236633933Y-43264293D01*
X236423402Y-43207881D01*
X236423400Y-43207881D01*
X236418087Y-43206457D01*
X236190000Y-43186502D01*
X235961913Y-43206457D01*
X235956600Y-43207881D01*
X235956598Y-43207881D01*
X235746067Y-43264293D01*
X235746065Y-43264294D01*
X235740757Y-43265716D01*
X235735776Y-43268039D01*
X235735775Y-43268039D01*
X235538238Y-43360151D01*
X235538233Y-43360154D01*
X235533251Y-43362477D01*
X235476080Y-43402509D01*
X235350211Y-43490643D01*
X235350208Y-43490645D01*
X235345700Y-43493802D01*
X235183802Y-43655700D01*
X235052477Y-43843251D01*
X235050154Y-43848233D01*
X235050151Y-43848238D01*
X235012132Y-43929771D01*
X234955716Y-44050757D01*
X234954294Y-44056065D01*
X234954293Y-44056067D01*
X234900089Y-44258357D01*
X234896457Y-44271913D01*
X234876502Y-44500000D01*
X234358500Y-44500000D01*
X234358500Y-44326866D01*
X234351745Y-44264684D01*
X234300615Y-44128295D01*
X234213261Y-44011739D01*
X234096705Y-43924385D01*
X233960316Y-43873255D01*
X233898134Y-43866500D01*
X232101866Y-43866500D01*
X232039684Y-43873255D01*
X231903295Y-43924385D01*
X231786739Y-44011739D01*
X231699385Y-44128295D01*
X231648255Y-44264684D01*
X231641500Y-44326866D01*
X231641500Y-46123134D01*
X230358500Y-46123134D01*
X230358500Y-44326866D01*
X230351745Y-44264684D01*
X230300615Y-44128295D01*
X230213261Y-44011739D01*
X230096705Y-43924385D01*
X229960316Y-43873255D01*
X229898134Y-43866500D01*
X228101866Y-43866500D01*
X228039684Y-43873255D01*
X227903295Y-43924385D01*
X227786739Y-44011739D01*
X227699385Y-44128295D01*
X227648255Y-44264684D01*
X227641500Y-44326866D01*
X227641500Y-46123134D01*
X226214883Y-46123134D01*
X226265136Y-46021453D01*
X226265137Y-46021451D01*
X226267430Y-46016811D01*
X226307014Y-45886526D01*
X226330865Y-45808023D01*
X226330865Y-45808021D01*
X226332370Y-45803069D01*
X226361529Y-45581590D01*
X226361611Y-45578240D01*
X226363074Y-45518365D01*
X226363074Y-45518361D01*
X226363156Y-45515000D01*
X226344852Y-45292361D01*
X226290431Y-45075702D01*
X226201354Y-44870840D01*
X226161906Y-44809862D01*
X226082822Y-44687617D01*
X226082820Y-44687614D01*
X226080014Y-44683277D01*
X226076540Y-44679459D01*
X226076533Y-44679450D01*
X225932435Y-44521088D01*
X225901383Y-44457242D01*
X225909779Y-44386744D01*
X225954956Y-44331976D01*
X225981400Y-44318307D01*
X226088052Y-44278325D01*
X226103649Y-44269786D01*
X226205724Y-44193285D01*
X226218285Y-44180724D01*
X226294786Y-44078649D01*
X226303324Y-44063054D01*
X226348478Y-43942606D01*
X226352105Y-43927351D01*
X226357631Y-43876486D01*
X226358000Y-43869672D01*
X226358000Y-43247115D01*
X226353525Y-43231876D01*
X226352135Y-43230671D01*
X226344452Y-43229000D01*
X224872000Y-43229000D01*
X224803879Y-43208998D01*
X224757386Y-43155342D01*
X224746000Y-43103000D01*
X224746000Y-42702885D01*
X225254000Y-42702885D01*
X225258475Y-42718124D01*
X225259865Y-42719329D01*
X225267548Y-42721000D01*
X226339884Y-42721000D01*
X226355123Y-42716525D01*
X226356328Y-42715135D01*
X226357999Y-42707452D01*
X226357999Y-42080331D01*
X226357629Y-42073510D01*
X226352105Y-42022648D01*
X226348479Y-42007396D01*
X226303324Y-41886946D01*
X226294786Y-41871351D01*
X226218285Y-41769276D01*
X226205724Y-41756715D01*
X226103649Y-41680214D01*
X226088054Y-41671676D01*
X225967606Y-41626522D01*
X225952351Y-41622895D01*
X225901486Y-41617369D01*
X225894672Y-41617000D01*
X225272115Y-41617000D01*
X225256876Y-41621475D01*
X225255671Y-41622865D01*
X225254000Y-41630548D01*
X225254000Y-42702885D01*
X224746000Y-42702885D01*
X224746000Y-41635116D01*
X224741525Y-41619877D01*
X224740135Y-41618672D01*
X224732452Y-41617001D01*
X224105331Y-41617001D01*
X224098510Y-41617371D01*
X224047648Y-41622895D01*
X224032396Y-41626521D01*
X223911946Y-41671676D01*
X223896351Y-41680214D01*
X223794276Y-41756715D01*
X223781715Y-41769276D01*
X223734826Y-41831840D01*
X223677967Y-41874355D01*
X223607149Y-41879381D01*
X223544855Y-41845321D01*
X223510865Y-41782990D01*
X223508000Y-41756275D01*
X223508000Y-38754500D01*
X223528002Y-38686379D01*
X223581658Y-38639886D01*
X223651932Y-38629782D01*
X223716512Y-38659276D01*
X223755707Y-38721889D01*
X223765716Y-38759243D01*
X223768039Y-38764224D01*
X223768039Y-38764225D01*
X223860151Y-38961762D01*
X223860154Y-38961767D01*
X223862477Y-38966749D01*
X223993802Y-39154300D01*
X224155700Y-39316198D01*
X224160208Y-39319355D01*
X224160211Y-39319357D01*
X224201399Y-39348197D01*
X224343251Y-39447523D01*
X224348233Y-39449846D01*
X224348238Y-39449849D01*
X224475855Y-39509357D01*
X224550757Y-39544284D01*
X224556065Y-39545706D01*
X224556067Y-39545707D01*
X224766598Y-39602119D01*
X224766600Y-39602119D01*
X224771913Y-39603543D01*
X225000000Y-39623498D01*
X225228087Y-39603543D01*
X225233400Y-39602119D01*
X225233402Y-39602119D01*
X225443933Y-39545707D01*
X225443935Y-39545706D01*
X225449243Y-39544284D01*
X225524145Y-39509357D01*
X225651762Y-39449849D01*
X225651767Y-39449846D01*
X225656749Y-39447523D01*
X225730243Y-39396062D01*
X227778493Y-39396062D01*
X227787789Y-39408077D01*
X227838994Y-39443931D01*
X227848489Y-39449414D01*
X228045947Y-39541490D01*
X228056239Y-39545236D01*
X228266688Y-39601625D01*
X228277481Y-39603528D01*
X228494525Y-39622517D01*
X228505475Y-39622517D01*
X228722519Y-39603528D01*
X228733312Y-39601625D01*
X228943761Y-39545236D01*
X228954053Y-39541490D01*
X229151511Y-39449414D01*
X229161006Y-39443931D01*
X229213048Y-39407491D01*
X229221424Y-39397012D01*
X229214356Y-39383566D01*
X228512812Y-38682022D01*
X228498868Y-38674408D01*
X228497035Y-38674539D01*
X228490420Y-38678790D01*
X227784923Y-39384287D01*
X227778493Y-39396062D01*
X225730243Y-39396062D01*
X225798601Y-39348197D01*
X225839789Y-39319357D01*
X225839792Y-39319355D01*
X225844300Y-39316198D01*
X226006198Y-39154300D01*
X226137523Y-38966749D01*
X226139846Y-38961767D01*
X226139849Y-38961762D01*
X226231961Y-38764225D01*
X226231961Y-38764224D01*
X226234284Y-38759243D01*
X226248237Y-38707172D01*
X226292119Y-38543402D01*
X226292119Y-38543400D01*
X226293543Y-38538087D01*
X226313019Y-38315475D01*
X227187483Y-38315475D01*
X227206472Y-38532519D01*
X227208375Y-38543312D01*
X227264764Y-38753761D01*
X227268510Y-38764053D01*
X227360586Y-38961511D01*
X227366069Y-38971006D01*
X227402509Y-39023048D01*
X227412988Y-39031424D01*
X227426434Y-39024356D01*
X228127978Y-38322812D01*
X228134356Y-38311132D01*
X228864408Y-38311132D01*
X228864539Y-38312965D01*
X228868790Y-38319580D01*
X229574287Y-39025077D01*
X229586062Y-39031507D01*
X229598077Y-39022211D01*
X229613629Y-39000000D01*
X234686502Y-39000000D01*
X234706457Y-39228087D01*
X234707881Y-39233400D01*
X234707881Y-39233402D01*
X234764293Y-39443931D01*
X234765716Y-39449243D01*
X234768039Y-39454224D01*
X234768039Y-39454225D01*
X234860151Y-39651762D01*
X234860154Y-39651767D01*
X234862477Y-39656749D01*
X234870268Y-39667875D01*
X234983339Y-39829357D01*
X234993802Y-39844300D01*
X235155700Y-40006198D01*
X235160208Y-40009355D01*
X235160211Y-40009357D01*
X235205729Y-40041229D01*
X235343251Y-40137523D01*
X235348233Y-40139846D01*
X235348238Y-40139849D01*
X235544765Y-40231490D01*
X235550757Y-40234284D01*
X235556065Y-40235706D01*
X235556067Y-40235707D01*
X235766598Y-40292119D01*
X235766600Y-40292119D01*
X235771913Y-40293543D01*
X236000000Y-40313498D01*
X236228087Y-40293543D01*
X236233400Y-40292119D01*
X236233402Y-40292119D01*
X236443933Y-40235707D01*
X236443935Y-40235706D01*
X236449243Y-40234284D01*
X236455235Y-40231490D01*
X236651762Y-40139849D01*
X236651767Y-40139846D01*
X236656749Y-40137523D01*
X236730243Y-40086062D01*
X240278493Y-40086062D01*
X240287789Y-40098077D01*
X240338994Y-40133931D01*
X240348489Y-40139414D01*
X240545947Y-40231490D01*
X240556239Y-40235236D01*
X240766688Y-40291625D01*
X240777481Y-40293528D01*
X240994525Y-40312517D01*
X241005475Y-40312517D01*
X241222519Y-40293528D01*
X241233312Y-40291625D01*
X241443761Y-40235236D01*
X241454053Y-40231490D01*
X241651511Y-40139414D01*
X241661006Y-40133931D01*
X241713048Y-40097491D01*
X241721424Y-40087012D01*
X241714356Y-40073566D01*
X241012812Y-39372022D01*
X240998868Y-39364408D01*
X240997035Y-39364539D01*
X240990420Y-39368790D01*
X240284923Y-40074287D01*
X240278493Y-40086062D01*
X236730243Y-40086062D01*
X236794271Y-40041229D01*
X236839789Y-40009357D01*
X236839792Y-40009355D01*
X236844300Y-40006198D01*
X237006198Y-39844300D01*
X237016662Y-39829357D01*
X237129732Y-39667875D01*
X237137523Y-39656749D01*
X237139846Y-39651767D01*
X237139849Y-39651762D01*
X237231961Y-39454225D01*
X237231961Y-39454224D01*
X237234284Y-39449243D01*
X237235708Y-39443931D01*
X237292119Y-39233402D01*
X237292119Y-39233400D01*
X237293543Y-39228087D01*
X237313019Y-39005475D01*
X239687483Y-39005475D01*
X239706472Y-39222519D01*
X239708375Y-39233312D01*
X239764764Y-39443761D01*
X239768510Y-39454053D01*
X239860586Y-39651511D01*
X239866069Y-39661006D01*
X239902509Y-39713048D01*
X239912988Y-39721424D01*
X239926434Y-39714356D01*
X240627978Y-39012812D01*
X240634356Y-39001132D01*
X241364408Y-39001132D01*
X241364539Y-39002965D01*
X241368790Y-39009580D01*
X242074287Y-39715077D01*
X242086062Y-39721507D01*
X242098077Y-39712211D01*
X242133931Y-39661006D01*
X242139414Y-39651511D01*
X242231490Y-39454053D01*
X242235236Y-39443761D01*
X242291625Y-39233312D01*
X242293528Y-39222519D01*
X242312517Y-39005475D01*
X242312517Y-38994525D01*
X242293528Y-38777481D01*
X242291625Y-38766688D01*
X242235236Y-38556239D01*
X242231490Y-38545947D01*
X242139414Y-38348489D01*
X242133931Y-38338994D01*
X242097491Y-38286952D01*
X242087012Y-38278576D01*
X242073566Y-38285644D01*
X241372022Y-38987188D01*
X241364408Y-39001132D01*
X240634356Y-39001132D01*
X240635592Y-38998868D01*
X240635461Y-38997035D01*
X240631210Y-38990420D01*
X239925713Y-38284923D01*
X239913938Y-38278493D01*
X239901923Y-38287789D01*
X239866069Y-38338994D01*
X239860586Y-38348489D01*
X239768510Y-38545947D01*
X239764764Y-38556239D01*
X239708375Y-38766688D01*
X239706472Y-38777481D01*
X239687483Y-38994525D01*
X239687483Y-39005475D01*
X237313019Y-39005475D01*
X237313498Y-39000000D01*
X237293543Y-38771913D01*
X237285174Y-38740680D01*
X237235707Y-38556067D01*
X237235706Y-38556065D01*
X237234284Y-38550757D01*
X237215083Y-38509580D01*
X237139849Y-38348238D01*
X237139846Y-38348233D01*
X237137523Y-38343251D01*
X237050912Y-38219558D01*
X237009357Y-38160211D01*
X237009355Y-38160208D01*
X237006198Y-38155700D01*
X236844300Y-37993802D01*
X236839792Y-37990645D01*
X236839789Y-37990643D01*
X236728886Y-37912988D01*
X240278576Y-37912988D01*
X240285644Y-37926434D01*
X240987188Y-38627978D01*
X241001132Y-38635592D01*
X241002965Y-38635461D01*
X241009580Y-38631210D01*
X241715077Y-37925713D01*
X241721507Y-37913938D01*
X241712211Y-37901923D01*
X241661006Y-37866069D01*
X241651511Y-37860586D01*
X241454053Y-37768510D01*
X241443761Y-37764764D01*
X241233312Y-37708375D01*
X241222519Y-37706472D01*
X241005475Y-37687483D01*
X240994525Y-37687483D01*
X240777481Y-37706472D01*
X240766688Y-37708375D01*
X240556239Y-37764764D01*
X240545947Y-37768510D01*
X240348489Y-37860586D01*
X240338994Y-37866069D01*
X240286952Y-37902509D01*
X240278576Y-37912988D01*
X236728886Y-37912988D01*
X236713920Y-37902509D01*
X236656749Y-37862477D01*
X236651767Y-37860154D01*
X236651762Y-37860151D01*
X236454225Y-37768039D01*
X236454224Y-37768039D01*
X236449243Y-37765716D01*
X236443935Y-37764294D01*
X236443933Y-37764293D01*
X236233402Y-37707881D01*
X236233400Y-37707881D01*
X236228087Y-37706457D01*
X236000000Y-37686502D01*
X235771913Y-37706457D01*
X235766600Y-37707881D01*
X235766598Y-37707881D01*
X235556067Y-37764293D01*
X235556065Y-37764294D01*
X235550757Y-37765716D01*
X235545776Y-37768039D01*
X235545775Y-37768039D01*
X235348238Y-37860151D01*
X235348233Y-37860154D01*
X235343251Y-37862477D01*
X235286080Y-37902509D01*
X235160211Y-37990643D01*
X235160208Y-37990645D01*
X235155700Y-37993802D01*
X234993802Y-38155700D01*
X234990645Y-38160208D01*
X234990643Y-38160211D01*
X234949088Y-38219558D01*
X234862477Y-38343251D01*
X234860154Y-38348233D01*
X234860151Y-38348238D01*
X234784917Y-38509580D01*
X234765716Y-38550757D01*
X234764294Y-38556065D01*
X234764293Y-38556067D01*
X234714826Y-38740680D01*
X234706457Y-38771913D01*
X234686502Y-39000000D01*
X229613629Y-39000000D01*
X229633931Y-38971006D01*
X229639414Y-38961511D01*
X229731490Y-38764053D01*
X229735236Y-38753761D01*
X229791625Y-38543312D01*
X229793528Y-38532519D01*
X229812517Y-38315475D01*
X229812517Y-38304525D01*
X229793528Y-38087481D01*
X229791625Y-38076688D01*
X229735236Y-37866239D01*
X229731490Y-37855947D01*
X229639414Y-37658489D01*
X229633929Y-37648990D01*
X229597491Y-37596952D01*
X229587012Y-37588576D01*
X229573566Y-37595644D01*
X228872022Y-38297188D01*
X228864408Y-38311132D01*
X228134356Y-38311132D01*
X228135592Y-38308868D01*
X228135461Y-38307035D01*
X228131210Y-38300420D01*
X227425713Y-37594923D01*
X227413938Y-37588493D01*
X227401923Y-37597789D01*
X227366071Y-37648990D01*
X227360586Y-37658489D01*
X227268510Y-37855947D01*
X227264764Y-37866239D01*
X227208375Y-38076688D01*
X227206472Y-38087481D01*
X227187483Y-38304525D01*
X227187483Y-38315475D01*
X226313019Y-38315475D01*
X226313498Y-38310000D01*
X226293543Y-38081913D01*
X226259900Y-37956356D01*
X226235707Y-37866067D01*
X226235706Y-37866065D01*
X226234284Y-37860757D01*
X226215573Y-37820630D01*
X226139849Y-37658238D01*
X226139846Y-37658233D01*
X226137523Y-37653251D01*
X226028604Y-37497699D01*
X226009357Y-37470211D01*
X226009355Y-37470208D01*
X226006198Y-37465700D01*
X225844300Y-37303802D01*
X225839792Y-37300645D01*
X225839789Y-37300643D01*
X225728886Y-37222988D01*
X227778576Y-37222988D01*
X227785644Y-37236434D01*
X228487188Y-37937978D01*
X228501132Y-37945592D01*
X228502965Y-37945461D01*
X228509580Y-37941210D01*
X229215077Y-37235713D01*
X229221507Y-37223938D01*
X229212211Y-37211923D01*
X229161006Y-37176069D01*
X229151511Y-37170586D01*
X228954053Y-37078510D01*
X228943761Y-37074764D01*
X228733312Y-37018375D01*
X228722519Y-37016472D01*
X228505475Y-36997483D01*
X228494525Y-36997483D01*
X228277481Y-37016472D01*
X228266688Y-37018375D01*
X228056239Y-37074764D01*
X228045947Y-37078510D01*
X227848489Y-37170586D01*
X227838994Y-37176069D01*
X227786952Y-37212509D01*
X227778576Y-37222988D01*
X225728886Y-37222988D01*
X225713920Y-37212509D01*
X225656749Y-37172477D01*
X225651767Y-37170154D01*
X225651762Y-37170151D01*
X225454225Y-37078039D01*
X225454224Y-37078039D01*
X225449243Y-37075716D01*
X225443935Y-37074294D01*
X225443933Y-37074293D01*
X225233402Y-37017881D01*
X225233400Y-37017881D01*
X225228087Y-37016457D01*
X225000000Y-36996502D01*
X224771913Y-37016457D01*
X224766600Y-37017881D01*
X224766598Y-37017881D01*
X224556067Y-37074293D01*
X224556065Y-37074294D01*
X224550757Y-37075716D01*
X224545776Y-37078039D01*
X224545775Y-37078039D01*
X224348238Y-37170151D01*
X224348233Y-37170154D01*
X224343251Y-37172477D01*
X224286080Y-37212509D01*
X224160211Y-37300643D01*
X224160208Y-37300645D01*
X224155700Y-37303802D01*
X223993802Y-37465700D01*
X223990645Y-37470208D01*
X223990643Y-37470211D01*
X223971396Y-37497699D01*
X223862477Y-37653251D01*
X223860154Y-37658233D01*
X223860151Y-37658238D01*
X223784427Y-37820630D01*
X223765716Y-37860757D01*
X223764294Y-37866065D01*
X223764293Y-37866067D01*
X223755707Y-37898111D01*
X223718755Y-37958734D01*
X223654895Y-37989755D01*
X223584400Y-37981327D01*
X223529653Y-37936124D01*
X223508000Y-37865500D01*
X223508000Y-35650000D01*
X233376502Y-35650000D01*
X233396457Y-35878087D01*
X233397881Y-35883400D01*
X233397881Y-35883402D01*
X233401165Y-35895656D01*
X233455716Y-36099243D01*
X233458039Y-36104224D01*
X233458039Y-36104225D01*
X233550151Y-36301762D01*
X233550154Y-36301767D01*
X233552477Y-36306749D01*
X233683802Y-36494300D01*
X233845700Y-36656198D01*
X233850208Y-36659355D01*
X233850211Y-36659357D01*
X233865595Y-36670129D01*
X234033251Y-36787523D01*
X234038233Y-36789846D01*
X234038238Y-36789849D01*
X234141210Y-36837865D01*
X234240757Y-36884284D01*
X234246065Y-36885706D01*
X234246067Y-36885707D01*
X234456598Y-36942119D01*
X234456600Y-36942119D01*
X234461913Y-36943543D01*
X234690000Y-36963498D01*
X234918087Y-36943543D01*
X234923400Y-36942119D01*
X234923402Y-36942119D01*
X235133933Y-36885707D01*
X235133935Y-36885706D01*
X235139243Y-36884284D01*
X235238790Y-36837865D01*
X235341762Y-36789849D01*
X235341767Y-36789846D01*
X235346749Y-36787523D01*
X235514405Y-36670129D01*
X235529789Y-36659357D01*
X235529792Y-36659355D01*
X235534300Y-36656198D01*
X235696198Y-36494300D01*
X235827523Y-36306749D01*
X235829846Y-36301767D01*
X235829849Y-36301762D01*
X235921961Y-36104225D01*
X235921961Y-36104224D01*
X235924284Y-36099243D01*
X235978836Y-35895656D01*
X235982119Y-35883402D01*
X235982119Y-35883400D01*
X235983543Y-35878087D01*
X236003498Y-35650000D01*
X240996502Y-35650000D01*
X241016457Y-35878087D01*
X241017881Y-35883400D01*
X241017881Y-35883402D01*
X241021165Y-35895656D01*
X241075716Y-36099243D01*
X241078039Y-36104224D01*
X241078039Y-36104225D01*
X241170151Y-36301762D01*
X241170154Y-36301767D01*
X241172477Y-36306749D01*
X241303802Y-36494300D01*
X241465700Y-36656198D01*
X241470208Y-36659355D01*
X241470211Y-36659357D01*
X241485595Y-36670129D01*
X241653251Y-36787523D01*
X241658233Y-36789846D01*
X241658238Y-36789849D01*
X241761210Y-36837865D01*
X241860757Y-36884284D01*
X241866065Y-36885706D01*
X241866067Y-36885707D01*
X242076598Y-36942119D01*
X242076600Y-36942119D01*
X242081913Y-36943543D01*
X242310000Y-36963498D01*
X242538087Y-36943543D01*
X242543400Y-36942119D01*
X242543402Y-36942119D01*
X242753933Y-36885707D01*
X242753935Y-36885706D01*
X242759243Y-36884284D01*
X242858790Y-36837865D01*
X242961762Y-36789849D01*
X242961767Y-36789846D01*
X242966749Y-36787523D01*
X243134405Y-36670129D01*
X243149789Y-36659357D01*
X243149792Y-36659355D01*
X243154300Y-36656198D01*
X243309019Y-36501479D01*
X243371331Y-36467453D01*
X243442146Y-36472518D01*
X243498982Y-36515065D01*
X243519821Y-36557962D01*
X243546990Y-36659357D01*
X243565716Y-36729243D01*
X243568039Y-36734224D01*
X243568039Y-36734225D01*
X243660151Y-36931762D01*
X243660154Y-36931767D01*
X243662477Y-36936749D01*
X243719632Y-37018375D01*
X243761410Y-37078039D01*
X243793802Y-37124300D01*
X243955700Y-37286198D01*
X243960208Y-37289355D01*
X243960211Y-37289357D01*
X244038389Y-37344098D01*
X244143251Y-37417523D01*
X244148233Y-37419846D01*
X244148238Y-37419849D01*
X244182457Y-37435805D01*
X244235742Y-37482722D01*
X244255203Y-37550999D01*
X244234661Y-37618959D01*
X244182457Y-37664195D01*
X244148238Y-37680151D01*
X244148233Y-37680154D01*
X244143251Y-37682477D01*
X244106265Y-37708375D01*
X243960211Y-37810643D01*
X243960208Y-37810645D01*
X243955700Y-37813802D01*
X243793802Y-37975700D01*
X243790645Y-37980208D01*
X243790643Y-37980211D01*
X243781127Y-37993802D01*
X243662477Y-38163251D01*
X243660154Y-38168233D01*
X243660151Y-38168238D01*
X243576119Y-38348448D01*
X243565716Y-38370757D01*
X243564294Y-38376065D01*
X243564293Y-38376067D01*
X243507881Y-38586598D01*
X243506457Y-38591913D01*
X243486502Y-38820000D01*
X243506457Y-39048087D01*
X243507881Y-39053400D01*
X243507881Y-39053402D01*
X243556844Y-39236131D01*
X243565716Y-39269243D01*
X243568039Y-39274224D01*
X243568039Y-39274225D01*
X243660151Y-39471762D01*
X243660154Y-39471767D01*
X243662477Y-39476749D01*
X243730269Y-39573566D01*
X243788515Y-39656749D01*
X243793802Y-39664300D01*
X243955700Y-39826198D01*
X243960208Y-39829355D01*
X243960211Y-39829357D01*
X244038389Y-39884098D01*
X244143251Y-39957523D01*
X244148233Y-39959846D01*
X244148238Y-39959849D01*
X244322760Y-40041229D01*
X244350757Y-40054284D01*
X244356065Y-40055706D01*
X244356067Y-40055707D01*
X244566598Y-40112119D01*
X244566600Y-40112119D01*
X244571913Y-40113543D01*
X244670120Y-40122135D01*
X244740149Y-40128262D01*
X244740156Y-40128262D01*
X244742873Y-40128500D01*
X245657127Y-40128500D01*
X245659844Y-40128262D01*
X245659851Y-40128262D01*
X245729880Y-40122135D01*
X245828087Y-40113543D01*
X245833400Y-40112119D01*
X245833402Y-40112119D01*
X246043933Y-40055707D01*
X246043935Y-40055706D01*
X246049243Y-40054284D01*
X246077240Y-40041229D01*
X246251762Y-39959849D01*
X246251767Y-39959846D01*
X246256749Y-39957523D01*
X246361611Y-39884098D01*
X246439789Y-39829357D01*
X246439792Y-39829355D01*
X246444300Y-39826198D01*
X246606198Y-39664300D01*
X246611486Y-39656749D01*
X246708528Y-39518158D01*
X246763985Y-39473830D01*
X246834605Y-39466521D01*
X246897100Y-39499370D01*
X246897600Y-39498774D01*
X246900340Y-39501073D01*
X246900836Y-39501334D01*
X246905700Y-39506198D01*
X246910208Y-39509355D01*
X246910211Y-39509357D01*
X246980011Y-39558231D01*
X247093251Y-39637523D01*
X247098233Y-39639846D01*
X247098238Y-39639849D01*
X247258021Y-39714356D01*
X247300757Y-39734284D01*
X247306065Y-39735706D01*
X247306067Y-39735707D01*
X247516598Y-39792119D01*
X247516600Y-39792119D01*
X247521913Y-39793543D01*
X247750000Y-39813498D01*
X247978087Y-39793543D01*
X247983400Y-39792119D01*
X247983402Y-39792119D01*
X248193933Y-39735707D01*
X248193935Y-39735706D01*
X248199243Y-39734284D01*
X248241979Y-39714356D01*
X248401762Y-39639849D01*
X248401767Y-39639846D01*
X248406749Y-39637523D01*
X248480242Y-39586062D01*
X249528493Y-39586062D01*
X249537789Y-39598077D01*
X249588994Y-39633931D01*
X249598489Y-39639414D01*
X249795947Y-39731490D01*
X249806239Y-39735236D01*
X250016688Y-39791625D01*
X250027481Y-39793528D01*
X250244525Y-39812517D01*
X250255475Y-39812517D01*
X250472519Y-39793528D01*
X250483312Y-39791625D01*
X250693761Y-39735236D01*
X250704053Y-39731490D01*
X250901511Y-39639414D01*
X250911006Y-39633931D01*
X250963048Y-39597491D01*
X250971424Y-39587012D01*
X250964356Y-39573566D01*
X250262812Y-38872022D01*
X250248868Y-38864408D01*
X250247035Y-38864539D01*
X250240420Y-38868790D01*
X249534923Y-39574287D01*
X249528493Y-39586062D01*
X248480242Y-39586062D01*
X248519989Y-39558231D01*
X248589789Y-39509357D01*
X248589792Y-39509355D01*
X248594300Y-39506198D01*
X248756198Y-39344300D01*
X248773664Y-39319357D01*
X248884369Y-39161253D01*
X248887523Y-39156749D01*
X248889847Y-39151765D01*
X248891171Y-39149472D01*
X248942553Y-39100479D01*
X249012267Y-39087043D01*
X249078178Y-39113429D01*
X249109409Y-39149472D01*
X249116066Y-39161002D01*
X249152509Y-39213048D01*
X249162988Y-39221424D01*
X249176434Y-39214356D01*
X249877978Y-38512812D01*
X249885592Y-38498868D01*
X249885461Y-38497035D01*
X249881210Y-38490420D01*
X249175713Y-37784923D01*
X249163938Y-37778493D01*
X249151923Y-37787789D01*
X249116066Y-37838998D01*
X249109409Y-37850528D01*
X249058027Y-37899521D01*
X248988313Y-37912958D01*
X248922402Y-37886571D01*
X248891171Y-37850528D01*
X248889847Y-37848235D01*
X248887523Y-37843251D01*
X248778453Y-37687483D01*
X248759357Y-37660211D01*
X248759355Y-37660208D01*
X248756198Y-37655700D01*
X248594300Y-37493802D01*
X248589792Y-37490645D01*
X248589789Y-37490643D01*
X248488684Y-37419849D01*
X248478886Y-37412988D01*
X249528576Y-37412988D01*
X249535644Y-37426434D01*
X250237188Y-38127978D01*
X250251132Y-38135592D01*
X250252965Y-38135461D01*
X250259580Y-38131210D01*
X250965077Y-37425713D01*
X250971507Y-37413938D01*
X250962211Y-37401923D01*
X250911006Y-37366069D01*
X250901511Y-37360586D01*
X250704053Y-37268510D01*
X250693761Y-37264764D01*
X250483312Y-37208375D01*
X250472519Y-37206472D01*
X250255475Y-37187483D01*
X250244525Y-37187483D01*
X250027481Y-37206472D01*
X250016688Y-37208375D01*
X249806239Y-37264764D01*
X249795947Y-37268510D01*
X249598489Y-37360586D01*
X249588994Y-37366069D01*
X249536952Y-37402509D01*
X249528576Y-37412988D01*
X248478886Y-37412988D01*
X248406749Y-37362477D01*
X248401767Y-37360154D01*
X248401762Y-37360151D01*
X248204225Y-37268039D01*
X248204224Y-37268039D01*
X248199243Y-37265716D01*
X248193935Y-37264294D01*
X248193933Y-37264293D01*
X247983402Y-37207881D01*
X247983400Y-37207881D01*
X247978087Y-37206457D01*
X247750000Y-37186502D01*
X247521913Y-37206457D01*
X247516600Y-37207881D01*
X247516598Y-37207881D01*
X247306067Y-37264293D01*
X247306065Y-37264294D01*
X247300757Y-37265716D01*
X247295776Y-37268039D01*
X247295775Y-37268039D01*
X247098238Y-37360151D01*
X247098233Y-37360154D01*
X247093251Y-37362477D01*
X247011316Y-37419849D01*
X246910211Y-37490643D01*
X246910208Y-37490645D01*
X246905700Y-37493802D01*
X246743802Y-37655700D01*
X246740645Y-37660208D01*
X246740643Y-37660211D01*
X246641472Y-37801842D01*
X246586015Y-37846170D01*
X246515395Y-37853479D01*
X246452900Y-37820630D01*
X246452400Y-37821226D01*
X246449660Y-37818927D01*
X246449164Y-37818666D01*
X246444300Y-37813802D01*
X246439792Y-37810645D01*
X246439789Y-37810643D01*
X246293735Y-37708375D01*
X246256749Y-37682477D01*
X246251767Y-37680154D01*
X246251762Y-37680151D01*
X246217543Y-37664195D01*
X246164258Y-37617278D01*
X246144797Y-37549001D01*
X246165339Y-37481041D01*
X246217543Y-37435805D01*
X246251762Y-37419849D01*
X246251767Y-37419846D01*
X246256749Y-37417523D01*
X246361611Y-37344098D01*
X246439789Y-37289357D01*
X246439792Y-37289355D01*
X246444300Y-37286198D01*
X246606198Y-37124300D01*
X246638591Y-37078039D01*
X246680368Y-37018375D01*
X246737523Y-36936749D01*
X246739846Y-36931767D01*
X246739849Y-36931762D01*
X246831961Y-36734225D01*
X246831961Y-36734224D01*
X246834284Y-36729243D01*
X246847978Y-36678139D01*
X246892119Y-36513402D01*
X246892119Y-36513400D01*
X246893543Y-36508087D01*
X246913498Y-36280000D01*
X246893543Y-36051913D01*
X246834284Y-35830757D01*
X246823881Y-35808448D01*
X246739849Y-35628238D01*
X246739846Y-35628233D01*
X246737523Y-35623251D01*
X246606198Y-35435700D01*
X246444300Y-35273802D01*
X246439792Y-35270645D01*
X246439789Y-35270643D01*
X246332866Y-35195775D01*
X246256749Y-35142477D01*
X246251767Y-35140154D01*
X246251762Y-35140151D01*
X246217543Y-35124195D01*
X246164258Y-35077278D01*
X246144797Y-35009001D01*
X246165339Y-34941041D01*
X246217543Y-34895805D01*
X246251762Y-34879849D01*
X246251767Y-34879846D01*
X246256749Y-34877523D01*
X246364888Y-34801803D01*
X246439789Y-34749357D01*
X246439792Y-34749355D01*
X246444300Y-34746198D01*
X246606198Y-34584300D01*
X246737523Y-34396749D01*
X246739846Y-34391767D01*
X246739849Y-34391762D01*
X246831961Y-34194225D01*
X246831961Y-34194224D01*
X246834284Y-34189243D01*
X246847978Y-34138139D01*
X246892119Y-33973402D01*
X246892119Y-33973400D01*
X246893543Y-33968087D01*
X246913498Y-33740000D01*
X246893543Y-33511913D01*
X246892012Y-33506198D01*
X246835707Y-33296067D01*
X246835706Y-33296065D01*
X246834284Y-33290757D01*
X246823881Y-33268448D01*
X246739849Y-33088238D01*
X246739846Y-33088233D01*
X246737523Y-33083251D01*
X246606198Y-32895700D01*
X246444300Y-32733802D01*
X246439789Y-32730643D01*
X246435576Y-32727108D01*
X246436527Y-32725974D01*
X246396529Y-32675929D01*
X246389224Y-32605310D01*
X246421258Y-32541951D01*
X246482462Y-32505970D01*
X246499517Y-32502918D01*
X246510316Y-32501745D01*
X246646705Y-32450615D01*
X246763261Y-32363261D01*
X246850615Y-32246705D01*
X246864616Y-32209357D01*
X246876594Y-32177407D01*
X246919236Y-32120643D01*
X246985798Y-32095943D01*
X247055146Y-32111151D01*
X247066847Y-32118424D01*
X247088993Y-32133931D01*
X247098489Y-32139414D01*
X247295947Y-32231490D01*
X247306239Y-32235236D01*
X247516688Y-32291625D01*
X247527481Y-32293528D01*
X247744525Y-32312517D01*
X247755475Y-32312517D01*
X247972519Y-32293528D01*
X247983312Y-32291625D01*
X248193761Y-32235236D01*
X248204053Y-32231490D01*
X248401511Y-32139414D01*
X248411006Y-32133931D01*
X248463048Y-32097491D01*
X248471424Y-32087012D01*
X248464356Y-32073566D01*
X247479885Y-31089095D01*
X247445859Y-31026783D01*
X247447694Y-31001132D01*
X248114408Y-31001132D01*
X248114539Y-31002965D01*
X248118790Y-31009580D01*
X248824287Y-31715077D01*
X248836062Y-31721507D01*
X248848077Y-31712211D01*
X248883934Y-31661002D01*
X248890591Y-31649472D01*
X248941973Y-31600479D01*
X249011687Y-31587042D01*
X249077598Y-31613429D01*
X249108829Y-31649472D01*
X249110153Y-31651765D01*
X249112477Y-31656749D01*
X249115631Y-31661253D01*
X249232055Y-31827523D01*
X249243802Y-31844300D01*
X249405700Y-32006198D01*
X249410208Y-32009355D01*
X249410211Y-32009357D01*
X249469337Y-32050757D01*
X249593251Y-32137523D01*
X249598233Y-32139846D01*
X249598238Y-32139849D01*
X249794765Y-32231490D01*
X249800757Y-32234284D01*
X249806065Y-32235706D01*
X249806067Y-32235707D01*
X250016598Y-32292119D01*
X250016600Y-32292119D01*
X250021913Y-32293543D01*
X250250000Y-32313498D01*
X250478087Y-32293543D01*
X250483400Y-32292119D01*
X250483402Y-32292119D01*
X250693933Y-32235707D01*
X250693935Y-32235706D01*
X250699243Y-32234284D01*
X250705235Y-32231490D01*
X250901762Y-32139849D01*
X250901767Y-32139846D01*
X250906749Y-32137523D01*
X251030663Y-32050757D01*
X251089789Y-32009357D01*
X251089792Y-32009355D01*
X251094300Y-32006198D01*
X251160348Y-31940150D01*
X251222660Y-31906124D01*
X251293475Y-31911189D01*
X251352656Y-31956975D01*
X251410639Y-32039784D01*
X251410643Y-32039789D01*
X251413802Y-32044300D01*
X251575700Y-32206198D01*
X251580208Y-32209355D01*
X251580211Y-32209357D01*
X251612493Y-32231961D01*
X251763251Y-32337523D01*
X251768233Y-32339846D01*
X251768238Y-32339849D01*
X251802457Y-32355805D01*
X251855742Y-32402722D01*
X251875203Y-32470999D01*
X251854661Y-32538959D01*
X251802457Y-32584195D01*
X251768238Y-32600151D01*
X251768233Y-32600154D01*
X251763251Y-32602477D01*
X251658389Y-32675902D01*
X251580211Y-32730643D01*
X251580208Y-32730645D01*
X251575700Y-32733802D01*
X251413802Y-32895700D01*
X251282477Y-33083251D01*
X251280154Y-33088233D01*
X251280151Y-33088238D01*
X251196119Y-33268448D01*
X251185716Y-33290757D01*
X251184294Y-33296065D01*
X251184293Y-33296067D01*
X251127988Y-33506198D01*
X251126457Y-33511913D01*
X251106502Y-33740000D01*
X251126457Y-33968087D01*
X251127881Y-33973400D01*
X251127881Y-33973402D01*
X251172023Y-34138139D01*
X251185716Y-34189243D01*
X251188039Y-34194224D01*
X251188039Y-34194225D01*
X251280151Y-34391762D01*
X251280154Y-34391767D01*
X251282477Y-34396749D01*
X251413802Y-34584300D01*
X251575700Y-34746198D01*
X251580208Y-34749355D01*
X251580211Y-34749357D01*
X251655112Y-34801803D01*
X251763251Y-34877523D01*
X251768233Y-34879846D01*
X251768238Y-34879849D01*
X251802457Y-34895805D01*
X251855742Y-34942722D01*
X251875203Y-35010999D01*
X251854661Y-35078959D01*
X251802457Y-35124195D01*
X251768238Y-35140151D01*
X251768233Y-35140154D01*
X251763251Y-35142477D01*
X251687134Y-35195775D01*
X251580211Y-35270643D01*
X251580208Y-35270645D01*
X251575700Y-35273802D01*
X251413802Y-35435700D01*
X251282477Y-35623251D01*
X251280154Y-35628233D01*
X251280151Y-35628238D01*
X251196119Y-35808448D01*
X251185716Y-35830757D01*
X251126457Y-36051913D01*
X251106502Y-36280000D01*
X251126457Y-36508087D01*
X251127881Y-36513400D01*
X251127881Y-36513402D01*
X251172023Y-36678139D01*
X251185716Y-36729243D01*
X251188039Y-36734224D01*
X251188039Y-36734225D01*
X251280151Y-36931762D01*
X251280154Y-36931767D01*
X251282477Y-36936749D01*
X251339632Y-37018375D01*
X251381410Y-37078039D01*
X251413802Y-37124300D01*
X251575700Y-37286198D01*
X251580208Y-37289355D01*
X251580211Y-37289357D01*
X251658389Y-37344098D01*
X251763251Y-37417523D01*
X251768233Y-37419846D01*
X251768238Y-37419849D01*
X251803049Y-37436081D01*
X251856334Y-37482998D01*
X251875795Y-37551275D01*
X251855253Y-37619235D01*
X251803049Y-37664471D01*
X251768489Y-37680586D01*
X251758993Y-37686069D01*
X251580533Y-37811028D01*
X251572125Y-37818084D01*
X251559005Y-37831204D01*
X251496693Y-37865230D01*
X251425878Y-37860165D01*
X251366698Y-37814381D01*
X251347492Y-37786953D01*
X251337012Y-37778576D01*
X251323566Y-37785644D01*
X250622022Y-38487188D01*
X250614408Y-38501132D01*
X250614539Y-38502965D01*
X250618790Y-38509580D01*
X251293690Y-39184480D01*
X251327716Y-39246792D01*
X251322651Y-39317607D01*
X251293690Y-39362670D01*
X251262953Y-39393407D01*
X251255339Y-39407351D01*
X251256185Y-39419180D01*
X251280588Y-39471514D01*
X251286066Y-39481002D01*
X251411028Y-39659467D01*
X251418084Y-39667875D01*
X251572125Y-39821916D01*
X251580533Y-39828972D01*
X251758993Y-39953931D01*
X251768489Y-39959414D01*
X251965947Y-40051490D01*
X251976239Y-40055236D01*
X252186688Y-40111625D01*
X252197481Y-40113528D01*
X252360170Y-40127762D01*
X252365635Y-40128000D01*
X252547885Y-40128000D01*
X252563124Y-40123525D01*
X252564329Y-40122135D01*
X252566000Y-40114452D01*
X252566000Y-40109885D01*
X253074000Y-40109885D01*
X253078475Y-40125124D01*
X253079865Y-40126329D01*
X253087548Y-40128000D01*
X253274365Y-40128000D01*
X253279830Y-40127762D01*
X253442519Y-40113528D01*
X253453312Y-40111625D01*
X253663761Y-40055236D01*
X253674053Y-40051490D01*
X253685050Y-40046362D01*
X256853609Y-40046362D01*
X256853906Y-40051514D01*
X256853906Y-40051518D01*
X256859618Y-40150578D01*
X256866597Y-40271614D01*
X256867734Y-40276660D01*
X256867735Y-40276666D01*
X256888984Y-40370952D01*
X256916200Y-40491720D01*
X256918142Y-40496502D01*
X256918143Y-40496506D01*
X256954822Y-40586835D01*
X257001086Y-40700769D01*
X257118975Y-40893147D01*
X257266702Y-41063687D01*
X257440299Y-41207810D01*
X257444751Y-41210412D01*
X257444756Y-41210415D01*
X257534091Y-41262618D01*
X257635103Y-41321645D01*
X257845884Y-41402134D01*
X257850952Y-41403165D01*
X257850955Y-41403166D01*
X257959404Y-41425230D01*
X258066981Y-41447117D01*
X258072156Y-41447307D01*
X258072158Y-41447307D01*
X258287292Y-41455196D01*
X258287296Y-41455196D01*
X258292456Y-41455385D01*
X258297576Y-41454729D01*
X258297578Y-41454729D01*
X258366985Y-41445838D01*
X258516253Y-41426716D01*
X258521202Y-41425231D01*
X258521208Y-41425230D01*
X258727413Y-41363365D01*
X258727412Y-41363365D01*
X258732363Y-41361880D01*
X258827419Y-41315312D01*
X258930331Y-41264897D01*
X258930336Y-41264894D01*
X258934982Y-41262618D01*
X258939192Y-41259615D01*
X258939197Y-41259612D01*
X259114455Y-41134601D01*
X259114459Y-41134597D01*
X259118667Y-41131596D01*
X259278487Y-40972333D01*
X259399370Y-40804107D01*
X259455364Y-40760459D01*
X259526068Y-40754013D01*
X259589032Y-40786816D01*
X259609125Y-40811799D01*
X259656275Y-40888743D01*
X259656279Y-40888748D01*
X259658975Y-40893147D01*
X259806702Y-41063687D01*
X259980299Y-41207810D01*
X259984751Y-41210412D01*
X259984756Y-41210415D01*
X260074091Y-41262618D01*
X260175103Y-41321645D01*
X260385884Y-41402134D01*
X260390952Y-41403165D01*
X260390955Y-41403166D01*
X260499404Y-41425230D01*
X260606981Y-41447117D01*
X260612156Y-41447307D01*
X260612158Y-41447307D01*
X260827292Y-41455196D01*
X260827296Y-41455196D01*
X260832456Y-41455385D01*
X260837576Y-41454729D01*
X260837578Y-41454729D01*
X260906985Y-41445838D01*
X261056253Y-41426716D01*
X261061202Y-41425231D01*
X261061208Y-41425230D01*
X261267413Y-41363365D01*
X261267412Y-41363365D01*
X261272363Y-41361880D01*
X261367419Y-41315312D01*
X261470331Y-41264897D01*
X261470336Y-41264894D01*
X261474982Y-41262618D01*
X261479192Y-41259615D01*
X261479197Y-41259612D01*
X261654455Y-41134601D01*
X261654459Y-41134597D01*
X261658667Y-41131596D01*
X261818487Y-40972333D01*
X261950150Y-40789105D01*
X262050118Y-40586835D01*
X262115708Y-40370952D01*
X262129467Y-40266445D01*
X262144721Y-40150578D01*
X262144722Y-40150572D01*
X262145158Y-40147256D01*
X262145484Y-40133931D01*
X262146720Y-40083364D01*
X262146720Y-40083360D01*
X262146802Y-40080000D01*
X262128315Y-39855132D01*
X262073349Y-39636304D01*
X261983380Y-39429391D01*
X261935282Y-39355043D01*
X261863634Y-39244291D01*
X261863632Y-39244288D01*
X261860826Y-39239951D01*
X261708977Y-39073071D01*
X261704926Y-39069872D01*
X261704922Y-39069868D01*
X261535966Y-38936434D01*
X261535962Y-38936432D01*
X261531911Y-38933232D01*
X261527387Y-38930734D01*
X261527383Y-38930732D01*
X261508048Y-38920058D01*
X261458079Y-38869625D01*
X261443308Y-38800182D01*
X261468426Y-38733777D01*
X261495776Y-38707172D01*
X261654136Y-38594216D01*
X261662003Y-38587567D01*
X261814445Y-38435656D01*
X261821122Y-38427811D01*
X261946702Y-38253047D01*
X261952013Y-38244208D01*
X262047358Y-38051292D01*
X262051156Y-38041699D01*
X262113716Y-37835791D01*
X262115893Y-37825721D01*
X262117705Y-37811960D01*
X262115493Y-37797778D01*
X262102336Y-37794000D01*
X256899283Y-37794000D01*
X256885752Y-37797973D01*
X256884315Y-37807966D01*
X256915542Y-37946528D01*
X256918621Y-37956356D01*
X256999589Y-38155756D01*
X257004232Y-38164947D01*
X257116682Y-38348448D01*
X257122765Y-38356759D01*
X257263665Y-38519417D01*
X257271032Y-38526633D01*
X257436606Y-38664095D01*
X257445057Y-38670013D01*
X257494545Y-38698932D01*
X257543268Y-38750570D01*
X257556339Y-38820353D01*
X257529607Y-38886125D01*
X257498932Y-38913608D01*
X257496335Y-38914960D01*
X257492202Y-38918063D01*
X257492199Y-38918065D01*
X257341108Y-39031507D01*
X257315905Y-39050430D01*
X257268077Y-39100479D01*
X257212921Y-39158197D01*
X257160024Y-39213550D01*
X257032878Y-39399940D01*
X257030704Y-39404624D01*
X257030702Y-39404627D01*
X256940906Y-39598077D01*
X256937881Y-39604593D01*
X256877585Y-39822013D01*
X256853609Y-40046362D01*
X253685050Y-40046362D01*
X253871511Y-39959414D01*
X253881007Y-39953931D01*
X254059467Y-39828972D01*
X254067875Y-39821916D01*
X254221916Y-39667875D01*
X254228972Y-39659467D01*
X254353931Y-39481007D01*
X254359414Y-39471511D01*
X254451490Y-39274053D01*
X254455236Y-39263761D01*
X254501394Y-39091497D01*
X254501058Y-39077401D01*
X254493116Y-39074000D01*
X253092115Y-39074000D01*
X253076876Y-39078475D01*
X253075671Y-39079865D01*
X253074000Y-39087548D01*
X253074000Y-40109885D01*
X252566000Y-40109885D01*
X252566000Y-38692000D01*
X252586002Y-38623879D01*
X252639658Y-38577386D01*
X252692000Y-38566000D01*
X254487967Y-38566000D01*
X254501498Y-38562027D01*
X254502727Y-38553478D01*
X254455236Y-38376239D01*
X254451490Y-38365947D01*
X254359414Y-38168489D01*
X254353931Y-38158993D01*
X254228972Y-37980533D01*
X254221916Y-37972125D01*
X254067875Y-37818084D01*
X254059467Y-37811028D01*
X253881007Y-37686069D01*
X253871511Y-37680586D01*
X253836951Y-37664471D01*
X253783666Y-37617554D01*
X253764205Y-37549277D01*
X253784747Y-37481317D01*
X253836951Y-37436081D01*
X253871762Y-37419849D01*
X253871767Y-37419846D01*
X253876749Y-37417523D01*
X253981611Y-37344098D01*
X254059789Y-37289357D01*
X254059792Y-37289355D01*
X254064300Y-37286198D01*
X254077259Y-37273239D01*
X256880536Y-37273239D01*
X256882233Y-37282609D01*
X256894610Y-37286000D01*
X257957885Y-37286000D01*
X257973124Y-37281525D01*
X257974329Y-37280135D01*
X257976000Y-37272452D01*
X257976000Y-37267885D01*
X258484000Y-37267885D01*
X258488475Y-37283124D01*
X258489865Y-37284329D01*
X258497548Y-37286000D01*
X260497885Y-37286000D01*
X260513124Y-37281525D01*
X260514329Y-37280135D01*
X260516000Y-37272452D01*
X260516000Y-37267885D01*
X261024000Y-37267885D01*
X261028475Y-37283124D01*
X261029865Y-37284329D01*
X261037548Y-37286000D01*
X262102367Y-37286000D01*
X262115898Y-37282027D01*
X262117203Y-37272947D01*
X262074133Y-37101477D01*
X262070813Y-37091726D01*
X261984999Y-36894365D01*
X261980133Y-36885290D01*
X261863239Y-36704601D01*
X261856947Y-36696430D01*
X261712113Y-36537260D01*
X261704580Y-36530234D01*
X261535691Y-36396855D01*
X261527108Y-36391153D01*
X261507599Y-36380383D01*
X261457628Y-36329950D01*
X261442856Y-36260507D01*
X261467972Y-36194102D01*
X261495323Y-36167496D01*
X261654133Y-36054217D01*
X261662003Y-36047567D01*
X261814445Y-35895656D01*
X261821122Y-35887811D01*
X261946702Y-35713047D01*
X261952013Y-35704208D01*
X262047358Y-35511292D01*
X262051156Y-35501699D01*
X262113716Y-35295791D01*
X262115893Y-35285721D01*
X262117705Y-35271960D01*
X262115493Y-35257778D01*
X262102336Y-35254000D01*
X261042115Y-35254000D01*
X261026876Y-35258475D01*
X261025671Y-35259865D01*
X261024000Y-35267548D01*
X261024000Y-37267885D01*
X260516000Y-37267885D01*
X260516000Y-35272115D01*
X260511525Y-35256876D01*
X260510135Y-35255671D01*
X260502452Y-35254000D01*
X258502115Y-35254000D01*
X258486876Y-35258475D01*
X258485671Y-35259865D01*
X258484000Y-35267548D01*
X258484000Y-37267885D01*
X257976000Y-37267885D01*
X257976000Y-35272115D01*
X257971525Y-35256876D01*
X257970135Y-35255671D01*
X257962452Y-35254000D01*
X256899283Y-35254000D01*
X256885752Y-35257973D01*
X256884315Y-35267966D01*
X256915542Y-35406528D01*
X256918621Y-35416356D01*
X256999589Y-35615756D01*
X257004232Y-35624947D01*
X257116682Y-35808448D01*
X257122765Y-35816759D01*
X257263665Y-35979417D01*
X257271032Y-35986633D01*
X257436606Y-36124095D01*
X257445053Y-36130010D01*
X257495031Y-36159215D01*
X257543755Y-36210854D01*
X257556826Y-36280636D01*
X257530095Y-36346408D01*
X257498605Y-36374622D01*
X257492469Y-36378486D01*
X257320373Y-36507700D01*
X257312666Y-36514543D01*
X257163984Y-36670129D01*
X257157498Y-36678139D01*
X257036232Y-36855908D01*
X257031134Y-36864882D01*
X256940530Y-37060071D01*
X256936967Y-37069758D01*
X256880536Y-37273239D01*
X254077259Y-37273239D01*
X254226198Y-37124300D01*
X254258591Y-37078039D01*
X254300368Y-37018375D01*
X254357523Y-36936749D01*
X254359846Y-36931767D01*
X254359849Y-36931762D01*
X254451961Y-36734225D01*
X254451961Y-36734224D01*
X254454284Y-36729243D01*
X254467978Y-36678139D01*
X254512119Y-36513402D01*
X254512119Y-36513400D01*
X254513543Y-36508087D01*
X254533498Y-36280000D01*
X254513543Y-36051913D01*
X254454284Y-35830757D01*
X254443881Y-35808448D01*
X254359849Y-35628238D01*
X254359846Y-35628233D01*
X254357523Y-35623251D01*
X254226198Y-35435700D01*
X254064300Y-35273802D01*
X254059792Y-35270645D01*
X254059789Y-35270643D01*
X253952866Y-35195775D01*
X253876749Y-35142477D01*
X253871767Y-35140154D01*
X253871762Y-35140151D01*
X253837543Y-35124195D01*
X253784258Y-35077278D01*
X253764797Y-35009001D01*
X253785339Y-34941041D01*
X253837543Y-34895805D01*
X253871762Y-34879849D01*
X253871767Y-34879846D01*
X253876749Y-34877523D01*
X253984888Y-34801803D01*
X254059789Y-34749357D01*
X254059792Y-34749355D01*
X254064300Y-34746198D01*
X254077259Y-34733239D01*
X256880536Y-34733239D01*
X256882233Y-34742609D01*
X256894610Y-34746000D01*
X257957885Y-34746000D01*
X257973124Y-34741525D01*
X257974329Y-34740135D01*
X257976000Y-34732452D01*
X257976000Y-34727885D01*
X258484000Y-34727885D01*
X258488475Y-34743124D01*
X258489865Y-34744329D01*
X258497548Y-34746000D01*
X260497885Y-34746000D01*
X260513124Y-34741525D01*
X260514329Y-34740135D01*
X260516000Y-34732452D01*
X260516000Y-34727885D01*
X261024000Y-34727885D01*
X261028475Y-34743124D01*
X261029865Y-34744329D01*
X261037548Y-34746000D01*
X262102367Y-34746000D01*
X262115898Y-34742027D01*
X262117203Y-34732947D01*
X262074133Y-34561477D01*
X262070813Y-34551726D01*
X261984999Y-34354365D01*
X261980133Y-34345290D01*
X261863239Y-34164601D01*
X261856947Y-34156430D01*
X261712113Y-33997260D01*
X261704580Y-33990234D01*
X261535691Y-33856855D01*
X261527108Y-33851153D01*
X261507599Y-33840383D01*
X261457628Y-33789950D01*
X261442856Y-33720507D01*
X261467972Y-33654102D01*
X261495323Y-33627496D01*
X261654133Y-33514217D01*
X261662003Y-33507567D01*
X261814445Y-33355656D01*
X261821122Y-33347811D01*
X261946702Y-33173047D01*
X261952013Y-33164208D01*
X262047358Y-32971292D01*
X262051156Y-32961699D01*
X262113716Y-32755791D01*
X262115893Y-32745721D01*
X262117705Y-32731960D01*
X262115493Y-32717778D01*
X262102336Y-32714000D01*
X261042115Y-32714000D01*
X261026876Y-32718475D01*
X261025671Y-32719865D01*
X261024000Y-32727548D01*
X261024000Y-34727885D01*
X260516000Y-34727885D01*
X260516000Y-32732115D01*
X260511525Y-32716876D01*
X260510135Y-32715671D01*
X260502452Y-32714000D01*
X258502115Y-32714000D01*
X258486876Y-32718475D01*
X258485671Y-32719865D01*
X258484000Y-32727548D01*
X258484000Y-34727885D01*
X257976000Y-34727885D01*
X257976000Y-32732115D01*
X257971525Y-32716876D01*
X257970135Y-32715671D01*
X257962452Y-32714000D01*
X256899283Y-32714000D01*
X256885752Y-32717973D01*
X256884315Y-32727966D01*
X256915542Y-32866528D01*
X256918621Y-32876356D01*
X256999589Y-33075756D01*
X257004232Y-33084947D01*
X257116682Y-33268448D01*
X257122765Y-33276759D01*
X257263665Y-33439417D01*
X257271032Y-33446633D01*
X257436606Y-33584095D01*
X257445053Y-33590010D01*
X257495031Y-33619215D01*
X257543755Y-33670854D01*
X257556826Y-33740636D01*
X257530095Y-33806408D01*
X257498605Y-33834622D01*
X257492469Y-33838486D01*
X257320373Y-33967700D01*
X257312666Y-33974543D01*
X257163984Y-34130129D01*
X257157498Y-34138139D01*
X257036232Y-34315908D01*
X257031134Y-34324882D01*
X256940530Y-34520071D01*
X256936967Y-34529758D01*
X256880536Y-34733239D01*
X254077259Y-34733239D01*
X254226198Y-34584300D01*
X254357523Y-34396749D01*
X254359846Y-34391767D01*
X254359849Y-34391762D01*
X254451961Y-34194225D01*
X254451961Y-34194224D01*
X254454284Y-34189243D01*
X254467978Y-34138139D01*
X254512119Y-33973402D01*
X254512119Y-33973400D01*
X254513543Y-33968087D01*
X254533498Y-33740000D01*
X254513543Y-33511913D01*
X254512012Y-33506198D01*
X254455707Y-33296067D01*
X254455706Y-33296065D01*
X254454284Y-33290757D01*
X254443881Y-33268448D01*
X254359849Y-33088238D01*
X254359846Y-33088233D01*
X254357523Y-33083251D01*
X254226198Y-32895700D01*
X254064300Y-32733802D01*
X254059792Y-32730645D01*
X254059789Y-32730643D01*
X253981611Y-32675902D01*
X253876749Y-32602477D01*
X253871767Y-32600154D01*
X253871762Y-32600151D01*
X253837543Y-32584195D01*
X253784258Y-32537278D01*
X253764797Y-32469001D01*
X253785339Y-32401041D01*
X253837543Y-32355805D01*
X253871762Y-32339849D01*
X253871767Y-32339846D01*
X253876749Y-32337523D01*
X254027507Y-32231961D01*
X254059789Y-32209357D01*
X254059792Y-32209355D01*
X254064300Y-32206198D01*
X254226198Y-32044300D01*
X254229361Y-32039784D01*
X254311861Y-31921961D01*
X254357523Y-31856749D01*
X254359846Y-31851767D01*
X254359849Y-31851762D01*
X254451961Y-31654225D01*
X254451961Y-31654224D01*
X254454284Y-31649243D01*
X254463217Y-31615907D01*
X254512119Y-31433402D01*
X254512119Y-31433400D01*
X254513543Y-31428087D01*
X254533498Y-31200000D01*
X254513543Y-30971913D01*
X254502030Y-30928946D01*
X254475982Y-30831734D01*
X256857900Y-30831734D01*
X256864655Y-30893916D01*
X256915785Y-31030305D01*
X257003139Y-31146861D01*
X257119695Y-31234215D01*
X257128104Y-31237367D01*
X257128105Y-31237368D01*
X257223954Y-31273300D01*
X257280719Y-31315941D01*
X257305419Y-31382503D01*
X257290212Y-31451852D01*
X257270819Y-31478333D01*
X257163984Y-31590129D01*
X257157498Y-31598139D01*
X257036232Y-31775908D01*
X257031134Y-31784882D01*
X256940530Y-31980071D01*
X256936967Y-31989758D01*
X256880536Y-32193239D01*
X256882233Y-32202609D01*
X256894610Y-32206000D01*
X262102367Y-32206000D01*
X262115898Y-32202027D01*
X262117203Y-32192947D01*
X262074133Y-32021477D01*
X262070813Y-32011726D01*
X261984999Y-31814365D01*
X261980133Y-31805290D01*
X261863239Y-31624601D01*
X261856947Y-31616430D01*
X261712113Y-31457260D01*
X261704580Y-31450234D01*
X261535691Y-31316855D01*
X261527104Y-31311150D01*
X261508082Y-31300649D01*
X261458111Y-31250216D01*
X261443340Y-31180773D01*
X261468457Y-31114368D01*
X261495801Y-31087768D01*
X261658667Y-30971596D01*
X261818487Y-30812333D01*
X261950150Y-30629105D01*
X262030073Y-30467393D01*
X262047824Y-30431477D01*
X262047825Y-30431475D01*
X262050118Y-30426835D01*
X262115708Y-30210952D01*
X262122192Y-30161703D01*
X262144721Y-29990578D01*
X262144722Y-29990572D01*
X262145158Y-29987256D01*
X262146161Y-29946233D01*
X262146720Y-29923364D01*
X262146720Y-29923360D01*
X262146802Y-29920000D01*
X262128315Y-29695132D01*
X262073349Y-29476304D01*
X261983380Y-29269391D01*
X261860826Y-29079951D01*
X261708977Y-28913071D01*
X261704926Y-28909872D01*
X261704922Y-28909868D01*
X261535966Y-28776434D01*
X261535962Y-28776432D01*
X261531911Y-28773232D01*
X261519894Y-28766598D01*
X261386822Y-28693139D01*
X261334383Y-28664191D01*
X261121698Y-28588876D01*
X261071297Y-28579898D01*
X260904657Y-28550214D01*
X260904653Y-28550214D01*
X260899569Y-28549308D01*
X260827574Y-28548429D01*
X260679129Y-28546615D01*
X260679127Y-28546615D01*
X260673959Y-28546552D01*
X260450929Y-28580680D01*
X260236468Y-28650777D01*
X260036335Y-28754960D01*
X260032202Y-28758063D01*
X260032199Y-28758065D01*
X259860040Y-28887325D01*
X259855905Y-28890430D01*
X259852333Y-28894168D01*
X259792411Y-28956872D01*
X259730887Y-28992301D01*
X259659975Y-28988844D01*
X259602188Y-28947598D01*
X259583336Y-28914050D01*
X259547367Y-28818103D01*
X259544215Y-28809695D01*
X259456861Y-28693139D01*
X259340305Y-28605785D01*
X259203916Y-28554655D01*
X259141734Y-28547900D01*
X257318266Y-28547900D01*
X257256084Y-28554655D01*
X257119695Y-28605785D01*
X257003139Y-28693139D01*
X256915785Y-28809695D01*
X256864655Y-28946084D01*
X256857900Y-29008266D01*
X256857900Y-30831734D01*
X254475982Y-30831734D01*
X254455707Y-30756067D01*
X254455706Y-30756065D01*
X254454284Y-30750757D01*
X254451961Y-30745775D01*
X254359849Y-30548238D01*
X254359846Y-30548233D01*
X254357523Y-30543251D01*
X254247814Y-30386571D01*
X254229357Y-30360211D01*
X254229355Y-30360208D01*
X254226198Y-30355700D01*
X254064300Y-30193802D01*
X254059792Y-30190645D01*
X254059789Y-30190643D01*
X253979417Y-30134366D01*
X253876749Y-30062477D01*
X253871767Y-30060154D01*
X253871762Y-30060151D01*
X253674225Y-29968039D01*
X253674224Y-29968039D01*
X253669243Y-29965716D01*
X253663935Y-29964294D01*
X253663933Y-29964293D01*
X253453402Y-29907881D01*
X253453400Y-29907881D01*
X253448087Y-29906457D01*
X253348520Y-29897746D01*
X253279851Y-29891738D01*
X253279844Y-29891738D01*
X253277127Y-29891500D01*
X252362873Y-29891500D01*
X252360156Y-29891738D01*
X252360149Y-29891738D01*
X252291480Y-29897746D01*
X252191913Y-29906457D01*
X252186600Y-29907881D01*
X252186598Y-29907881D01*
X251976067Y-29964293D01*
X251976065Y-29964294D01*
X251970757Y-29965716D01*
X251965776Y-29968039D01*
X251965775Y-29968039D01*
X251768238Y-30060151D01*
X251768233Y-30060154D01*
X251763251Y-30062477D01*
X251660583Y-30134366D01*
X251580211Y-30190643D01*
X251580208Y-30190645D01*
X251575700Y-30193802D01*
X251509652Y-30259850D01*
X251447340Y-30293876D01*
X251376525Y-30288811D01*
X251317344Y-30243025D01*
X251259361Y-30160216D01*
X251259356Y-30160210D01*
X251256198Y-30155700D01*
X251094300Y-29993802D01*
X251089792Y-29990645D01*
X251089789Y-29990643D01*
X250971592Y-29907881D01*
X250906749Y-29862477D01*
X250901767Y-29860154D01*
X250901762Y-29860151D01*
X250704225Y-29768039D01*
X250704224Y-29768039D01*
X250699243Y-29765716D01*
X250693935Y-29764294D01*
X250693933Y-29764293D01*
X250483402Y-29707881D01*
X250483400Y-29707881D01*
X250478087Y-29706457D01*
X250250000Y-29686502D01*
X250021913Y-29706457D01*
X250016600Y-29707881D01*
X250016598Y-29707881D01*
X249806067Y-29764293D01*
X249806065Y-29764294D01*
X249800757Y-29765716D01*
X249795776Y-29768039D01*
X249795775Y-29768039D01*
X249598238Y-29860151D01*
X249598233Y-29860154D01*
X249593251Y-29862477D01*
X249528408Y-29907881D01*
X249410211Y-29990643D01*
X249410208Y-29990645D01*
X249405700Y-29993802D01*
X249243802Y-30155700D01*
X249240645Y-30160208D01*
X249240643Y-30160211D01*
X249214394Y-30197699D01*
X249112477Y-30343251D01*
X249110153Y-30348235D01*
X249108829Y-30350528D01*
X249057447Y-30399521D01*
X248987733Y-30412957D01*
X248921822Y-30386571D01*
X248890591Y-30350528D01*
X248883934Y-30338998D01*
X248847491Y-30286952D01*
X248837012Y-30278576D01*
X248823566Y-30285644D01*
X248122022Y-30987188D01*
X248114408Y-31001132D01*
X247447694Y-31001132D01*
X247450924Y-30955968D01*
X247479885Y-30910905D01*
X248465077Y-29925713D01*
X248471507Y-29913938D01*
X248462211Y-29901923D01*
X248411006Y-29866069D01*
X248401511Y-29860586D01*
X248204053Y-29768510D01*
X248193761Y-29764764D01*
X247983312Y-29708375D01*
X247972519Y-29706472D01*
X247755475Y-29687483D01*
X247744525Y-29687483D01*
X247527481Y-29706472D01*
X247516688Y-29708375D01*
X247306239Y-29764764D01*
X247295947Y-29768510D01*
X247098489Y-29860586D01*
X247088993Y-29866069D01*
X246910533Y-29991028D01*
X246902125Y-29998084D01*
X246897786Y-30002423D01*
X246835474Y-30036449D01*
X246764659Y-30031384D01*
X246733126Y-30014154D01*
X246717473Y-30002423D01*
X246646705Y-29949385D01*
X246510316Y-29898255D01*
X246448134Y-29891500D01*
X243951866Y-29891500D01*
X243889684Y-29898255D01*
X243753295Y-29949385D01*
X243636739Y-30036739D01*
X243549385Y-30153295D01*
X243498255Y-30289684D01*
X243491500Y-30351866D01*
X243491500Y-31526812D01*
X243471498Y-31594933D01*
X243417842Y-31641426D01*
X243347568Y-31651530D01*
X243282988Y-31622036D01*
X243276405Y-31615907D01*
X243154300Y-31493802D01*
X243149792Y-31490645D01*
X243149789Y-31490643D01*
X243068040Y-31433402D01*
X242966749Y-31362477D01*
X242961767Y-31360154D01*
X242961762Y-31360151D01*
X242764225Y-31268039D01*
X242764224Y-31268039D01*
X242759243Y-31265716D01*
X242753935Y-31264294D01*
X242753933Y-31264293D01*
X242543402Y-31207881D01*
X242543400Y-31207881D01*
X242538087Y-31206457D01*
X242310000Y-31186502D01*
X242081913Y-31206457D01*
X242076600Y-31207881D01*
X242076598Y-31207881D01*
X241866067Y-31264293D01*
X241866065Y-31264294D01*
X241860757Y-31265716D01*
X241855776Y-31268039D01*
X241855775Y-31268039D01*
X241658238Y-31360151D01*
X241658233Y-31360154D01*
X241653251Y-31362477D01*
X241551960Y-31433402D01*
X241470211Y-31490643D01*
X241470208Y-31490645D01*
X241465700Y-31493802D01*
X241303802Y-31655700D01*
X241300645Y-31660208D01*
X241300643Y-31660211D01*
X241275445Y-31696198D01*
X241172477Y-31843251D01*
X241170154Y-31848233D01*
X241170151Y-31848238D01*
X241119447Y-31956975D01*
X241075716Y-32050757D01*
X241074294Y-32056065D01*
X241074293Y-32056067D01*
X241021286Y-32253891D01*
X241016457Y-32271913D01*
X240996502Y-32500000D01*
X241016457Y-32728087D01*
X241017880Y-32733399D01*
X241017881Y-32733402D01*
X241067470Y-32918467D01*
X241075716Y-32949243D01*
X241078039Y-32954224D01*
X241078039Y-32954225D01*
X241170151Y-33151762D01*
X241170154Y-33151767D01*
X241172477Y-33156749D01*
X241303802Y-33344300D01*
X241465700Y-33506198D01*
X241470208Y-33509355D01*
X241470211Y-33509357D01*
X241477152Y-33514217D01*
X241653251Y-33637523D01*
X241658233Y-33639846D01*
X241658238Y-33639849D01*
X241831212Y-33720507D01*
X241860757Y-33734284D01*
X241866065Y-33735706D01*
X241866067Y-33735707D01*
X242076598Y-33792119D01*
X242076600Y-33792119D01*
X242081913Y-33793543D01*
X242310000Y-33813498D01*
X242538087Y-33793543D01*
X242543400Y-33792119D01*
X242543402Y-33792119D01*
X242753933Y-33735707D01*
X242753935Y-33735706D01*
X242759243Y-33734284D01*
X242788788Y-33720507D01*
X242961762Y-33639849D01*
X242961767Y-33639846D01*
X242966749Y-33637523D01*
X243142848Y-33514217D01*
X243149789Y-33509357D01*
X243149792Y-33509355D01*
X243154300Y-33506198D01*
X243304939Y-33355559D01*
X243367251Y-33321533D01*
X243438066Y-33326598D01*
X243494902Y-33369145D01*
X243519713Y-33435665D01*
X243515741Y-33477264D01*
X243506457Y-33511913D01*
X243486502Y-33740000D01*
X243506457Y-33968087D01*
X243507881Y-33973400D01*
X243507881Y-33973402D01*
X243552023Y-34138139D01*
X243565716Y-34189243D01*
X243568039Y-34194224D01*
X243568039Y-34194225D01*
X243660151Y-34391762D01*
X243660154Y-34391767D01*
X243662477Y-34396749D01*
X243793802Y-34584300D01*
X243955700Y-34746198D01*
X243960208Y-34749355D01*
X243960211Y-34749357D01*
X244035112Y-34801803D01*
X244143251Y-34877523D01*
X244148233Y-34879846D01*
X244148238Y-34879849D01*
X244182457Y-34895805D01*
X244235742Y-34942722D01*
X244255203Y-35010999D01*
X244234661Y-35078959D01*
X244182457Y-35124195D01*
X244148238Y-35140151D01*
X244148233Y-35140154D01*
X244143251Y-35142477D01*
X244067134Y-35195775D01*
X243960211Y-35270643D01*
X243960208Y-35270645D01*
X243955700Y-35273802D01*
X243800981Y-35428521D01*
X243738669Y-35462547D01*
X243667854Y-35457482D01*
X243611018Y-35414935D01*
X243590179Y-35372038D01*
X243545706Y-35206064D01*
X243544284Y-35200757D01*
X243487489Y-35078959D01*
X243449849Y-34998238D01*
X243449846Y-34998233D01*
X243447523Y-34993251D01*
X243316198Y-34805700D01*
X243154300Y-34643802D01*
X243149792Y-34640645D01*
X243149789Y-34640643D01*
X243022802Y-34551726D01*
X242966749Y-34512477D01*
X242961767Y-34510154D01*
X242961762Y-34510151D01*
X242764225Y-34418039D01*
X242764224Y-34418039D01*
X242759243Y-34415716D01*
X242753935Y-34414294D01*
X242753933Y-34414293D01*
X242543402Y-34357881D01*
X242543400Y-34357881D01*
X242538087Y-34356457D01*
X242310000Y-34336502D01*
X242081913Y-34356457D01*
X242076600Y-34357881D01*
X242076598Y-34357881D01*
X241866067Y-34414293D01*
X241866065Y-34414294D01*
X241860757Y-34415716D01*
X241855776Y-34418039D01*
X241855775Y-34418039D01*
X241658238Y-34510151D01*
X241658233Y-34510154D01*
X241653251Y-34512477D01*
X241597198Y-34551726D01*
X241470211Y-34640643D01*
X241470208Y-34640645D01*
X241465700Y-34643802D01*
X241303802Y-34805700D01*
X241172477Y-34993251D01*
X241170154Y-34998233D01*
X241170151Y-34998238D01*
X241132511Y-35078959D01*
X241075716Y-35200757D01*
X241074294Y-35206064D01*
X241074293Y-35206067D01*
X241029821Y-35372038D01*
X241016457Y-35421913D01*
X240996502Y-35650000D01*
X236003498Y-35650000D01*
X235983543Y-35421913D01*
X235970179Y-35372038D01*
X235925707Y-35206067D01*
X235925706Y-35206064D01*
X235924284Y-35200757D01*
X235867489Y-35078959D01*
X235829849Y-34998238D01*
X235829846Y-34998233D01*
X235827523Y-34993251D01*
X235696198Y-34805700D01*
X235534300Y-34643802D01*
X235529792Y-34640645D01*
X235529789Y-34640643D01*
X235402802Y-34551726D01*
X235346749Y-34512477D01*
X235341767Y-34510154D01*
X235341762Y-34510151D01*
X235144225Y-34418039D01*
X235144224Y-34418039D01*
X235139243Y-34415716D01*
X235133935Y-34414294D01*
X235133933Y-34414293D01*
X234923402Y-34357881D01*
X234923400Y-34357881D01*
X234918087Y-34356457D01*
X234690000Y-34336502D01*
X234461913Y-34356457D01*
X234456600Y-34357881D01*
X234456598Y-34357881D01*
X234246067Y-34414293D01*
X234246065Y-34414294D01*
X234240757Y-34415716D01*
X234235776Y-34418039D01*
X234235775Y-34418039D01*
X234038238Y-34510151D01*
X234038233Y-34510154D01*
X234033251Y-34512477D01*
X233977198Y-34551726D01*
X233850211Y-34640643D01*
X233850208Y-34640645D01*
X233845700Y-34643802D01*
X233683802Y-34805700D01*
X233552477Y-34993251D01*
X233550154Y-34998233D01*
X233550151Y-34998238D01*
X233512511Y-35078959D01*
X233455716Y-35200757D01*
X233454294Y-35206064D01*
X233454293Y-35206067D01*
X233409821Y-35372038D01*
X233396457Y-35421913D01*
X233376502Y-35650000D01*
X223508000Y-35650000D01*
X223508000Y-32500000D01*
X233376502Y-32500000D01*
X233396457Y-32728087D01*
X233397880Y-32733399D01*
X233397881Y-32733402D01*
X233447470Y-32918467D01*
X233455716Y-32949243D01*
X233458039Y-32954224D01*
X233458039Y-32954225D01*
X233550151Y-33151762D01*
X233550154Y-33151767D01*
X233552477Y-33156749D01*
X233683802Y-33344300D01*
X233845700Y-33506198D01*
X233850208Y-33509355D01*
X233850211Y-33509357D01*
X233857152Y-33514217D01*
X234033251Y-33637523D01*
X234038233Y-33639846D01*
X234038238Y-33639849D01*
X234211212Y-33720507D01*
X234240757Y-33734284D01*
X234246065Y-33735706D01*
X234246067Y-33735707D01*
X234456598Y-33792119D01*
X234456600Y-33792119D01*
X234461913Y-33793543D01*
X234690000Y-33813498D01*
X234918087Y-33793543D01*
X234923400Y-33792119D01*
X234923402Y-33792119D01*
X235133933Y-33735707D01*
X235133935Y-33735706D01*
X235139243Y-33734284D01*
X235168788Y-33720507D01*
X235341762Y-33639849D01*
X235341767Y-33639846D01*
X235346749Y-33637523D01*
X235522848Y-33514217D01*
X235529789Y-33509357D01*
X235529792Y-33509355D01*
X235534300Y-33506198D01*
X235696198Y-33344300D01*
X235827523Y-33156749D01*
X235829846Y-33151767D01*
X235829849Y-33151762D01*
X235921961Y-32954225D01*
X235921961Y-32954224D01*
X235924284Y-32949243D01*
X235932531Y-32918467D01*
X235982119Y-32733402D01*
X235982120Y-32733399D01*
X235983543Y-32728087D01*
X236003498Y-32500000D01*
X235983543Y-32271913D01*
X235978714Y-32253891D01*
X235925707Y-32056067D01*
X235925706Y-32056065D01*
X235924284Y-32050757D01*
X235880553Y-31956975D01*
X235829849Y-31848238D01*
X235829846Y-31848233D01*
X235827523Y-31843251D01*
X235724555Y-31696198D01*
X235699357Y-31660211D01*
X235699355Y-31660208D01*
X235696198Y-31655700D01*
X235534300Y-31493802D01*
X235529792Y-31490645D01*
X235529789Y-31490643D01*
X235448040Y-31433402D01*
X235346749Y-31362477D01*
X235341767Y-31360154D01*
X235341762Y-31360151D01*
X235144225Y-31268039D01*
X235144224Y-31268039D01*
X235139243Y-31265716D01*
X235133935Y-31264294D01*
X235133933Y-31264293D01*
X234923402Y-31207881D01*
X234923400Y-31207881D01*
X234918087Y-31206457D01*
X234690000Y-31186502D01*
X234461913Y-31206457D01*
X234456600Y-31207881D01*
X234456598Y-31207881D01*
X234246067Y-31264293D01*
X234246065Y-31264294D01*
X234240757Y-31265716D01*
X234235776Y-31268039D01*
X234235775Y-31268039D01*
X234038238Y-31360151D01*
X234038233Y-31360154D01*
X234033251Y-31362477D01*
X233931960Y-31433402D01*
X233850211Y-31490643D01*
X233850208Y-31490645D01*
X233845700Y-31493802D01*
X233683802Y-31655700D01*
X233680645Y-31660208D01*
X233680643Y-31660211D01*
X233655445Y-31696198D01*
X233552477Y-31843251D01*
X233550154Y-31848233D01*
X233550151Y-31848238D01*
X233499447Y-31956975D01*
X233455716Y-32050757D01*
X233454294Y-32056065D01*
X233454293Y-32056067D01*
X233401286Y-32253891D01*
X233396457Y-32271913D01*
X233376502Y-32500000D01*
X223508000Y-32500000D01*
X223508000Y-31134500D01*
X223528002Y-31066379D01*
X223581658Y-31019886D01*
X223651932Y-31009782D01*
X223716512Y-31039276D01*
X223755707Y-31101889D01*
X223763549Y-31131154D01*
X223765716Y-31139243D01*
X223768039Y-31144224D01*
X223768039Y-31144225D01*
X223860151Y-31341762D01*
X223860154Y-31341767D01*
X223862477Y-31346749D01*
X223919160Y-31427700D01*
X223988559Y-31526812D01*
X223993802Y-31534300D01*
X224155700Y-31696198D01*
X224160208Y-31699355D01*
X224160211Y-31699357D01*
X224182662Y-31715077D01*
X224343251Y-31827523D01*
X224348233Y-31829846D01*
X224348238Y-31829849D01*
X224511812Y-31906124D01*
X224550757Y-31924284D01*
X224556065Y-31925706D01*
X224556067Y-31925707D01*
X224766598Y-31982119D01*
X224766600Y-31982119D01*
X224771913Y-31983543D01*
X225000000Y-32003498D01*
X225228087Y-31983543D01*
X225233400Y-31982119D01*
X225233402Y-31982119D01*
X225443933Y-31925707D01*
X225443935Y-31925706D01*
X225449243Y-31924284D01*
X225488188Y-31906124D01*
X225651762Y-31829849D01*
X225651767Y-31829846D01*
X225656749Y-31827523D01*
X225817338Y-31715077D01*
X225839789Y-31699357D01*
X225839792Y-31699355D01*
X225844300Y-31696198D01*
X226006198Y-31534300D01*
X226011442Y-31526812D01*
X226080840Y-31427700D01*
X226137523Y-31346749D01*
X226139846Y-31341767D01*
X226139849Y-31341762D01*
X226231961Y-31144225D01*
X226231961Y-31144224D01*
X226234284Y-31139243D01*
X226236452Y-31131154D01*
X226292119Y-30923402D01*
X226292119Y-30923400D01*
X226293543Y-30918087D01*
X226313498Y-30690000D01*
X227186502Y-30690000D01*
X227206457Y-30918087D01*
X227207881Y-30923400D01*
X227207881Y-30923402D01*
X227263549Y-31131154D01*
X227265716Y-31139243D01*
X227268039Y-31144224D01*
X227268039Y-31144225D01*
X227360151Y-31341762D01*
X227360154Y-31341767D01*
X227362477Y-31346749D01*
X227419160Y-31427700D01*
X227488559Y-31526812D01*
X227493802Y-31534300D01*
X227655700Y-31696198D01*
X227660208Y-31699355D01*
X227660211Y-31699357D01*
X227682662Y-31715077D01*
X227843251Y-31827523D01*
X227848233Y-31829846D01*
X227848238Y-31829849D01*
X228011812Y-31906124D01*
X228050757Y-31924284D01*
X228056065Y-31925706D01*
X228056067Y-31925707D01*
X228266598Y-31982119D01*
X228266600Y-31982119D01*
X228271913Y-31983543D01*
X228500000Y-32003498D01*
X228728087Y-31983543D01*
X228733400Y-31982119D01*
X228733402Y-31982119D01*
X228943933Y-31925707D01*
X228943935Y-31925706D01*
X228949243Y-31924284D01*
X228988188Y-31906124D01*
X229151762Y-31829849D01*
X229151767Y-31829846D01*
X229156749Y-31827523D01*
X229317338Y-31715077D01*
X229339789Y-31699357D01*
X229339792Y-31699355D01*
X229344300Y-31696198D01*
X229506198Y-31534300D01*
X229511442Y-31526812D01*
X229580840Y-31427700D01*
X229637523Y-31346749D01*
X229639846Y-31341767D01*
X229639849Y-31341762D01*
X229731961Y-31144225D01*
X229731961Y-31144224D01*
X229734284Y-31139243D01*
X229736452Y-31131154D01*
X229792119Y-30923402D01*
X229792119Y-30923400D01*
X229793543Y-30918087D01*
X229813498Y-30690000D01*
X229793543Y-30461913D01*
X229765083Y-30355700D01*
X229735707Y-30246067D01*
X229735706Y-30246065D01*
X229734284Y-30240757D01*
X229731266Y-30234284D01*
X229639849Y-30038238D01*
X229639846Y-30038233D01*
X229637523Y-30033251D01*
X229520156Y-29865634D01*
X229509357Y-29850211D01*
X229509355Y-29850208D01*
X229506198Y-29845700D01*
X229344300Y-29683802D01*
X229339792Y-29680645D01*
X229339789Y-29680643D01*
X229261611Y-29625902D01*
X229156749Y-29552477D01*
X229151767Y-29550154D01*
X229151762Y-29550151D01*
X228954225Y-29458039D01*
X228954224Y-29458039D01*
X228949243Y-29455716D01*
X228943935Y-29454294D01*
X228943933Y-29454293D01*
X228733402Y-29397881D01*
X228733400Y-29397881D01*
X228728087Y-29396457D01*
X228500000Y-29376502D01*
X228271913Y-29396457D01*
X228266600Y-29397881D01*
X228266598Y-29397881D01*
X228056067Y-29454293D01*
X228056065Y-29454294D01*
X228050757Y-29455716D01*
X228045776Y-29458039D01*
X228045775Y-29458039D01*
X227848238Y-29550151D01*
X227848233Y-29550154D01*
X227843251Y-29552477D01*
X227738389Y-29625902D01*
X227660211Y-29680643D01*
X227660208Y-29680645D01*
X227655700Y-29683802D01*
X227493802Y-29845700D01*
X227490645Y-29850208D01*
X227490643Y-29850211D01*
X227479844Y-29865634D01*
X227362477Y-30033251D01*
X227360154Y-30038233D01*
X227360151Y-30038238D01*
X227268734Y-30234284D01*
X227265716Y-30240757D01*
X227264294Y-30246065D01*
X227264293Y-30246067D01*
X227234917Y-30355700D01*
X227206457Y-30461913D01*
X227186502Y-30690000D01*
X226313498Y-30690000D01*
X226293543Y-30461913D01*
X226265083Y-30355700D01*
X226235707Y-30246067D01*
X226235706Y-30246065D01*
X226234284Y-30240757D01*
X226231266Y-30234284D01*
X226139849Y-30038238D01*
X226139846Y-30038233D01*
X226137523Y-30033251D01*
X226020156Y-29865634D01*
X226009357Y-29850211D01*
X226009355Y-29850208D01*
X226006198Y-29845700D01*
X225844300Y-29683802D01*
X225839792Y-29680645D01*
X225839789Y-29680643D01*
X225761611Y-29625902D01*
X225656749Y-29552477D01*
X225651767Y-29550154D01*
X225651762Y-29550151D01*
X225454225Y-29458039D01*
X225454224Y-29458039D01*
X225449243Y-29455716D01*
X225443935Y-29454294D01*
X225443933Y-29454293D01*
X225233402Y-29397881D01*
X225233400Y-29397881D01*
X225228087Y-29396457D01*
X225000000Y-29376502D01*
X224771913Y-29396457D01*
X224766600Y-29397881D01*
X224766598Y-29397881D01*
X224556067Y-29454293D01*
X224556065Y-29454294D01*
X224550757Y-29455716D01*
X224545776Y-29458039D01*
X224545775Y-29458039D01*
X224348238Y-29550151D01*
X224348233Y-29550154D01*
X224343251Y-29552477D01*
X224238389Y-29625902D01*
X224160211Y-29680643D01*
X224160208Y-29680645D01*
X224155700Y-29683802D01*
X223993802Y-29845700D01*
X223990645Y-29850208D01*
X223990643Y-29850211D01*
X223979844Y-29865634D01*
X223862477Y-30033251D01*
X223860154Y-30038233D01*
X223860151Y-30038238D01*
X223768734Y-30234284D01*
X223765716Y-30240757D01*
X223764294Y-30246065D01*
X223764293Y-30246067D01*
X223755707Y-30278111D01*
X223718755Y-30338734D01*
X223654895Y-30369755D01*
X223584400Y-30361327D01*
X223529653Y-30316124D01*
X223508000Y-30245500D01*
X223508000Y-29000000D01*
X234686502Y-29000000D01*
X234706457Y-29228087D01*
X234707881Y-29233400D01*
X234707881Y-29233402D01*
X234751444Y-29395978D01*
X234765716Y-29449243D01*
X234768039Y-29454224D01*
X234768039Y-29454225D01*
X234860151Y-29651762D01*
X234860154Y-29651767D01*
X234862477Y-29656749D01*
X234993802Y-29844300D01*
X235155700Y-30006198D01*
X235160208Y-30009355D01*
X235160211Y-30009357D01*
X235238389Y-30064098D01*
X235343251Y-30137523D01*
X235348233Y-30139846D01*
X235348238Y-30139849D01*
X235545775Y-30231961D01*
X235550757Y-30234284D01*
X235556065Y-30235706D01*
X235556067Y-30235707D01*
X235766598Y-30292119D01*
X235766600Y-30292119D01*
X235771913Y-30293543D01*
X236000000Y-30313498D01*
X236228087Y-30293543D01*
X236233400Y-30292119D01*
X236233402Y-30292119D01*
X236443933Y-30235707D01*
X236443935Y-30235706D01*
X236449243Y-30234284D01*
X236454225Y-30231961D01*
X236651762Y-30139849D01*
X236651767Y-30139846D01*
X236656749Y-30137523D01*
X236761611Y-30064098D01*
X236839789Y-30009357D01*
X236839792Y-30009355D01*
X236844300Y-30006198D01*
X237006198Y-29844300D01*
X237137523Y-29656749D01*
X237139846Y-29651767D01*
X237139849Y-29651762D01*
X237231961Y-29454225D01*
X237231961Y-29454224D01*
X237234284Y-29449243D01*
X237248557Y-29395978D01*
X237292119Y-29233402D01*
X237292119Y-29233400D01*
X237293543Y-29228087D01*
X237313498Y-29000000D01*
X239686502Y-29000000D01*
X239706457Y-29228087D01*
X239707881Y-29233400D01*
X239707881Y-29233402D01*
X239751444Y-29395978D01*
X239765716Y-29449243D01*
X239768039Y-29454224D01*
X239768039Y-29454225D01*
X239860151Y-29651762D01*
X239860154Y-29651767D01*
X239862477Y-29656749D01*
X239993802Y-29844300D01*
X240155700Y-30006198D01*
X240160208Y-30009355D01*
X240160211Y-30009357D01*
X240238389Y-30064098D01*
X240343251Y-30137523D01*
X240348233Y-30139846D01*
X240348238Y-30139849D01*
X240545775Y-30231961D01*
X240550757Y-30234284D01*
X240556065Y-30235706D01*
X240556067Y-30235707D01*
X240766598Y-30292119D01*
X240766600Y-30292119D01*
X240771913Y-30293543D01*
X241000000Y-30313498D01*
X241228087Y-30293543D01*
X241233400Y-30292119D01*
X241233402Y-30292119D01*
X241443933Y-30235707D01*
X241443935Y-30235706D01*
X241449243Y-30234284D01*
X241454225Y-30231961D01*
X241651762Y-30139849D01*
X241651767Y-30139846D01*
X241656749Y-30137523D01*
X241761611Y-30064098D01*
X241839789Y-30009357D01*
X241839792Y-30009355D01*
X241844300Y-30006198D01*
X242006198Y-29844300D01*
X242137523Y-29656749D01*
X242139846Y-29651767D01*
X242139849Y-29651762D01*
X242231961Y-29454225D01*
X242231961Y-29454224D01*
X242234284Y-29449243D01*
X242248557Y-29395978D01*
X242292119Y-29233402D01*
X242292119Y-29233400D01*
X242293543Y-29228087D01*
X242313498Y-29000000D01*
X242293543Y-28771913D01*
X242292119Y-28766598D01*
X242235707Y-28556067D01*
X242235706Y-28556065D01*
X242234284Y-28550757D01*
X242231961Y-28545775D01*
X242139849Y-28348238D01*
X242139846Y-28348233D01*
X242137523Y-28343251D01*
X242006198Y-28155700D01*
X241844300Y-27993802D01*
X241839792Y-27990645D01*
X241839789Y-27990643D01*
X241761611Y-27935902D01*
X241656749Y-27862477D01*
X241651767Y-27860154D01*
X241651762Y-27860151D01*
X241454225Y-27768039D01*
X241454224Y-27768039D01*
X241449243Y-27765716D01*
X241443935Y-27764294D01*
X241443933Y-27764293D01*
X241233402Y-27707881D01*
X241233400Y-27707881D01*
X241228087Y-27706457D01*
X241000000Y-27686502D01*
X240771913Y-27706457D01*
X240766600Y-27707881D01*
X240766598Y-27707881D01*
X240556067Y-27764293D01*
X240556065Y-27764294D01*
X240550757Y-27765716D01*
X240545776Y-27768039D01*
X240545775Y-27768039D01*
X240348238Y-27860151D01*
X240348233Y-27860154D01*
X240343251Y-27862477D01*
X240238389Y-27935902D01*
X240160211Y-27990643D01*
X240160208Y-27990645D01*
X240155700Y-27993802D01*
X239993802Y-28155700D01*
X239862477Y-28343251D01*
X239860154Y-28348233D01*
X239860151Y-28348238D01*
X239768039Y-28545775D01*
X239765716Y-28550757D01*
X239764294Y-28556065D01*
X239764293Y-28556067D01*
X239707881Y-28766598D01*
X239706457Y-28771913D01*
X239686502Y-29000000D01*
X237313498Y-29000000D01*
X237293543Y-28771913D01*
X237292119Y-28766598D01*
X237235707Y-28556067D01*
X237235706Y-28556065D01*
X237234284Y-28550757D01*
X237231961Y-28545775D01*
X237139849Y-28348238D01*
X237139846Y-28348233D01*
X237137523Y-28343251D01*
X237006198Y-28155700D01*
X236844300Y-27993802D01*
X236839792Y-27990645D01*
X236839789Y-27990643D01*
X236761611Y-27935902D01*
X236656749Y-27862477D01*
X236651767Y-27860154D01*
X236651762Y-27860151D01*
X236454225Y-27768039D01*
X236454224Y-27768039D01*
X236449243Y-27765716D01*
X236443935Y-27764294D01*
X236443933Y-27764293D01*
X236233402Y-27707881D01*
X236233400Y-27707881D01*
X236228087Y-27706457D01*
X236000000Y-27686502D01*
X235771913Y-27706457D01*
X235766600Y-27707881D01*
X235766598Y-27707881D01*
X235556067Y-27764293D01*
X235556065Y-27764294D01*
X235550757Y-27765716D01*
X235545776Y-27768039D01*
X235545775Y-27768039D01*
X235348238Y-27860151D01*
X235348233Y-27860154D01*
X235343251Y-27862477D01*
X235238389Y-27935902D01*
X235160211Y-27990643D01*
X235160208Y-27990645D01*
X235155700Y-27993802D01*
X234993802Y-28155700D01*
X234862477Y-28343251D01*
X234860154Y-28348233D01*
X234860151Y-28348238D01*
X234768039Y-28545775D01*
X234765716Y-28550757D01*
X234764294Y-28556065D01*
X234764293Y-28556067D01*
X234707881Y-28766598D01*
X234706457Y-28771913D01*
X234686502Y-29000000D01*
X223508000Y-29000000D01*
X223508000Y-28394669D01*
X227342001Y-28394669D01*
X227342371Y-28401490D01*
X227347895Y-28452352D01*
X227351521Y-28467604D01*
X227396676Y-28588054D01*
X227405214Y-28603649D01*
X227481715Y-28705724D01*
X227494276Y-28718285D01*
X227596351Y-28794786D01*
X227611946Y-28803324D01*
X227732394Y-28848478D01*
X227747649Y-28852105D01*
X227798514Y-28857631D01*
X227805328Y-28858000D01*
X228427885Y-28858000D01*
X228443124Y-28853525D01*
X228444329Y-28852135D01*
X228446000Y-28844452D01*
X228446000Y-28839884D01*
X228954000Y-28839884D01*
X228958475Y-28855123D01*
X228959865Y-28856328D01*
X228967548Y-28857999D01*
X229594669Y-28857999D01*
X229601490Y-28857629D01*
X229652352Y-28852105D01*
X229667604Y-28848479D01*
X229788054Y-28803324D01*
X229803649Y-28794786D01*
X229905724Y-28718285D01*
X229918285Y-28705724D01*
X229994786Y-28603649D01*
X230003324Y-28588054D01*
X230048478Y-28467606D01*
X230052105Y-28452351D01*
X230057631Y-28401486D01*
X230058000Y-28394672D01*
X230058000Y-27772115D01*
X230053525Y-27756876D01*
X230052135Y-27755671D01*
X230044452Y-27754000D01*
X228972115Y-27754000D01*
X228956876Y-27758475D01*
X228955671Y-27759865D01*
X228954000Y-27767548D01*
X228954000Y-28839884D01*
X228446000Y-28839884D01*
X228446000Y-27772115D01*
X228441525Y-27756876D01*
X228440135Y-27755671D01*
X228432452Y-27754000D01*
X227360116Y-27754000D01*
X227344877Y-27758475D01*
X227343672Y-27759865D01*
X227342001Y-27767548D01*
X227342001Y-28394669D01*
X223508000Y-28394669D01*
X223508000Y-27586062D01*
X243733606Y-27586062D01*
X243742902Y-27598077D01*
X243794107Y-27633931D01*
X243803602Y-27639414D01*
X244001060Y-27731490D01*
X244011352Y-27735236D01*
X244221801Y-27791625D01*
X244232594Y-27793528D01*
X244449638Y-27812517D01*
X244460588Y-27812517D01*
X244677632Y-27793528D01*
X244688425Y-27791625D01*
X244898874Y-27735236D01*
X244909166Y-27731490D01*
X245106624Y-27639414D01*
X245116124Y-27633929D01*
X245117023Y-27633299D01*
X245117483Y-27633144D01*
X245120881Y-27631182D01*
X245121275Y-27631865D01*
X245184297Y-27610612D01*
X245253157Y-27627898D01*
X245278916Y-27650934D01*
X245280120Y-27649730D01*
X245286471Y-27656081D01*
X245291852Y-27663261D01*
X245299032Y-27668642D01*
X245299035Y-27668645D01*
X245322862Y-27686502D01*
X245408408Y-27750615D01*
X245544797Y-27801745D01*
X245606979Y-27808500D01*
X247303247Y-27808500D01*
X247365429Y-27801745D01*
X247501818Y-27750615D01*
X247618374Y-27663261D01*
X247705728Y-27546705D01*
X247756858Y-27410316D01*
X247763613Y-27348134D01*
X247763613Y-25651866D01*
X247756858Y-25589684D01*
X247705728Y-25453295D01*
X247618374Y-25336739D01*
X247501818Y-25249385D01*
X247365429Y-25198255D01*
X247303247Y-25191500D01*
X245606979Y-25191500D01*
X245544797Y-25198255D01*
X245408408Y-25249385D01*
X245387888Y-25264764D01*
X245299035Y-25331355D01*
X245299032Y-25331358D01*
X245291852Y-25336739D01*
X245286471Y-25343919D01*
X245280120Y-25350270D01*
X245277978Y-25348128D01*
X245233267Y-25381564D01*
X245162449Y-25386594D01*
X245121078Y-25368477D01*
X245120881Y-25368818D01*
X245117815Y-25367048D01*
X245117023Y-25366701D01*
X245116124Y-25366071D01*
X245106624Y-25360586D01*
X244909166Y-25268510D01*
X244898874Y-25264764D01*
X244688425Y-25208375D01*
X244677632Y-25206472D01*
X244460588Y-25187483D01*
X244449638Y-25187483D01*
X244232594Y-25206472D01*
X244221801Y-25208375D01*
X244011352Y-25264764D01*
X244001060Y-25268510D01*
X243803602Y-25360586D01*
X243794107Y-25366069D01*
X243742065Y-25402509D01*
X243733689Y-25412988D01*
X243740757Y-25426434D01*
X244725228Y-26410905D01*
X244759254Y-26473217D01*
X244754189Y-26544032D01*
X244725228Y-26589095D01*
X243740036Y-27574287D01*
X243733606Y-27586062D01*
X223508000Y-27586062D01*
X223508000Y-23733364D01*
X223528002Y-23665243D01*
X223581658Y-23618750D01*
X223651932Y-23608646D01*
X223716512Y-23638140D01*
X223742116Y-23668658D01*
X223761411Y-23700897D01*
X223764561Y-23706161D01*
X223944313Y-23930528D01*
X223958903Y-23944373D01*
X224148672Y-24124457D01*
X224152851Y-24128423D01*
X224386317Y-24296186D01*
X224390112Y-24298195D01*
X224390113Y-24298196D01*
X224411869Y-24309715D01*
X224640392Y-24430712D01*
X224664699Y-24439607D01*
X224900014Y-24525720D01*
X224910373Y-24529511D01*
X225191264Y-24590755D01*
X225219841Y-24593004D01*
X225414282Y-24608307D01*
X225414291Y-24608307D01*
X225416739Y-24608500D01*
X225572271Y-24608500D01*
X225574407Y-24608354D01*
X225574418Y-24608354D01*
X225782548Y-24594165D01*
X225782554Y-24594164D01*
X225786825Y-24593873D01*
X225791020Y-24593004D01*
X225791022Y-24593004D01*
X225927583Y-24564724D01*
X226068342Y-24535574D01*
X226339343Y-24439607D01*
X226594812Y-24307750D01*
X226598313Y-24305289D01*
X226598317Y-24305287D01*
X226712417Y-24225096D01*
X226830023Y-24142441D01*
X227018960Y-23966870D01*
X227037479Y-23949661D01*
X227037481Y-23949658D01*
X227040622Y-23946740D01*
X227222713Y-23724268D01*
X227372927Y-23479142D01*
X227443195Y-23319066D01*
X227488890Y-23264733D01*
X227556708Y-23243728D01*
X227625116Y-23262722D01*
X227653804Y-23287216D01*
X227742865Y-23390031D01*
X227742869Y-23390035D01*
X227746250Y-23393938D01*
X227918126Y-23536632D01*
X227932838Y-23545229D01*
X227991445Y-23579476D01*
X228040169Y-23631114D01*
X228053240Y-23700897D01*
X228026509Y-23766669D01*
X227986055Y-23800027D01*
X227973607Y-23806507D01*
X227969474Y-23809610D01*
X227969471Y-23809612D01*
X227879897Y-23876866D01*
X227794965Y-23940635D01*
X227640629Y-24102138D01*
X227637715Y-24106410D01*
X227637714Y-24106411D01*
X227620991Y-24130926D01*
X227514743Y-24286680D01*
X227499003Y-24320590D01*
X227444670Y-24437641D01*
X227420688Y-24489305D01*
X227360989Y-24704570D01*
X227337251Y-24926695D01*
X227337548Y-24931848D01*
X227337548Y-24931851D01*
X227343011Y-25026590D01*
X227350110Y-25149715D01*
X227351247Y-25154761D01*
X227351248Y-25154767D01*
X227359610Y-25191869D01*
X227399222Y-25367639D01*
X227483266Y-25574616D01*
X227485965Y-25579020D01*
X227576929Y-25727460D01*
X227599987Y-25765088D01*
X227746250Y-25933938D01*
X227750225Y-25937238D01*
X227750231Y-25937244D01*
X227755425Y-25941556D01*
X227795059Y-26000460D01*
X227796555Y-26071441D01*
X227759439Y-26131962D01*
X227719168Y-26156480D01*
X227611946Y-26196676D01*
X227596351Y-26205214D01*
X227494276Y-26281715D01*
X227481715Y-26294276D01*
X227405214Y-26396351D01*
X227396676Y-26411946D01*
X227351522Y-26532394D01*
X227347895Y-26547649D01*
X227342369Y-26598514D01*
X227342000Y-26605328D01*
X227342000Y-27227885D01*
X227346475Y-27243124D01*
X227347865Y-27244329D01*
X227355548Y-27246000D01*
X230039884Y-27246000D01*
X230055123Y-27241525D01*
X230056328Y-27240135D01*
X230057999Y-27232452D01*
X230057999Y-26605331D01*
X230057629Y-26598510D01*
X230052105Y-26547648D01*
X230048479Y-26532396D01*
X230038387Y-26505475D01*
X243142596Y-26505475D01*
X243161585Y-26722519D01*
X243163488Y-26733312D01*
X243219877Y-26943761D01*
X243223623Y-26954053D01*
X243315699Y-27151511D01*
X243321182Y-27161006D01*
X243357622Y-27213048D01*
X243368101Y-27221424D01*
X243381547Y-27214356D01*
X244083091Y-26512812D01*
X244090705Y-26498868D01*
X244090574Y-26497035D01*
X244086323Y-26490420D01*
X243380826Y-25784923D01*
X243369051Y-25778493D01*
X243357036Y-25787789D01*
X243321182Y-25838994D01*
X243315699Y-25848489D01*
X243223623Y-26045947D01*
X243219877Y-26056239D01*
X243163488Y-26266688D01*
X243161585Y-26277481D01*
X243142596Y-26494525D01*
X243142596Y-26505475D01*
X230038387Y-26505475D01*
X230003324Y-26411946D01*
X229994786Y-26396351D01*
X229918285Y-26294276D01*
X229905724Y-26281715D01*
X229803649Y-26205214D01*
X229788054Y-26196676D01*
X229677813Y-26155348D01*
X229621049Y-26112706D01*
X229596349Y-26046145D01*
X229611557Y-25976796D01*
X229633104Y-25948115D01*
X229734430Y-25847144D01*
X229734440Y-25847132D01*
X229738096Y-25843489D01*
X229797594Y-25760689D01*
X229860508Y-25673134D01*
X231641500Y-25673134D01*
X231648255Y-25735316D01*
X231699385Y-25871705D01*
X231786739Y-25988261D01*
X231903295Y-26075615D01*
X232039684Y-26126745D01*
X232101866Y-26133500D01*
X233898134Y-26133500D01*
X233960316Y-26126745D01*
X234096705Y-26075615D01*
X234213261Y-25988261D01*
X234300615Y-25871705D01*
X234351745Y-25735316D01*
X234358500Y-25673134D01*
X237641500Y-25673134D01*
X237648255Y-25735316D01*
X237699385Y-25871705D01*
X237786739Y-25988261D01*
X237903295Y-26075615D01*
X238039684Y-26126745D01*
X238101866Y-26133500D01*
X239898134Y-26133500D01*
X239960316Y-26126745D01*
X240096705Y-26075615D01*
X240213261Y-25988261D01*
X240300615Y-25871705D01*
X240351745Y-25735316D01*
X240358500Y-25673134D01*
X240358500Y-23876866D01*
X240351745Y-23814684D01*
X240300615Y-23678295D01*
X240213261Y-23561739D01*
X240096705Y-23474385D01*
X239977687Y-23429767D01*
X239920923Y-23387125D01*
X239896223Y-23320564D01*
X239911430Y-23251215D01*
X239932977Y-23222535D01*
X240034052Y-23121812D01*
X240040730Y-23113965D01*
X240165003Y-22941020D01*
X240170313Y-22932183D01*
X240264670Y-22741267D01*
X240268469Y-22731672D01*
X240330377Y-22527910D01*
X240332555Y-22517837D01*
X240333986Y-22506962D01*
X240331775Y-22492778D01*
X240318617Y-22489000D01*
X237683225Y-22489000D01*
X237669694Y-22492973D01*
X237668257Y-22502966D01*
X237698565Y-22637446D01*
X237701645Y-22647275D01*
X237781770Y-22844603D01*
X237786413Y-22853794D01*
X237897694Y-23035388D01*
X237903777Y-23043699D01*
X238043213Y-23204667D01*
X238050577Y-23211879D01*
X238055522Y-23215985D01*
X238095156Y-23274889D01*
X238096653Y-23345870D01*
X238059537Y-23406392D01*
X238019264Y-23430910D01*
X237911705Y-23471232D01*
X237911704Y-23471233D01*
X237903295Y-23474385D01*
X237786739Y-23561739D01*
X237699385Y-23678295D01*
X237648255Y-23814684D01*
X237641500Y-23876866D01*
X237641500Y-25673134D01*
X234358500Y-25673134D01*
X234358500Y-23876866D01*
X234351745Y-23814684D01*
X234300615Y-23678295D01*
X234213261Y-23561739D01*
X234096705Y-23474385D01*
X233977687Y-23429767D01*
X233920923Y-23387125D01*
X233896223Y-23320564D01*
X233911430Y-23251215D01*
X233932977Y-23222535D01*
X234034052Y-23121812D01*
X234040730Y-23113965D01*
X234165003Y-22941020D01*
X234170313Y-22932183D01*
X234264670Y-22741267D01*
X234268469Y-22731672D01*
X234330377Y-22527910D01*
X234332555Y-22517837D01*
X234333986Y-22506962D01*
X234331775Y-22492778D01*
X234318617Y-22489000D01*
X231683225Y-22489000D01*
X231669694Y-22492973D01*
X231668257Y-22502966D01*
X231698565Y-22637446D01*
X231701645Y-22647275D01*
X231781770Y-22844603D01*
X231786413Y-22853794D01*
X231897694Y-23035388D01*
X231903777Y-23043699D01*
X232043213Y-23204667D01*
X232050577Y-23211879D01*
X232055522Y-23215985D01*
X232095156Y-23274889D01*
X232096653Y-23345870D01*
X232059537Y-23406392D01*
X232019264Y-23430910D01*
X231911705Y-23471232D01*
X231911704Y-23471233D01*
X231903295Y-23474385D01*
X231786739Y-23561739D01*
X231699385Y-23678295D01*
X231648255Y-23814684D01*
X231641500Y-23876866D01*
X231641500Y-25673134D01*
X229860508Y-25673134D01*
X229865435Y-25666277D01*
X229868453Y-25662077D01*
X229875179Y-25648469D01*
X229965136Y-25466453D01*
X229965137Y-25466451D01*
X229967430Y-25461811D01*
X230032370Y-25248069D01*
X230061529Y-25026590D01*
X230063156Y-24960000D01*
X230044852Y-24737361D01*
X229990431Y-24520702D01*
X229901354Y-24315840D01*
X229861906Y-24254862D01*
X229782822Y-24132617D01*
X229782820Y-24132614D01*
X229780014Y-24128277D01*
X229629670Y-23963051D01*
X229625619Y-23959852D01*
X229625615Y-23959848D01*
X229458414Y-23827800D01*
X229458410Y-23827798D01*
X229454359Y-23824598D01*
X229413053Y-23801796D01*
X229363084Y-23751364D01*
X229348312Y-23681921D01*
X229373428Y-23615516D01*
X229400780Y-23588909D01*
X229462017Y-23545229D01*
X229579860Y-23461173D01*
X229603500Y-23437616D01*
X229661209Y-23380107D01*
X229738096Y-23303489D01*
X229775659Y-23251215D01*
X229865435Y-23126277D01*
X229868453Y-23122077D01*
X229924163Y-23009357D01*
X229965136Y-22926453D01*
X229965137Y-22926451D01*
X229967430Y-22921811D01*
X230032370Y-22708069D01*
X230061529Y-22486590D01*
X230063156Y-22420000D01*
X230044852Y-22197361D01*
X229990431Y-21980702D01*
X229985422Y-21969183D01*
X231664389Y-21969183D01*
X231665912Y-21977607D01*
X231678292Y-21981000D01*
X232727885Y-21981000D01*
X232743124Y-21976525D01*
X232744329Y-21975135D01*
X232746000Y-21967452D01*
X232746000Y-21962885D01*
X233254000Y-21962885D01*
X233258475Y-21978124D01*
X233259865Y-21979329D01*
X233267548Y-21981000D01*
X234318344Y-21981000D01*
X234331875Y-21977027D01*
X234333002Y-21969183D01*
X237664389Y-21969183D01*
X237665912Y-21977607D01*
X237678292Y-21981000D01*
X238727885Y-21981000D01*
X238743124Y-21976525D01*
X238744329Y-21975135D01*
X238746000Y-21967452D01*
X238746000Y-21962885D01*
X239254000Y-21962885D01*
X239258475Y-21978124D01*
X239259865Y-21979329D01*
X239267548Y-21981000D01*
X240318344Y-21981000D01*
X240331875Y-21977027D01*
X240333180Y-21967947D01*
X240291214Y-21800875D01*
X240287894Y-21791124D01*
X240202972Y-21595814D01*
X240198105Y-21586739D01*
X240082426Y-21407926D01*
X240076136Y-21399757D01*
X239932806Y-21242240D01*
X239925273Y-21235215D01*
X239758139Y-21103222D01*
X239749552Y-21097517D01*
X239563117Y-20994599D01*
X239553705Y-20990369D01*
X239352959Y-20919280D01*
X239342988Y-20916646D01*
X239271837Y-20903972D01*
X239258540Y-20905432D01*
X239254000Y-20919989D01*
X239254000Y-21962885D01*
X238746000Y-21962885D01*
X238746000Y-20918102D01*
X238742082Y-20904758D01*
X238727806Y-20902771D01*
X238689324Y-20908660D01*
X238679288Y-20911051D01*
X238476868Y-20977212D01*
X238467359Y-20981209D01*
X238278463Y-21079542D01*
X238269738Y-21085036D01*
X238099433Y-21212905D01*
X238091726Y-21219748D01*
X237944590Y-21373717D01*
X237938104Y-21381727D01*
X237818098Y-21557649D01*
X237813000Y-21566623D01*
X237723338Y-21759783D01*
X237719775Y-21769470D01*
X237664389Y-21969183D01*
X234333002Y-21969183D01*
X234333180Y-21967947D01*
X234291214Y-21800875D01*
X234287894Y-21791124D01*
X234202972Y-21595814D01*
X234198105Y-21586739D01*
X234082426Y-21407926D01*
X234076136Y-21399757D01*
X233932806Y-21242240D01*
X233925273Y-21235215D01*
X233758139Y-21103222D01*
X233749552Y-21097517D01*
X233563117Y-20994599D01*
X233553705Y-20990369D01*
X233352959Y-20919280D01*
X233342988Y-20916646D01*
X233271837Y-20903972D01*
X233258540Y-20905432D01*
X233254000Y-20919989D01*
X233254000Y-21962885D01*
X232746000Y-21962885D01*
X232746000Y-20918102D01*
X232742082Y-20904758D01*
X232727806Y-20902771D01*
X232689324Y-20908660D01*
X232679288Y-20911051D01*
X232476868Y-20977212D01*
X232467359Y-20981209D01*
X232278463Y-21079542D01*
X232269738Y-21085036D01*
X232099433Y-21212905D01*
X232091726Y-21219748D01*
X231944590Y-21373717D01*
X231938104Y-21381727D01*
X231818098Y-21557649D01*
X231813000Y-21566623D01*
X231723338Y-21759783D01*
X231719775Y-21769470D01*
X231664389Y-21969183D01*
X229985422Y-21969183D01*
X229901354Y-21775840D01*
X229780014Y-21588277D01*
X229629670Y-21423051D01*
X229625619Y-21419852D01*
X229625615Y-21419848D01*
X229458414Y-21287800D01*
X229458410Y-21287798D01*
X229454359Y-21284598D01*
X229258789Y-21176638D01*
X229253920Y-21174914D01*
X229253916Y-21174912D01*
X229053087Y-21103795D01*
X229053083Y-21103794D01*
X229048212Y-21102069D01*
X229043119Y-21101162D01*
X229043116Y-21101161D01*
X228833373Y-21063800D01*
X228833367Y-21063799D01*
X228828284Y-21062894D01*
X228754452Y-21061992D01*
X228610081Y-21060228D01*
X228610079Y-21060228D01*
X228604911Y-21060165D01*
X228384091Y-21093955D01*
X228171756Y-21163357D01*
X227973607Y-21266507D01*
X227969474Y-21269610D01*
X227969471Y-21269612D01*
X227830816Y-21373717D01*
X227794965Y-21400635D01*
X227791393Y-21404373D01*
X227646431Y-21556067D01*
X227640629Y-21562138D01*
X227617526Y-21596006D01*
X227562617Y-21641008D01*
X227492092Y-21649180D01*
X227428345Y-21617926D01*
X227397542Y-21574436D01*
X227384763Y-21544477D01*
X227383077Y-21540524D01*
X227283245Y-21373717D01*
X227237643Y-21297521D01*
X227237640Y-21297517D01*
X227235439Y-21293839D01*
X227055687Y-21069472D01*
X226888746Y-20911051D01*
X226850258Y-20874527D01*
X226850255Y-20874525D01*
X226847149Y-20871577D01*
X226658921Y-20736321D01*
X226615274Y-20680328D01*
X226608828Y-20609624D01*
X226641631Y-20546660D01*
X226703267Y-20511426D01*
X226732448Y-20508000D01*
X241745500Y-20508000D01*
X241813621Y-20528002D01*
G37*
%TD.AperFunction*%
%TD*%
M02*
