%TF.GenerationSoftware,KiCad,Pcbnew,(6.0.0)*%
%TF.CreationDate,2022-01-09T16:20:31+00:00*%
%TF.ProjectId,aistompboxadapter,61697374-6f6d-4706-926f-786164617074,rev?*%
%TF.SameCoordinates,Original*%
%TF.FileFunction,Legend,Bot*%
%TF.FilePolarity,Positive*%
%FSLAX46Y46*%
G04 Gerber Fmt 4.6, Leading zero omitted, Abs format (unit mm)*
G04 Created by KiCad (PCBNEW (6.0.0)) date 2022-01-09 16:20:31*
%MOMM*%
%LPD*%
G01*
G04 APERTURE LIST*
%ADD10C,0.150000*%
%ADD11C,0.120000*%
%ADD12C,3.200000*%
%ADD13C,1.600000*%
%ADD14R,2.400000X1.600000*%
%ADD15O,2.400000X1.600000*%
%ADD16O,1.700000X1.700000*%
%ADD17R,1.700000X1.700000*%
%ADD18O,1.600000X1.600000*%
%ADD19R,1.727200X1.727200*%
%ADD20O,1.727200X1.727200*%
%ADD21R,2.200000X2.200000*%
%ADD22O,2.200000X2.200000*%
%ADD23R,1.600000X1.600000*%
G04 APERTURE END LIST*
D10*
X264266666Y-26652380D02*
X264266666Y-25652380D01*
X263885714Y-25652380D01*
X263790476Y-25700000D01*
X263742857Y-25747619D01*
X263695238Y-25842857D01*
X263695238Y-25985714D01*
X263742857Y-26080952D01*
X263790476Y-26128571D01*
X263885714Y-26176190D01*
X264266666Y-26176190D01*
X262695238Y-26557142D02*
X262742857Y-26604761D01*
X262885714Y-26652380D01*
X262980952Y-26652380D01*
X263123809Y-26604761D01*
X263219047Y-26509523D01*
X263266666Y-26414285D01*
X263314285Y-26223809D01*
X263314285Y-26080952D01*
X263266666Y-25890476D01*
X263219047Y-25795238D01*
X263123809Y-25700000D01*
X262980952Y-25652380D01*
X262885714Y-25652380D01*
X262742857Y-25700000D01*
X262695238Y-25747619D01*
X261933333Y-26128571D02*
X261790476Y-26176190D01*
X261742857Y-26223809D01*
X261695238Y-26319047D01*
X261695238Y-26461904D01*
X261742857Y-26557142D01*
X261790476Y-26604761D01*
X261885714Y-26652380D01*
X262266666Y-26652380D01*
X262266666Y-25652380D01*
X261933333Y-25652380D01*
X261838095Y-25700000D01*
X261790476Y-25747619D01*
X261742857Y-25842857D01*
X261742857Y-25938095D01*
X261790476Y-26033333D01*
X261838095Y-26080952D01*
X261933333Y-26128571D01*
X262266666Y-26128571D01*
X260647619Y-25652380D02*
X260314285Y-26652380D01*
X259980952Y-25652380D01*
X259647619Y-26128571D02*
X259314285Y-26128571D01*
X259171428Y-26652380D02*
X259647619Y-26652380D01*
X259647619Y-25652380D01*
X259171428Y-25652380D01*
X258171428Y-26652380D02*
X258504761Y-26176190D01*
X258742857Y-26652380D02*
X258742857Y-25652380D01*
X258361904Y-25652380D01*
X258266666Y-25700000D01*
X258219047Y-25747619D01*
X258171428Y-25842857D01*
X258171428Y-25985714D01*
X258219047Y-26080952D01*
X258266666Y-26128571D01*
X258361904Y-26176190D01*
X258742857Y-26176190D01*
X257742857Y-26557142D02*
X257695238Y-26604761D01*
X257742857Y-26652380D01*
X257790476Y-26604761D01*
X257742857Y-26557142D01*
X257742857Y-26652380D01*
X255980952Y-26652380D02*
X256552380Y-26652380D01*
X256266666Y-26652380D02*
X256266666Y-25652380D01*
X256361904Y-25795238D01*
X256457142Y-25890476D01*
X256552380Y-25938095D01*
X255552380Y-26557142D02*
X255504761Y-26604761D01*
X255552380Y-26652380D01*
X255600000Y-26604761D01*
X255552380Y-26557142D01*
X255552380Y-26652380D01*
X254885714Y-25652380D02*
X254790476Y-25652380D01*
X254695238Y-25700000D01*
X254647619Y-25747619D01*
X254600000Y-25842857D01*
X254552380Y-26033333D01*
X254552380Y-26271428D01*
X254600000Y-26461904D01*
X254647619Y-26557142D01*
X254695238Y-26604761D01*
X254790476Y-26652380D01*
X254885714Y-26652380D01*
X254980952Y-26604761D01*
X255028571Y-26557142D01*
X255076190Y-26461904D01*
X255123809Y-26271428D01*
X255123809Y-26033333D01*
X255076190Y-25842857D01*
X255028571Y-25747619D01*
X254980952Y-25700000D01*
X254885714Y-25652380D01*
X253314285Y-26652380D02*
X253123809Y-26652380D01*
X253028571Y-26604761D01*
X252980952Y-26557142D01*
X252885714Y-26414285D01*
X252838095Y-26223809D01*
X252838095Y-25842857D01*
X252885714Y-25747619D01*
X252933333Y-25700000D01*
X253028571Y-25652380D01*
X253219047Y-25652380D01*
X253314285Y-25700000D01*
X253361904Y-25747619D01*
X253409523Y-25842857D01*
X253409523Y-26080952D01*
X253361904Y-26176190D01*
X253314285Y-26223809D01*
X253219047Y-26271428D01*
X253028571Y-26271428D01*
X252933333Y-26223809D01*
X252885714Y-26176190D01*
X252838095Y-26080952D01*
X251695238Y-25604761D02*
X252552380Y-26890476D01*
X250838095Y-26652380D02*
X251409523Y-26652380D01*
X251123809Y-26652380D02*
X251123809Y-25652380D01*
X251219047Y-25795238D01*
X251314285Y-25890476D01*
X251409523Y-25938095D01*
X249695238Y-25604761D02*
X250552380Y-26890476D01*
X249409523Y-25747619D02*
X249361904Y-25700000D01*
X249266666Y-25652380D01*
X249028571Y-25652380D01*
X248933333Y-25700000D01*
X248885714Y-25747619D01*
X248838095Y-25842857D01*
X248838095Y-25938095D01*
X248885714Y-26080952D01*
X249457142Y-26652380D01*
X248838095Y-26652380D01*
X248457142Y-25747619D02*
X248409523Y-25700000D01*
X248314285Y-25652380D01*
X248076190Y-25652380D01*
X247980952Y-25700000D01*
X247933333Y-25747619D01*
X247885714Y-25842857D01*
X247885714Y-25938095D01*
X247933333Y-26080952D01*
X248504761Y-26652380D01*
X247885714Y-26652380D01*
X263542857Y-24128571D02*
X263542857Y-24776190D01*
X263580952Y-24852380D01*
X263619047Y-24890476D01*
X263695238Y-24928571D01*
X263809523Y-24928571D01*
X263885714Y-24890476D01*
X263542857Y-24623809D02*
X263619047Y-24661904D01*
X263771428Y-24661904D01*
X263847619Y-24623809D01*
X263885714Y-24585714D01*
X263923809Y-24509523D01*
X263923809Y-24280952D01*
X263885714Y-24204761D01*
X263847619Y-24166666D01*
X263771428Y-24128571D01*
X263619047Y-24128571D01*
X263542857Y-24166666D01*
X263161904Y-24661904D02*
X263161904Y-24128571D01*
X263161904Y-23861904D02*
X263200000Y-23900000D01*
X263161904Y-23938095D01*
X263123809Y-23900000D01*
X263161904Y-23861904D01*
X263161904Y-23938095D01*
X262895238Y-24128571D02*
X262590476Y-24128571D01*
X262780952Y-23861904D02*
X262780952Y-24547619D01*
X262742857Y-24623809D01*
X262666666Y-24661904D01*
X262590476Y-24661904D01*
X262323809Y-24661904D02*
X262323809Y-23861904D01*
X261980952Y-24661904D02*
X261980952Y-24242857D01*
X262019047Y-24166666D01*
X262095238Y-24128571D01*
X262209523Y-24128571D01*
X262285714Y-24166666D01*
X262323809Y-24204761D01*
X261257142Y-24128571D02*
X261257142Y-24661904D01*
X261600000Y-24128571D02*
X261600000Y-24547619D01*
X261561904Y-24623809D01*
X261485714Y-24661904D01*
X261371428Y-24661904D01*
X261295238Y-24623809D01*
X261257142Y-24585714D01*
X260876190Y-24661904D02*
X260876190Y-23861904D01*
X260876190Y-24166666D02*
X260800000Y-24128571D01*
X260647619Y-24128571D01*
X260571428Y-24166666D01*
X260533333Y-24204761D01*
X260495238Y-24280952D01*
X260495238Y-24509523D01*
X260533333Y-24585714D01*
X260571428Y-24623809D01*
X260647619Y-24661904D01*
X260800000Y-24661904D01*
X260876190Y-24623809D01*
X260152380Y-24585714D02*
X260114285Y-24623809D01*
X260152380Y-24661904D01*
X260190476Y-24623809D01*
X260152380Y-24585714D01*
X260152380Y-24661904D01*
X259428571Y-24623809D02*
X259504761Y-24661904D01*
X259657142Y-24661904D01*
X259733333Y-24623809D01*
X259771428Y-24585714D01*
X259809523Y-24509523D01*
X259809523Y-24280952D01*
X259771428Y-24204761D01*
X259733333Y-24166666D01*
X259657142Y-24128571D01*
X259504761Y-24128571D01*
X259428571Y-24166666D01*
X258971428Y-24661904D02*
X259047619Y-24623809D01*
X259085714Y-24585714D01*
X259123809Y-24509523D01*
X259123809Y-24280952D01*
X259085714Y-24204761D01*
X259047619Y-24166666D01*
X258971428Y-24128571D01*
X258857142Y-24128571D01*
X258780952Y-24166666D01*
X258742857Y-24204761D01*
X258704761Y-24280952D01*
X258704761Y-24509523D01*
X258742857Y-24585714D01*
X258780952Y-24623809D01*
X258857142Y-24661904D01*
X258971428Y-24661904D01*
X258361904Y-24661904D02*
X258361904Y-24128571D01*
X258361904Y-24204761D02*
X258323809Y-24166666D01*
X258247619Y-24128571D01*
X258133333Y-24128571D01*
X258057142Y-24166666D01*
X258019047Y-24242857D01*
X258019047Y-24661904D01*
X258019047Y-24242857D02*
X257980952Y-24166666D01*
X257904761Y-24128571D01*
X257790476Y-24128571D01*
X257714285Y-24166666D01*
X257676190Y-24242857D01*
X257676190Y-24661904D01*
X256723809Y-23823809D02*
X257409523Y-24852380D01*
X256495238Y-24623809D02*
X256419047Y-24661904D01*
X256266666Y-24661904D01*
X256190476Y-24623809D01*
X256152380Y-24547619D01*
X256152380Y-24509523D01*
X256190476Y-24433333D01*
X256266666Y-24395238D01*
X256380952Y-24395238D01*
X256457142Y-24357142D01*
X256495238Y-24280952D01*
X256495238Y-24242857D01*
X256457142Y-24166666D01*
X256380952Y-24128571D01*
X256266666Y-24128571D01*
X256190476Y-24166666D01*
X255695238Y-24661904D02*
X255771428Y-24623809D01*
X255809523Y-24585714D01*
X255847619Y-24509523D01*
X255847619Y-24280952D01*
X255809523Y-24204761D01*
X255771428Y-24166666D01*
X255695238Y-24128571D01*
X255580952Y-24128571D01*
X255504761Y-24166666D01*
X255466666Y-24204761D01*
X255428571Y-24280952D01*
X255428571Y-24509523D01*
X255466666Y-24585714D01*
X255504761Y-24623809D01*
X255580952Y-24661904D01*
X255695238Y-24661904D01*
X255085714Y-24128571D02*
X255085714Y-24661904D01*
X255085714Y-24204761D02*
X255047619Y-24166666D01*
X254971428Y-24128571D01*
X254857142Y-24128571D01*
X254780952Y-24166666D01*
X254742857Y-24242857D01*
X254742857Y-24661904D01*
X254247619Y-24661904D02*
X254323809Y-24623809D01*
X254361904Y-24585714D01*
X254400000Y-24509523D01*
X254400000Y-24280952D01*
X254361904Y-24204761D01*
X254323809Y-24166666D01*
X254247619Y-24128571D01*
X254133333Y-24128571D01*
X254057142Y-24166666D01*
X254019047Y-24204761D01*
X253980952Y-24280952D01*
X253980952Y-24509523D01*
X254019047Y-24585714D01*
X254057142Y-24623809D01*
X254133333Y-24661904D01*
X254247619Y-24661904D01*
X253676190Y-24623809D02*
X253600000Y-24661904D01*
X253447619Y-24661904D01*
X253371428Y-24623809D01*
X253333333Y-24547619D01*
X253333333Y-24509523D01*
X253371428Y-24433333D01*
X253447619Y-24395238D01*
X253561904Y-24395238D01*
X253638095Y-24357142D01*
X253676190Y-24280952D01*
X253676190Y-24242857D01*
X253638095Y-24166666D01*
X253561904Y-24128571D01*
X253447619Y-24128571D01*
X253371428Y-24166666D01*
X252647619Y-24128571D02*
X252647619Y-24661904D01*
X252990476Y-24128571D02*
X252990476Y-24547619D01*
X252952380Y-24623809D01*
X252876190Y-24661904D01*
X252761904Y-24661904D01*
X252685714Y-24623809D01*
X252647619Y-24585714D01*
X252304761Y-24623809D02*
X252228571Y-24661904D01*
X252076190Y-24661904D01*
X252000000Y-24623809D01*
X251961904Y-24547619D01*
X251961904Y-24509523D01*
X252000000Y-24433333D01*
X252076190Y-24395238D01*
X252190476Y-24395238D01*
X252266666Y-24357142D01*
X252304761Y-24280952D01*
X252304761Y-24242857D01*
X252266666Y-24166666D01*
X252190476Y-24128571D01*
X252076190Y-24128571D01*
X252000000Y-24166666D01*
X251047619Y-23823809D02*
X251733333Y-24852380D01*
X250819047Y-24623809D02*
X250742857Y-24661904D01*
X250590476Y-24661904D01*
X250514285Y-24623809D01*
X250476190Y-24547619D01*
X250476190Y-24509523D01*
X250514285Y-24433333D01*
X250590476Y-24395238D01*
X250704761Y-24395238D01*
X250780952Y-24357142D01*
X250819047Y-24280952D01*
X250819047Y-24242857D01*
X250780952Y-24166666D01*
X250704761Y-24128571D01*
X250590476Y-24128571D01*
X250514285Y-24166666D01*
X250247619Y-24128571D02*
X249942857Y-24128571D01*
X250133333Y-23861904D02*
X250133333Y-24547619D01*
X250095238Y-24623809D01*
X250019047Y-24661904D01*
X249942857Y-24661904D01*
X249561904Y-24661904D02*
X249638095Y-24623809D01*
X249676190Y-24585714D01*
X249714285Y-24509523D01*
X249714285Y-24280952D01*
X249676190Y-24204761D01*
X249638095Y-24166666D01*
X249561904Y-24128571D01*
X249447619Y-24128571D01*
X249371428Y-24166666D01*
X249333333Y-24204761D01*
X249295238Y-24280952D01*
X249295238Y-24509523D01*
X249333333Y-24585714D01*
X249371428Y-24623809D01*
X249447619Y-24661904D01*
X249561904Y-24661904D01*
X248952380Y-24661904D02*
X248952380Y-24128571D01*
X248952380Y-24204761D02*
X248914285Y-24166666D01*
X248838095Y-24128571D01*
X248723809Y-24128571D01*
X248647619Y-24166666D01*
X248609523Y-24242857D01*
X248609523Y-24661904D01*
X248609523Y-24242857D02*
X248571428Y-24166666D01*
X248495238Y-24128571D01*
X248380952Y-24128571D01*
X248304761Y-24166666D01*
X248266666Y-24242857D01*
X248266666Y-24661904D01*
X247885714Y-24128571D02*
X247885714Y-24928571D01*
X247885714Y-24166666D02*
X247809523Y-24128571D01*
X247657142Y-24128571D01*
X247580952Y-24166666D01*
X247542857Y-24204761D01*
X247504761Y-24280952D01*
X247504761Y-24509523D01*
X247542857Y-24585714D01*
X247580952Y-24623809D01*
X247657142Y-24661904D01*
X247809523Y-24661904D01*
X247885714Y-24623809D01*
X247161904Y-24661904D02*
X247161904Y-23861904D01*
X247161904Y-24166666D02*
X247085714Y-24128571D01*
X246933333Y-24128571D01*
X246857142Y-24166666D01*
X246819047Y-24204761D01*
X246780952Y-24280952D01*
X246780952Y-24509523D01*
X246819047Y-24585714D01*
X246857142Y-24623809D01*
X246933333Y-24661904D01*
X247085714Y-24661904D01*
X247161904Y-24623809D01*
X246323809Y-24661904D02*
X246400000Y-24623809D01*
X246438095Y-24585714D01*
X246476190Y-24509523D01*
X246476190Y-24280952D01*
X246438095Y-24204761D01*
X246400000Y-24166666D01*
X246323809Y-24128571D01*
X246209523Y-24128571D01*
X246133333Y-24166666D01*
X246095238Y-24204761D01*
X246057142Y-24280952D01*
X246057142Y-24509523D01*
X246095238Y-24585714D01*
X246133333Y-24623809D01*
X246209523Y-24661904D01*
X246323809Y-24661904D01*
X245790476Y-24661904D02*
X245371428Y-24128571D01*
X245790476Y-24128571D02*
X245371428Y-24661904D01*
X244723809Y-24661904D02*
X244723809Y-24242857D01*
X244761904Y-24166666D01*
X244838095Y-24128571D01*
X244990476Y-24128571D01*
X245066666Y-24166666D01*
X244723809Y-24623809D02*
X244800000Y-24661904D01*
X244990476Y-24661904D01*
X245066666Y-24623809D01*
X245104761Y-24547619D01*
X245104761Y-24471428D01*
X245066666Y-24395238D01*
X244990476Y-24357142D01*
X244800000Y-24357142D01*
X244723809Y-24319047D01*
X244000000Y-24661904D02*
X244000000Y-23861904D01*
X244000000Y-24623809D02*
X244076190Y-24661904D01*
X244228571Y-24661904D01*
X244304761Y-24623809D01*
X244342857Y-24585714D01*
X244380952Y-24509523D01*
X244380952Y-24280952D01*
X244342857Y-24204761D01*
X244304761Y-24166666D01*
X244228571Y-24128571D01*
X244076190Y-24128571D01*
X244000000Y-24166666D01*
X243276190Y-24661904D02*
X243276190Y-24242857D01*
X243314285Y-24166666D01*
X243390476Y-24128571D01*
X243542857Y-24128571D01*
X243619047Y-24166666D01*
X243276190Y-24623809D02*
X243352380Y-24661904D01*
X243542857Y-24661904D01*
X243619047Y-24623809D01*
X243657142Y-24547619D01*
X243657142Y-24471428D01*
X243619047Y-24395238D01*
X243542857Y-24357142D01*
X243352380Y-24357142D01*
X243276190Y-24319047D01*
X242895238Y-24128571D02*
X242895238Y-24928571D01*
X242895238Y-24166666D02*
X242819047Y-24128571D01*
X242666666Y-24128571D01*
X242590476Y-24166666D01*
X242552380Y-24204761D01*
X242514285Y-24280952D01*
X242514285Y-24509523D01*
X242552380Y-24585714D01*
X242590476Y-24623809D01*
X242666666Y-24661904D01*
X242819047Y-24661904D01*
X242895238Y-24623809D01*
X242285714Y-24128571D02*
X241980952Y-24128571D01*
X242171428Y-23861904D02*
X242171428Y-24547619D01*
X242133333Y-24623809D01*
X242057142Y-24661904D01*
X241980952Y-24661904D01*
X241409523Y-24623809D02*
X241485714Y-24661904D01*
X241638095Y-24661904D01*
X241714285Y-24623809D01*
X241752380Y-24547619D01*
X241752380Y-24242857D01*
X241714285Y-24166666D01*
X241638095Y-24128571D01*
X241485714Y-24128571D01*
X241409523Y-24166666D01*
X241371428Y-24242857D01*
X241371428Y-24319047D01*
X241752380Y-24395238D01*
X241028571Y-24661904D02*
X241028571Y-24128571D01*
X241028571Y-24280952D02*
X240990476Y-24204761D01*
X240952380Y-24166666D01*
X240876190Y-24128571D01*
X240800000Y-24128571D01*
X256666666Y-42852380D02*
X256666666Y-41852380D01*
X256428571Y-41852380D01*
X256285714Y-41900000D01*
X256190476Y-41995238D01*
X256142857Y-42090476D01*
X256095238Y-42280952D01*
X256095238Y-42423809D01*
X256142857Y-42614285D01*
X256190476Y-42709523D01*
X256285714Y-42804761D01*
X256428571Y-42852380D01*
X256666666Y-42852380D01*
X255666666Y-42328571D02*
X255333333Y-42328571D01*
X255190476Y-42852380D02*
X255666666Y-42852380D01*
X255666666Y-41852380D01*
X255190476Y-41852380D01*
X254809523Y-42804761D02*
X254666666Y-42852380D01*
X254428571Y-42852380D01*
X254333333Y-42804761D01*
X254285714Y-42757142D01*
X254238095Y-42661904D01*
X254238095Y-42566666D01*
X254285714Y-42471428D01*
X254333333Y-42423809D01*
X254428571Y-42376190D01*
X254619047Y-42328571D01*
X254714285Y-42280952D01*
X254761904Y-42233333D01*
X254809523Y-42138095D01*
X254809523Y-42042857D01*
X254761904Y-41947619D01*
X254714285Y-41900000D01*
X254619047Y-41852380D01*
X254380952Y-41852380D01*
X254238095Y-41900000D01*
X253809523Y-42852380D02*
X253809523Y-41852380D01*
X252809523Y-41900000D02*
X252904761Y-41852380D01*
X253047619Y-41852380D01*
X253190476Y-41900000D01*
X253285714Y-41995238D01*
X253333333Y-42090476D01*
X253380952Y-42280952D01*
X253380952Y-42423809D01*
X253333333Y-42614285D01*
X253285714Y-42709523D01*
X253190476Y-42804761D01*
X253047619Y-42852380D01*
X252952380Y-42852380D01*
X252809523Y-42804761D01*
X252761904Y-42757142D01*
X252761904Y-42423809D01*
X252952380Y-42423809D01*
X252333333Y-42852380D02*
X252333333Y-41852380D01*
X251761904Y-42852380D01*
X251761904Y-41852380D01*
X250190476Y-42328571D02*
X250047619Y-42376190D01*
X250000000Y-42423809D01*
X249952380Y-42519047D01*
X249952380Y-42661904D01*
X250000000Y-42757142D01*
X250047619Y-42804761D01*
X250142857Y-42852380D01*
X250523809Y-42852380D01*
X250523809Y-41852380D01*
X250190476Y-41852380D01*
X250095238Y-41900000D01*
X250047619Y-41947619D01*
X250000000Y-42042857D01*
X250000000Y-42138095D01*
X250047619Y-42233333D01*
X250095238Y-42280952D01*
X250190476Y-42328571D01*
X250523809Y-42328571D01*
X249333333Y-42376190D02*
X249333333Y-42852380D01*
X249666666Y-41852380D02*
X249333333Y-42376190D01*
X249000000Y-41852380D01*
X247952380Y-42566666D02*
X247476190Y-42566666D01*
X248047619Y-42852380D02*
X247714285Y-41852380D01*
X247380952Y-42852380D01*
X247047619Y-42852380D02*
X247047619Y-41852380D01*
X245857142Y-42804761D02*
X245714285Y-42852380D01*
X245476190Y-42852380D01*
X245380952Y-42804761D01*
X245333333Y-42757142D01*
X245285714Y-42661904D01*
X245285714Y-42566666D01*
X245333333Y-42471428D01*
X245380952Y-42423809D01*
X245476190Y-42376190D01*
X245666666Y-42328571D01*
X245761904Y-42280952D01*
X245809523Y-42233333D01*
X245857142Y-42138095D01*
X245857142Y-42042857D01*
X245809523Y-41947619D01*
X245761904Y-41900000D01*
X245666666Y-41852380D01*
X245428571Y-41852380D01*
X245285714Y-41900000D01*
X244666666Y-42376190D02*
X244666666Y-42852380D01*
X245000000Y-41852380D02*
X244666666Y-42376190D01*
X244333333Y-41852380D01*
X244000000Y-42852380D02*
X244000000Y-41852380D01*
X243428571Y-42852380D01*
X243428571Y-41852380D01*
X243095238Y-41852380D02*
X242523809Y-41852380D01*
X242809523Y-42852380D02*
X242809523Y-41852380D01*
X242190476Y-42852380D02*
X242190476Y-41852380D01*
X242190476Y-42328571D02*
X241619047Y-42328571D01*
X241619047Y-42852380D02*
X241619047Y-41852380D01*
X241142857Y-42328571D02*
X240809523Y-42328571D01*
X240666666Y-42852380D02*
X241142857Y-42852380D01*
X241142857Y-41852380D01*
X240666666Y-41852380D01*
X240285714Y-42804761D02*
X240142857Y-42852380D01*
X239904761Y-42852380D01*
X239809523Y-42804761D01*
X239761904Y-42757142D01*
X239714285Y-42661904D01*
X239714285Y-42566666D01*
X239761904Y-42471428D01*
X239809523Y-42423809D01*
X239904761Y-42376190D01*
X240095238Y-42328571D01*
X240190476Y-42280952D01*
X240238095Y-42233333D01*
X240285714Y-42138095D01*
X240285714Y-42042857D01*
X240238095Y-41947619D01*
X240190476Y-41900000D01*
X240095238Y-41852380D01*
X239857142Y-41852380D01*
X239714285Y-41900000D01*
X239285714Y-42852380D02*
X239285714Y-41852380D01*
X238857142Y-42804761D02*
X238714285Y-42852380D01*
X238476190Y-42852380D01*
X238380952Y-42804761D01*
X238333333Y-42757142D01*
X238285714Y-42661904D01*
X238285714Y-42566666D01*
X238333333Y-42471428D01*
X238380952Y-42423809D01*
X238476190Y-42376190D01*
X238666666Y-42328571D01*
X238761904Y-42280952D01*
X238809523Y-42233333D01*
X238857142Y-42138095D01*
X238857142Y-42042857D01*
X238809523Y-41947619D01*
X238761904Y-41900000D01*
X238666666Y-41852380D01*
X238428571Y-41852380D01*
X238285714Y-41900000D01*
X264276190Y-44347380D02*
X264276190Y-43347380D01*
X263895238Y-43347380D01*
X263800000Y-43395000D01*
X263752380Y-43442619D01*
X263704761Y-43537857D01*
X263704761Y-43680714D01*
X263752380Y-43775952D01*
X263800000Y-43823571D01*
X263895238Y-43871190D01*
X264276190Y-43871190D01*
X262704761Y-44252142D02*
X262752380Y-44299761D01*
X262895238Y-44347380D01*
X262990476Y-44347380D01*
X263133333Y-44299761D01*
X263228571Y-44204523D01*
X263276190Y-44109285D01*
X263323809Y-43918809D01*
X263323809Y-43775952D01*
X263276190Y-43585476D01*
X263228571Y-43490238D01*
X263133333Y-43395000D01*
X262990476Y-43347380D01*
X262895238Y-43347380D01*
X262752380Y-43395000D01*
X262704761Y-43442619D01*
X261942857Y-43823571D02*
X261800000Y-43871190D01*
X261752380Y-43918809D01*
X261704761Y-44014047D01*
X261704761Y-44156904D01*
X261752380Y-44252142D01*
X261800000Y-44299761D01*
X261895238Y-44347380D01*
X262276190Y-44347380D01*
X262276190Y-43347380D01*
X261942857Y-43347380D01*
X261847619Y-43395000D01*
X261800000Y-43442619D01*
X261752380Y-43537857D01*
X261752380Y-43633095D01*
X261800000Y-43728333D01*
X261847619Y-43775952D01*
X261942857Y-43823571D01*
X262276190Y-43823571D01*
X260180952Y-43823571D02*
X260038095Y-43871190D01*
X259990476Y-43918809D01*
X259942857Y-44014047D01*
X259942857Y-44156904D01*
X259990476Y-44252142D01*
X260038095Y-44299761D01*
X260133333Y-44347380D01*
X260514285Y-44347380D01*
X260514285Y-43347380D01*
X260180952Y-43347380D01*
X260085714Y-43395000D01*
X260038095Y-43442619D01*
X259990476Y-43537857D01*
X259990476Y-43633095D01*
X260038095Y-43728333D01*
X260085714Y-43775952D01*
X260180952Y-43823571D01*
X260514285Y-43823571D01*
X259323809Y-43871190D02*
X259323809Y-44347380D01*
X259657142Y-43347380D02*
X259323809Y-43871190D01*
X258990476Y-43347380D01*
X257942857Y-44299761D02*
X257800000Y-44347380D01*
X257561904Y-44347380D01*
X257466666Y-44299761D01*
X257419047Y-44252142D01*
X257371428Y-44156904D01*
X257371428Y-44061666D01*
X257419047Y-43966428D01*
X257466666Y-43918809D01*
X257561904Y-43871190D01*
X257752380Y-43823571D01*
X257847619Y-43775952D01*
X257895238Y-43728333D01*
X257942857Y-43633095D01*
X257942857Y-43537857D01*
X257895238Y-43442619D01*
X257847619Y-43395000D01*
X257752380Y-43347380D01*
X257514285Y-43347380D01*
X257371428Y-43395000D01*
X256752380Y-43347380D02*
X256561904Y-43347380D01*
X256466666Y-43395000D01*
X256371428Y-43490238D01*
X256323809Y-43680714D01*
X256323809Y-44014047D01*
X256371428Y-44204523D01*
X256466666Y-44299761D01*
X256561904Y-44347380D01*
X256752380Y-44347380D01*
X256847619Y-44299761D01*
X256942857Y-44204523D01*
X256990476Y-44014047D01*
X256990476Y-43680714D01*
X256942857Y-43490238D01*
X256847619Y-43395000D01*
X256752380Y-43347380D01*
X255895238Y-44347380D02*
X255895238Y-43347380D01*
X255323809Y-44347380D01*
X255323809Y-43347380D01*
X254657142Y-43347380D02*
X254466666Y-43347380D01*
X254371428Y-43395000D01*
X254276190Y-43490238D01*
X254228571Y-43680714D01*
X254228571Y-44014047D01*
X254276190Y-44204523D01*
X254371428Y-44299761D01*
X254466666Y-44347380D01*
X254657142Y-44347380D01*
X254752380Y-44299761D01*
X254847619Y-44204523D01*
X254895238Y-44014047D01*
X254895238Y-43680714D01*
X254847619Y-43490238D01*
X254752380Y-43395000D01*
X254657142Y-43347380D01*
X253847619Y-44299761D02*
X253704761Y-44347380D01*
X253466666Y-44347380D01*
X253371428Y-44299761D01*
X253323809Y-44252142D01*
X253276190Y-44156904D01*
X253276190Y-44061666D01*
X253323809Y-43966428D01*
X253371428Y-43918809D01*
X253466666Y-43871190D01*
X253657142Y-43823571D01*
X253752380Y-43775952D01*
X253800000Y-43728333D01*
X253847619Y-43633095D01*
X253847619Y-43537857D01*
X253800000Y-43442619D01*
X253752380Y-43395000D01*
X253657142Y-43347380D01*
X253419047Y-43347380D01*
X253276190Y-43395000D01*
X252847619Y-43347380D02*
X252847619Y-44156904D01*
X252800000Y-44252142D01*
X252752380Y-44299761D01*
X252657142Y-44347380D01*
X252466666Y-44347380D01*
X252371428Y-44299761D01*
X252323809Y-44252142D01*
X252276190Y-44156904D01*
X252276190Y-43347380D01*
X251847619Y-44299761D02*
X251704761Y-44347380D01*
X251466666Y-44347380D01*
X251371428Y-44299761D01*
X251323809Y-44252142D01*
X251276190Y-44156904D01*
X251276190Y-44061666D01*
X251323809Y-43966428D01*
X251371428Y-43918809D01*
X251466666Y-43871190D01*
X251657142Y-43823571D01*
X251752380Y-43775952D01*
X251800000Y-43728333D01*
X251847619Y-43633095D01*
X251847619Y-43537857D01*
X251800000Y-43442619D01*
X251752380Y-43395000D01*
X251657142Y-43347380D01*
X251419047Y-43347380D01*
X251276190Y-43395000D01*
X260895238Y-44957380D02*
X260895238Y-45671666D01*
X260942857Y-45814523D01*
X261038095Y-45909761D01*
X261180952Y-45957380D01*
X261276190Y-45957380D01*
X260466666Y-45671666D02*
X259990476Y-45671666D01*
X260561904Y-45957380D02*
X260228571Y-44957380D01*
X259895238Y-45957380D01*
X259561904Y-45957380D02*
X259561904Y-44957380D01*
X258990476Y-45957380D01*
X258990476Y-44957380D01*
X257800000Y-45052619D02*
X257752380Y-45005000D01*
X257657142Y-44957380D01*
X257419047Y-44957380D01*
X257323809Y-45005000D01*
X257276190Y-45052619D01*
X257228571Y-45147857D01*
X257228571Y-45243095D01*
X257276190Y-45385952D01*
X257847619Y-45957380D01*
X257228571Y-45957380D01*
X256609523Y-44957380D02*
X256514285Y-44957380D01*
X256419047Y-45005000D01*
X256371428Y-45052619D01*
X256323809Y-45147857D01*
X256276190Y-45338333D01*
X256276190Y-45576428D01*
X256323809Y-45766904D01*
X256371428Y-45862142D01*
X256419047Y-45909761D01*
X256514285Y-45957380D01*
X256609523Y-45957380D01*
X256704761Y-45909761D01*
X256752380Y-45862142D01*
X256800000Y-45766904D01*
X256847619Y-45576428D01*
X256847619Y-45338333D01*
X256800000Y-45147857D01*
X256752380Y-45052619D01*
X256704761Y-45005000D01*
X256609523Y-44957380D01*
X255895238Y-45052619D02*
X255847619Y-45005000D01*
X255752380Y-44957380D01*
X255514285Y-44957380D01*
X255419047Y-45005000D01*
X255371428Y-45052619D01*
X255323809Y-45147857D01*
X255323809Y-45243095D01*
X255371428Y-45385952D01*
X255942857Y-45957380D01*
X255323809Y-45957380D01*
X254942857Y-45052619D02*
X254895238Y-45005000D01*
X254800000Y-44957380D01*
X254561904Y-44957380D01*
X254466666Y-45005000D01*
X254419047Y-45052619D01*
X254371428Y-45147857D01*
X254371428Y-45243095D01*
X254419047Y-45385952D01*
X254990476Y-45957380D01*
X254371428Y-45957380D01*
X256638095Y-41266666D02*
X256161904Y-41266666D01*
X256733333Y-41552380D02*
X256400000Y-40552380D01*
X256066666Y-41552380D01*
X255733333Y-41552380D02*
X255733333Y-40552380D01*
X254542857Y-41504761D02*
X254400000Y-41552380D01*
X254161904Y-41552380D01*
X254066666Y-41504761D01*
X254019047Y-41457142D01*
X253971428Y-41361904D01*
X253971428Y-41266666D01*
X254019047Y-41171428D01*
X254066666Y-41123809D01*
X254161904Y-41076190D01*
X254352380Y-41028571D01*
X254447619Y-40980952D01*
X254495238Y-40933333D01*
X254542857Y-40838095D01*
X254542857Y-40742857D01*
X254495238Y-40647619D01*
X254447619Y-40600000D01*
X254352380Y-40552380D01*
X254114285Y-40552380D01*
X253971428Y-40600000D01*
X253352380Y-41076190D02*
X253352380Y-41552380D01*
X253685714Y-40552380D02*
X253352380Y-41076190D01*
X253019047Y-40552380D01*
X252685714Y-41552380D02*
X252685714Y-40552380D01*
X252114285Y-41552380D01*
X252114285Y-40552380D01*
X251780952Y-40552380D02*
X251209523Y-40552380D01*
X251495238Y-41552380D02*
X251495238Y-40552380D01*
X250876190Y-41552380D02*
X250876190Y-40552380D01*
X250876190Y-41028571D02*
X250304761Y-41028571D01*
X250304761Y-41552380D02*
X250304761Y-40552380D01*
X249828571Y-41028571D02*
X249495238Y-41028571D01*
X249352380Y-41552380D02*
X249828571Y-41552380D01*
X249828571Y-40552380D01*
X249352380Y-40552380D01*
X248971428Y-41504761D02*
X248828571Y-41552380D01*
X248590476Y-41552380D01*
X248495238Y-41504761D01*
X248447619Y-41457142D01*
X248400000Y-41361904D01*
X248400000Y-41266666D01*
X248447619Y-41171428D01*
X248495238Y-41123809D01*
X248590476Y-41076190D01*
X248780952Y-41028571D01*
X248876190Y-40980952D01*
X248923809Y-40933333D01*
X248971428Y-40838095D01*
X248971428Y-40742857D01*
X248923809Y-40647619D01*
X248876190Y-40600000D01*
X248780952Y-40552380D01*
X248542857Y-40552380D01*
X248400000Y-40600000D01*
X247971428Y-41552380D02*
X247971428Y-40552380D01*
X247542857Y-41504761D02*
X247400000Y-41552380D01*
X247161904Y-41552380D01*
X247066666Y-41504761D01*
X247019047Y-41457142D01*
X246971428Y-41361904D01*
X246971428Y-41266666D01*
X247019047Y-41171428D01*
X247066666Y-41123809D01*
X247161904Y-41076190D01*
X247352380Y-41028571D01*
X247447619Y-40980952D01*
X247495238Y-40933333D01*
X247542857Y-40838095D01*
X247542857Y-40742857D01*
X247495238Y-40647619D01*
X247447619Y-40600000D01*
X247352380Y-40552380D01*
X247114285Y-40552380D01*
X246971428Y-40600000D01*
X245828571Y-41504761D02*
X245685714Y-41552380D01*
X245447619Y-41552380D01*
X245352380Y-41504761D01*
X245304761Y-41457142D01*
X245257142Y-41361904D01*
X245257142Y-41266666D01*
X245304761Y-41171428D01*
X245352380Y-41123809D01*
X245447619Y-41076190D01*
X245638095Y-41028571D01*
X245733333Y-40980952D01*
X245780952Y-40933333D01*
X245828571Y-40838095D01*
X245828571Y-40742857D01*
X245780952Y-40647619D01*
X245733333Y-40600000D01*
X245638095Y-40552380D01*
X245400000Y-40552380D01*
X245257142Y-40600000D01*
X244971428Y-40552380D02*
X244400000Y-40552380D01*
X244685714Y-41552380D02*
X244685714Y-40552380D01*
X243876190Y-40552380D02*
X243685714Y-40552380D01*
X243590476Y-40600000D01*
X243495238Y-40695238D01*
X243447619Y-40885714D01*
X243447619Y-41219047D01*
X243495238Y-41409523D01*
X243590476Y-41504761D01*
X243685714Y-41552380D01*
X243876190Y-41552380D01*
X243971428Y-41504761D01*
X244066666Y-41409523D01*
X244114285Y-41219047D01*
X244114285Y-40885714D01*
X244066666Y-40695238D01*
X243971428Y-40600000D01*
X243876190Y-40552380D01*
X243019047Y-41552380D02*
X243019047Y-40552380D01*
X242685714Y-41266666D01*
X242352380Y-40552380D01*
X242352380Y-41552380D01*
X241876190Y-41552380D02*
X241876190Y-40552380D01*
X241495238Y-40552380D01*
X241400000Y-40600000D01*
X241352380Y-40647619D01*
X241304761Y-40742857D01*
X241304761Y-40885714D01*
X241352380Y-40980952D01*
X241400000Y-41028571D01*
X241495238Y-41076190D01*
X241876190Y-41076190D01*
X240542857Y-41028571D02*
X240400000Y-41076190D01*
X240352380Y-41123809D01*
X240304761Y-41219047D01*
X240304761Y-41361904D01*
X240352380Y-41457142D01*
X240400000Y-41504761D01*
X240495238Y-41552380D01*
X240876190Y-41552380D01*
X240876190Y-40552380D01*
X240542857Y-40552380D01*
X240447619Y-40600000D01*
X240400000Y-40647619D01*
X240352380Y-40742857D01*
X240352380Y-40838095D01*
X240400000Y-40933333D01*
X240447619Y-40980952D01*
X240542857Y-41028571D01*
X240876190Y-41028571D01*
X239685714Y-40552380D02*
X239495238Y-40552380D01*
X239400000Y-40600000D01*
X239304761Y-40695238D01*
X239257142Y-40885714D01*
X239257142Y-41219047D01*
X239304761Y-41409523D01*
X239400000Y-41504761D01*
X239495238Y-41552380D01*
X239685714Y-41552380D01*
X239780952Y-41504761D01*
X239876190Y-41409523D01*
X239923809Y-41219047D01*
X239923809Y-40885714D01*
X239876190Y-40695238D01*
X239780952Y-40600000D01*
X239685714Y-40552380D01*
X238923809Y-40552380D02*
X238257142Y-41552380D01*
X238257142Y-40552380D02*
X238923809Y-41552380D01*
X237161904Y-41266666D02*
X236685714Y-41266666D01*
X237257142Y-41552380D02*
X236923809Y-40552380D01*
X236590476Y-41552380D01*
X236257142Y-41552380D02*
X236257142Y-40552380D01*
X236019047Y-40552380D01*
X235876190Y-40600000D01*
X235780952Y-40695238D01*
X235733333Y-40790476D01*
X235685714Y-40980952D01*
X235685714Y-41123809D01*
X235733333Y-41314285D01*
X235780952Y-41409523D01*
X235876190Y-41504761D01*
X236019047Y-41552380D01*
X236257142Y-41552380D01*
X235304761Y-41266666D02*
X234828571Y-41266666D01*
X235400000Y-41552380D02*
X235066666Y-40552380D01*
X234733333Y-41552380D01*
X234400000Y-41552380D02*
X234400000Y-40552380D01*
X234019047Y-40552380D01*
X233923809Y-40600000D01*
X233876190Y-40647619D01*
X233828571Y-40742857D01*
X233828571Y-40885714D01*
X233876190Y-40980952D01*
X233923809Y-41028571D01*
X234019047Y-41076190D01*
X234400000Y-41076190D01*
X233542857Y-40552380D02*
X232971428Y-40552380D01*
X233257142Y-41552380D02*
X233257142Y-40552380D01*
X232638095Y-41028571D02*
X232304761Y-41028571D01*
X232161904Y-41552380D02*
X232638095Y-41552380D01*
X232638095Y-40552380D01*
X232161904Y-40552380D01*
X231161904Y-41552380D02*
X231495238Y-41076190D01*
X231733333Y-41552380D02*
X231733333Y-40552380D01*
X231352380Y-40552380D01*
X231257142Y-40600000D01*
X231209523Y-40647619D01*
X231161904Y-40742857D01*
X231161904Y-40885714D01*
X231209523Y-40980952D01*
X231257142Y-41028571D01*
X231352380Y-41076190D01*
X231733333Y-41076190D01*
%TO.C,C5*%
X249166666Y-33607142D02*
X249214285Y-33654761D01*
X249357142Y-33702380D01*
X249452380Y-33702380D01*
X249595238Y-33654761D01*
X249690476Y-33559523D01*
X249738095Y-33464285D01*
X249785714Y-33273809D01*
X249785714Y-33130952D01*
X249738095Y-32940476D01*
X249690476Y-32845238D01*
X249595238Y-32750000D01*
X249452380Y-32702380D01*
X249357142Y-32702380D01*
X249214285Y-32750000D01*
X249166666Y-32797619D01*
X248261904Y-32702380D02*
X248738095Y-32702380D01*
X248785714Y-33178571D01*
X248738095Y-33130952D01*
X248642857Y-33083333D01*
X248404761Y-33083333D01*
X248309523Y-33130952D01*
X248261904Y-33178571D01*
X248214285Y-33273809D01*
X248214285Y-33511904D01*
X248261904Y-33607142D01*
X248309523Y-33654761D01*
X248404761Y-33702380D01*
X248642857Y-33702380D01*
X248738095Y-33654761D01*
X248785714Y-33607142D01*
%TO.C,C4*%
X249166666Y-36857142D02*
X249214285Y-36904761D01*
X249357142Y-36952380D01*
X249452380Y-36952380D01*
X249595238Y-36904761D01*
X249690476Y-36809523D01*
X249738095Y-36714285D01*
X249785714Y-36523809D01*
X249785714Y-36380952D01*
X249738095Y-36190476D01*
X249690476Y-36095238D01*
X249595238Y-36000000D01*
X249452380Y-35952380D01*
X249357142Y-35952380D01*
X249214285Y-36000000D01*
X249166666Y-36047619D01*
X248309523Y-36285714D02*
X248309523Y-36952380D01*
X248547619Y-35904761D02*
X248785714Y-36619047D01*
X248166666Y-36619047D01*
D11*
%TO.C,C5*%
X247380000Y-32120000D02*
X250620000Y-32120000D01*
X247380000Y-29880000D02*
X250620000Y-29880000D01*
X247380000Y-32120000D02*
X247380000Y-32055000D01*
X247380000Y-29945000D02*
X247380000Y-29880000D01*
X250620000Y-32120000D02*
X250620000Y-32055000D01*
X250620000Y-29945000D02*
X250620000Y-29880000D01*
%TO.C,C4*%
X247380000Y-39620000D02*
X250620000Y-39620000D01*
X247380000Y-37380000D02*
X250620000Y-37380000D01*
X247380000Y-39620000D02*
X247380000Y-39555000D01*
X247380000Y-37445000D02*
X247380000Y-37380000D01*
X250620000Y-39620000D02*
X250620000Y-39555000D01*
X250620000Y-37445000D02*
X250620000Y-37380000D01*
%TD*%
%LPC*%
D12*
%TO.C,H1*%
X225500000Y-22500000D03*
%TD*%
D13*
%TO.C,C6*%
X241000000Y-29000000D03*
X236000000Y-29000000D03*
%TD*%
%TO.C,C2*%
X236000000Y-39000000D03*
X241000000Y-39000000D03*
%TD*%
D14*
%TO.C,U1*%
X245200000Y-31200000D03*
D15*
X252820000Y-38820000D03*
X245200000Y-33740000D03*
X252820000Y-36280000D03*
X245200000Y-36280000D03*
X252820000Y-33740000D03*
X245200000Y-38820000D03*
X252820000Y-31200000D03*
%TD*%
D16*
%TO.C,RV2*%
X228700000Y-22420000D03*
X228700000Y-24960000D03*
D17*
X228700000Y-27500000D03*
%TD*%
D16*
%TO.C,RV1*%
X225000000Y-48055000D03*
X225000000Y-45515000D03*
D17*
X225000000Y-42975000D03*
%TD*%
D13*
%TO.C,R7*%
X242190000Y-22000000D03*
D18*
X249810000Y-22000000D03*
%TD*%
D13*
%TO.C,R6*%
X234690000Y-35650000D03*
D18*
X242310000Y-35650000D03*
%TD*%
D13*
%TO.C,R5*%
X242310000Y-32500000D03*
D18*
X234690000Y-32500000D03*
%TD*%
D13*
%TO.C,R4*%
X228500000Y-38310000D03*
D18*
X228500000Y-30690000D03*
%TD*%
D13*
%TO.C,R3*%
X225000000Y-38310000D03*
D18*
X225000000Y-30690000D03*
%TD*%
D13*
%TO.C,R2*%
X236190000Y-48000000D03*
D18*
X243810000Y-48000000D03*
%TD*%
D13*
%TO.C,R1*%
X243810000Y-44500000D03*
D18*
X236190000Y-44500000D03*
%TD*%
D17*
%TO.C,J5*%
X239000000Y-24775000D03*
D16*
X239000000Y-22235000D03*
%TD*%
D17*
%TO.C,J4*%
X229000000Y-45225000D03*
D16*
X229000000Y-47765000D03*
%TD*%
D19*
%TO.C,J3*%
X258230000Y-29920000D03*
D20*
X260770000Y-29920000D03*
X258230000Y-32460000D03*
X260770000Y-32460000D03*
X258230000Y-35000000D03*
X260770000Y-35000000D03*
X258230000Y-37540000D03*
X260770000Y-37540000D03*
X258230000Y-40080000D03*
X260770000Y-40080000D03*
%TD*%
D17*
%TO.C,J2*%
X233000000Y-24775000D03*
D16*
X233000000Y-22235000D03*
%TD*%
D17*
%TO.C,J1*%
X233000000Y-45225000D03*
D16*
X233000000Y-47765000D03*
%TD*%
D21*
%TO.C,D2*%
X263080000Y-22000000D03*
D22*
X252920000Y-22000000D03*
%TD*%
D21*
%TO.C,D1*%
X252920000Y-47500000D03*
D22*
X263080000Y-47500000D03*
%TD*%
D13*
%TO.C,C5*%
X247750000Y-31000000D03*
X250250000Y-31000000D03*
%TD*%
%TO.C,C4*%
X247750000Y-38500000D03*
X250250000Y-38500000D03*
%TD*%
D23*
%TO.C,C3*%
X246455113Y-26500000D03*
D13*
X244455113Y-26500000D03*
%TD*%
D23*
%TO.C,C1*%
X249455113Y-44000000D03*
D13*
X247455113Y-44000000D03*
%TD*%
M02*
