%TF.GenerationSoftware,KiCad,Pcbnew,(6.0.0)*%
%TF.CreationDate,2022-01-09T16:20:31+00:00*%
%TF.ProjectId,aistompboxadapter,61697374-6f6d-4706-926f-786164617074,rev?*%
%TF.SameCoordinates,Original*%
%TF.FileFunction,Copper,L1,Top*%
%TF.FilePolarity,Positive*%
%FSLAX46Y46*%
G04 Gerber Fmt 4.6, Leading zero omitted, Abs format (unit mm)*
G04 Created by KiCad (PCBNEW (6.0.0)) date 2022-01-09 16:20:31*
%MOMM*%
%LPD*%
G01*
G04 APERTURE LIST*
%TA.AperFunction,ComponentPad*%
%ADD10C,1.600000*%
%TD*%
%TA.AperFunction,ComponentPad*%
%ADD11R,2.400000X1.600000*%
%TD*%
%TA.AperFunction,ComponentPad*%
%ADD12O,2.400000X1.600000*%
%TD*%
%TA.AperFunction,ComponentPad*%
%ADD13O,1.700000X1.700000*%
%TD*%
%TA.AperFunction,ComponentPad*%
%ADD14R,1.700000X1.700000*%
%TD*%
%TA.AperFunction,ComponentPad*%
%ADD15O,1.600000X1.600000*%
%TD*%
%TA.AperFunction,ComponentPad*%
%ADD16R,1.727200X1.727200*%
%TD*%
%TA.AperFunction,ComponentPad*%
%ADD17O,1.727200X1.727200*%
%TD*%
%TA.AperFunction,ComponentPad*%
%ADD18R,2.200000X2.200000*%
%TD*%
%TA.AperFunction,ComponentPad*%
%ADD19O,2.200000X2.200000*%
%TD*%
%TA.AperFunction,ComponentPad*%
%ADD20R,1.600000X1.600000*%
%TD*%
%TA.AperFunction,Conductor*%
%ADD21C,0.400000*%
%TD*%
G04 APERTURE END LIST*
D10*
%TO.P,C6,1*%
%TO.N,Net-(C6-Pad1)*%
X241000000Y-29000000D03*
%TO.P,C6,2*%
%TO.N,Net-(C6-Pad2)*%
X236000000Y-29000000D03*
%TD*%
%TO.P,C2,1*%
%TO.N,Net-(C1-Pad1)*%
X236000000Y-39000000D03*
%TO.P,C2,2*%
%TO.N,GND*%
X241000000Y-39000000D03*
%TD*%
D11*
%TO.P,U1,1*%
%TO.N,Net-(C6-Pad2)*%
X245200000Y-31200000D03*
D12*
%TO.P,U1,5,+*%
%TO.N,GND*%
X252820000Y-38820000D03*
%TO.P,U1,2,-*%
%TO.N,Net-(C6-Pad1)*%
X245200000Y-33740000D03*
%TO.P,U1,6,-*%
%TO.N,Net-(U1-Pad6)*%
X252820000Y-36280000D03*
%TO.P,U1,3,+*%
%TO.N,Net-(C1-Pad1)*%
X245200000Y-36280000D03*
%TO.P,U1,7*%
%TO.N,Net-(U1-Pad6)*%
X252820000Y-33740000D03*
%TO.P,U1,4,V-*%
%TO.N,+12V*%
X245200000Y-38820000D03*
%TO.P,U1,8,V+*%
%TO.N,-12V*%
X252820000Y-31200000D03*
%TD*%
D13*
%TO.P,RV2,3,3*%
%TO.N,Net-(R7-Pad1)*%
X228700000Y-22420000D03*
%TO.P,RV2,2,2*%
%TO.N,Net-(RV2-Pad2)*%
X228700000Y-24960000D03*
D14*
%TO.P,RV2,1,1*%
%TO.N,GND*%
X228700000Y-27500000D03*
%TD*%
D13*
%TO.P,RV1,3,3*%
%TO.N,Net-(RV1-Pad3)*%
X225000000Y-48055000D03*
%TO.P,RV1,2,2*%
%TO.N,Net-(R3-Pad1)*%
X225000000Y-45515000D03*
D14*
%TO.P,RV1,1,1*%
%TO.N,GND*%
X225000000Y-42975000D03*
%TD*%
D10*
%TO.P,R7,1*%
%TO.N,Net-(R7-Pad1)*%
X242190000Y-22000000D03*
D15*
%TO.P,R7,2*%
%TO.N,Net-(C6-Pad2)*%
X249810000Y-22000000D03*
%TD*%
D10*
%TO.P,R6,1*%
%TO.N,Net-(C6-Pad2)*%
X234690000Y-35650000D03*
D15*
%TO.P,R6,2*%
%TO.N,Net-(C6-Pad1)*%
X242310000Y-35650000D03*
%TD*%
D10*
%TO.P,R5,1*%
%TO.N,Net-(C6-Pad1)*%
X242310000Y-32500000D03*
D15*
%TO.P,R5,2*%
%TO.N,Net-(C3-Pad1)*%
X234690000Y-32500000D03*
%TD*%
D10*
%TO.P,R4,1*%
%TO.N,GND*%
X228500000Y-38310000D03*
D15*
%TO.P,R4,2*%
%TO.N,Net-(J4-Pad1)*%
X228500000Y-30690000D03*
%TD*%
D10*
%TO.P,R3,1*%
%TO.N,Net-(R3-Pad1)*%
X225000000Y-38310000D03*
D15*
%TO.P,R3,2*%
%TO.N,Net-(J4-Pad1)*%
X225000000Y-30690000D03*
%TD*%
D10*
%TO.P,R2,1*%
%TO.N,GND*%
X236190000Y-48000000D03*
D15*
%TO.P,R2,2*%
%TO.N,Net-(C1-Pad1)*%
X243810000Y-48000000D03*
%TD*%
D10*
%TO.P,R1,1*%
%TO.N,GND*%
X243810000Y-44500000D03*
D15*
%TO.P,R1,2*%
%TO.N,Net-(J2-Pad1)*%
X236190000Y-44500000D03*
%TD*%
D14*
%TO.P,J5,1,Pin_1*%
%TO.N,Net-(RV2-Pad2)*%
X239000000Y-24775000D03*
D13*
%TO.P,J5,2,Pin_2*%
%TO.N,GND*%
X239000000Y-22235000D03*
%TD*%
D14*
%TO.P,J4,1,Pin_1*%
%TO.N,Net-(J4-Pad1)*%
X229000000Y-45225000D03*
D13*
%TO.P,J4,2,Pin_2*%
%TO.N,GND*%
X229000000Y-47765000D03*
%TD*%
D16*
%TO.P,J3,1,Pin_1*%
%TO.N,Net-(D2-Pad1)*%
X258230000Y-29920000D03*
D17*
%TO.P,J3,2,Pin_2*%
X260770000Y-29920000D03*
%TO.P,J3,3,Pin_3*%
%TO.N,GND*%
X258230000Y-32460000D03*
%TO.P,J3,4,Pin_4*%
X260770000Y-32460000D03*
%TO.P,J3,5,Pin_5*%
X258230000Y-35000000D03*
%TO.P,J3,6,Pin_6*%
X260770000Y-35000000D03*
%TO.P,J3,7,Pin_7*%
X258230000Y-37540000D03*
%TO.P,J3,8,Pin_8*%
X260770000Y-37540000D03*
%TO.P,J3,9,Pin_9*%
%TO.N,Net-(D1-Pad2)*%
X258230000Y-40080000D03*
%TO.P,J3,10,Pin_10*%
X260770000Y-40080000D03*
%TD*%
D14*
%TO.P,J2,1,Pin_1*%
%TO.N,Net-(J2-Pad1)*%
X233000000Y-24775000D03*
D13*
%TO.P,J2,2,Pin_2*%
%TO.N,GND*%
X233000000Y-22235000D03*
%TD*%
D14*
%TO.P,J1,1,Pin_1*%
%TO.N,Net-(RV1-Pad3)*%
X233000000Y-45225000D03*
D13*
%TO.P,J1,2,Pin_2*%
%TO.N,GND*%
X233000000Y-47765000D03*
%TD*%
D18*
%TO.P,D2,1,K*%
%TO.N,Net-(D2-Pad1)*%
X263080000Y-22000000D03*
D19*
%TO.P,D2,2,A*%
%TO.N,-12V*%
X252920000Y-22000000D03*
%TD*%
D18*
%TO.P,D1,1,K*%
%TO.N,+12V*%
X252920000Y-47500000D03*
D19*
%TO.P,D1,2,A*%
%TO.N,Net-(D1-Pad2)*%
X263080000Y-47500000D03*
%TD*%
D10*
%TO.P,C5,1*%
%TO.N,GND*%
X247750000Y-31000000D03*
%TO.P,C5,2*%
%TO.N,-12V*%
X250250000Y-31000000D03*
%TD*%
%TO.P,C4,1*%
%TO.N,+12V*%
X247750000Y-38500000D03*
%TO.P,C4,2*%
%TO.N,GND*%
X250250000Y-38500000D03*
%TD*%
D20*
%TO.P,C3,1*%
%TO.N,Net-(C3-Pad1)*%
X246455113Y-26500000D03*
D10*
%TO.P,C3,2*%
%TO.N,GND*%
X244455113Y-26500000D03*
%TD*%
D20*
%TO.P,C1,1*%
%TO.N,Net-(C1-Pad1)*%
X249455113Y-44000000D03*
D10*
%TO.P,C1,2*%
%TO.N,Net-(J2-Pad1)*%
X247455113Y-44000000D03*
%TD*%
D21*
%TO.N,Net-(RV2-Pad2)*%
X237275000Y-24775000D02*
X239000000Y-24775000D01*
X235984511Y-23484511D02*
X237275000Y-24775000D01*
X228700000Y-24960000D02*
X230175489Y-23484511D01*
%TO.N,Net-(R7-Pad1)*%
X241175489Y-20985489D02*
X242190000Y-22000000D01*
X230134511Y-20985489D02*
X241175489Y-20985489D01*
%TO.N,Net-(RV2-Pad2)*%
X230175489Y-23484511D02*
X235984511Y-23484511D01*
%TO.N,Net-(R7-Pad1)*%
X228700000Y-22420000D02*
X230134511Y-20985489D01*
%TO.N,Net-(J2-Pad1)*%
X233000000Y-26775000D02*
X233000000Y-24775000D01*
X232291459Y-27483541D02*
X233000000Y-26775000D01*
X236190000Y-44500000D02*
X232291459Y-40601459D01*
X232291459Y-40601459D02*
X232291459Y-27483541D01*
%TO.N,Net-(D1-Pad2)*%
X260770000Y-40080000D02*
X258230000Y-40080000D01*
%TO.N,Net-(C3-Pad1)*%
X235889511Y-36146855D02*
X235889511Y-33699511D01*
X232890969Y-36390969D02*
X233500000Y-37000000D01*
X235036366Y-37000000D02*
X235889511Y-36146855D01*
X232890969Y-30412665D02*
X232890969Y-36390969D01*
X236102665Y-27200969D02*
X232890969Y-30412665D01*
X241299031Y-27200969D02*
X236102665Y-27200969D01*
X245255602Y-25300489D02*
X243199511Y-25300489D01*
X243199511Y-25300489D02*
X241299031Y-27200969D01*
X246455113Y-26500000D02*
X245255602Y-25300489D01*
X235889511Y-33699511D02*
X234690000Y-32500000D01*
X233500000Y-37000000D02*
X235036366Y-37000000D01*
%TO.N,Net-(C6-Pad2)*%
X237199511Y-27800489D02*
X236000000Y-29000000D01*
X241800489Y-27800489D02*
X237199511Y-27800489D01*
X245200000Y-31200000D02*
X241800489Y-27800489D01*
%TO.N,Net-(U1-Pad6)*%
X252820000Y-33740000D02*
X252820000Y-36280000D01*
%TO.N,Net-(C6-Pad2)*%
X236000000Y-29000000D02*
X233490489Y-31509511D01*
X233490489Y-34450489D02*
X234690000Y-35650000D01*
X233490489Y-31509511D02*
X233490489Y-34450489D01*
%TO.N,Net-(C1-Pad1)*%
X243001449Y-40199511D02*
X243600480Y-39600480D01*
X236000000Y-39000000D02*
X237199511Y-40199511D01*
X237199511Y-40199511D02*
X243001449Y-40199511D01*
%TO.N,Net-(J4-Pad1)*%
X229699511Y-44525489D02*
X229000000Y-45225000D01*
X229699511Y-31889511D02*
X229699511Y-44525489D01*
X228500000Y-30690000D02*
X229699511Y-31889511D01*
X225000000Y-30690000D02*
X228500000Y-30690000D01*
%TO.N,Net-(R3-Pad1)*%
X223750489Y-39559511D02*
X225000000Y-38310000D01*
X225000000Y-45515000D02*
X223750489Y-44265489D01*
X223750489Y-44265489D02*
X223750489Y-39559511D01*
%TO.N,Net-(RV1-Pad3)*%
X230500489Y-46474511D02*
X226580489Y-46474511D01*
X226580489Y-46474511D02*
X225000000Y-48055000D01*
X233000000Y-45225000D02*
X231750000Y-45225000D01*
X231750000Y-45225000D02*
X230500489Y-46474511D01*
%TO.N,Net-(J2-Pad1)*%
X237389511Y-43300489D02*
X236190000Y-44500000D01*
X244306855Y-43300489D02*
X237389511Y-43300489D01*
X245006366Y-44000000D02*
X244306855Y-43300489D01*
X247455113Y-44000000D02*
X245006366Y-44000000D01*
%TO.N,Net-(C6-Pad1)*%
X241000000Y-31190000D02*
X242310000Y-32500000D01*
X241000000Y-29000000D02*
X241000000Y-31190000D01*
X243960000Y-32500000D02*
X245200000Y-33740000D01*
X242310000Y-32500000D02*
X243960000Y-32500000D01*
X243290000Y-35650000D02*
X245200000Y-33740000D01*
X242310000Y-35650000D02*
X243290000Y-35650000D01*
%TO.N,Net-(C6-Pad2)*%
X249810000Y-26590000D02*
X245200000Y-31200000D01*
X249810000Y-22000000D02*
X249810000Y-26590000D01*
%TO.N,Net-(C1-Pad1)*%
X246800489Y-42800489D02*
X248255602Y-42800489D01*
X243600480Y-39600480D02*
X246800489Y-42800489D01*
X243600480Y-37879520D02*
X243600480Y-39600480D01*
X248255602Y-42800489D02*
X249455113Y-44000000D01*
X245200000Y-36280000D02*
X243600480Y-37879520D01*
X245455113Y-48000000D02*
X249455113Y-44000000D01*
X243810000Y-48000000D02*
X245455113Y-48000000D01*
%TO.N,+12V*%
X245200000Y-38820000D02*
X247430000Y-38820000D01*
X247430000Y-38820000D02*
X247750000Y-38500000D01*
X252920000Y-43670000D02*
X247750000Y-38500000D01*
X252920000Y-47500000D02*
X252920000Y-43670000D01*
%TO.N,Net-(D1-Pad2)*%
X263080000Y-42390000D02*
X260770000Y-40080000D01*
X263080000Y-47500000D02*
X263080000Y-42390000D01*
%TO.N,-12V*%
X252620000Y-31000000D02*
X252820000Y-31200000D01*
X250250000Y-31000000D02*
X252620000Y-31000000D01*
X252920000Y-31100000D02*
X252820000Y-31200000D01*
X252920000Y-22000000D02*
X252920000Y-31100000D01*
%TO.N,Net-(D2-Pad1)*%
X258230000Y-29920000D02*
X260770000Y-29920000D01*
X263080000Y-27610000D02*
X260770000Y-29920000D01*
X263080000Y-22000000D02*
X263080000Y-27610000D01*
%TD*%
%TA.AperFunction,Conductor*%
%TO.N,GND*%
G36*
X227625116Y-23262722D02*
G01*
X227653804Y-23287216D01*
X227742865Y-23390031D01*
X227742869Y-23390035D01*
X227746250Y-23393938D01*
X227918126Y-23536632D01*
X227932838Y-23545229D01*
X227991445Y-23579476D01*
X228040169Y-23631114D01*
X228053240Y-23700897D01*
X228026509Y-23766669D01*
X227986055Y-23800027D01*
X227973607Y-23806507D01*
X227969474Y-23809610D01*
X227969471Y-23809612D01*
X227812877Y-23927186D01*
X227794965Y-23940635D01*
X227640629Y-24102138D01*
X227637715Y-24106410D01*
X227637714Y-24106411D01*
X227620991Y-24130926D01*
X227514743Y-24286680D01*
X227506106Y-24305287D01*
X227444670Y-24437641D01*
X227420688Y-24489305D01*
X227360989Y-24704570D01*
X227337251Y-24926695D01*
X227337548Y-24931848D01*
X227337548Y-24931851D01*
X227343011Y-25026590D01*
X227350110Y-25149715D01*
X227351247Y-25154761D01*
X227351248Y-25154767D01*
X227374641Y-25258565D01*
X227399222Y-25367639D01*
X227483266Y-25574616D01*
X227485965Y-25579020D01*
X227576929Y-25727460D01*
X227599987Y-25765088D01*
X227746250Y-25933938D01*
X227750225Y-25937238D01*
X227750231Y-25937244D01*
X227755425Y-25941556D01*
X227795059Y-26000460D01*
X227796555Y-26071441D01*
X227759439Y-26131962D01*
X227719168Y-26156480D01*
X227611946Y-26196676D01*
X227596351Y-26205214D01*
X227494276Y-26281715D01*
X227481715Y-26294276D01*
X227405214Y-26396351D01*
X227396676Y-26411946D01*
X227351522Y-26532394D01*
X227347895Y-26547649D01*
X227342369Y-26598514D01*
X227342000Y-26605328D01*
X227342000Y-27227885D01*
X227346475Y-27243124D01*
X227347865Y-27244329D01*
X227355548Y-27246000D01*
X230039884Y-27246000D01*
X230055123Y-27241525D01*
X230056328Y-27240135D01*
X230057999Y-27232452D01*
X230057999Y-26605331D01*
X230057629Y-26598510D01*
X230052105Y-26547648D01*
X230048479Y-26532396D01*
X230003324Y-26411946D01*
X229994786Y-26396351D01*
X229918285Y-26294276D01*
X229905724Y-26281715D01*
X229803649Y-26205214D01*
X229788054Y-26196676D01*
X229677813Y-26155348D01*
X229621049Y-26112706D01*
X229596349Y-26046145D01*
X229611557Y-25976796D01*
X229633104Y-25948115D01*
X229734430Y-25847144D01*
X229734440Y-25847132D01*
X229738096Y-25843489D01*
X229797594Y-25760689D01*
X229865435Y-25666277D01*
X229868453Y-25662077D01*
X229875179Y-25648469D01*
X229965136Y-25466453D01*
X229965137Y-25466451D01*
X229967430Y-25461811D01*
X230032370Y-25248069D01*
X230061529Y-25026590D01*
X230063156Y-24960000D01*
X230044852Y-24737361D01*
X230043593Y-24732348D01*
X230043591Y-24732337D01*
X230038115Y-24710540D01*
X230040918Y-24639598D01*
X230071223Y-24590747D01*
X230432054Y-24229916D01*
X230494366Y-24195890D01*
X230521149Y-24193011D01*
X231515500Y-24193011D01*
X231583621Y-24213013D01*
X231630114Y-24266669D01*
X231641500Y-24319011D01*
X231641500Y-25673134D01*
X231648255Y-25735316D01*
X231699385Y-25871705D01*
X231786739Y-25988261D01*
X231903295Y-26075615D01*
X232039684Y-26126745D01*
X232101866Y-26133500D01*
X232165500Y-26133500D01*
X232233621Y-26153502D01*
X232280114Y-26207158D01*
X232291500Y-26259500D01*
X232291500Y-26429340D01*
X232271498Y-26497461D01*
X232254595Y-26518435D01*
X231810939Y-26962091D01*
X231804674Y-26967945D01*
X231761074Y-27005980D01*
X231756707Y-27012194D01*
X231724331Y-27058260D01*
X231720398Y-27063555D01*
X231680983Y-27113823D01*
X231677860Y-27120739D01*
X231676476Y-27123025D01*
X231668102Y-27137706D01*
X231666837Y-27140066D01*
X231662469Y-27146280D01*
X231659709Y-27153359D01*
X231659708Y-27153361D01*
X231639257Y-27205816D01*
X231636706Y-27211885D01*
X231610414Y-27270114D01*
X231609030Y-27277581D01*
X231608229Y-27280136D01*
X231603600Y-27296389D01*
X231602937Y-27298969D01*
X231600177Y-27306050D01*
X231599186Y-27313581D01*
X231599185Y-27313583D01*
X231591838Y-27369393D01*
X231590807Y-27375900D01*
X231579163Y-27438727D01*
X231579600Y-27446307D01*
X231579600Y-27446308D01*
X231582750Y-27500933D01*
X231582959Y-27508187D01*
X231582959Y-40572547D01*
X231582667Y-40581117D01*
X231578734Y-40638811D01*
X231580039Y-40646288D01*
X231580039Y-40646289D01*
X231589720Y-40701758D01*
X231590682Y-40708280D01*
X231598357Y-40771701D01*
X231601040Y-40778802D01*
X231601681Y-40781411D01*
X231606144Y-40797721D01*
X231606909Y-40800257D01*
X231608216Y-40807743D01*
X231620043Y-40834684D01*
X231633901Y-40866254D01*
X231636392Y-40872358D01*
X231658972Y-40932115D01*
X231663276Y-40938378D01*
X231664513Y-40940744D01*
X231672758Y-40955556D01*
X231674091Y-40957810D01*
X231677144Y-40964764D01*
X231681766Y-40970787D01*
X231716038Y-41015450D01*
X231719918Y-41020791D01*
X231751798Y-41067179D01*
X231751803Y-41067184D01*
X231756102Y-41073440D01*
X231761772Y-41078491D01*
X231761773Y-41078493D01*
X231802629Y-41114894D01*
X231807905Y-41119875D01*
X234860018Y-44171988D01*
X234894044Y-44234300D01*
X234896444Y-44272063D01*
X234876502Y-44500000D01*
X234896457Y-44728087D01*
X234897881Y-44733400D01*
X234897881Y-44733402D01*
X234935981Y-44875590D01*
X234955716Y-44949243D01*
X234958039Y-44954224D01*
X234958039Y-44954225D01*
X235050151Y-45151762D01*
X235050154Y-45151767D01*
X235052477Y-45156749D01*
X235091312Y-45212211D01*
X235154005Y-45301745D01*
X235183802Y-45344300D01*
X235345700Y-45506198D01*
X235350208Y-45509355D01*
X235350211Y-45509357D01*
X235363076Y-45518365D01*
X235533251Y-45637523D01*
X235538233Y-45639846D01*
X235538238Y-45639849D01*
X235734765Y-45731490D01*
X235740757Y-45734284D01*
X235746065Y-45735706D01*
X235746067Y-45735707D01*
X235956598Y-45792119D01*
X235956600Y-45792119D01*
X235961913Y-45793543D01*
X236190000Y-45813498D01*
X236418087Y-45793543D01*
X236423400Y-45792119D01*
X236423402Y-45792119D01*
X236633933Y-45735707D01*
X236633935Y-45735706D01*
X236639243Y-45734284D01*
X236645235Y-45731490D01*
X236841762Y-45639849D01*
X236841767Y-45639846D01*
X236846749Y-45637523D01*
X236920243Y-45586062D01*
X243088493Y-45586062D01*
X243097789Y-45598077D01*
X243148994Y-45633931D01*
X243158489Y-45639414D01*
X243355947Y-45731490D01*
X243366239Y-45735236D01*
X243576688Y-45791625D01*
X243587481Y-45793528D01*
X243804525Y-45812517D01*
X243815475Y-45812517D01*
X244032519Y-45793528D01*
X244043312Y-45791625D01*
X244253761Y-45735236D01*
X244264053Y-45731490D01*
X244461511Y-45639414D01*
X244471006Y-45633931D01*
X244523048Y-45597491D01*
X244531424Y-45587012D01*
X244524356Y-45573566D01*
X243822812Y-44872022D01*
X243808868Y-44864408D01*
X243807035Y-44864539D01*
X243800420Y-44868790D01*
X243094923Y-45574287D01*
X243088493Y-45586062D01*
X236920243Y-45586062D01*
X237016924Y-45518365D01*
X237029789Y-45509357D01*
X237029792Y-45509355D01*
X237034300Y-45506198D01*
X237196198Y-45344300D01*
X237225996Y-45301745D01*
X237288688Y-45212211D01*
X237327523Y-45156749D01*
X237329846Y-45151767D01*
X237329849Y-45151762D01*
X237421961Y-44954225D01*
X237421961Y-44954224D01*
X237424284Y-44949243D01*
X237444020Y-44875590D01*
X237482119Y-44733402D01*
X237482119Y-44733400D01*
X237483543Y-44728087D01*
X237503498Y-44500000D01*
X237483556Y-44272064D01*
X237497545Y-44202460D01*
X237519982Y-44171988D01*
X237646076Y-44045894D01*
X237708388Y-44011868D01*
X237735171Y-44008989D01*
X242423218Y-44008989D01*
X242491339Y-44028991D01*
X242537832Y-44082647D01*
X242547936Y-44152921D01*
X242544925Y-44167600D01*
X242518375Y-44266688D01*
X242516472Y-44277481D01*
X242497483Y-44494525D01*
X242497483Y-44505475D01*
X242516472Y-44722519D01*
X242518375Y-44733312D01*
X242574764Y-44943761D01*
X242578510Y-44954053D01*
X242670586Y-45151511D01*
X242676069Y-45161006D01*
X242712509Y-45213048D01*
X242722988Y-45221424D01*
X242736434Y-45214356D01*
X243720905Y-44229885D01*
X243783217Y-44195859D01*
X243854032Y-44200924D01*
X243899095Y-44229885D01*
X244884287Y-45215077D01*
X244896062Y-45221507D01*
X244908077Y-45212211D01*
X244943931Y-45161006D01*
X244949414Y-45151511D01*
X245041490Y-44954053D01*
X245045236Y-44943761D01*
X245083250Y-44801889D01*
X245120202Y-44741266D01*
X245184062Y-44710245D01*
X245204957Y-44708500D01*
X246288235Y-44708500D01*
X246356356Y-44728502D01*
X246391448Y-44762229D01*
X246428323Y-44814892D01*
X246448915Y-44844300D01*
X246610813Y-45006198D01*
X246615321Y-45009355D01*
X246615324Y-45009357D01*
X246637622Y-45024970D01*
X246798364Y-45137523D01*
X246803349Y-45139847D01*
X246803355Y-45139851D01*
X246988038Y-45225969D01*
X247041324Y-45272886D01*
X247060785Y-45341163D01*
X247040243Y-45409123D01*
X247023884Y-45429259D01*
X245198548Y-47254595D01*
X245136236Y-47288621D01*
X245109453Y-47291500D01*
X244976878Y-47291500D01*
X244908757Y-47271498D01*
X244873665Y-47237771D01*
X244819357Y-47160211D01*
X244819355Y-47160208D01*
X244816198Y-47155700D01*
X244654300Y-46993802D01*
X244649792Y-46990645D01*
X244649789Y-46990643D01*
X244571611Y-46935902D01*
X244466749Y-46862477D01*
X244461767Y-46860154D01*
X244461762Y-46860151D01*
X244264225Y-46768039D01*
X244264224Y-46768039D01*
X244259243Y-46765716D01*
X244253935Y-46764294D01*
X244253933Y-46764293D01*
X244043402Y-46707881D01*
X244043400Y-46707881D01*
X244038087Y-46706457D01*
X243810000Y-46686502D01*
X243581913Y-46706457D01*
X243576600Y-46707881D01*
X243576598Y-46707881D01*
X243366067Y-46764293D01*
X243366065Y-46764294D01*
X243360757Y-46765716D01*
X243355776Y-46768039D01*
X243355775Y-46768039D01*
X243158238Y-46860151D01*
X243158233Y-46860154D01*
X243153251Y-46862477D01*
X243048389Y-46935902D01*
X242970211Y-46990643D01*
X242970208Y-46990645D01*
X242965700Y-46993802D01*
X242803802Y-47155700D01*
X242800645Y-47160208D01*
X242800643Y-47160211D01*
X242782634Y-47185931D01*
X242672477Y-47343251D01*
X242670154Y-47348233D01*
X242670151Y-47348238D01*
X242587798Y-47524846D01*
X242575716Y-47550757D01*
X242574294Y-47556065D01*
X242574293Y-47556067D01*
X242526011Y-47736258D01*
X242516457Y-47771913D01*
X242496502Y-48000000D01*
X242516457Y-48228087D01*
X242517881Y-48233400D01*
X242517881Y-48233402D01*
X242555025Y-48372022D01*
X242575716Y-48449243D01*
X242578039Y-48454224D01*
X242578039Y-48454225D01*
X242670151Y-48651762D01*
X242670154Y-48651767D01*
X242672477Y-48656749D01*
X242708714Y-48708500D01*
X242799599Y-48838297D01*
X242803802Y-48844300D01*
X242965700Y-49006198D01*
X242970208Y-49009355D01*
X242970211Y-49009357D01*
X243006126Y-49034505D01*
X243153251Y-49137523D01*
X243158233Y-49139846D01*
X243158238Y-49139849D01*
X243347641Y-49228168D01*
X243360757Y-49234284D01*
X243366065Y-49235706D01*
X243366067Y-49235707D01*
X243398111Y-49244293D01*
X243458734Y-49281245D01*
X243489755Y-49345105D01*
X243481327Y-49415600D01*
X243436124Y-49470347D01*
X243365500Y-49492000D01*
X236632570Y-49492000D01*
X236564449Y-49471998D01*
X236517956Y-49418342D01*
X236507852Y-49348068D01*
X236537346Y-49283488D01*
X236599959Y-49244293D01*
X236633761Y-49235236D01*
X236644053Y-49231490D01*
X236841511Y-49139414D01*
X236851006Y-49133931D01*
X236903048Y-49097491D01*
X236911424Y-49087012D01*
X236904356Y-49073566D01*
X236202812Y-48372022D01*
X236188868Y-48364408D01*
X236187035Y-48364539D01*
X236180420Y-48368790D01*
X235474923Y-49074287D01*
X235468493Y-49086062D01*
X235477789Y-49098077D01*
X235528994Y-49133931D01*
X235538489Y-49139414D01*
X235735947Y-49231490D01*
X235746239Y-49235236D01*
X235780041Y-49244293D01*
X235840664Y-49281245D01*
X235871685Y-49345105D01*
X235863257Y-49415600D01*
X235818054Y-49470347D01*
X235747430Y-49492000D01*
X225698408Y-49492000D01*
X225630287Y-49471998D01*
X225583794Y-49418342D01*
X225573690Y-49348068D01*
X225603184Y-49283488D01*
X225642972Y-49252851D01*
X225697994Y-49225896D01*
X225879860Y-49096173D01*
X225890007Y-49086062D01*
X226034435Y-48942137D01*
X226038096Y-48938489D01*
X226042426Y-48932464D01*
X226165435Y-48761277D01*
X226168453Y-48757077D01*
X226175963Y-48741883D01*
X226265136Y-48561453D01*
X226265137Y-48561451D01*
X226267430Y-48556811D01*
X226300375Y-48448376D01*
X226330865Y-48348023D01*
X226330865Y-48348021D01*
X226332370Y-48343069D01*
X226361529Y-48121590D01*
X226363156Y-48055000D01*
X226361345Y-48032966D01*
X227668257Y-48032966D01*
X227698565Y-48167446D01*
X227701645Y-48177275D01*
X227781770Y-48374603D01*
X227786413Y-48383794D01*
X227897694Y-48565388D01*
X227903777Y-48573699D01*
X228043213Y-48734667D01*
X228050580Y-48741883D01*
X228214434Y-48877916D01*
X228222881Y-48883831D01*
X228406756Y-48991279D01*
X228416042Y-48995729D01*
X228615001Y-49071703D01*
X228624899Y-49074579D01*
X228728250Y-49095606D01*
X228742299Y-49094410D01*
X228746000Y-49084065D01*
X228746000Y-49083517D01*
X229254000Y-49083517D01*
X229258064Y-49097359D01*
X229271478Y-49099393D01*
X229278184Y-49098534D01*
X229288262Y-49096392D01*
X229492255Y-49035191D01*
X229501842Y-49031433D01*
X229693095Y-48937739D01*
X229701945Y-48932464D01*
X229875328Y-48808792D01*
X229883200Y-48802139D01*
X230034052Y-48651812D01*
X230040730Y-48643965D01*
X230165003Y-48471020D01*
X230170313Y-48462183D01*
X230264670Y-48271267D01*
X230268469Y-48261672D01*
X230330377Y-48057910D01*
X230332555Y-48047837D01*
X230333986Y-48036962D01*
X230333363Y-48032966D01*
X231668257Y-48032966D01*
X231698565Y-48167446D01*
X231701645Y-48177275D01*
X231781770Y-48374603D01*
X231786413Y-48383794D01*
X231897694Y-48565388D01*
X231903777Y-48573699D01*
X232043213Y-48734667D01*
X232050580Y-48741883D01*
X232214434Y-48877916D01*
X232222881Y-48883831D01*
X232406756Y-48991279D01*
X232416042Y-48995729D01*
X232615001Y-49071703D01*
X232624899Y-49074579D01*
X232728250Y-49095606D01*
X232742299Y-49094410D01*
X232746000Y-49084065D01*
X232746000Y-49083517D01*
X233254000Y-49083517D01*
X233258064Y-49097359D01*
X233271478Y-49099393D01*
X233278184Y-49098534D01*
X233288262Y-49096392D01*
X233492255Y-49035191D01*
X233501842Y-49031433D01*
X233693095Y-48937739D01*
X233701945Y-48932464D01*
X233875328Y-48808792D01*
X233883200Y-48802139D01*
X234034052Y-48651812D01*
X234040730Y-48643965D01*
X234165003Y-48471020D01*
X234170313Y-48462183D01*
X234264670Y-48271267D01*
X234268469Y-48261672D01*
X234330377Y-48057910D01*
X234332555Y-48047837D01*
X234333986Y-48036962D01*
X234331775Y-48022778D01*
X234318617Y-48019000D01*
X233272115Y-48019000D01*
X233256876Y-48023475D01*
X233255671Y-48024865D01*
X233254000Y-48032548D01*
X233254000Y-49083517D01*
X232746000Y-49083517D01*
X232746000Y-48037115D01*
X232741525Y-48021876D01*
X232740135Y-48020671D01*
X232732452Y-48019000D01*
X231683225Y-48019000D01*
X231669694Y-48022973D01*
X231668257Y-48032966D01*
X230333363Y-48032966D01*
X230331775Y-48022778D01*
X230318617Y-48019000D01*
X229272115Y-48019000D01*
X229256876Y-48023475D01*
X229255671Y-48024865D01*
X229254000Y-48032548D01*
X229254000Y-49083517D01*
X228746000Y-49083517D01*
X228746000Y-48037115D01*
X228741525Y-48021876D01*
X228740135Y-48020671D01*
X228732452Y-48019000D01*
X227683225Y-48019000D01*
X227669694Y-48022973D01*
X227668257Y-48032966D01*
X226361345Y-48032966D01*
X226359085Y-48005475D01*
X234877483Y-48005475D01*
X234896472Y-48222519D01*
X234898375Y-48233312D01*
X234954764Y-48443761D01*
X234958510Y-48454053D01*
X235050586Y-48651511D01*
X235056069Y-48661006D01*
X235092509Y-48713048D01*
X235102988Y-48721424D01*
X235116434Y-48714356D01*
X235817978Y-48012812D01*
X235824356Y-48001132D01*
X236554408Y-48001132D01*
X236554539Y-48002965D01*
X236558790Y-48009580D01*
X237264287Y-48715077D01*
X237276062Y-48721507D01*
X237288077Y-48712211D01*
X237323931Y-48661006D01*
X237329414Y-48651511D01*
X237421490Y-48454053D01*
X237425236Y-48443761D01*
X237481625Y-48233312D01*
X237483528Y-48222519D01*
X237502517Y-48005475D01*
X237502517Y-47994525D01*
X237483528Y-47777481D01*
X237481625Y-47766688D01*
X237425236Y-47556239D01*
X237421490Y-47545947D01*
X237329414Y-47348489D01*
X237323931Y-47338994D01*
X237287491Y-47286952D01*
X237277012Y-47278576D01*
X237263566Y-47285644D01*
X236562022Y-47987188D01*
X236554408Y-48001132D01*
X235824356Y-48001132D01*
X235825592Y-47998868D01*
X235825461Y-47997035D01*
X235821210Y-47990420D01*
X235115713Y-47284923D01*
X235103938Y-47278493D01*
X235091923Y-47287789D01*
X235056069Y-47338994D01*
X235050586Y-47348489D01*
X234958510Y-47545947D01*
X234954764Y-47556239D01*
X234898375Y-47766688D01*
X234896472Y-47777481D01*
X234877483Y-47994525D01*
X234877483Y-48005475D01*
X226359085Y-48005475D01*
X226344852Y-47832361D01*
X226343593Y-47827348D01*
X226343591Y-47827337D01*
X226338115Y-47805540D01*
X226340918Y-47734598D01*
X226371223Y-47685747D01*
X226837054Y-47219916D01*
X226899366Y-47185890D01*
X226926149Y-47183011D01*
X227586373Y-47183011D01*
X227654494Y-47203013D01*
X227700987Y-47256669D01*
X227711091Y-47326943D01*
X227707790Y-47342683D01*
X227664389Y-47499183D01*
X227665912Y-47507607D01*
X227678292Y-47511000D01*
X230318344Y-47511000D01*
X230331875Y-47507027D01*
X230333180Y-47497947D01*
X230293432Y-47339707D01*
X230296236Y-47268766D01*
X230336948Y-47210602D01*
X230402644Y-47183683D01*
X230415636Y-47183011D01*
X230471577Y-47183011D01*
X230480147Y-47183303D01*
X230530265Y-47186720D01*
X230530269Y-47186720D01*
X230537841Y-47187236D01*
X230545318Y-47185931D01*
X230545319Y-47185931D01*
X230571797Y-47181310D01*
X230600792Y-47176249D01*
X230607310Y-47175288D01*
X230670731Y-47167613D01*
X230677832Y-47164930D01*
X230680441Y-47164289D01*
X230696751Y-47159826D01*
X230699287Y-47159061D01*
X230706773Y-47157754D01*
X230765289Y-47132067D01*
X230771393Y-47129576D01*
X230824037Y-47109684D01*
X230824038Y-47109683D01*
X230831145Y-47106998D01*
X230837408Y-47102694D01*
X230839774Y-47101457D01*
X230854586Y-47093212D01*
X230856840Y-47091879D01*
X230863794Y-47088826D01*
X230914491Y-47049924D01*
X230919821Y-47046052D01*
X230966209Y-47014172D01*
X230966214Y-47014167D01*
X230972470Y-47009868D01*
X230986785Y-46993802D01*
X231013924Y-46963341D01*
X231018905Y-46958065D01*
X231577721Y-46399249D01*
X231640033Y-46365223D01*
X231710848Y-46370288D01*
X231767641Y-46412779D01*
X231786739Y-46438261D01*
X231903295Y-46525615D01*
X231911704Y-46528767D01*
X231911705Y-46528768D01*
X232020960Y-46569726D01*
X232077725Y-46612367D01*
X232102425Y-46678929D01*
X232087218Y-46748278D01*
X232067825Y-46774759D01*
X231944590Y-46903717D01*
X231938104Y-46911727D01*
X231818098Y-47087649D01*
X231813000Y-47096623D01*
X231723338Y-47289783D01*
X231719775Y-47299470D01*
X231664389Y-47499183D01*
X231665912Y-47507607D01*
X231678292Y-47511000D01*
X234318344Y-47511000D01*
X234331875Y-47507027D01*
X234333180Y-47497947D01*
X234291214Y-47330875D01*
X234287894Y-47321124D01*
X234202972Y-47125814D01*
X234198105Y-47116739D01*
X234082426Y-46937926D01*
X234076136Y-46929757D01*
X234060877Y-46912988D01*
X235468576Y-46912988D01*
X235475644Y-46926434D01*
X236177188Y-47627978D01*
X236191132Y-47635592D01*
X236192965Y-47635461D01*
X236199580Y-47631210D01*
X236905077Y-46925713D01*
X236911507Y-46913938D01*
X236902211Y-46901923D01*
X236851006Y-46866069D01*
X236841511Y-46860586D01*
X236644053Y-46768510D01*
X236633761Y-46764764D01*
X236423312Y-46708375D01*
X236412519Y-46706472D01*
X236195475Y-46687483D01*
X236184525Y-46687483D01*
X235967481Y-46706472D01*
X235956688Y-46708375D01*
X235746239Y-46764764D01*
X235735947Y-46768510D01*
X235538489Y-46860586D01*
X235528994Y-46866069D01*
X235476952Y-46902509D01*
X235468576Y-46912988D01*
X234060877Y-46912988D01*
X233932293Y-46771677D01*
X233901241Y-46707831D01*
X233909635Y-46637333D01*
X233954812Y-46582564D01*
X233981256Y-46568895D01*
X234088297Y-46528767D01*
X234096705Y-46525615D01*
X234213261Y-46438261D01*
X234300615Y-46321705D01*
X234351745Y-46185316D01*
X234358500Y-46123134D01*
X234358500Y-44326866D01*
X234351745Y-44264684D01*
X234300615Y-44128295D01*
X234213261Y-44011739D01*
X234096705Y-43924385D01*
X233960316Y-43873255D01*
X233898134Y-43866500D01*
X232101866Y-43866500D01*
X232039684Y-43873255D01*
X231903295Y-43924385D01*
X231786739Y-44011739D01*
X231699385Y-44128295D01*
X231648255Y-44264684D01*
X231641500Y-44326866D01*
X231641500Y-44419613D01*
X231621498Y-44487734D01*
X231567842Y-44534227D01*
X231551914Y-44540236D01*
X231551197Y-44540453D01*
X231543716Y-44541758D01*
X231536767Y-44544808D01*
X231536765Y-44544809D01*
X231485212Y-44567439D01*
X231479105Y-44569931D01*
X231426452Y-44589827D01*
X231419344Y-44592513D01*
X231413083Y-44596816D01*
X231410717Y-44598053D01*
X231395937Y-44606280D01*
X231393652Y-44607631D01*
X231386695Y-44610685D01*
X231380675Y-44615305D01*
X231380669Y-44615308D01*
X231357456Y-44633121D01*
X231335998Y-44649587D01*
X231330668Y-44653459D01*
X231284280Y-44685339D01*
X231284275Y-44685344D01*
X231278019Y-44689643D01*
X231272968Y-44695313D01*
X231272966Y-44695314D01*
X231236565Y-44736170D01*
X231231584Y-44741446D01*
X230573595Y-45399435D01*
X230511283Y-45433461D01*
X230440468Y-45428396D01*
X230383632Y-45385849D01*
X230358821Y-45319329D01*
X230358500Y-45310340D01*
X230358500Y-44814892D01*
X230369663Y-44763041D01*
X230377433Y-44745833D01*
X230377433Y-44745832D01*
X230380556Y-44738916D01*
X230381940Y-44731452D01*
X230382733Y-44728920D01*
X230387370Y-44712641D01*
X230388033Y-44710061D01*
X230390793Y-44702980D01*
X230391803Y-44695314D01*
X230395684Y-44665828D01*
X230399133Y-44639628D01*
X230400164Y-44633121D01*
X230403466Y-44615308D01*
X230411807Y-44570303D01*
X230409593Y-44531898D01*
X230408220Y-44508097D01*
X230408011Y-44500843D01*
X230408011Y-31918438D01*
X230408303Y-31909869D01*
X230411721Y-31859736D01*
X230411721Y-31859732D01*
X230412237Y-31852159D01*
X230401247Y-31789192D01*
X230400286Y-31782676D01*
X230399467Y-31775908D01*
X230392613Y-31719269D01*
X230389930Y-31712168D01*
X230389289Y-31709559D01*
X230384820Y-31693226D01*
X230384059Y-31690706D01*
X230382754Y-31683228D01*
X230379702Y-31676275D01*
X230357070Y-31624715D01*
X230354579Y-31618610D01*
X230334686Y-31565967D01*
X230334684Y-31565963D01*
X230331998Y-31558855D01*
X230327695Y-31552594D01*
X230326458Y-31550228D01*
X230318231Y-31535448D01*
X230316880Y-31533163D01*
X230313826Y-31526206D01*
X230309206Y-31520186D01*
X230309203Y-31520180D01*
X230274932Y-31475520D01*
X230271052Y-31470179D01*
X230239172Y-31423791D01*
X230239167Y-31423786D01*
X230234868Y-31417530D01*
X230228249Y-31411632D01*
X230188341Y-31376076D01*
X230183065Y-31371095D01*
X229829982Y-31018012D01*
X229795956Y-30955700D01*
X229793556Y-30917935D01*
X229795658Y-30893916D01*
X229813498Y-30690000D01*
X229793543Y-30461913D01*
X229763697Y-30350528D01*
X229735707Y-30246067D01*
X229735706Y-30246065D01*
X229734284Y-30240757D01*
X229731266Y-30234284D01*
X229639849Y-30038238D01*
X229639846Y-30038233D01*
X229637523Y-30033251D01*
X229548741Y-29906457D01*
X229509357Y-29850211D01*
X229509355Y-29850208D01*
X229506198Y-29845700D01*
X229344300Y-29683802D01*
X229339792Y-29680645D01*
X229339789Y-29680643D01*
X229245387Y-29614542D01*
X229156749Y-29552477D01*
X229151767Y-29550154D01*
X229151762Y-29550151D01*
X228954225Y-29458039D01*
X228954224Y-29458039D01*
X228949243Y-29455716D01*
X228943935Y-29454294D01*
X228943933Y-29454293D01*
X228733402Y-29397881D01*
X228733400Y-29397881D01*
X228728087Y-29396457D01*
X228500000Y-29376502D01*
X228271913Y-29396457D01*
X228266600Y-29397881D01*
X228266598Y-29397881D01*
X228056067Y-29454293D01*
X228056065Y-29454294D01*
X228050757Y-29455716D01*
X228045776Y-29458039D01*
X228045775Y-29458039D01*
X227848238Y-29550151D01*
X227848233Y-29550154D01*
X227843251Y-29552477D01*
X227754613Y-29614542D01*
X227660211Y-29680643D01*
X227660208Y-29680645D01*
X227655700Y-29683802D01*
X227493802Y-29845700D01*
X227490645Y-29850208D01*
X227490643Y-29850211D01*
X227436335Y-29927771D01*
X227380878Y-29972099D01*
X227333122Y-29981500D01*
X226166878Y-29981500D01*
X226098757Y-29961498D01*
X226063665Y-29927771D01*
X226009357Y-29850211D01*
X226009355Y-29850208D01*
X226006198Y-29845700D01*
X225844300Y-29683802D01*
X225839792Y-29680645D01*
X225839789Y-29680643D01*
X225745387Y-29614542D01*
X225656749Y-29552477D01*
X225651767Y-29550154D01*
X225651762Y-29550151D01*
X225454225Y-29458039D01*
X225454224Y-29458039D01*
X225449243Y-29455716D01*
X225443935Y-29454294D01*
X225443933Y-29454293D01*
X225233402Y-29397881D01*
X225233400Y-29397881D01*
X225228087Y-29396457D01*
X225000000Y-29376502D01*
X224771913Y-29396457D01*
X224766600Y-29397881D01*
X224766598Y-29397881D01*
X224556067Y-29454293D01*
X224556065Y-29454294D01*
X224550757Y-29455716D01*
X224545776Y-29458039D01*
X224545775Y-29458039D01*
X224348238Y-29550151D01*
X224348233Y-29550154D01*
X224343251Y-29552477D01*
X224254613Y-29614542D01*
X224160211Y-29680643D01*
X224160208Y-29680645D01*
X224155700Y-29683802D01*
X223993802Y-29845700D01*
X223990645Y-29850208D01*
X223990643Y-29850211D01*
X223951259Y-29906457D01*
X223862477Y-30033251D01*
X223860154Y-30038233D01*
X223860151Y-30038238D01*
X223768734Y-30234284D01*
X223765716Y-30240757D01*
X223764294Y-30246065D01*
X223764293Y-30246067D01*
X223755707Y-30278111D01*
X223718755Y-30338734D01*
X223654895Y-30369755D01*
X223584400Y-30361327D01*
X223529653Y-30316124D01*
X223508000Y-30245500D01*
X223508000Y-28394669D01*
X227342001Y-28394669D01*
X227342371Y-28401490D01*
X227347895Y-28452352D01*
X227351521Y-28467604D01*
X227396676Y-28588054D01*
X227405214Y-28603649D01*
X227481715Y-28705724D01*
X227494276Y-28718285D01*
X227596351Y-28794786D01*
X227611946Y-28803324D01*
X227732394Y-28848478D01*
X227747649Y-28852105D01*
X227798514Y-28857631D01*
X227805328Y-28858000D01*
X228427885Y-28858000D01*
X228443124Y-28853525D01*
X228444329Y-28852135D01*
X228446000Y-28844452D01*
X228446000Y-28839884D01*
X228954000Y-28839884D01*
X228958475Y-28855123D01*
X228959865Y-28856328D01*
X228967548Y-28857999D01*
X229594669Y-28857999D01*
X229601490Y-28857629D01*
X229652352Y-28852105D01*
X229667604Y-28848479D01*
X229788054Y-28803324D01*
X229803649Y-28794786D01*
X229905724Y-28718285D01*
X229918285Y-28705724D01*
X229994786Y-28603649D01*
X230003324Y-28588054D01*
X230048478Y-28467606D01*
X230052105Y-28452351D01*
X230057631Y-28401486D01*
X230058000Y-28394672D01*
X230058000Y-27772115D01*
X230053525Y-27756876D01*
X230052135Y-27755671D01*
X230044452Y-27754000D01*
X228972115Y-27754000D01*
X228956876Y-27758475D01*
X228955671Y-27759865D01*
X228954000Y-27767548D01*
X228954000Y-28839884D01*
X228446000Y-28839884D01*
X228446000Y-27772115D01*
X228441525Y-27756876D01*
X228440135Y-27755671D01*
X228432452Y-27754000D01*
X227360116Y-27754000D01*
X227344877Y-27758475D01*
X227343672Y-27759865D01*
X227342001Y-27767548D01*
X227342001Y-28394669D01*
X223508000Y-28394669D01*
X223508000Y-23733364D01*
X223528002Y-23665243D01*
X223581658Y-23618750D01*
X223651932Y-23608646D01*
X223716512Y-23638140D01*
X223742116Y-23668658D01*
X223761411Y-23700897D01*
X223764561Y-23706161D01*
X223944313Y-23930528D01*
X224152851Y-24128423D01*
X224386317Y-24296186D01*
X224390112Y-24298195D01*
X224390113Y-24298196D01*
X224411869Y-24309715D01*
X224640392Y-24430712D01*
X224910373Y-24529511D01*
X225191264Y-24590755D01*
X225204288Y-24591780D01*
X225414282Y-24608307D01*
X225414291Y-24608307D01*
X225416739Y-24608500D01*
X225572271Y-24608500D01*
X225574407Y-24608354D01*
X225574418Y-24608354D01*
X225782548Y-24594165D01*
X225782554Y-24594164D01*
X225786825Y-24593873D01*
X225791020Y-24593004D01*
X225791022Y-24593004D01*
X225927583Y-24564724D01*
X226068342Y-24535574D01*
X226339343Y-24439607D01*
X226594812Y-24307750D01*
X226598313Y-24305289D01*
X226598317Y-24305287D01*
X226758069Y-24193011D01*
X226830023Y-24142441D01*
X226911745Y-24066500D01*
X227037479Y-23949661D01*
X227037481Y-23949658D01*
X227040622Y-23946740D01*
X227222713Y-23724268D01*
X227372927Y-23479142D01*
X227443195Y-23319066D01*
X227488890Y-23264733D01*
X227556708Y-23243728D01*
X227625116Y-23262722D01*
G37*
%TD.AperFunction*%
%TA.AperFunction,Conductor*%
G36*
X261470176Y-20528002D02*
G01*
X261516669Y-20581658D01*
X261526773Y-20651932D01*
X261520037Y-20678229D01*
X261481029Y-20782282D01*
X261481027Y-20782288D01*
X261478255Y-20789684D01*
X261471500Y-20851866D01*
X261471500Y-23148134D01*
X261478255Y-23210316D01*
X261529385Y-23346705D01*
X261616739Y-23463261D01*
X261733295Y-23550615D01*
X261869684Y-23601745D01*
X261931866Y-23608500D01*
X262245500Y-23608500D01*
X262313621Y-23628502D01*
X262360114Y-23682158D01*
X262371500Y-23734500D01*
X262371500Y-27264340D01*
X262351498Y-27332461D01*
X262334595Y-27353435D01*
X261149042Y-28538988D01*
X261086730Y-28573014D01*
X261037851Y-28573940D01*
X260904658Y-28550214D01*
X260904652Y-28550213D01*
X260899569Y-28549308D01*
X260827574Y-28548429D01*
X260679129Y-28546615D01*
X260679127Y-28546615D01*
X260673959Y-28546552D01*
X260450929Y-28580680D01*
X260236468Y-28650777D01*
X260036335Y-28754960D01*
X260032202Y-28758063D01*
X260032199Y-28758065D01*
X259860040Y-28887325D01*
X259855905Y-28890430D01*
X259852333Y-28894168D01*
X259792411Y-28956872D01*
X259730887Y-28992301D01*
X259659975Y-28988844D01*
X259602188Y-28947598D01*
X259583336Y-28914050D01*
X259547367Y-28818103D01*
X259544215Y-28809695D01*
X259456861Y-28693139D01*
X259340305Y-28605785D01*
X259203916Y-28554655D01*
X259141734Y-28547900D01*
X257318266Y-28547900D01*
X257256084Y-28554655D01*
X257119695Y-28605785D01*
X257003139Y-28693139D01*
X256915785Y-28809695D01*
X256864655Y-28946084D01*
X256857900Y-29008266D01*
X256857900Y-30831734D01*
X256864655Y-30893916D01*
X256915785Y-31030305D01*
X257003139Y-31146861D01*
X257119695Y-31234215D01*
X257128104Y-31237367D01*
X257128105Y-31237368D01*
X257223954Y-31273300D01*
X257280719Y-31315941D01*
X257305419Y-31382503D01*
X257290212Y-31451852D01*
X257270819Y-31478333D01*
X257163984Y-31590129D01*
X257157498Y-31598139D01*
X257036232Y-31775908D01*
X257031134Y-31784882D01*
X256940530Y-31980071D01*
X256936967Y-31989758D01*
X256880536Y-32193239D01*
X256882233Y-32202609D01*
X256894610Y-32206000D01*
X262102367Y-32206000D01*
X262115898Y-32202027D01*
X262117203Y-32192947D01*
X262074133Y-32021477D01*
X262070813Y-32011726D01*
X261984999Y-31814365D01*
X261980133Y-31805290D01*
X261863239Y-31624601D01*
X261856947Y-31616430D01*
X261712113Y-31457260D01*
X261704580Y-31450234D01*
X261535691Y-31316855D01*
X261527104Y-31311150D01*
X261508082Y-31300649D01*
X261458111Y-31250216D01*
X261443340Y-31180773D01*
X261468457Y-31114368D01*
X261495801Y-31087768D01*
X261658667Y-30971596D01*
X261818487Y-30812333D01*
X261950150Y-30629105D01*
X262030073Y-30467393D01*
X262047824Y-30431477D01*
X262047825Y-30431475D01*
X262050118Y-30426835D01*
X262115708Y-30210952D01*
X262118382Y-30190643D01*
X262144721Y-29990578D01*
X262144722Y-29990572D01*
X262145158Y-29987256D01*
X262145320Y-29980641D01*
X262146720Y-29923364D01*
X262146720Y-29923360D01*
X262146802Y-29920000D01*
X262128315Y-29695132D01*
X262119322Y-29659330D01*
X262122126Y-29588389D01*
X262152431Y-29539539D01*
X262833971Y-28858000D01*
X263560528Y-28131443D01*
X263566793Y-28125589D01*
X263604664Y-28092552D01*
X263604665Y-28092551D01*
X263610385Y-28087561D01*
X263647136Y-28035271D01*
X263651028Y-28030029D01*
X263690476Y-27979718D01*
X263693600Y-27972799D01*
X263694988Y-27970507D01*
X263703357Y-27955835D01*
X263704622Y-27953475D01*
X263708990Y-27947261D01*
X263732203Y-27887723D01*
X263734759Y-27881642D01*
X263757918Y-27830352D01*
X263761045Y-27823427D01*
X263762430Y-27815954D01*
X263763234Y-27813388D01*
X263767861Y-27797144D01*
X263768522Y-27794570D01*
X263771282Y-27787491D01*
X263779622Y-27724139D01*
X263780654Y-27717623D01*
X263790911Y-27662281D01*
X263792295Y-27654814D01*
X263791055Y-27633299D01*
X263788709Y-27592620D01*
X263788500Y-27585367D01*
X263788500Y-23734500D01*
X263808502Y-23666379D01*
X263862158Y-23619886D01*
X263914500Y-23608500D01*
X264228134Y-23608500D01*
X264290316Y-23601745D01*
X264297717Y-23598970D01*
X264297719Y-23598970D01*
X264321769Y-23589954D01*
X264392576Y-23584770D01*
X264454946Y-23618690D01*
X264489075Y-23680945D01*
X264492000Y-23707935D01*
X264492000Y-46334983D01*
X264471998Y-46403104D01*
X264418342Y-46449597D01*
X264348068Y-46459701D01*
X264283488Y-46430207D01*
X264270189Y-46416814D01*
X264224106Y-46362858D01*
X264220898Y-46359102D01*
X264028376Y-46194672D01*
X263848665Y-46084544D01*
X263801034Y-46031897D01*
X263788500Y-45977112D01*
X263788500Y-42418912D01*
X263788792Y-42410342D01*
X263792209Y-42360224D01*
X263792209Y-42360220D01*
X263792725Y-42352648D01*
X263781739Y-42289703D01*
X263780777Y-42283182D01*
X263779887Y-42275827D01*
X263773102Y-42219758D01*
X263770416Y-42212650D01*
X263769779Y-42210056D01*
X263765318Y-42193750D01*
X263764548Y-42191199D01*
X263763242Y-42183716D01*
X263747690Y-42148287D01*
X263737561Y-42125212D01*
X263735069Y-42119105D01*
X263715173Y-42066452D01*
X263715173Y-42066451D01*
X263712487Y-42059344D01*
X263708184Y-42053083D01*
X263706947Y-42050717D01*
X263698720Y-42035937D01*
X263697369Y-42033652D01*
X263694315Y-42026695D01*
X263689695Y-42020675D01*
X263689692Y-42020669D01*
X263655421Y-41976009D01*
X263651541Y-41970668D01*
X263619661Y-41924280D01*
X263619656Y-41924275D01*
X263615357Y-41918019D01*
X263568829Y-41876564D01*
X263563554Y-41871584D01*
X262153504Y-40461534D01*
X262119478Y-40399222D01*
X262117677Y-40355993D01*
X262119139Y-40344894D01*
X262145158Y-40147256D01*
X262145609Y-40128821D01*
X262146720Y-40083364D01*
X262146720Y-40083360D01*
X262146802Y-40080000D01*
X262128315Y-39855132D01*
X262073349Y-39636304D01*
X261983380Y-39429391D01*
X261877484Y-39265700D01*
X261863634Y-39244291D01*
X261863632Y-39244288D01*
X261860826Y-39239951D01*
X261708977Y-39073071D01*
X261704926Y-39069872D01*
X261704922Y-39069868D01*
X261535966Y-38936434D01*
X261535962Y-38936432D01*
X261531911Y-38933232D01*
X261527387Y-38930734D01*
X261527383Y-38930732D01*
X261508048Y-38920058D01*
X261458079Y-38869625D01*
X261443308Y-38800182D01*
X261468426Y-38733777D01*
X261495776Y-38707172D01*
X261654136Y-38594216D01*
X261662003Y-38587567D01*
X261814445Y-38435656D01*
X261821122Y-38427811D01*
X261946702Y-38253047D01*
X261952013Y-38244208D01*
X262047358Y-38051292D01*
X262051156Y-38041699D01*
X262113716Y-37835791D01*
X262115893Y-37825721D01*
X262117705Y-37811960D01*
X262115493Y-37797778D01*
X262102336Y-37794000D01*
X256899283Y-37794000D01*
X256885752Y-37797973D01*
X256884315Y-37807966D01*
X256915542Y-37946528D01*
X256918621Y-37956356D01*
X256999589Y-38155756D01*
X257004232Y-38164947D01*
X257116682Y-38348448D01*
X257122765Y-38356759D01*
X257263665Y-38519417D01*
X257271032Y-38526633D01*
X257436606Y-38664095D01*
X257445057Y-38670013D01*
X257494545Y-38698932D01*
X257543268Y-38750570D01*
X257556339Y-38820353D01*
X257529607Y-38886125D01*
X257498932Y-38913608D01*
X257496335Y-38914960D01*
X257492202Y-38918063D01*
X257492199Y-38918065D01*
X257320040Y-39047325D01*
X257315905Y-39050430D01*
X257250112Y-39119278D01*
X257212921Y-39158197D01*
X257160024Y-39213550D01*
X257032878Y-39399940D01*
X257030704Y-39404624D01*
X257030702Y-39404627D01*
X256941178Y-39597491D01*
X256937881Y-39604593D01*
X256877585Y-39822013D01*
X256853609Y-40046362D01*
X256853906Y-40051514D01*
X256853906Y-40051518D01*
X256859618Y-40150578D01*
X256866597Y-40271614D01*
X256867734Y-40276660D01*
X256867735Y-40276666D01*
X256888984Y-40370952D01*
X256916200Y-40491720D01*
X256918142Y-40496502D01*
X256918143Y-40496506D01*
X256994941Y-40685635D01*
X257001086Y-40700769D01*
X257003785Y-40705173D01*
X257114584Y-40885981D01*
X257118975Y-40893147D01*
X257266702Y-41063687D01*
X257440299Y-41207810D01*
X257444751Y-41210412D01*
X257444756Y-41210415D01*
X257534091Y-41262618D01*
X257635103Y-41321645D01*
X257845884Y-41402134D01*
X257850952Y-41403165D01*
X257850955Y-41403166D01*
X257900358Y-41413217D01*
X258066981Y-41447117D01*
X258072156Y-41447307D01*
X258072158Y-41447307D01*
X258287292Y-41455196D01*
X258287296Y-41455196D01*
X258292456Y-41455385D01*
X258297576Y-41454729D01*
X258297578Y-41454729D01*
X258366985Y-41445838D01*
X258516253Y-41426716D01*
X258521202Y-41425231D01*
X258521208Y-41425230D01*
X258727413Y-41363365D01*
X258727412Y-41363365D01*
X258732363Y-41361880D01*
X258827419Y-41315312D01*
X258930331Y-41264897D01*
X258930336Y-41264894D01*
X258934982Y-41262618D01*
X258939192Y-41259615D01*
X258939197Y-41259612D01*
X259114455Y-41134601D01*
X259114459Y-41134597D01*
X259118667Y-41131596D01*
X259278487Y-40972333D01*
X259372880Y-40840972D01*
X259428872Y-40797326D01*
X259475200Y-40788500D01*
X259524283Y-40788500D01*
X259592404Y-40808502D01*
X259631715Y-40848664D01*
X259656276Y-40888744D01*
X259656279Y-40888748D01*
X259658975Y-40893147D01*
X259806702Y-41063687D01*
X259980299Y-41207810D01*
X259984751Y-41210412D01*
X259984756Y-41210415D01*
X260074091Y-41262618D01*
X260175103Y-41321645D01*
X260385884Y-41402134D01*
X260390952Y-41403165D01*
X260390955Y-41403166D01*
X260440358Y-41413217D01*
X260606981Y-41447117D01*
X260612156Y-41447307D01*
X260612158Y-41447307D01*
X260827292Y-41455196D01*
X260827296Y-41455196D01*
X260832456Y-41455385D01*
X260837576Y-41454729D01*
X260837578Y-41454729D01*
X260912088Y-41445184D01*
X261046744Y-41427934D01*
X261116853Y-41439118D01*
X261151848Y-41463818D01*
X261747373Y-42059344D01*
X262334595Y-42646566D01*
X262368621Y-42708878D01*
X262371500Y-42735661D01*
X262371500Y-45977112D01*
X262351498Y-46045233D01*
X262311336Y-46084544D01*
X262131624Y-46194672D01*
X261939102Y-46359102D01*
X261774672Y-46551624D01*
X261642384Y-46767498D01*
X261640491Y-46772068D01*
X261640489Y-46772072D01*
X261562384Y-46960635D01*
X261545495Y-47001409D01*
X261544340Y-47006221D01*
X261493037Y-47219916D01*
X261486391Y-47247597D01*
X261466526Y-47500000D01*
X261486391Y-47752403D01*
X261487545Y-47757210D01*
X261487546Y-47757216D01*
X261499148Y-47805540D01*
X261545495Y-47998591D01*
X261547388Y-48003162D01*
X261547389Y-48003164D01*
X261596443Y-48121590D01*
X261642384Y-48232502D01*
X261774672Y-48448376D01*
X261939102Y-48640898D01*
X262131624Y-48805328D01*
X262347498Y-48937616D01*
X262352068Y-48939509D01*
X262352072Y-48939511D01*
X262576836Y-49032611D01*
X262581409Y-49034505D01*
X262648513Y-49050615D01*
X262822784Y-49092454D01*
X262822790Y-49092455D01*
X262827597Y-49093609D01*
X263080000Y-49113474D01*
X263332403Y-49093609D01*
X263337210Y-49092455D01*
X263337216Y-49092454D01*
X263511487Y-49050615D01*
X263578591Y-49034505D01*
X263583164Y-49032611D01*
X263807928Y-48939511D01*
X263807932Y-48939509D01*
X263812502Y-48937616D01*
X264028376Y-48805328D01*
X264220898Y-48640898D01*
X264270189Y-48583186D01*
X264329640Y-48544377D01*
X264400635Y-48543871D01*
X264460633Y-48581827D01*
X264490586Y-48646196D01*
X264492000Y-48665017D01*
X264492000Y-49366000D01*
X264471998Y-49434121D01*
X264418342Y-49480614D01*
X264366000Y-49492000D01*
X244254500Y-49492000D01*
X244186379Y-49471998D01*
X244139886Y-49418342D01*
X244129782Y-49348068D01*
X244159276Y-49283488D01*
X244221889Y-49244293D01*
X244253933Y-49235707D01*
X244253935Y-49235706D01*
X244259243Y-49234284D01*
X244272359Y-49228168D01*
X244461762Y-49139849D01*
X244461767Y-49139846D01*
X244466749Y-49137523D01*
X244613874Y-49034505D01*
X244649789Y-49009357D01*
X244649792Y-49009355D01*
X244654300Y-49006198D01*
X244816198Y-48844300D01*
X244819357Y-48839789D01*
X244873665Y-48762229D01*
X244929122Y-48717901D01*
X244976878Y-48708500D01*
X245426201Y-48708500D01*
X245434771Y-48708792D01*
X245484889Y-48712209D01*
X245484893Y-48712209D01*
X245492465Y-48712725D01*
X245499942Y-48711420D01*
X245499943Y-48711420D01*
X245551281Y-48702460D01*
X245555416Y-48701738D01*
X245561934Y-48700777D01*
X245625355Y-48693102D01*
X245632456Y-48690419D01*
X245635065Y-48689778D01*
X245651375Y-48685315D01*
X245653911Y-48684550D01*
X245661397Y-48683243D01*
X245719913Y-48657556D01*
X245726017Y-48655065D01*
X245734759Y-48651762D01*
X245785769Y-48632487D01*
X245792032Y-48628183D01*
X245794398Y-48626946D01*
X245809210Y-48618701D01*
X245811464Y-48617368D01*
X245818418Y-48614315D01*
X245869115Y-48575413D01*
X245874445Y-48571541D01*
X245920833Y-48539661D01*
X245920838Y-48539656D01*
X245927094Y-48535357D01*
X245968549Y-48488829D01*
X245973529Y-48483554D01*
X249111679Y-45345405D01*
X249173991Y-45311379D01*
X249200774Y-45308500D01*
X250303247Y-45308500D01*
X250365429Y-45301745D01*
X250501818Y-45250615D01*
X250618374Y-45163261D01*
X250705728Y-45046705D01*
X250756858Y-44910316D01*
X250763613Y-44848134D01*
X250763613Y-43151866D01*
X250756858Y-43089684D01*
X250705728Y-42953295D01*
X250618374Y-42836739D01*
X250501818Y-42749385D01*
X250365429Y-42698255D01*
X250303247Y-42691500D01*
X249200773Y-42691500D01*
X249132652Y-42671498D01*
X249111678Y-42654595D01*
X248777052Y-42319969D01*
X248771198Y-42313704D01*
X248770803Y-42313251D01*
X248733163Y-42270104D01*
X248680882Y-42233360D01*
X248675588Y-42229428D01*
X248631295Y-42194698D01*
X248625320Y-42190013D01*
X248618404Y-42186890D01*
X248616118Y-42185506D01*
X248601437Y-42177132D01*
X248599077Y-42175867D01*
X248592863Y-42171499D01*
X248585784Y-42168739D01*
X248585782Y-42168738D01*
X248533327Y-42148287D01*
X248527258Y-42145736D01*
X248469029Y-42119444D01*
X248461562Y-42118060D01*
X248459007Y-42117259D01*
X248442754Y-42112630D01*
X248440174Y-42111967D01*
X248433093Y-42109207D01*
X248425562Y-42108216D01*
X248425560Y-42108215D01*
X248395941Y-42104316D01*
X248369741Y-42100867D01*
X248363243Y-42099837D01*
X248300416Y-42088193D01*
X248292836Y-42088630D01*
X248292835Y-42088630D01*
X248238210Y-42091780D01*
X248230956Y-42091989D01*
X247146149Y-42091989D01*
X247078028Y-42071987D01*
X247057054Y-42055084D01*
X245345565Y-40343595D01*
X245311539Y-40281283D01*
X245316604Y-40210468D01*
X245359151Y-40153632D01*
X245425671Y-40128821D01*
X245434660Y-40128500D01*
X245657127Y-40128500D01*
X245659844Y-40128262D01*
X245659851Y-40128262D01*
X245729880Y-40122135D01*
X245828087Y-40113543D01*
X245833400Y-40112119D01*
X245833402Y-40112119D01*
X246043933Y-40055707D01*
X246043935Y-40055706D01*
X246049243Y-40054284D01*
X246125022Y-40018948D01*
X246251762Y-39959849D01*
X246251767Y-39959846D01*
X246256749Y-39957523D01*
X246361611Y-39884098D01*
X246439789Y-39829357D01*
X246439792Y-39829355D01*
X246444300Y-39826198D01*
X246606198Y-39664300D01*
X246609582Y-39659467D01*
X246663665Y-39582229D01*
X246719122Y-39537901D01*
X246766878Y-39528500D01*
X246897822Y-39528500D01*
X246970093Y-39551287D01*
X247048169Y-39605956D01*
X247093251Y-39637523D01*
X247098233Y-39639846D01*
X247098238Y-39639849D01*
X247188255Y-39681824D01*
X247300757Y-39734284D01*
X247306065Y-39735706D01*
X247306067Y-39735707D01*
X247516598Y-39792119D01*
X247516600Y-39792119D01*
X247521913Y-39793543D01*
X247750000Y-39813498D01*
X247977936Y-39793556D01*
X248047540Y-39807545D01*
X248078012Y-39829982D01*
X250134975Y-41886946D01*
X252174595Y-43926566D01*
X252208621Y-43988878D01*
X252211500Y-44015661D01*
X252211500Y-45765500D01*
X252191498Y-45833621D01*
X252137842Y-45880114D01*
X252085500Y-45891500D01*
X251771866Y-45891500D01*
X251709684Y-45898255D01*
X251573295Y-45949385D01*
X251456739Y-46036739D01*
X251369385Y-46153295D01*
X251318255Y-46289684D01*
X251311500Y-46351866D01*
X251311500Y-48648134D01*
X251318255Y-48710316D01*
X251369385Y-48846705D01*
X251456739Y-48963261D01*
X251573295Y-49050615D01*
X251709684Y-49101745D01*
X251771866Y-49108500D01*
X254068134Y-49108500D01*
X254130316Y-49101745D01*
X254266705Y-49050615D01*
X254383261Y-48963261D01*
X254470615Y-48846705D01*
X254521745Y-48710316D01*
X254528500Y-48648134D01*
X254528500Y-46351866D01*
X254521745Y-46289684D01*
X254470615Y-46153295D01*
X254383261Y-46036739D01*
X254266705Y-45949385D01*
X254130316Y-45898255D01*
X254068134Y-45891500D01*
X253754500Y-45891500D01*
X253686379Y-45871498D01*
X253639886Y-45817842D01*
X253628500Y-45765500D01*
X253628500Y-43698912D01*
X253628792Y-43690342D01*
X253632209Y-43640224D01*
X253632209Y-43640220D01*
X253632725Y-43632648D01*
X253621738Y-43569697D01*
X253620776Y-43563175D01*
X253614014Y-43507298D01*
X253613102Y-43499758D01*
X253610419Y-43492657D01*
X253609778Y-43490048D01*
X253605315Y-43473738D01*
X253604550Y-43471202D01*
X253603243Y-43463716D01*
X253577556Y-43405200D01*
X253575065Y-43399096D01*
X253555173Y-43346452D01*
X253555172Y-43346451D01*
X253552487Y-43339344D01*
X253548183Y-43333081D01*
X253546946Y-43330715D01*
X253538701Y-43315903D01*
X253537368Y-43313649D01*
X253534315Y-43306695D01*
X253495413Y-43255998D01*
X253491541Y-43250668D01*
X253459661Y-43204280D01*
X253459656Y-43204275D01*
X253455357Y-43198019D01*
X253442969Y-43186981D01*
X253408830Y-43156565D01*
X253403554Y-43151584D01*
X250270918Y-40018948D01*
X250236892Y-39956636D01*
X250241957Y-39885821D01*
X250284504Y-39828985D01*
X250349032Y-39804332D01*
X250472519Y-39793528D01*
X250483312Y-39791625D01*
X250693761Y-39735236D01*
X250704053Y-39731490D01*
X250901511Y-39639414D01*
X250911006Y-39633931D01*
X250963048Y-39597491D01*
X250971424Y-39587012D01*
X250964356Y-39573566D01*
X249175713Y-37784923D01*
X249163938Y-37778493D01*
X249151923Y-37787789D01*
X249116066Y-37838998D01*
X249109409Y-37850528D01*
X249058027Y-37899521D01*
X248988313Y-37912958D01*
X248922402Y-37886571D01*
X248891171Y-37850528D01*
X248889847Y-37848235D01*
X248887523Y-37843251D01*
X248816925Y-37742427D01*
X248759357Y-37660211D01*
X248759355Y-37660208D01*
X248756198Y-37655700D01*
X248594300Y-37493802D01*
X248589792Y-37490645D01*
X248589789Y-37490643D01*
X248488684Y-37419849D01*
X248478886Y-37412988D01*
X249528576Y-37412988D01*
X249535644Y-37426434D01*
X250237188Y-38127978D01*
X250251132Y-38135592D01*
X250252965Y-38135461D01*
X250259580Y-38131210D01*
X250965077Y-37425713D01*
X250971507Y-37413938D01*
X250962211Y-37401923D01*
X250911006Y-37366069D01*
X250901511Y-37360586D01*
X250704053Y-37268510D01*
X250693761Y-37264764D01*
X250483312Y-37208375D01*
X250472519Y-37206472D01*
X250255475Y-37187483D01*
X250244525Y-37187483D01*
X250027481Y-37206472D01*
X250016688Y-37208375D01*
X249806239Y-37264764D01*
X249795947Y-37268510D01*
X249598489Y-37360586D01*
X249588994Y-37366069D01*
X249536952Y-37402509D01*
X249528576Y-37412988D01*
X248478886Y-37412988D01*
X248406749Y-37362477D01*
X248401767Y-37360154D01*
X248401762Y-37360151D01*
X248204225Y-37268039D01*
X248204224Y-37268039D01*
X248199243Y-37265716D01*
X248193935Y-37264294D01*
X248193933Y-37264293D01*
X247983402Y-37207881D01*
X247983400Y-37207881D01*
X247978087Y-37206457D01*
X247750000Y-37186502D01*
X247521913Y-37206457D01*
X247516600Y-37207881D01*
X247516598Y-37207881D01*
X247306067Y-37264293D01*
X247306065Y-37264294D01*
X247300757Y-37265716D01*
X247295776Y-37268039D01*
X247295775Y-37268039D01*
X247098238Y-37360151D01*
X247098233Y-37360154D01*
X247093251Y-37362477D01*
X247011316Y-37419849D01*
X246910211Y-37490643D01*
X246910208Y-37490645D01*
X246905700Y-37493802D01*
X246743802Y-37655700D01*
X246740645Y-37660208D01*
X246740643Y-37660211D01*
X246641472Y-37801842D01*
X246586015Y-37846170D01*
X246515395Y-37853479D01*
X246452900Y-37820630D01*
X246452400Y-37821226D01*
X246449660Y-37818927D01*
X246449164Y-37818666D01*
X246444300Y-37813802D01*
X246439792Y-37810645D01*
X246439789Y-37810643D01*
X246299947Y-37712725D01*
X246256749Y-37682477D01*
X246251767Y-37680154D01*
X246251762Y-37680151D01*
X246217543Y-37664195D01*
X246164258Y-37617278D01*
X246144797Y-37549001D01*
X246165339Y-37481041D01*
X246217543Y-37435805D01*
X246251762Y-37419849D01*
X246251767Y-37419846D01*
X246256749Y-37417523D01*
X246361611Y-37344098D01*
X246439789Y-37289357D01*
X246439792Y-37289355D01*
X246444300Y-37286198D01*
X246606198Y-37124300D01*
X246638591Y-37078039D01*
X246680368Y-37018375D01*
X246737523Y-36936749D01*
X246739846Y-36931767D01*
X246739849Y-36931762D01*
X246831961Y-36734225D01*
X246831961Y-36734224D01*
X246834284Y-36729243D01*
X246847978Y-36678139D01*
X246892119Y-36513402D01*
X246892119Y-36513400D01*
X246893543Y-36508087D01*
X246913498Y-36280000D01*
X246893543Y-36051913D01*
X246834284Y-35830757D01*
X246823881Y-35808448D01*
X246739849Y-35628238D01*
X246739846Y-35628233D01*
X246737523Y-35623251D01*
X246606198Y-35435700D01*
X246444300Y-35273802D01*
X246439792Y-35270645D01*
X246439789Y-35270643D01*
X246332866Y-35195775D01*
X246256749Y-35142477D01*
X246251767Y-35140154D01*
X246251762Y-35140151D01*
X246217543Y-35124195D01*
X246164258Y-35077278D01*
X246144797Y-35009001D01*
X246165339Y-34941041D01*
X246217543Y-34895805D01*
X246251762Y-34879849D01*
X246251767Y-34879846D01*
X246256749Y-34877523D01*
X246364888Y-34801803D01*
X246439789Y-34749357D01*
X246439792Y-34749355D01*
X246444300Y-34746198D01*
X246606198Y-34584300D01*
X246737523Y-34396749D01*
X246739846Y-34391767D01*
X246739849Y-34391762D01*
X246831961Y-34194225D01*
X246831961Y-34194224D01*
X246834284Y-34189243D01*
X246842919Y-34157019D01*
X246892119Y-33973402D01*
X246892119Y-33973400D01*
X246893543Y-33968087D01*
X246913498Y-33740000D01*
X246893543Y-33511913D01*
X246891215Y-33503226D01*
X246835707Y-33296067D01*
X246835706Y-33296065D01*
X246834284Y-33290757D01*
X246830620Y-33282900D01*
X246739849Y-33088238D01*
X246739846Y-33088233D01*
X246737523Y-33083251D01*
X246606198Y-32895700D01*
X246444300Y-32733802D01*
X246439789Y-32730643D01*
X246435576Y-32727108D01*
X246436527Y-32725974D01*
X246396529Y-32675929D01*
X246389224Y-32605310D01*
X246421258Y-32541951D01*
X246482462Y-32505970D01*
X246499517Y-32502918D01*
X246510316Y-32501745D01*
X246646705Y-32450615D01*
X246763261Y-32363261D01*
X246850615Y-32246705D01*
X246864616Y-32209357D01*
X246876594Y-32177407D01*
X246919236Y-32120643D01*
X246985798Y-32095943D01*
X247055146Y-32111151D01*
X247066847Y-32118424D01*
X247088993Y-32133931D01*
X247098489Y-32139414D01*
X247295947Y-32231490D01*
X247306239Y-32235236D01*
X247516688Y-32291625D01*
X247527481Y-32293528D01*
X247744525Y-32312517D01*
X247755475Y-32312517D01*
X247972519Y-32293528D01*
X247983312Y-32291625D01*
X248193761Y-32235236D01*
X248204053Y-32231490D01*
X248401511Y-32139414D01*
X248411006Y-32133931D01*
X248463048Y-32097491D01*
X248471424Y-32087012D01*
X248464356Y-32073566D01*
X247479885Y-31089095D01*
X247445859Y-31026783D01*
X247450924Y-30955968D01*
X247479885Y-30910905D01*
X248465077Y-29925713D01*
X248471507Y-29913938D01*
X248462211Y-29901923D01*
X248411006Y-29866069D01*
X248401511Y-29860586D01*
X248204053Y-29768510D01*
X248193761Y-29764764D01*
X247983316Y-29708376D01*
X247975393Y-29706979D01*
X247911780Y-29675454D01*
X247875308Y-29614542D01*
X247877557Y-29543581D01*
X247908173Y-29493797D01*
X250290520Y-27111450D01*
X250296785Y-27105596D01*
X250334660Y-27072555D01*
X250340385Y-27067561D01*
X250377114Y-27015300D01*
X250381046Y-27010005D01*
X250397966Y-26988427D01*
X250420477Y-26959718D01*
X250423602Y-26952796D01*
X250424964Y-26950548D01*
X250433368Y-26935815D01*
X250434622Y-26933476D01*
X250438990Y-26927261D01*
X250441749Y-26920185D01*
X250441751Y-26920181D01*
X250462202Y-26867726D01*
X250464758Y-26861646D01*
X250480274Y-26827281D01*
X250491045Y-26803426D01*
X250492429Y-26795955D01*
X250493230Y-26793401D01*
X250497867Y-26777122D01*
X250498523Y-26774567D01*
X250501282Y-26767491D01*
X250509621Y-26704149D01*
X250510653Y-26697633D01*
X250520912Y-26642280D01*
X250522296Y-26634813D01*
X250518709Y-26572602D01*
X250518500Y-26565349D01*
X250518500Y-23166878D01*
X250538502Y-23098757D01*
X250572229Y-23063665D01*
X250649789Y-23009357D01*
X250649792Y-23009355D01*
X250654300Y-23006198D01*
X250816198Y-22844300D01*
X250824595Y-22832309D01*
X250911588Y-22708069D01*
X250947523Y-22656749D01*
X250949846Y-22651767D01*
X250949849Y-22651762D01*
X251041961Y-22454225D01*
X251041961Y-22454224D01*
X251044284Y-22449243D01*
X251089594Y-22280146D01*
X251126545Y-22219524D01*
X251190405Y-22188503D01*
X251260900Y-22196931D01*
X251315647Y-22242134D01*
X251333819Y-22283344D01*
X251385495Y-22498591D01*
X251387388Y-22503162D01*
X251387389Y-22503164D01*
X251472264Y-22708069D01*
X251482384Y-22732502D01*
X251614672Y-22948376D01*
X251779102Y-23140898D01*
X251971624Y-23305328D01*
X252151335Y-23415455D01*
X252198966Y-23468103D01*
X252211500Y-23522888D01*
X252211500Y-29804525D01*
X252191498Y-29872646D01*
X252137842Y-29919139D01*
X252118112Y-29926232D01*
X252006393Y-29956167D01*
X251970757Y-29965716D01*
X251965776Y-29968039D01*
X251965775Y-29968039D01*
X251768238Y-30060151D01*
X251768233Y-30060154D01*
X251763251Y-30062477D01*
X251711438Y-30098757D01*
X251580211Y-30190643D01*
X251580208Y-30190645D01*
X251575700Y-30193802D01*
X251514907Y-30254595D01*
X251452595Y-30288621D01*
X251425812Y-30291500D01*
X251416878Y-30291500D01*
X251348757Y-30271498D01*
X251313665Y-30237771D01*
X251259357Y-30160211D01*
X251259355Y-30160208D01*
X251256198Y-30155700D01*
X251094300Y-29993802D01*
X251089792Y-29990645D01*
X251089789Y-29990643D01*
X250980243Y-29913938D01*
X250906749Y-29862477D01*
X250901767Y-29860154D01*
X250901762Y-29860151D01*
X250704225Y-29768039D01*
X250704224Y-29768039D01*
X250699243Y-29765716D01*
X250693935Y-29764294D01*
X250693933Y-29764293D01*
X250483402Y-29707881D01*
X250483400Y-29707881D01*
X250478087Y-29706457D01*
X250250000Y-29686502D01*
X250021913Y-29706457D01*
X250016600Y-29707881D01*
X250016598Y-29707881D01*
X249806067Y-29764293D01*
X249806065Y-29764294D01*
X249800757Y-29765716D01*
X249795776Y-29768039D01*
X249795775Y-29768039D01*
X249598238Y-29860151D01*
X249598233Y-29860154D01*
X249593251Y-29862477D01*
X249519757Y-29913938D01*
X249410211Y-29990643D01*
X249410208Y-29990645D01*
X249405700Y-29993802D01*
X249243802Y-30155700D01*
X249240645Y-30160208D01*
X249240643Y-30160211D01*
X249214394Y-30197699D01*
X249112477Y-30343251D01*
X249110153Y-30348235D01*
X249108829Y-30350528D01*
X249057447Y-30399521D01*
X248987733Y-30412957D01*
X248921822Y-30386571D01*
X248890591Y-30350528D01*
X248883934Y-30338998D01*
X248847491Y-30286952D01*
X248837012Y-30278576D01*
X248823566Y-30285644D01*
X248122022Y-30987188D01*
X248114408Y-31001132D01*
X248114539Y-31002965D01*
X248118790Y-31009580D01*
X248824287Y-31715077D01*
X248836062Y-31721507D01*
X248848077Y-31712211D01*
X248883934Y-31661002D01*
X248890591Y-31649472D01*
X248941973Y-31600479D01*
X249011687Y-31587042D01*
X249077598Y-31613429D01*
X249108829Y-31649472D01*
X249110153Y-31651765D01*
X249112477Y-31656749D01*
X249119679Y-31667034D01*
X249232055Y-31827523D01*
X249243802Y-31844300D01*
X249405700Y-32006198D01*
X249410208Y-32009355D01*
X249410211Y-32009357D01*
X249469337Y-32050757D01*
X249593251Y-32137523D01*
X249598233Y-32139846D01*
X249598238Y-32139849D01*
X249774077Y-32221843D01*
X249800757Y-32234284D01*
X249806065Y-32235706D01*
X249806067Y-32235707D01*
X250016598Y-32292119D01*
X250016600Y-32292119D01*
X250021913Y-32293543D01*
X250250000Y-32313498D01*
X250478087Y-32293543D01*
X250483400Y-32292119D01*
X250483402Y-32292119D01*
X250693933Y-32235707D01*
X250693935Y-32235706D01*
X250699243Y-32234284D01*
X250725923Y-32221843D01*
X250901762Y-32139849D01*
X250901767Y-32139846D01*
X250906749Y-32137523D01*
X251030663Y-32050757D01*
X251089789Y-32009357D01*
X251089792Y-32009355D01*
X251094300Y-32006198D01*
X251160348Y-31940150D01*
X251222660Y-31906124D01*
X251293475Y-31911189D01*
X251352656Y-31956975D01*
X251410639Y-32039784D01*
X251410643Y-32039789D01*
X251413802Y-32044300D01*
X251575700Y-32206198D01*
X251580208Y-32209355D01*
X251580211Y-32209357D01*
X251617170Y-32235236D01*
X251763251Y-32337523D01*
X251768233Y-32339846D01*
X251768238Y-32339849D01*
X251802457Y-32355805D01*
X251855742Y-32402722D01*
X251875203Y-32470999D01*
X251854661Y-32538959D01*
X251802457Y-32584195D01*
X251768238Y-32600151D01*
X251768233Y-32600154D01*
X251763251Y-32602477D01*
X251658389Y-32675902D01*
X251580211Y-32730643D01*
X251580208Y-32730645D01*
X251575700Y-32733802D01*
X251413802Y-32895700D01*
X251282477Y-33083251D01*
X251280154Y-33088233D01*
X251280151Y-33088238D01*
X251189380Y-33282900D01*
X251185716Y-33290757D01*
X251184294Y-33296065D01*
X251184293Y-33296067D01*
X251128785Y-33503226D01*
X251126457Y-33511913D01*
X251106502Y-33740000D01*
X251126457Y-33968087D01*
X251127881Y-33973400D01*
X251127881Y-33973402D01*
X251177082Y-34157019D01*
X251185716Y-34189243D01*
X251188039Y-34194224D01*
X251188039Y-34194225D01*
X251280151Y-34391762D01*
X251280154Y-34391767D01*
X251282477Y-34396749D01*
X251413802Y-34584300D01*
X251575700Y-34746198D01*
X251580208Y-34749355D01*
X251580211Y-34749357D01*
X251655112Y-34801803D01*
X251763251Y-34877523D01*
X251768233Y-34879846D01*
X251768238Y-34879849D01*
X251802457Y-34895805D01*
X251855742Y-34942722D01*
X251875203Y-35010999D01*
X251854661Y-35078959D01*
X251802457Y-35124195D01*
X251768238Y-35140151D01*
X251768233Y-35140154D01*
X251763251Y-35142477D01*
X251687134Y-35195775D01*
X251580211Y-35270643D01*
X251580208Y-35270645D01*
X251575700Y-35273802D01*
X251413802Y-35435700D01*
X251282477Y-35623251D01*
X251280154Y-35628233D01*
X251280151Y-35628238D01*
X251196119Y-35808448D01*
X251185716Y-35830757D01*
X251126457Y-36051913D01*
X251106502Y-36280000D01*
X251126457Y-36508087D01*
X251127881Y-36513400D01*
X251127881Y-36513402D01*
X251172023Y-36678139D01*
X251185716Y-36729243D01*
X251188039Y-36734224D01*
X251188039Y-36734225D01*
X251280151Y-36931762D01*
X251280154Y-36931767D01*
X251282477Y-36936749D01*
X251339632Y-37018375D01*
X251381410Y-37078039D01*
X251413802Y-37124300D01*
X251575700Y-37286198D01*
X251580208Y-37289355D01*
X251580211Y-37289357D01*
X251658389Y-37344098D01*
X251763251Y-37417523D01*
X251768233Y-37419846D01*
X251768238Y-37419849D01*
X251803049Y-37436081D01*
X251856334Y-37482998D01*
X251875795Y-37551275D01*
X251855253Y-37619235D01*
X251803049Y-37664471D01*
X251768489Y-37680586D01*
X251758993Y-37686069D01*
X251580533Y-37811028D01*
X251572125Y-37818084D01*
X251559005Y-37831204D01*
X251496693Y-37865230D01*
X251425878Y-37860165D01*
X251366698Y-37814381D01*
X251347492Y-37786953D01*
X251337012Y-37778576D01*
X251323566Y-37785644D01*
X250622022Y-38487188D01*
X250614408Y-38501132D01*
X250614539Y-38502965D01*
X250618790Y-38509580D01*
X251293690Y-39184480D01*
X251327716Y-39246792D01*
X251322651Y-39317607D01*
X251293690Y-39362670D01*
X251262953Y-39393407D01*
X251255339Y-39407351D01*
X251256185Y-39419180D01*
X251280588Y-39471514D01*
X251286066Y-39481002D01*
X251411028Y-39659467D01*
X251418084Y-39667875D01*
X251572125Y-39821916D01*
X251580533Y-39828972D01*
X251758993Y-39953931D01*
X251768489Y-39959414D01*
X251965947Y-40051490D01*
X251976239Y-40055236D01*
X252186688Y-40111625D01*
X252197481Y-40113528D01*
X252360170Y-40127762D01*
X252365635Y-40128000D01*
X252547885Y-40128000D01*
X252563124Y-40123525D01*
X252564329Y-40122135D01*
X252566000Y-40114452D01*
X252566000Y-40109885D01*
X253074000Y-40109885D01*
X253078475Y-40125124D01*
X253079865Y-40126329D01*
X253087548Y-40128000D01*
X253274365Y-40128000D01*
X253279830Y-40127762D01*
X253442519Y-40113528D01*
X253453312Y-40111625D01*
X253663761Y-40055236D01*
X253674053Y-40051490D01*
X253871511Y-39959414D01*
X253881007Y-39953931D01*
X254059467Y-39828972D01*
X254067875Y-39821916D01*
X254221916Y-39667875D01*
X254228972Y-39659467D01*
X254353931Y-39481007D01*
X254359414Y-39471511D01*
X254451490Y-39274053D01*
X254455236Y-39263761D01*
X254501394Y-39091497D01*
X254501058Y-39077401D01*
X254493116Y-39074000D01*
X253092115Y-39074000D01*
X253076876Y-39078475D01*
X253075671Y-39079865D01*
X253074000Y-39087548D01*
X253074000Y-40109885D01*
X252566000Y-40109885D01*
X252566000Y-38692000D01*
X252586002Y-38623879D01*
X252639658Y-38577386D01*
X252692000Y-38566000D01*
X254487967Y-38566000D01*
X254501498Y-38562027D01*
X254502727Y-38553478D01*
X254455236Y-38376239D01*
X254451490Y-38365947D01*
X254359414Y-38168489D01*
X254353931Y-38158993D01*
X254228972Y-37980533D01*
X254221916Y-37972125D01*
X254067875Y-37818084D01*
X254059467Y-37811028D01*
X253881007Y-37686069D01*
X253871511Y-37680586D01*
X253836951Y-37664471D01*
X253783666Y-37617554D01*
X253764205Y-37549277D01*
X253784747Y-37481317D01*
X253836951Y-37436081D01*
X253871762Y-37419849D01*
X253871767Y-37419846D01*
X253876749Y-37417523D01*
X253981611Y-37344098D01*
X254059789Y-37289357D01*
X254059792Y-37289355D01*
X254064300Y-37286198D01*
X254077259Y-37273239D01*
X256880536Y-37273239D01*
X256882233Y-37282609D01*
X256894610Y-37286000D01*
X257957885Y-37286000D01*
X257973124Y-37281525D01*
X257974329Y-37280135D01*
X257976000Y-37272452D01*
X257976000Y-37267885D01*
X258484000Y-37267885D01*
X258488475Y-37283124D01*
X258489865Y-37284329D01*
X258497548Y-37286000D01*
X260497885Y-37286000D01*
X260513124Y-37281525D01*
X260514329Y-37280135D01*
X260516000Y-37272452D01*
X260516000Y-37267885D01*
X261024000Y-37267885D01*
X261028475Y-37283124D01*
X261029865Y-37284329D01*
X261037548Y-37286000D01*
X262102367Y-37286000D01*
X262115898Y-37282027D01*
X262117203Y-37272947D01*
X262074133Y-37101477D01*
X262070813Y-37091726D01*
X261984999Y-36894365D01*
X261980133Y-36885290D01*
X261863239Y-36704601D01*
X261856947Y-36696430D01*
X261712113Y-36537260D01*
X261704580Y-36530234D01*
X261535691Y-36396855D01*
X261527108Y-36391153D01*
X261507599Y-36380383D01*
X261457628Y-36329950D01*
X261442856Y-36260507D01*
X261467972Y-36194102D01*
X261495323Y-36167496D01*
X261654133Y-36054217D01*
X261662003Y-36047567D01*
X261814445Y-35895656D01*
X261821122Y-35887811D01*
X261946702Y-35713047D01*
X261952013Y-35704208D01*
X262047358Y-35511292D01*
X262051156Y-35501699D01*
X262113716Y-35295791D01*
X262115893Y-35285721D01*
X262117705Y-35271960D01*
X262115493Y-35257778D01*
X262102336Y-35254000D01*
X261042115Y-35254000D01*
X261026876Y-35258475D01*
X261025671Y-35259865D01*
X261024000Y-35267548D01*
X261024000Y-37267885D01*
X260516000Y-37267885D01*
X260516000Y-35272115D01*
X260511525Y-35256876D01*
X260510135Y-35255671D01*
X260502452Y-35254000D01*
X258502115Y-35254000D01*
X258486876Y-35258475D01*
X258485671Y-35259865D01*
X258484000Y-35267548D01*
X258484000Y-37267885D01*
X257976000Y-37267885D01*
X257976000Y-35272115D01*
X257971525Y-35256876D01*
X257970135Y-35255671D01*
X257962452Y-35254000D01*
X256899283Y-35254000D01*
X256885752Y-35257973D01*
X256884315Y-35267966D01*
X256915542Y-35406528D01*
X256918621Y-35416356D01*
X256999589Y-35615756D01*
X257004232Y-35624947D01*
X257116682Y-35808448D01*
X257122765Y-35816759D01*
X257263665Y-35979417D01*
X257271032Y-35986633D01*
X257436606Y-36124095D01*
X257445053Y-36130010D01*
X257495031Y-36159215D01*
X257543755Y-36210854D01*
X257556826Y-36280636D01*
X257530095Y-36346408D01*
X257498605Y-36374622D01*
X257492469Y-36378486D01*
X257320373Y-36507700D01*
X257312666Y-36514543D01*
X257163984Y-36670129D01*
X257157498Y-36678139D01*
X257036232Y-36855908D01*
X257031134Y-36864882D01*
X256940530Y-37060071D01*
X256936967Y-37069758D01*
X256880536Y-37273239D01*
X254077259Y-37273239D01*
X254226198Y-37124300D01*
X254258591Y-37078039D01*
X254300368Y-37018375D01*
X254357523Y-36936749D01*
X254359846Y-36931767D01*
X254359849Y-36931762D01*
X254451961Y-36734225D01*
X254451961Y-36734224D01*
X254454284Y-36729243D01*
X254467978Y-36678139D01*
X254512119Y-36513402D01*
X254512119Y-36513400D01*
X254513543Y-36508087D01*
X254533498Y-36280000D01*
X254513543Y-36051913D01*
X254454284Y-35830757D01*
X254443881Y-35808448D01*
X254359849Y-35628238D01*
X254359846Y-35628233D01*
X254357523Y-35623251D01*
X254226198Y-35435700D01*
X254064300Y-35273802D01*
X254059792Y-35270645D01*
X254059789Y-35270643D01*
X253952866Y-35195775D01*
X253876749Y-35142477D01*
X253871767Y-35140154D01*
X253871762Y-35140151D01*
X253837543Y-35124195D01*
X253784258Y-35077278D01*
X253764797Y-35009001D01*
X253785339Y-34941041D01*
X253837543Y-34895805D01*
X253871762Y-34879849D01*
X253871767Y-34879846D01*
X253876749Y-34877523D01*
X253984888Y-34801803D01*
X254059789Y-34749357D01*
X254059792Y-34749355D01*
X254064300Y-34746198D01*
X254077259Y-34733239D01*
X256880536Y-34733239D01*
X256882233Y-34742609D01*
X256894610Y-34746000D01*
X257957885Y-34746000D01*
X257973124Y-34741525D01*
X257974329Y-34740135D01*
X257976000Y-34732452D01*
X257976000Y-34727885D01*
X258484000Y-34727885D01*
X258488475Y-34743124D01*
X258489865Y-34744329D01*
X258497548Y-34746000D01*
X260497885Y-34746000D01*
X260513124Y-34741525D01*
X260514329Y-34740135D01*
X260516000Y-34732452D01*
X260516000Y-34727885D01*
X261024000Y-34727885D01*
X261028475Y-34743124D01*
X261029865Y-34744329D01*
X261037548Y-34746000D01*
X262102367Y-34746000D01*
X262115898Y-34742027D01*
X262117203Y-34732947D01*
X262074133Y-34561477D01*
X262070813Y-34551726D01*
X261984999Y-34354365D01*
X261980133Y-34345290D01*
X261863239Y-34164601D01*
X261856947Y-34156430D01*
X261712113Y-33997260D01*
X261704580Y-33990234D01*
X261535691Y-33856855D01*
X261527108Y-33851153D01*
X261507599Y-33840383D01*
X261457628Y-33789950D01*
X261442856Y-33720507D01*
X261467972Y-33654102D01*
X261495323Y-33627496D01*
X261654133Y-33514217D01*
X261662003Y-33507567D01*
X261814445Y-33355656D01*
X261821122Y-33347811D01*
X261946702Y-33173047D01*
X261952013Y-33164208D01*
X262047358Y-32971292D01*
X262051156Y-32961699D01*
X262113716Y-32755791D01*
X262115893Y-32745721D01*
X262117705Y-32731960D01*
X262115493Y-32717778D01*
X262102336Y-32714000D01*
X261042115Y-32714000D01*
X261026876Y-32718475D01*
X261025671Y-32719865D01*
X261024000Y-32727548D01*
X261024000Y-34727885D01*
X260516000Y-34727885D01*
X260516000Y-32732115D01*
X260511525Y-32716876D01*
X260510135Y-32715671D01*
X260502452Y-32714000D01*
X258502115Y-32714000D01*
X258486876Y-32718475D01*
X258485671Y-32719865D01*
X258484000Y-32727548D01*
X258484000Y-34727885D01*
X257976000Y-34727885D01*
X257976000Y-32732115D01*
X257971525Y-32716876D01*
X257970135Y-32715671D01*
X257962452Y-32714000D01*
X256899283Y-32714000D01*
X256885752Y-32717973D01*
X256884315Y-32727966D01*
X256915542Y-32866528D01*
X256918621Y-32876356D01*
X256999589Y-33075756D01*
X257004232Y-33084947D01*
X257116682Y-33268448D01*
X257122765Y-33276759D01*
X257263665Y-33439417D01*
X257271032Y-33446633D01*
X257436606Y-33584095D01*
X257445053Y-33590010D01*
X257495031Y-33619215D01*
X257543755Y-33670854D01*
X257556826Y-33740636D01*
X257530095Y-33806408D01*
X257498605Y-33834622D01*
X257492469Y-33838486D01*
X257320373Y-33967700D01*
X257312666Y-33974543D01*
X257163984Y-34130129D01*
X257157498Y-34138139D01*
X257036232Y-34315908D01*
X257031134Y-34324882D01*
X256940530Y-34520071D01*
X256936967Y-34529758D01*
X256880536Y-34733239D01*
X254077259Y-34733239D01*
X254226198Y-34584300D01*
X254357523Y-34396749D01*
X254359846Y-34391767D01*
X254359849Y-34391762D01*
X254451961Y-34194225D01*
X254451961Y-34194224D01*
X254454284Y-34189243D01*
X254462919Y-34157019D01*
X254512119Y-33973402D01*
X254512119Y-33973400D01*
X254513543Y-33968087D01*
X254533498Y-33740000D01*
X254513543Y-33511913D01*
X254511215Y-33503226D01*
X254455707Y-33296067D01*
X254455706Y-33296065D01*
X254454284Y-33290757D01*
X254450620Y-33282900D01*
X254359849Y-33088238D01*
X254359846Y-33088233D01*
X254357523Y-33083251D01*
X254226198Y-32895700D01*
X254064300Y-32733802D01*
X254059792Y-32730645D01*
X254059789Y-32730643D01*
X253981611Y-32675902D01*
X253876749Y-32602477D01*
X253871767Y-32600154D01*
X253871762Y-32600151D01*
X253837543Y-32584195D01*
X253784258Y-32537278D01*
X253764797Y-32469001D01*
X253785339Y-32401041D01*
X253837543Y-32355805D01*
X253871762Y-32339849D01*
X253871767Y-32339846D01*
X253876749Y-32337523D01*
X254022830Y-32235236D01*
X254059789Y-32209357D01*
X254059792Y-32209355D01*
X254064300Y-32206198D01*
X254226198Y-32044300D01*
X254229361Y-32039784D01*
X254314328Y-31918438D01*
X254357523Y-31856749D01*
X254359846Y-31851767D01*
X254359849Y-31851762D01*
X254451961Y-31654225D01*
X254451961Y-31654224D01*
X254454284Y-31649243D01*
X254461665Y-31621699D01*
X254512119Y-31433402D01*
X254512119Y-31433400D01*
X254513543Y-31428087D01*
X254533498Y-31200000D01*
X254513543Y-30971913D01*
X254494626Y-30901315D01*
X254455707Y-30756067D01*
X254455706Y-30756065D01*
X254454284Y-30750757D01*
X254451961Y-30745775D01*
X254359849Y-30548238D01*
X254359846Y-30548233D01*
X254357523Y-30543251D01*
X254247814Y-30386571D01*
X254229357Y-30360211D01*
X254229355Y-30360208D01*
X254226198Y-30355700D01*
X254064300Y-30193802D01*
X254059792Y-30190645D01*
X254059789Y-30190643D01*
X253928562Y-30098757D01*
X253876749Y-30062477D01*
X253871767Y-30060154D01*
X253871762Y-30060151D01*
X253701250Y-29980641D01*
X253647965Y-29933724D01*
X253628500Y-29866446D01*
X253628500Y-23522888D01*
X253648502Y-23454767D01*
X253688665Y-23415455D01*
X253868376Y-23305328D01*
X254060898Y-23140898D01*
X254225328Y-22948376D01*
X254357616Y-22732502D01*
X254367737Y-22708069D01*
X254452611Y-22503164D01*
X254452612Y-22503162D01*
X254454505Y-22498591D01*
X254506181Y-22283344D01*
X254512454Y-22257216D01*
X254512455Y-22257210D01*
X254513609Y-22252403D01*
X254533474Y-22000000D01*
X254513609Y-21747597D01*
X254506949Y-21719853D01*
X254465156Y-21545775D01*
X254454505Y-21501409D01*
X254452611Y-21496836D01*
X254359511Y-21272072D01*
X254359509Y-21272068D01*
X254357616Y-21267498D01*
X254225328Y-21051624D01*
X254060898Y-20859102D01*
X253909518Y-20729810D01*
X253870709Y-20670360D01*
X253870203Y-20599366D01*
X253908159Y-20539367D01*
X253972527Y-20509414D01*
X253991349Y-20508000D01*
X261402055Y-20508000D01*
X261470176Y-20528002D01*
G37*
%TD.AperFunction*%
%TA.AperFunction,Conductor*%
G36*
X223716512Y-31039276D02*
G01*
X223755707Y-31101889D01*
X223763549Y-31131154D01*
X223765716Y-31139243D01*
X223768039Y-31144224D01*
X223768039Y-31144225D01*
X223860151Y-31341762D01*
X223860154Y-31341767D01*
X223862477Y-31346749D01*
X223916423Y-31423791D01*
X223988559Y-31526812D01*
X223993802Y-31534300D01*
X224155700Y-31696198D01*
X224160208Y-31699355D01*
X224160211Y-31699357D01*
X224191845Y-31721507D01*
X224343251Y-31827523D01*
X224348233Y-31829846D01*
X224348238Y-31829849D01*
X224538220Y-31918438D01*
X224550757Y-31924284D01*
X224556065Y-31925706D01*
X224556067Y-31925707D01*
X224766598Y-31982119D01*
X224766600Y-31982119D01*
X224771913Y-31983543D01*
X225000000Y-32003498D01*
X225228087Y-31983543D01*
X225233400Y-31982119D01*
X225233402Y-31982119D01*
X225443933Y-31925707D01*
X225443935Y-31925706D01*
X225449243Y-31924284D01*
X225461780Y-31918438D01*
X225651762Y-31829849D01*
X225651767Y-31829846D01*
X225656749Y-31827523D01*
X225808155Y-31721507D01*
X225839789Y-31699357D01*
X225839792Y-31699355D01*
X225844300Y-31696198D01*
X226006198Y-31534300D01*
X226009710Y-31529285D01*
X226063665Y-31452229D01*
X226119122Y-31407901D01*
X226166878Y-31398500D01*
X227333122Y-31398500D01*
X227401243Y-31418502D01*
X227436335Y-31452229D01*
X227490290Y-31529285D01*
X227493802Y-31534300D01*
X227655700Y-31696198D01*
X227660208Y-31699355D01*
X227660211Y-31699357D01*
X227691845Y-31721507D01*
X227843251Y-31827523D01*
X227848233Y-31829846D01*
X227848238Y-31829849D01*
X228038220Y-31918438D01*
X228050757Y-31924284D01*
X228056065Y-31925706D01*
X228056067Y-31925707D01*
X228266598Y-31982119D01*
X228266600Y-31982119D01*
X228271913Y-31983543D01*
X228500000Y-32003498D01*
X228727936Y-31983556D01*
X228797540Y-31997545D01*
X228828012Y-32019982D01*
X228954106Y-32146076D01*
X228988132Y-32208388D01*
X228991011Y-32235171D01*
X228991011Y-36923218D01*
X228971009Y-36991339D01*
X228917353Y-37037832D01*
X228847079Y-37047936D01*
X228832400Y-37044925D01*
X228733312Y-37018375D01*
X228722519Y-37016472D01*
X228505475Y-36997483D01*
X228494525Y-36997483D01*
X228277481Y-37016472D01*
X228266688Y-37018375D01*
X228056239Y-37074764D01*
X228045947Y-37078510D01*
X227848489Y-37170586D01*
X227838994Y-37176069D01*
X227786952Y-37212509D01*
X227778576Y-37222988D01*
X227785644Y-37236434D01*
X228770115Y-38220905D01*
X228804141Y-38283217D01*
X228799076Y-38354032D01*
X228770115Y-38399095D01*
X227784923Y-39384287D01*
X227778493Y-39396062D01*
X227787789Y-39408077D01*
X227838994Y-39443931D01*
X227848489Y-39449414D01*
X228045947Y-39541490D01*
X228056239Y-39545236D01*
X228266688Y-39601625D01*
X228277481Y-39603528D01*
X228494525Y-39622517D01*
X228505475Y-39622517D01*
X228722519Y-39603528D01*
X228733312Y-39601625D01*
X228832400Y-39575075D01*
X228903376Y-39576765D01*
X228962172Y-39616559D01*
X228990120Y-39681824D01*
X228991011Y-39696782D01*
X228991011Y-43740500D01*
X228971009Y-43808621D01*
X228917353Y-43855114D01*
X228865011Y-43866500D01*
X228101866Y-43866500D01*
X228039684Y-43873255D01*
X227903295Y-43924385D01*
X227786739Y-44011739D01*
X227699385Y-44128295D01*
X227648255Y-44264684D01*
X227641500Y-44326866D01*
X227641500Y-45640011D01*
X227621498Y-45708132D01*
X227567842Y-45754625D01*
X227515500Y-45766011D01*
X226609401Y-45766011D01*
X226600831Y-45765719D01*
X226550713Y-45762302D01*
X226550709Y-45762302D01*
X226543137Y-45761786D01*
X226535660Y-45763091D01*
X226535658Y-45763091D01*
X226501951Y-45768974D01*
X226431405Y-45760981D01*
X226376380Y-45716118D01*
X226354345Y-45648628D01*
X226355366Y-45628404D01*
X226361092Y-45584911D01*
X226361092Y-45584907D01*
X226361529Y-45581590D01*
X226361611Y-45578240D01*
X226363074Y-45518365D01*
X226363074Y-45518361D01*
X226363156Y-45515000D01*
X226344852Y-45292361D01*
X226290431Y-45075702D01*
X226201354Y-44870840D01*
X226117529Y-44741266D01*
X226082822Y-44687617D01*
X226082820Y-44687614D01*
X226080014Y-44683277D01*
X226076540Y-44679459D01*
X226076533Y-44679450D01*
X225932435Y-44521088D01*
X225901383Y-44457242D01*
X225909779Y-44386744D01*
X225954956Y-44331976D01*
X225981400Y-44318307D01*
X226088052Y-44278325D01*
X226103649Y-44269786D01*
X226205724Y-44193285D01*
X226218285Y-44180724D01*
X226294786Y-44078649D01*
X226303324Y-44063054D01*
X226348478Y-43942606D01*
X226352105Y-43927351D01*
X226357631Y-43876486D01*
X226358000Y-43869672D01*
X226358000Y-43247115D01*
X226353525Y-43231876D01*
X226352135Y-43230671D01*
X226344452Y-43229000D01*
X224872000Y-43229000D01*
X224803879Y-43208998D01*
X224757386Y-43155342D01*
X224746000Y-43103000D01*
X224746000Y-42702885D01*
X225254000Y-42702885D01*
X225258475Y-42718124D01*
X225259865Y-42719329D01*
X225267548Y-42721000D01*
X226339884Y-42721000D01*
X226355123Y-42716525D01*
X226356328Y-42715135D01*
X226357999Y-42707452D01*
X226357999Y-42080331D01*
X226357629Y-42073510D01*
X226352105Y-42022648D01*
X226348479Y-42007396D01*
X226303324Y-41886946D01*
X226294786Y-41871351D01*
X226218285Y-41769276D01*
X226205724Y-41756715D01*
X226103649Y-41680214D01*
X226088054Y-41671676D01*
X225967606Y-41626522D01*
X225952351Y-41622895D01*
X225901486Y-41617369D01*
X225894672Y-41617000D01*
X225272115Y-41617000D01*
X225256876Y-41621475D01*
X225255671Y-41622865D01*
X225254000Y-41630548D01*
X225254000Y-42702885D01*
X224746000Y-42702885D01*
X224746000Y-41635116D01*
X224741525Y-41619877D01*
X224740135Y-41618672D01*
X224732452Y-41617001D01*
X224584989Y-41617001D01*
X224516868Y-41596999D01*
X224470375Y-41543343D01*
X224458989Y-41491001D01*
X224458989Y-39905172D01*
X224478991Y-39837051D01*
X224495894Y-39816077D01*
X224671989Y-39639982D01*
X224734301Y-39605956D01*
X224772063Y-39603556D01*
X225000000Y-39623498D01*
X225228087Y-39603543D01*
X225233400Y-39602119D01*
X225233402Y-39602119D01*
X225443933Y-39545707D01*
X225443935Y-39545706D01*
X225449243Y-39544284D01*
X225455235Y-39541490D01*
X225651762Y-39449849D01*
X225651767Y-39449846D01*
X225656749Y-39447523D01*
X225793887Y-39351498D01*
X225839789Y-39319357D01*
X225839792Y-39319355D01*
X225844300Y-39316198D01*
X226006198Y-39154300D01*
X226137523Y-38966749D01*
X226139846Y-38961767D01*
X226139849Y-38961762D01*
X226231961Y-38764225D01*
X226231961Y-38764224D01*
X226234284Y-38759243D01*
X226248237Y-38707172D01*
X226292119Y-38543402D01*
X226292119Y-38543400D01*
X226293543Y-38538087D01*
X226313019Y-38315475D01*
X227187483Y-38315475D01*
X227206472Y-38532519D01*
X227208375Y-38543312D01*
X227264764Y-38753761D01*
X227268510Y-38764053D01*
X227360586Y-38961511D01*
X227366069Y-38971006D01*
X227402509Y-39023048D01*
X227412988Y-39031424D01*
X227426434Y-39024356D01*
X228127978Y-38322812D01*
X228135592Y-38308868D01*
X228135461Y-38307035D01*
X228131210Y-38300420D01*
X227425713Y-37594923D01*
X227413938Y-37588493D01*
X227401923Y-37597789D01*
X227366071Y-37648990D01*
X227360586Y-37658489D01*
X227268510Y-37855947D01*
X227264764Y-37866239D01*
X227208375Y-38076688D01*
X227206472Y-38087481D01*
X227187483Y-38304525D01*
X227187483Y-38315475D01*
X226313019Y-38315475D01*
X226313498Y-38310000D01*
X226293543Y-38081913D01*
X226259900Y-37956356D01*
X226235707Y-37866067D01*
X226235706Y-37866065D01*
X226234284Y-37860757D01*
X226226121Y-37843251D01*
X226139849Y-37658238D01*
X226139846Y-37658233D01*
X226137523Y-37653251D01*
X226055496Y-37536104D01*
X226009357Y-37470211D01*
X226009355Y-37470208D01*
X226006198Y-37465700D01*
X225844300Y-37303802D01*
X225839792Y-37300645D01*
X225839789Y-37300643D01*
X225713920Y-37212509D01*
X225656749Y-37172477D01*
X225651767Y-37170154D01*
X225651762Y-37170151D01*
X225454225Y-37078039D01*
X225454224Y-37078039D01*
X225449243Y-37075716D01*
X225443935Y-37074294D01*
X225443933Y-37074293D01*
X225233402Y-37017881D01*
X225233400Y-37017881D01*
X225228087Y-37016457D01*
X225000000Y-36996502D01*
X224771913Y-37016457D01*
X224766600Y-37017881D01*
X224766598Y-37017881D01*
X224556067Y-37074293D01*
X224556065Y-37074294D01*
X224550757Y-37075716D01*
X224545776Y-37078039D01*
X224545775Y-37078039D01*
X224348238Y-37170151D01*
X224348233Y-37170154D01*
X224343251Y-37172477D01*
X224286080Y-37212509D01*
X224160211Y-37300643D01*
X224160208Y-37300645D01*
X224155700Y-37303802D01*
X223993802Y-37465700D01*
X223990645Y-37470208D01*
X223990643Y-37470211D01*
X223944504Y-37536104D01*
X223862477Y-37653251D01*
X223860154Y-37658233D01*
X223860151Y-37658238D01*
X223773879Y-37843251D01*
X223765716Y-37860757D01*
X223764294Y-37866065D01*
X223764293Y-37866067D01*
X223755707Y-37898111D01*
X223718755Y-37958734D01*
X223654895Y-37989755D01*
X223584400Y-37981327D01*
X223529653Y-37936124D01*
X223508000Y-37865500D01*
X223508000Y-31134500D01*
X223528002Y-31066379D01*
X223581658Y-31019886D01*
X223651932Y-31009782D01*
X223716512Y-31039276D01*
G37*
%TD.AperFunction*%
%TA.AperFunction,Conductor*%
G36*
X239680822Y-28528991D02*
G01*
X239727315Y-28582647D01*
X239737419Y-28652921D01*
X239734410Y-28667593D01*
X239706457Y-28771913D01*
X239686502Y-29000000D01*
X239706457Y-29228087D01*
X239707881Y-29233400D01*
X239707881Y-29233402D01*
X239751444Y-29395978D01*
X239765716Y-29449243D01*
X239768039Y-29454224D01*
X239768039Y-29454225D01*
X239860151Y-29651762D01*
X239860154Y-29651767D01*
X239862477Y-29656749D01*
X239993802Y-29844300D01*
X240155700Y-30006198D01*
X240160208Y-30009355D01*
X240160211Y-30009357D01*
X240237771Y-30063665D01*
X240282099Y-30119122D01*
X240291500Y-30166878D01*
X240291500Y-31161088D01*
X240291208Y-31169658D01*
X240289076Y-31200937D01*
X240287275Y-31227352D01*
X240297575Y-31286366D01*
X240298261Y-31290299D01*
X240299223Y-31296821D01*
X240306898Y-31360242D01*
X240309581Y-31367343D01*
X240310222Y-31369952D01*
X240314685Y-31386262D01*
X240315450Y-31388798D01*
X240316757Y-31396284D01*
X240341316Y-31452229D01*
X240342442Y-31454795D01*
X240344933Y-31460899D01*
X240367513Y-31520656D01*
X240371817Y-31526919D01*
X240373054Y-31529285D01*
X240381299Y-31544097D01*
X240382632Y-31546351D01*
X240385685Y-31553305D01*
X240390307Y-31559328D01*
X240424579Y-31603991D01*
X240428459Y-31609332D01*
X240460339Y-31655720D01*
X240460344Y-31655725D01*
X240464643Y-31661981D01*
X240470313Y-31667032D01*
X240470314Y-31667034D01*
X240511170Y-31703435D01*
X240516446Y-31708416D01*
X240980018Y-32171988D01*
X241014044Y-32234300D01*
X241016444Y-32272063D01*
X240996502Y-32500000D01*
X241016457Y-32728087D01*
X241017881Y-32733400D01*
X241017881Y-32733402D01*
X241019033Y-32737699D01*
X241075716Y-32949243D01*
X241078039Y-32954224D01*
X241078039Y-32954225D01*
X241170151Y-33151762D01*
X241170154Y-33151767D01*
X241172477Y-33156749D01*
X241222039Y-33227530D01*
X241298135Y-33336206D01*
X241303802Y-33344300D01*
X241465700Y-33506198D01*
X241470208Y-33509355D01*
X241470211Y-33509357D01*
X241509417Y-33536809D01*
X241653251Y-33637523D01*
X241658233Y-33639846D01*
X241658238Y-33639849D01*
X241848220Y-33728438D01*
X241860757Y-33734284D01*
X241866065Y-33735706D01*
X241866067Y-33735707D01*
X242076598Y-33792119D01*
X242076600Y-33792119D01*
X242081913Y-33793543D01*
X242310000Y-33813498D01*
X242538087Y-33793543D01*
X242543400Y-33792119D01*
X242543402Y-33792119D01*
X242753933Y-33735707D01*
X242753935Y-33735706D01*
X242759243Y-33734284D01*
X242771780Y-33728438D01*
X242961762Y-33639849D01*
X242961767Y-33639846D01*
X242966749Y-33637523D01*
X243110583Y-33536809D01*
X243149789Y-33509357D01*
X243149792Y-33509355D01*
X243154300Y-33506198D01*
X243304939Y-33355559D01*
X243367251Y-33321533D01*
X243438066Y-33326598D01*
X243494902Y-33369145D01*
X243519713Y-33435665D01*
X243515741Y-33477264D01*
X243506457Y-33511913D01*
X243486502Y-33740000D01*
X243506457Y-33968087D01*
X243507881Y-33973400D01*
X243507881Y-33973402D01*
X243557082Y-34157019D01*
X243565716Y-34189243D01*
X243568039Y-34194225D01*
X243568041Y-34194230D01*
X243586649Y-34234134D01*
X243597311Y-34304326D01*
X243568332Y-34369139D01*
X243561550Y-34376480D01*
X243311361Y-34626669D01*
X243249049Y-34660695D01*
X243178234Y-34655630D01*
X243149995Y-34640787D01*
X242971258Y-34515634D01*
X242971256Y-34515633D01*
X242966749Y-34512477D01*
X242961767Y-34510154D01*
X242961762Y-34510151D01*
X242764225Y-34418039D01*
X242764224Y-34418039D01*
X242759243Y-34415716D01*
X242753935Y-34414294D01*
X242753933Y-34414293D01*
X242543402Y-34357881D01*
X242543400Y-34357881D01*
X242538087Y-34356457D01*
X242310000Y-34336502D01*
X242081913Y-34356457D01*
X242076600Y-34357881D01*
X242076598Y-34357881D01*
X241866067Y-34414293D01*
X241866065Y-34414294D01*
X241860757Y-34415716D01*
X241855776Y-34418039D01*
X241855775Y-34418039D01*
X241658238Y-34510151D01*
X241658233Y-34510154D01*
X241653251Y-34512477D01*
X241597198Y-34551726D01*
X241470211Y-34640643D01*
X241470208Y-34640645D01*
X241465700Y-34643802D01*
X241303802Y-34805700D01*
X241172477Y-34993251D01*
X241170154Y-34998233D01*
X241170151Y-34998238D01*
X241132511Y-35078959D01*
X241075716Y-35200757D01*
X241074294Y-35206065D01*
X241074293Y-35206067D01*
X241020579Y-35406528D01*
X241016457Y-35421913D01*
X240996502Y-35650000D01*
X241016457Y-35878087D01*
X241017881Y-35883400D01*
X241017881Y-35883402D01*
X241021165Y-35895656D01*
X241075716Y-36099243D01*
X241078039Y-36104224D01*
X241078039Y-36104225D01*
X241170151Y-36301762D01*
X241170154Y-36301767D01*
X241172477Y-36306749D01*
X241303802Y-36494300D01*
X241465700Y-36656198D01*
X241470208Y-36659355D01*
X241470211Y-36659357D01*
X241482969Y-36668290D01*
X241653251Y-36787523D01*
X241658233Y-36789846D01*
X241658238Y-36789849D01*
X241761210Y-36837865D01*
X241860757Y-36884284D01*
X241866065Y-36885706D01*
X241866067Y-36885707D01*
X242076598Y-36942119D01*
X242076600Y-36942119D01*
X242081913Y-36943543D01*
X242310000Y-36963498D01*
X242538087Y-36943543D01*
X242543400Y-36942119D01*
X242543402Y-36942119D01*
X242753933Y-36885707D01*
X242753935Y-36885706D01*
X242759243Y-36884284D01*
X242858790Y-36837865D01*
X242961762Y-36789849D01*
X242961767Y-36789846D01*
X242966749Y-36787523D01*
X243137031Y-36668290D01*
X243149789Y-36659357D01*
X243149792Y-36659355D01*
X243154300Y-36656198D01*
X243309019Y-36501479D01*
X243371331Y-36467453D01*
X243442146Y-36472518D01*
X243498982Y-36515065D01*
X243519821Y-36557962D01*
X243546990Y-36659357D01*
X243565716Y-36729243D01*
X243568039Y-36734225D01*
X243568041Y-36734230D01*
X243586649Y-36774134D01*
X243597311Y-36844326D01*
X243568332Y-36909139D01*
X243561550Y-36916480D01*
X243119960Y-37358070D01*
X243113695Y-37363924D01*
X243070095Y-37401959D01*
X243052894Y-37426434D01*
X243033352Y-37454239D01*
X243029419Y-37459534D01*
X242990004Y-37509802D01*
X242986881Y-37516718D01*
X242985497Y-37519004D01*
X242977123Y-37533685D01*
X242975858Y-37536045D01*
X242971490Y-37542259D01*
X242968730Y-37549338D01*
X242968729Y-37549340D01*
X242948278Y-37601795D01*
X242945727Y-37607864D01*
X242919435Y-37666093D01*
X242918051Y-37673560D01*
X242917250Y-37676115D01*
X242912621Y-37692368D01*
X242911958Y-37694948D01*
X242909198Y-37702029D01*
X242908207Y-37709560D01*
X242908206Y-37709562D01*
X242900859Y-37765372D01*
X242899828Y-37771879D01*
X242888184Y-37834706D01*
X242888621Y-37842286D01*
X242888621Y-37842287D01*
X242891771Y-37896912D01*
X242891980Y-37904166D01*
X242891980Y-39254820D01*
X242871978Y-39322941D01*
X242855075Y-39343915D01*
X242744884Y-39454106D01*
X242682572Y-39488132D01*
X242655789Y-39491011D01*
X242386782Y-39491011D01*
X242318661Y-39471009D01*
X242272168Y-39417353D01*
X242262064Y-39347079D01*
X242265075Y-39332400D01*
X242291625Y-39233312D01*
X242293528Y-39222519D01*
X242312517Y-39005475D01*
X242312517Y-38994525D01*
X242293528Y-38777481D01*
X242291625Y-38766688D01*
X242235236Y-38556239D01*
X242231490Y-38545947D01*
X242139414Y-38348489D01*
X242133931Y-38338994D01*
X242097491Y-38286952D01*
X242087012Y-38278576D01*
X242073566Y-38285644D01*
X241089095Y-39270115D01*
X241026783Y-39304141D01*
X240955968Y-39299076D01*
X240910905Y-39270115D01*
X239925713Y-38284923D01*
X239913938Y-38278493D01*
X239901923Y-38287789D01*
X239866069Y-38338994D01*
X239860586Y-38348489D01*
X239768510Y-38545947D01*
X239764764Y-38556239D01*
X239708375Y-38766688D01*
X239706472Y-38777481D01*
X239687483Y-38994525D01*
X239687483Y-39005475D01*
X239706472Y-39222519D01*
X239708375Y-39233312D01*
X239734925Y-39332400D01*
X239733235Y-39403376D01*
X239693441Y-39462172D01*
X239628176Y-39490120D01*
X239613218Y-39491011D01*
X237545171Y-39491011D01*
X237477050Y-39471009D01*
X237456076Y-39454106D01*
X237329982Y-39328012D01*
X237295956Y-39265700D01*
X237293556Y-39227935D01*
X237294442Y-39217815D01*
X237313498Y-39000000D01*
X237293543Y-38771913D01*
X237285174Y-38740680D01*
X237235707Y-38556067D01*
X237235706Y-38556065D01*
X237234284Y-38550757D01*
X237215083Y-38509580D01*
X237139849Y-38348238D01*
X237139846Y-38348233D01*
X237137523Y-38343251D01*
X237050912Y-38219558D01*
X237009357Y-38160211D01*
X237009355Y-38160208D01*
X237006198Y-38155700D01*
X236844300Y-37993802D01*
X236839792Y-37990645D01*
X236839789Y-37990643D01*
X236728886Y-37912988D01*
X240278576Y-37912988D01*
X240285644Y-37926434D01*
X240987188Y-38627978D01*
X241001132Y-38635592D01*
X241002965Y-38635461D01*
X241009580Y-38631210D01*
X241715077Y-37925713D01*
X241721507Y-37913938D01*
X241712211Y-37901923D01*
X241661006Y-37866069D01*
X241651511Y-37860586D01*
X241454053Y-37768510D01*
X241443761Y-37764764D01*
X241233312Y-37708375D01*
X241222519Y-37706472D01*
X241005475Y-37687483D01*
X240994525Y-37687483D01*
X240777481Y-37706472D01*
X240766688Y-37708375D01*
X240556239Y-37764764D01*
X240545947Y-37768510D01*
X240348489Y-37860586D01*
X240338994Y-37866069D01*
X240286952Y-37902509D01*
X240278576Y-37912988D01*
X236728886Y-37912988D01*
X236713920Y-37902509D01*
X236656749Y-37862477D01*
X236651767Y-37860154D01*
X236651762Y-37860151D01*
X236454225Y-37768039D01*
X236454224Y-37768039D01*
X236449243Y-37765716D01*
X236443935Y-37764294D01*
X236443933Y-37764293D01*
X236233402Y-37707881D01*
X236233400Y-37707881D01*
X236228087Y-37706457D01*
X236000000Y-37686502D01*
X235771913Y-37706457D01*
X235631365Y-37744117D01*
X235560390Y-37742427D01*
X235501594Y-37702633D01*
X235473646Y-37637369D01*
X235485419Y-37567355D01*
X235509186Y-37536104D01*
X235508347Y-37535357D01*
X235549793Y-37488839D01*
X235554774Y-37483562D01*
X236370047Y-36668290D01*
X236376312Y-36662437D01*
X236414175Y-36629407D01*
X236414176Y-36629406D01*
X236419896Y-36624416D01*
X236456647Y-36572126D01*
X236460539Y-36566884D01*
X236499987Y-36516573D01*
X236503111Y-36509654D01*
X236504499Y-36507362D01*
X236512868Y-36492690D01*
X236514133Y-36490330D01*
X236518501Y-36484116D01*
X236541714Y-36424578D01*
X236544270Y-36418497D01*
X236567429Y-36367207D01*
X236570556Y-36360282D01*
X236571941Y-36352809D01*
X236572745Y-36350243D01*
X236577366Y-36334020D01*
X236578031Y-36331428D01*
X236580793Y-36324346D01*
X236589133Y-36260994D01*
X236590165Y-36254478D01*
X236600422Y-36199136D01*
X236601806Y-36191669D01*
X236598220Y-36129475D01*
X236598011Y-36122222D01*
X236598011Y-33728438D01*
X236598303Y-33719869D01*
X236601721Y-33669736D01*
X236601721Y-33669732D01*
X236602237Y-33662159D01*
X236591247Y-33599192D01*
X236590286Y-33592676D01*
X236583525Y-33536809D01*
X236582613Y-33529269D01*
X236579930Y-33522168D01*
X236579289Y-33519559D01*
X236574820Y-33503226D01*
X236574059Y-33500706D01*
X236572754Y-33493228D01*
X236569702Y-33486275D01*
X236547070Y-33434715D01*
X236544579Y-33428610D01*
X236524686Y-33375967D01*
X236524684Y-33375963D01*
X236521998Y-33368855D01*
X236517695Y-33362594D01*
X236516458Y-33360228D01*
X236508231Y-33345448D01*
X236506880Y-33343163D01*
X236503826Y-33336206D01*
X236499206Y-33330186D01*
X236499203Y-33330180D01*
X236464932Y-33285520D01*
X236461052Y-33280179D01*
X236429172Y-33233791D01*
X236429167Y-33233786D01*
X236424868Y-33227530D01*
X236378340Y-33186075D01*
X236373065Y-33181095D01*
X236019982Y-32828012D01*
X235985956Y-32765700D01*
X235983556Y-32727935D01*
X235983629Y-32727108D01*
X236003498Y-32500000D01*
X235983543Y-32271913D01*
X235978714Y-32253891D01*
X235925707Y-32056067D01*
X235925706Y-32056065D01*
X235924284Y-32050757D01*
X235910631Y-32021477D01*
X235829849Y-31848238D01*
X235829846Y-31848233D01*
X235827523Y-31843251D01*
X235722474Y-31693226D01*
X235699357Y-31660211D01*
X235699355Y-31660208D01*
X235696198Y-31655700D01*
X235534300Y-31493802D01*
X235529792Y-31490645D01*
X235529789Y-31490643D01*
X235448040Y-31433402D01*
X235346749Y-31362477D01*
X235341767Y-31360154D01*
X235341762Y-31360151D01*
X235144225Y-31268039D01*
X235144224Y-31268039D01*
X235139243Y-31265716D01*
X235133935Y-31264294D01*
X235133933Y-31264293D01*
X235051234Y-31242134D01*
X235032218Y-31237039D01*
X234971596Y-31200087D01*
X234940575Y-31136227D01*
X234949003Y-31065732D01*
X234975735Y-31026237D01*
X235671990Y-30329982D01*
X235734302Y-30295956D01*
X235772064Y-30293556D01*
X236000000Y-30313498D01*
X236228087Y-30293543D01*
X236233400Y-30292119D01*
X236233402Y-30292119D01*
X236443933Y-30235707D01*
X236443935Y-30235706D01*
X236449243Y-30234284D01*
X236454225Y-30231961D01*
X236651762Y-30139849D01*
X236651767Y-30139846D01*
X236656749Y-30137523D01*
X236762229Y-30063665D01*
X236839789Y-30009357D01*
X236839792Y-30009355D01*
X236844300Y-30006198D01*
X237006198Y-29844300D01*
X237137523Y-29656749D01*
X237139846Y-29651767D01*
X237139849Y-29651762D01*
X237231961Y-29454225D01*
X237231961Y-29454224D01*
X237234284Y-29449243D01*
X237248557Y-29395978D01*
X237292119Y-29233402D01*
X237292119Y-29233400D01*
X237293543Y-29228087D01*
X237313498Y-29000000D01*
X237293556Y-28772064D01*
X237307545Y-28702460D01*
X237329982Y-28671988D01*
X237456076Y-28545894D01*
X237518388Y-28511868D01*
X237545171Y-28508989D01*
X239612701Y-28508989D01*
X239680822Y-28528991D01*
G37*
%TD.AperFunction*%
%TA.AperFunction,Conductor*%
G36*
X244499145Y-26200924D02*
G01*
X244544208Y-26229885D01*
X244725228Y-26410905D01*
X244759254Y-26473217D01*
X244754189Y-26544032D01*
X244725228Y-26589095D01*
X243740036Y-27574287D01*
X243733606Y-27586062D01*
X243742902Y-27598077D01*
X243794107Y-27633931D01*
X243803602Y-27639414D01*
X244001060Y-27731490D01*
X244011352Y-27735236D01*
X244221801Y-27791625D01*
X244232594Y-27793528D01*
X244449638Y-27812517D01*
X244460588Y-27812517D01*
X244677632Y-27793528D01*
X244688425Y-27791625D01*
X244898874Y-27735236D01*
X244909166Y-27731490D01*
X245106624Y-27639414D01*
X245116124Y-27633929D01*
X245117023Y-27633299D01*
X245117483Y-27633144D01*
X245120881Y-27631182D01*
X245121275Y-27631865D01*
X245184297Y-27610612D01*
X245253157Y-27627898D01*
X245278916Y-27650934D01*
X245280120Y-27649730D01*
X245286471Y-27656081D01*
X245291852Y-27663261D01*
X245299032Y-27668642D01*
X245299035Y-27668645D01*
X245362611Y-27716292D01*
X245408408Y-27750615D01*
X245544797Y-27801745D01*
X245606979Y-27808500D01*
X247285339Y-27808500D01*
X247353460Y-27828502D01*
X247399953Y-27882158D01*
X247410057Y-27952432D01*
X247380563Y-28017012D01*
X247374434Y-28023595D01*
X245543435Y-29854595D01*
X245481123Y-29888620D01*
X245454340Y-29891500D01*
X244945661Y-29891500D01*
X244877540Y-29871498D01*
X244856566Y-29854595D01*
X242341065Y-27339095D01*
X242307040Y-27276783D01*
X242312104Y-27205968D01*
X242341065Y-27160905D01*
X242939776Y-26562194D01*
X243002088Y-26528168D01*
X243072903Y-26533233D01*
X243129739Y-26575780D01*
X243154392Y-26640307D01*
X243161585Y-26722520D01*
X243163488Y-26733312D01*
X243219877Y-26943761D01*
X243223623Y-26954053D01*
X243315699Y-27151511D01*
X243321182Y-27161006D01*
X243357622Y-27213048D01*
X243368101Y-27221424D01*
X243381547Y-27214356D01*
X244366018Y-26229885D01*
X244428330Y-26195859D01*
X244499145Y-26200924D01*
G37*
%TD.AperFunction*%
%TA.AperFunction,Conductor*%
G36*
X249433621Y-20528002D02*
G01*
X249480114Y-20581658D01*
X249490218Y-20651932D01*
X249460724Y-20716512D01*
X249398111Y-20755707D01*
X249366067Y-20764293D01*
X249366065Y-20764294D01*
X249360757Y-20765716D01*
X249355776Y-20768039D01*
X249355775Y-20768039D01*
X249158238Y-20860151D01*
X249158233Y-20860154D01*
X249153251Y-20862477D01*
X249143830Y-20869074D01*
X248970211Y-20990643D01*
X248970208Y-20990645D01*
X248965700Y-20993802D01*
X248803802Y-21155700D01*
X248800645Y-21160208D01*
X248800643Y-21160211D01*
X248798440Y-21163357D01*
X248672477Y-21343251D01*
X248670154Y-21348233D01*
X248670151Y-21348238D01*
X248598727Y-21501409D01*
X248575716Y-21550757D01*
X248574294Y-21556065D01*
X248574293Y-21556067D01*
X248517881Y-21766598D01*
X248516457Y-21771913D01*
X248496502Y-22000000D01*
X248516457Y-22228087D01*
X248517881Y-22233400D01*
X248517881Y-22233402D01*
X248566982Y-22416646D01*
X248575716Y-22449243D01*
X248578039Y-22454224D01*
X248578039Y-22454225D01*
X248670151Y-22651762D01*
X248670154Y-22651767D01*
X248672477Y-22656749D01*
X248708412Y-22708069D01*
X248795406Y-22832309D01*
X248803802Y-22844300D01*
X248965700Y-23006198D01*
X248970208Y-23009355D01*
X248970211Y-23009357D01*
X249047771Y-23063665D01*
X249092099Y-23119122D01*
X249101500Y-23166878D01*
X249101500Y-26244339D01*
X249081498Y-26312460D01*
X249064595Y-26333434D01*
X247978708Y-27419321D01*
X247916396Y-27453347D01*
X247845581Y-27448282D01*
X247788745Y-27405735D01*
X247763934Y-27339215D01*
X247763613Y-27330226D01*
X247763613Y-25651866D01*
X247756858Y-25589684D01*
X247705728Y-25453295D01*
X247618374Y-25336739D01*
X247501818Y-25249385D01*
X247365429Y-25198255D01*
X247303247Y-25191500D01*
X246200773Y-25191500D01*
X246132652Y-25171498D01*
X246111678Y-25154595D01*
X245777052Y-24819969D01*
X245771198Y-24813704D01*
X245769404Y-24811648D01*
X245733163Y-24770104D01*
X245680882Y-24733360D01*
X245675588Y-24729428D01*
X245631295Y-24694698D01*
X245625320Y-24690013D01*
X245618404Y-24686890D01*
X245616118Y-24685506D01*
X245601437Y-24677132D01*
X245599077Y-24675867D01*
X245592863Y-24671499D01*
X245585784Y-24668739D01*
X245585782Y-24668738D01*
X245533327Y-24648287D01*
X245527258Y-24645736D01*
X245469029Y-24619444D01*
X245461562Y-24618060D01*
X245459007Y-24617259D01*
X245442754Y-24612630D01*
X245440174Y-24611967D01*
X245433093Y-24609207D01*
X245425562Y-24608216D01*
X245425560Y-24608215D01*
X245395941Y-24604316D01*
X245369741Y-24600867D01*
X245363243Y-24599837D01*
X245300416Y-24588193D01*
X245292836Y-24588630D01*
X245292835Y-24588630D01*
X245238210Y-24591780D01*
X245230956Y-24591989D01*
X243228438Y-24591989D01*
X243219869Y-24591697D01*
X243169736Y-24588279D01*
X243169732Y-24588279D01*
X243162159Y-24587763D01*
X243099192Y-24598753D01*
X243092680Y-24599713D01*
X243029269Y-24607387D01*
X243022168Y-24610070D01*
X243019559Y-24610711D01*
X243003239Y-24615176D01*
X243000706Y-24615941D01*
X242993228Y-24617246D01*
X242934701Y-24642937D01*
X242928619Y-24645419D01*
X242908264Y-24653111D01*
X242875960Y-24665317D01*
X242875958Y-24665318D01*
X242868855Y-24668002D01*
X242862596Y-24672303D01*
X242860231Y-24673540D01*
X242845459Y-24681762D01*
X242843167Y-24683117D01*
X242836206Y-24686173D01*
X242830179Y-24690798D01*
X242830175Y-24690800D01*
X242785498Y-24725082D01*
X242780173Y-24728951D01*
X242727530Y-24765132D01*
X242686065Y-24811672D01*
X242681105Y-24816924D01*
X241846164Y-25651866D01*
X241042466Y-26455564D01*
X240980154Y-26489589D01*
X240953371Y-26492469D01*
X236131577Y-26492469D01*
X236123007Y-26492177D01*
X236072889Y-26488760D01*
X236072885Y-26488760D01*
X236065313Y-26488244D01*
X236057836Y-26489549D01*
X236057835Y-26489549D01*
X236031357Y-26494170D01*
X236002362Y-26499231D01*
X235995844Y-26500192D01*
X235932423Y-26507867D01*
X235925322Y-26510550D01*
X235922713Y-26511191D01*
X235906403Y-26515654D01*
X235903867Y-26516419D01*
X235896381Y-26517726D01*
X235889424Y-26520780D01*
X235837870Y-26543411D01*
X235831766Y-26545902D01*
X235772009Y-26568482D01*
X235765746Y-26572786D01*
X235763380Y-26574023D01*
X235748568Y-26582268D01*
X235746314Y-26583601D01*
X235739360Y-26586654D01*
X235688663Y-26625556D01*
X235683333Y-26629428D01*
X235636945Y-26661308D01*
X235636940Y-26661313D01*
X235630684Y-26665612D01*
X235625633Y-26671282D01*
X235625631Y-26671283D01*
X235589230Y-26712139D01*
X235584249Y-26717415D01*
X233215054Y-29086610D01*
X233152742Y-29120636D01*
X233081927Y-29115571D01*
X233025091Y-29073024D01*
X233000280Y-29006504D01*
X232999959Y-28997515D01*
X232999959Y-27829202D01*
X233019961Y-27761081D01*
X233036864Y-27740106D01*
X233480536Y-27296435D01*
X233486801Y-27290582D01*
X233524664Y-27257552D01*
X233524665Y-27257551D01*
X233530385Y-27252561D01*
X233567136Y-27200271D01*
X233571028Y-27195029D01*
X233610476Y-27144718D01*
X233613600Y-27137799D01*
X233614988Y-27135507D01*
X233623357Y-27120835D01*
X233624622Y-27118475D01*
X233628990Y-27112261D01*
X233652203Y-27052723D01*
X233654759Y-27046642D01*
X233670314Y-27012194D01*
X233681045Y-26988427D01*
X233682430Y-26980954D01*
X233683234Y-26978388D01*
X233687855Y-26962165D01*
X233688520Y-26959573D01*
X233691282Y-26952491D01*
X233699622Y-26889139D01*
X233700654Y-26882623D01*
X233710911Y-26827281D01*
X233712295Y-26819814D01*
X233708709Y-26757620D01*
X233708500Y-26750367D01*
X233708500Y-26259500D01*
X233728502Y-26191379D01*
X233782158Y-26144886D01*
X233834500Y-26133500D01*
X233898134Y-26133500D01*
X233960316Y-26126745D01*
X234096705Y-26075615D01*
X234213261Y-25988261D01*
X234300615Y-25871705D01*
X234351745Y-25735316D01*
X234358500Y-25673134D01*
X234358500Y-24319011D01*
X234378502Y-24250890D01*
X234432158Y-24204397D01*
X234484500Y-24193011D01*
X235638851Y-24193011D01*
X235706972Y-24213013D01*
X235727946Y-24229916D01*
X236753550Y-25255520D01*
X236759404Y-25261785D01*
X236797439Y-25305385D01*
X236803653Y-25309752D01*
X236849719Y-25342128D01*
X236855014Y-25346061D01*
X236905282Y-25385476D01*
X236912198Y-25388599D01*
X236914484Y-25389983D01*
X236929165Y-25398357D01*
X236931525Y-25399622D01*
X236937739Y-25403990D01*
X236944818Y-25406750D01*
X236944820Y-25406751D01*
X236997275Y-25427202D01*
X237003344Y-25429753D01*
X237061573Y-25456045D01*
X237069046Y-25457430D01*
X237071612Y-25458234D01*
X237087835Y-25462855D01*
X237090427Y-25463520D01*
X237097509Y-25466282D01*
X237105044Y-25467274D01*
X237160861Y-25474622D01*
X237167377Y-25475654D01*
X237205770Y-25482770D01*
X237230186Y-25487295D01*
X237237766Y-25486858D01*
X237237767Y-25486858D01*
X237292380Y-25483709D01*
X237299633Y-25483500D01*
X237515500Y-25483500D01*
X237583621Y-25503502D01*
X237630114Y-25557158D01*
X237641500Y-25609500D01*
X237641500Y-25673134D01*
X237648255Y-25735316D01*
X237699385Y-25871705D01*
X237786739Y-25988261D01*
X237903295Y-26075615D01*
X238039684Y-26126745D01*
X238101866Y-26133500D01*
X239898134Y-26133500D01*
X239960316Y-26126745D01*
X240096705Y-26075615D01*
X240213261Y-25988261D01*
X240300615Y-25871705D01*
X240351745Y-25735316D01*
X240358500Y-25673134D01*
X240358500Y-23876866D01*
X240351745Y-23814684D01*
X240300615Y-23678295D01*
X240213261Y-23561739D01*
X240096705Y-23474385D01*
X239977687Y-23429767D01*
X239920923Y-23387125D01*
X239896223Y-23320564D01*
X239911430Y-23251215D01*
X239932977Y-23222535D01*
X240034052Y-23121812D01*
X240040730Y-23113965D01*
X240165003Y-22941020D01*
X240170313Y-22932183D01*
X240264670Y-22741267D01*
X240268469Y-22731672D01*
X240330377Y-22527910D01*
X240332555Y-22517837D01*
X240333986Y-22506962D01*
X240331775Y-22492778D01*
X240318617Y-22489000D01*
X237683225Y-22489000D01*
X237669694Y-22492973D01*
X237668257Y-22502966D01*
X237698565Y-22637446D01*
X237701645Y-22647275D01*
X237781770Y-22844603D01*
X237786413Y-22853794D01*
X237897694Y-23035388D01*
X237903777Y-23043699D01*
X238043213Y-23204667D01*
X238050577Y-23211879D01*
X238055522Y-23215985D01*
X238095156Y-23274889D01*
X238096653Y-23345870D01*
X238059537Y-23406392D01*
X238019264Y-23430910D01*
X237911705Y-23471232D01*
X237911704Y-23471233D01*
X237903295Y-23474385D01*
X237786739Y-23561739D01*
X237699385Y-23678295D01*
X237648255Y-23814684D01*
X237647402Y-23822540D01*
X237644163Y-23852349D01*
X237616920Y-23917911D01*
X237558557Y-23958337D01*
X237487603Y-23960791D01*
X237429805Y-23927835D01*
X236505961Y-23003991D01*
X236500107Y-22997726D01*
X236499712Y-22997273D01*
X236462072Y-22954126D01*
X236409791Y-22917382D01*
X236404497Y-22913450D01*
X236360204Y-22878720D01*
X236354229Y-22874035D01*
X236347313Y-22870912D01*
X236345027Y-22869528D01*
X236330346Y-22861154D01*
X236327986Y-22859889D01*
X236321772Y-22855521D01*
X236314693Y-22852761D01*
X236314691Y-22852760D01*
X236262236Y-22832309D01*
X236256167Y-22829758D01*
X236197938Y-22803466D01*
X236190471Y-22802082D01*
X236187916Y-22801281D01*
X236171663Y-22796652D01*
X236169083Y-22795989D01*
X236162002Y-22793229D01*
X236154471Y-22792238D01*
X236154469Y-22792237D01*
X236124850Y-22788338D01*
X236098650Y-22784889D01*
X236092152Y-22783859D01*
X236029325Y-22772215D01*
X236021745Y-22772652D01*
X236021744Y-22772652D01*
X235967119Y-22775802D01*
X235959865Y-22776011D01*
X234424967Y-22776011D01*
X234356846Y-22756009D01*
X234310353Y-22702353D01*
X234300249Y-22632079D01*
X234304408Y-22613383D01*
X234330379Y-22527903D01*
X234332555Y-22517837D01*
X234333986Y-22506962D01*
X234331775Y-22492778D01*
X234318617Y-22489000D01*
X231683225Y-22489000D01*
X231669694Y-22492973D01*
X231668257Y-22502966D01*
X231695153Y-22622310D01*
X231690617Y-22693162D01*
X231648495Y-22750313D01*
X231582162Y-22775619D01*
X231572236Y-22776011D01*
X230204416Y-22776011D01*
X230195847Y-22775719D01*
X230164747Y-22773599D01*
X230158864Y-22773198D01*
X230092261Y-22748610D01*
X230049525Y-22691916D01*
X230042511Y-22631043D01*
X230059949Y-22498591D01*
X230061529Y-22486590D01*
X230063156Y-22420000D01*
X230044852Y-22197361D01*
X230043593Y-22192348D01*
X230043591Y-22192337D01*
X230038115Y-22170540D01*
X230040918Y-22099598D01*
X230071223Y-22050747D01*
X230391076Y-21730894D01*
X230453388Y-21696868D01*
X230480171Y-21693989D01*
X231575009Y-21693989D01*
X231643130Y-21713991D01*
X231689623Y-21767647D01*
X231699727Y-21837921D01*
X231696426Y-21853661D01*
X231664389Y-21969183D01*
X231665912Y-21977607D01*
X231678292Y-21981000D01*
X234318344Y-21981000D01*
X234331875Y-21977027D01*
X234333180Y-21967947D01*
X234303726Y-21850685D01*
X234306530Y-21779743D01*
X234347243Y-21721580D01*
X234412938Y-21694661D01*
X234425930Y-21693989D01*
X237575009Y-21693989D01*
X237643130Y-21713991D01*
X237689623Y-21767647D01*
X237699727Y-21837921D01*
X237696426Y-21853661D01*
X237664389Y-21969183D01*
X237665912Y-21977607D01*
X237678292Y-21981000D01*
X240318344Y-21981000D01*
X240331875Y-21977027D01*
X240333180Y-21967947D01*
X240303726Y-21850685D01*
X240306530Y-21779743D01*
X240347243Y-21721580D01*
X240412938Y-21694661D01*
X240425930Y-21693989D01*
X240765769Y-21693989D01*
X240833890Y-21713991D01*
X240880383Y-21767647D01*
X240891290Y-21830971D01*
X240876502Y-22000000D01*
X240896457Y-22228087D01*
X240897881Y-22233400D01*
X240897881Y-22233402D01*
X240946982Y-22416646D01*
X240955716Y-22449243D01*
X240958039Y-22454224D01*
X240958039Y-22454225D01*
X241050151Y-22651762D01*
X241050154Y-22651767D01*
X241052477Y-22656749D01*
X241088412Y-22708069D01*
X241175406Y-22832309D01*
X241183802Y-22844300D01*
X241345700Y-23006198D01*
X241350208Y-23009355D01*
X241350211Y-23009357D01*
X241399257Y-23043699D01*
X241533251Y-23137523D01*
X241538233Y-23139846D01*
X241538238Y-23139849D01*
X241701514Y-23215985D01*
X241740757Y-23234284D01*
X241746065Y-23235706D01*
X241746067Y-23235707D01*
X241956598Y-23292119D01*
X241956600Y-23292119D01*
X241961913Y-23293543D01*
X242190000Y-23313498D01*
X242418087Y-23293543D01*
X242423400Y-23292119D01*
X242423402Y-23292119D01*
X242633933Y-23235707D01*
X242633935Y-23235706D01*
X242639243Y-23234284D01*
X242678486Y-23215985D01*
X242841762Y-23139849D01*
X242841767Y-23139846D01*
X242846749Y-23137523D01*
X242980743Y-23043699D01*
X243029789Y-23009357D01*
X243029792Y-23009355D01*
X243034300Y-23006198D01*
X243196198Y-22844300D01*
X243204595Y-22832309D01*
X243291588Y-22708069D01*
X243327523Y-22656749D01*
X243329846Y-22651767D01*
X243329849Y-22651762D01*
X243421961Y-22454225D01*
X243421961Y-22454224D01*
X243424284Y-22449243D01*
X243433019Y-22416646D01*
X243482119Y-22233402D01*
X243482119Y-22233400D01*
X243483543Y-22228087D01*
X243503498Y-22000000D01*
X243483543Y-21771913D01*
X243482119Y-21766598D01*
X243425707Y-21556067D01*
X243425706Y-21556065D01*
X243424284Y-21550757D01*
X243401273Y-21501409D01*
X243329849Y-21348238D01*
X243329846Y-21348233D01*
X243327523Y-21343251D01*
X243201560Y-21163357D01*
X243199357Y-21160211D01*
X243199355Y-21160208D01*
X243196198Y-21155700D01*
X243034300Y-20993802D01*
X243029792Y-20990645D01*
X243029789Y-20990643D01*
X242856170Y-20869074D01*
X242846749Y-20862477D01*
X242841767Y-20860154D01*
X242841762Y-20860151D01*
X242644225Y-20768039D01*
X242644224Y-20768039D01*
X242639243Y-20765716D01*
X242633935Y-20764294D01*
X242633933Y-20764293D01*
X242601889Y-20755707D01*
X242541266Y-20718755D01*
X242510245Y-20654895D01*
X242518673Y-20584400D01*
X242563876Y-20529653D01*
X242634500Y-20508000D01*
X249365500Y-20508000D01*
X249433621Y-20528002D01*
G37*
%TD.AperFunction*%
%TD*%
M02*
