M48
; DRILL file {KiCad (6.0.0)} date Sun Jan  9 16:20:28 2022
; FORMAT={-:-/ absolute / inch / decimal}
; #@! TF.CreationDate,2022-01-09T16:20:28+00:00
; #@! TF.GenerationSoftware,Kicad,Pcbnew,(6.0.0)
; #@! TF.FileFunction,MixedPlating,1,2
FMAT,2
INCH
; #@! TA.AperFunction,Plated,PTH,ComponentDrill
T1C0.0315
; #@! TA.AperFunction,Plated,PTH,ComponentDrill
T2C0.0394
; #@! TA.AperFunction,Plated,PTH,ComponentDrill
T3C0.0400
; #@! TA.AperFunction,Plated,PTH,ComponentDrill
T4C0.0433
; #@! TA.AperFunction,NonPlated,NPTH,ComponentDrill
T5C0.1260
%
G90
G05
T1
X8.8583Y-1.2083
X8.8583Y-1.5083
X8.9961Y-1.2083
X8.9961Y-1.5083
X9.2398Y-1.2795
X9.2398Y-1.4035
X9.2913Y-1.1417
X9.2913Y-1.5354
X9.2988Y-1.752
X9.2988Y-1.8898
X9.4882Y-1.1417
X9.4882Y-1.5354
X9.535Y-0.8661
X9.5398Y-1.2795
X9.5398Y-1.4035
X9.5988Y-1.752
X9.5988Y-1.8898
X9.6242Y-1.0433
X9.6535Y-1.2283
X9.6535Y-1.3283
X9.6535Y-1.4283
X9.6535Y-1.5283
X9.703Y-1.0433
X9.7423Y-1.7323
X9.7539Y-1.2205
X9.7539Y-1.5157
X9.8211Y-1.7323
X9.835Y-0.8661
X9.8524Y-1.2205
X9.8524Y-1.5157
X9.9535Y-1.2283
X9.9535Y-1.3283
X9.9535Y-1.4283
X9.9535Y-1.5283
T2
X8.8583Y-1.6919
X8.8583Y-1.7919
X8.8583Y-1.8919
X9.0039Y-0.8827
X9.0039Y-0.9827
X9.0039Y-1.0827
X9.0157Y-1.7805
X9.0157Y-1.8805
X9.1732Y-0.8754
X9.1732Y-0.9754
X9.1732Y-1.7805
X9.1732Y-1.8805
X9.4094Y-0.8754
X9.4094Y-0.9754
T3
X10.1665Y-1.178
X10.1665Y-1.278
X10.1665Y-1.378
X10.1665Y-1.478
X10.1665Y-1.578
X10.2665Y-1.178
X10.2665Y-1.278
X10.2665Y-1.378
X10.2665Y-1.478
X10.2665Y-1.578
T4
X9.9575Y-0.8661
X9.9575Y-1.8701
X10.3575Y-0.8661
X10.3575Y-1.8701
T5
X8.878Y-0.8858
T0
M30
