%TF.GenerationSoftware,KiCad,Pcbnew,(6.0.0)*%
%TF.CreationDate,2022-01-09T16:20:31+00:00*%
%TF.ProjectId,aistompboxadapter,61697374-6f6d-4706-926f-786164617074,rev?*%
%TF.SameCoordinates,Original*%
%TF.FileFunction,Soldermask,Bot*%
%TF.FilePolarity,Negative*%
%FSLAX46Y46*%
G04 Gerber Fmt 4.6, Leading zero omitted, Abs format (unit mm)*
G04 Created by KiCad (PCBNEW (6.0.0)) date 2022-01-09 16:20:31*
%MOMM*%
%LPD*%
G01*
G04 APERTURE LIST*
%ADD10C,3.200000*%
%ADD11C,1.600000*%
%ADD12R,2.400000X1.600000*%
%ADD13O,2.400000X1.600000*%
%ADD14O,1.700000X1.700000*%
%ADD15R,1.700000X1.700000*%
%ADD16O,1.600000X1.600000*%
%ADD17R,1.727200X1.727200*%
%ADD18O,1.727200X1.727200*%
%ADD19R,2.200000X2.200000*%
%ADD20O,2.200000X2.200000*%
%ADD21R,1.600000X1.600000*%
G04 APERTURE END LIST*
D10*
%TO.C,H1*%
X225500000Y-22500000D03*
%TD*%
D11*
%TO.C,C6*%
X241000000Y-29000000D03*
X236000000Y-29000000D03*
%TD*%
%TO.C,C2*%
X236000000Y-39000000D03*
X241000000Y-39000000D03*
%TD*%
D12*
%TO.C,U1*%
X245200000Y-31200000D03*
D13*
X252820000Y-38820000D03*
X245200000Y-33740000D03*
X252820000Y-36280000D03*
X245200000Y-36280000D03*
X252820000Y-33740000D03*
X245200000Y-38820000D03*
X252820000Y-31200000D03*
%TD*%
D14*
%TO.C,RV2*%
X228700000Y-22420000D03*
X228700000Y-24960000D03*
D15*
X228700000Y-27500000D03*
%TD*%
D14*
%TO.C,RV1*%
X225000000Y-48055000D03*
X225000000Y-45515000D03*
D15*
X225000000Y-42975000D03*
%TD*%
D11*
%TO.C,R7*%
X242190000Y-22000000D03*
D16*
X249810000Y-22000000D03*
%TD*%
D11*
%TO.C,R6*%
X234690000Y-35650000D03*
D16*
X242310000Y-35650000D03*
%TD*%
D11*
%TO.C,R5*%
X242310000Y-32500000D03*
D16*
X234690000Y-32500000D03*
%TD*%
D11*
%TO.C,R4*%
X228500000Y-38310000D03*
D16*
X228500000Y-30690000D03*
%TD*%
D11*
%TO.C,R3*%
X225000000Y-38310000D03*
D16*
X225000000Y-30690000D03*
%TD*%
D11*
%TO.C,R2*%
X236190000Y-48000000D03*
D16*
X243810000Y-48000000D03*
%TD*%
D11*
%TO.C,R1*%
X243810000Y-44500000D03*
D16*
X236190000Y-44500000D03*
%TD*%
D15*
%TO.C,J5*%
X239000000Y-24775000D03*
D14*
X239000000Y-22235000D03*
%TD*%
D15*
%TO.C,J4*%
X229000000Y-45225000D03*
D14*
X229000000Y-47765000D03*
%TD*%
D17*
%TO.C,J3*%
X258230000Y-29920000D03*
D18*
X260770000Y-29920000D03*
X258230000Y-32460000D03*
X260770000Y-32460000D03*
X258230000Y-35000000D03*
X260770000Y-35000000D03*
X258230000Y-37540000D03*
X260770000Y-37540000D03*
X258230000Y-40080000D03*
X260770000Y-40080000D03*
%TD*%
D15*
%TO.C,J2*%
X233000000Y-24775000D03*
D14*
X233000000Y-22235000D03*
%TD*%
D15*
%TO.C,J1*%
X233000000Y-45225000D03*
D14*
X233000000Y-47765000D03*
%TD*%
D19*
%TO.C,D2*%
X263080000Y-22000000D03*
D20*
X252920000Y-22000000D03*
%TD*%
D19*
%TO.C,D1*%
X252920000Y-47500000D03*
D20*
X263080000Y-47500000D03*
%TD*%
D11*
%TO.C,C5*%
X247750000Y-31000000D03*
X250250000Y-31000000D03*
%TD*%
%TO.C,C4*%
X247750000Y-38500000D03*
X250250000Y-38500000D03*
%TD*%
D21*
%TO.C,C3*%
X246455113Y-26500000D03*
D11*
X244455113Y-26500000D03*
%TD*%
D21*
%TO.C,C1*%
X249455113Y-44000000D03*
D11*
X247455113Y-44000000D03*
%TD*%
M02*
