%TF.GenerationSoftware,KiCad,Pcbnew,(6.0.0)*%
%TF.CreationDate,2022-01-09T16:20:31+00:00*%
%TF.ProjectId,aistompboxadapter,61697374-6f6d-4706-926f-786164617074,rev?*%
%TF.SameCoordinates,Original*%
%TF.FileFunction,Legend,Top*%
%TF.FilePolarity,Positive*%
%FSLAX46Y46*%
G04 Gerber Fmt 4.6, Leading zero omitted, Abs format (unit mm)*
G04 Created by KiCad (PCBNEW (6.0.0)) date 2022-01-09 16:20:31*
%MOMM*%
%LPD*%
G01*
G04 APERTURE LIST*
%ADD10C,0.150000*%
%ADD11C,0.135000*%
%ADD12C,0.120000*%
%ADD13C,3.200000*%
%ADD14C,1.600000*%
%ADD15R,2.400000X1.600000*%
%ADD16O,2.400000X1.600000*%
%ADD17O,1.700000X1.700000*%
%ADD18R,1.700000X1.700000*%
%ADD19O,1.600000X1.600000*%
%ADD20R,1.727200X1.727200*%
%ADD21O,1.727200X1.727200*%
%ADD22R,2.200000X2.200000*%
%ADD23O,2.200000X2.200000*%
%ADD24R,1.600000X1.600000*%
G04 APERTURE END LIST*
D10*
X235599761Y-25642857D02*
X235647380Y-25500000D01*
X235647380Y-25261904D01*
X235599761Y-25166666D01*
X235552142Y-25119047D01*
X235456904Y-25071428D01*
X235361666Y-25071428D01*
X235266428Y-25119047D01*
X235218809Y-25166666D01*
X235171190Y-25261904D01*
X235123571Y-25452380D01*
X235075952Y-25547619D01*
X235028333Y-25595238D01*
X234933095Y-25642857D01*
X234837857Y-25642857D01*
X234742619Y-25595238D01*
X234695000Y-25547619D01*
X234647380Y-25452380D01*
X234647380Y-25214285D01*
X234695000Y-25071428D01*
X235171190Y-24452380D02*
X235647380Y-24452380D01*
X234647380Y-24785714D02*
X235171190Y-24452380D01*
X234647380Y-24119047D01*
X235647380Y-23785714D02*
X234647380Y-23785714D01*
X235647380Y-23214285D01*
X234647380Y-23214285D01*
X234647380Y-22880952D02*
X234647380Y-22309523D01*
X235647380Y-22595238D02*
X234647380Y-22595238D01*
X235647380Y-21976190D02*
X234647380Y-21976190D01*
X235123571Y-21976190D02*
X235123571Y-21404761D01*
X235647380Y-21404761D02*
X234647380Y-21404761D01*
X236257380Y-24500000D02*
X236257380Y-24309523D01*
X236305000Y-24214285D01*
X236400238Y-24119047D01*
X236590714Y-24071428D01*
X236924047Y-24071428D01*
X237114523Y-24119047D01*
X237209761Y-24214285D01*
X237257380Y-24309523D01*
X237257380Y-24500000D01*
X237209761Y-24595238D01*
X237114523Y-24690476D01*
X236924047Y-24738095D01*
X236590714Y-24738095D01*
X236400238Y-24690476D01*
X236305000Y-24595238D01*
X236257380Y-24500000D01*
X236257380Y-23642857D02*
X237066904Y-23642857D01*
X237162142Y-23595238D01*
X237209761Y-23547619D01*
X237257380Y-23452380D01*
X237257380Y-23261904D01*
X237209761Y-23166666D01*
X237162142Y-23119047D01*
X237066904Y-23071428D01*
X236257380Y-23071428D01*
X236257380Y-22738095D02*
X236257380Y-22166666D01*
X237257380Y-22452380D02*
X236257380Y-22452380D01*
X231452380Y-26071428D02*
X230976190Y-26404761D01*
X231452380Y-26642857D02*
X230452380Y-26642857D01*
X230452380Y-26261904D01*
X230500000Y-26166666D01*
X230547619Y-26119047D01*
X230642857Y-26071428D01*
X230785714Y-26071428D01*
X230880952Y-26119047D01*
X230928571Y-26166666D01*
X230976190Y-26261904D01*
X230976190Y-26642857D01*
X230928571Y-25642857D02*
X230928571Y-25309523D01*
X231452380Y-25166666D02*
X231452380Y-25642857D01*
X230452380Y-25642857D01*
X230452380Y-25166666D01*
X230452380Y-24880952D02*
X230452380Y-24309523D01*
X231452380Y-24595238D02*
X230452380Y-24595238D01*
X230452380Y-23976190D02*
X231261904Y-23976190D01*
X231357142Y-23928571D01*
X231404761Y-23880952D01*
X231452380Y-23785714D01*
X231452380Y-23595238D01*
X231404761Y-23500000D01*
X231357142Y-23452380D01*
X231261904Y-23404761D01*
X230452380Y-23404761D01*
X231452380Y-22357142D02*
X230976190Y-22690476D01*
X231452380Y-22928571D02*
X230452380Y-22928571D01*
X230452380Y-22547619D01*
X230500000Y-22452380D01*
X230547619Y-22404761D01*
X230642857Y-22357142D01*
X230785714Y-22357142D01*
X230880952Y-22404761D01*
X230928571Y-22452380D01*
X230976190Y-22547619D01*
X230976190Y-22928571D01*
X231452380Y-21928571D02*
X230452380Y-21928571D01*
X231452380Y-21357142D01*
X230452380Y-21357142D01*
X224247380Y-27000000D02*
X224247380Y-26809523D01*
X224295000Y-26714285D01*
X224390238Y-26619047D01*
X224580714Y-26571428D01*
X224914047Y-26571428D01*
X225104523Y-26619047D01*
X225199761Y-26714285D01*
X225247380Y-26809523D01*
X225247380Y-27000000D01*
X225199761Y-27095238D01*
X225104523Y-27190476D01*
X224914047Y-27238095D01*
X224580714Y-27238095D01*
X224390238Y-27190476D01*
X224295000Y-27095238D01*
X224247380Y-27000000D01*
X224247380Y-26142857D02*
X225056904Y-26142857D01*
X225152142Y-26095238D01*
X225199761Y-26047619D01*
X225247380Y-25952380D01*
X225247380Y-25761904D01*
X225199761Y-25666666D01*
X225152142Y-25619047D01*
X225056904Y-25571428D01*
X224247380Y-25571428D01*
X224247380Y-25238095D02*
X224247380Y-24666666D01*
X225247380Y-24952380D02*
X224247380Y-24952380D01*
X226571666Y-27000000D02*
X226571666Y-26523809D01*
X226857380Y-27095238D02*
X225857380Y-26761904D01*
X226857380Y-26428571D01*
X225857380Y-26238095D02*
X225857380Y-25666666D01*
X226857380Y-25952380D02*
X225857380Y-25952380D01*
X225857380Y-25476190D02*
X225857380Y-24904761D01*
X226857380Y-25190476D02*
X225857380Y-25190476D01*
X230000000Y-43500000D02*
X229000000Y-43500000D01*
X229000000Y-42500000D02*
X229000000Y-43500000D01*
X229000000Y-43500000D02*
X229000000Y-42500000D01*
X230000000Y-42000000D02*
X229000000Y-43500000D01*
X233500000Y-43000000D02*
X233000000Y-43500000D01*
X232500000Y-43000000D02*
X233000000Y-43500000D01*
X233000000Y-43500000D02*
X232500000Y-43000000D01*
X233000000Y-42500000D02*
X233000000Y-43500000D01*
X230904761Y-41761904D02*
X230952380Y-41619047D01*
X230952380Y-41380952D01*
X230904761Y-41285714D01*
X230857142Y-41238095D01*
X230761904Y-41190476D01*
X230666666Y-41190476D01*
X230571428Y-41238095D01*
X230523809Y-41285714D01*
X230476190Y-41380952D01*
X230428571Y-41571428D01*
X230380952Y-41666666D01*
X230333333Y-41714285D01*
X230238095Y-41761904D01*
X230142857Y-41761904D01*
X230047619Y-41714285D01*
X230000000Y-41666666D01*
X229952380Y-41571428D01*
X229952380Y-41333333D01*
X230000000Y-41190476D01*
X230428571Y-40761904D02*
X230428571Y-40428571D01*
X230952380Y-40285714D02*
X230952380Y-40761904D01*
X229952380Y-40761904D01*
X229952380Y-40285714D01*
X230952380Y-39857142D02*
X229952380Y-39857142D01*
X230952380Y-39285714D01*
X229952380Y-39285714D01*
X230952380Y-38809523D02*
X229952380Y-38809523D01*
X229952380Y-38571428D01*
X230000000Y-38428571D01*
X230095238Y-38333333D01*
X230190476Y-38285714D01*
X230380952Y-38238095D01*
X230523809Y-38238095D01*
X230714285Y-38285714D01*
X230809523Y-38333333D01*
X230904761Y-38428571D01*
X230952380Y-38571428D01*
X230952380Y-38809523D01*
X233404761Y-42285714D02*
X233452380Y-42142857D01*
X233452380Y-41904761D01*
X233404761Y-41809523D01*
X233357142Y-41761904D01*
X233261904Y-41714285D01*
X233166666Y-41714285D01*
X233071428Y-41761904D01*
X233023809Y-41809523D01*
X232976190Y-41904761D01*
X232928571Y-42095238D01*
X232880952Y-42190476D01*
X232833333Y-42238095D01*
X232738095Y-42285714D01*
X232642857Y-42285714D01*
X232547619Y-42238095D01*
X232500000Y-42190476D01*
X232452380Y-42095238D01*
X232452380Y-41857142D01*
X232500000Y-41714285D01*
X232976190Y-41095238D02*
X233452380Y-41095238D01*
X232452380Y-41428571D02*
X232976190Y-41095238D01*
X232452380Y-40761904D01*
X233452380Y-40428571D02*
X232452380Y-40428571D01*
X233452380Y-39857142D01*
X232452380Y-39857142D01*
X232452380Y-39523809D02*
X232452380Y-38952380D01*
X233452380Y-39238095D02*
X232452380Y-39238095D01*
X233452380Y-38619047D02*
X232452380Y-38619047D01*
X232928571Y-38619047D02*
X232928571Y-38047619D01*
X233452380Y-38047619D02*
X232452380Y-38047619D01*
X233452380Y-36809523D02*
X232452380Y-36809523D01*
X233452380Y-36333333D02*
X232452380Y-36333333D01*
X233452380Y-35761904D01*
X232452380Y-35761904D01*
X223404761Y-40952380D02*
X223404761Y-39952380D01*
X223880952Y-40952380D02*
X223880952Y-39952380D01*
X224452380Y-40952380D01*
X224452380Y-39952380D01*
X225642857Y-40666666D02*
X226119047Y-40666666D01*
X225547619Y-40952380D02*
X225880952Y-39952380D01*
X226214285Y-40952380D01*
X226404761Y-39952380D02*
X226976190Y-39952380D01*
X226690476Y-40952380D02*
X226690476Y-39952380D01*
X227166666Y-39952380D02*
X227738095Y-39952380D01*
X227452380Y-40952380D02*
X227452380Y-39952380D01*
%TO.C,C6*%
X238033333Y-29957142D02*
X237985714Y-30004761D01*
X237842857Y-30052380D01*
X237747619Y-30052380D01*
X237604761Y-30004761D01*
X237509523Y-29909523D01*
X237461904Y-29814285D01*
X237414285Y-29623809D01*
X237414285Y-29480952D01*
X237461904Y-29290476D01*
X237509523Y-29195238D01*
X237604761Y-29100000D01*
X237747619Y-29052380D01*
X237842857Y-29052380D01*
X237985714Y-29100000D01*
X238033333Y-29147619D01*
X238890476Y-29052380D02*
X238700000Y-29052380D01*
X238604761Y-29100000D01*
X238557142Y-29147619D01*
X238461904Y-29290476D01*
X238414285Y-29480952D01*
X238414285Y-29861904D01*
X238461904Y-29957142D01*
X238509523Y-30004761D01*
X238604761Y-30052380D01*
X238795238Y-30052380D01*
X238890476Y-30004761D01*
X238938095Y-29957142D01*
X238985714Y-29861904D01*
X238985714Y-29623809D01*
X238938095Y-29528571D01*
X238890476Y-29480952D01*
X238795238Y-29433333D01*
X238604761Y-29433333D01*
X238509523Y-29480952D01*
X238461904Y-29528571D01*
X238414285Y-29623809D01*
X237761904Y-28185714D02*
X237761904Y-28852380D01*
X237523809Y-27804761D02*
X237285714Y-28519047D01*
X237904761Y-28519047D01*
X238190476Y-27852380D02*
X238857142Y-27852380D01*
X238428571Y-28852380D01*
X239238095Y-28185714D02*
X239238095Y-29185714D01*
X239238095Y-28233333D02*
X239333333Y-28185714D01*
X239523809Y-28185714D01*
X239619047Y-28233333D01*
X239666666Y-28280952D01*
X239714285Y-28376190D01*
X239714285Y-28661904D01*
X239666666Y-28757142D01*
X239619047Y-28804761D01*
X239523809Y-28852380D01*
X239333333Y-28852380D01*
X239238095Y-28804761D01*
%TO.C,C2*%
X238633333Y-38757142D02*
X238585714Y-38804761D01*
X238442857Y-38852380D01*
X238347619Y-38852380D01*
X238204761Y-38804761D01*
X238109523Y-38709523D01*
X238061904Y-38614285D01*
X238014285Y-38423809D01*
X238014285Y-38280952D01*
X238061904Y-38090476D01*
X238109523Y-37995238D01*
X238204761Y-37900000D01*
X238347619Y-37852380D01*
X238442857Y-37852380D01*
X238585714Y-37900000D01*
X238633333Y-37947619D01*
X239014285Y-37947619D02*
X239061904Y-37900000D01*
X239157142Y-37852380D01*
X239395238Y-37852380D01*
X239490476Y-37900000D01*
X239538095Y-37947619D01*
X239585714Y-38042857D01*
X239585714Y-38138095D01*
X239538095Y-38280952D01*
X238966666Y-38852380D01*
X239585714Y-38852380D01*
X237857142Y-40052380D02*
X237285714Y-40052380D01*
X237571428Y-40052380D02*
X237571428Y-39052380D01*
X237476190Y-39195238D01*
X237380952Y-39290476D01*
X237285714Y-39338095D01*
X238476190Y-39052380D02*
X238571428Y-39052380D01*
X238666666Y-39100000D01*
X238714285Y-39147619D01*
X238761904Y-39242857D01*
X238809523Y-39433333D01*
X238809523Y-39671428D01*
X238761904Y-39861904D01*
X238714285Y-39957142D01*
X238666666Y-40004761D01*
X238571428Y-40052380D01*
X238476190Y-40052380D01*
X238380952Y-40004761D01*
X238333333Y-39957142D01*
X238285714Y-39861904D01*
X238238095Y-39671428D01*
X238238095Y-39433333D01*
X238285714Y-39242857D01*
X238333333Y-39147619D01*
X238380952Y-39100000D01*
X238476190Y-39052380D01*
X239238095Y-39385714D02*
X239238095Y-40385714D01*
X239238095Y-39433333D02*
X239333333Y-39385714D01*
X239523809Y-39385714D01*
X239619047Y-39433333D01*
X239666666Y-39480952D01*
X239714285Y-39576190D01*
X239714285Y-39861904D01*
X239666666Y-39957142D01*
X239619047Y-40004761D01*
X239523809Y-40052380D01*
X239333333Y-40052380D01*
X239238095Y-40004761D01*
%TO.C,U1*%
X248248095Y-28322380D02*
X248248095Y-29131904D01*
X248295714Y-29227142D01*
X248343333Y-29274761D01*
X248438571Y-29322380D01*
X248629047Y-29322380D01*
X248724285Y-29274761D01*
X248771904Y-29227142D01*
X248819523Y-29131904D01*
X248819523Y-28322380D01*
X249819523Y-29322380D02*
X249248095Y-29322380D01*
X249533809Y-29322380D02*
X249533809Y-28322380D01*
X249438571Y-28465238D01*
X249343333Y-28560476D01*
X249248095Y-28608095D01*
D11*
%TO.C,R7*%
X246256666Y-21761904D02*
X245990000Y-21380952D01*
X245799523Y-21761904D02*
X245799523Y-20961904D01*
X246104285Y-20961904D01*
X246180476Y-21000000D01*
X246218571Y-21038095D01*
X246256666Y-21114285D01*
X246256666Y-21228571D01*
X246218571Y-21304761D01*
X246180476Y-21342857D01*
X246104285Y-21380952D01*
X245799523Y-21380952D01*
X246523333Y-20961904D02*
X247056666Y-20961904D01*
X246713809Y-21761904D01*
X246294761Y-22961904D02*
X245837619Y-22961904D01*
X246066190Y-22961904D02*
X246066190Y-22161904D01*
X245990000Y-22276190D01*
X245913809Y-22352380D01*
X245837619Y-22390476D01*
X246637619Y-22961904D02*
X246637619Y-22161904D01*
X246713809Y-22657142D02*
X246942380Y-22961904D01*
X246942380Y-22428571D02*
X246637619Y-22733333D01*
%TO.C,R6*%
X238756666Y-35411904D02*
X238490000Y-35030952D01*
X238299523Y-35411904D02*
X238299523Y-34611904D01*
X238604285Y-34611904D01*
X238680476Y-34650000D01*
X238718571Y-34688095D01*
X238756666Y-34764285D01*
X238756666Y-34878571D01*
X238718571Y-34954761D01*
X238680476Y-34992857D01*
X238604285Y-35030952D01*
X238299523Y-35030952D01*
X239442380Y-34611904D02*
X239290000Y-34611904D01*
X239213809Y-34650000D01*
X239175714Y-34688095D01*
X239099523Y-34802380D01*
X239061428Y-34954761D01*
X239061428Y-35259523D01*
X239099523Y-35335714D01*
X239137619Y-35373809D01*
X239213809Y-35411904D01*
X239366190Y-35411904D01*
X239442380Y-35373809D01*
X239480476Y-35335714D01*
X239518571Y-35259523D01*
X239518571Y-35069047D01*
X239480476Y-34992857D01*
X239442380Y-34954761D01*
X239366190Y-34916666D01*
X239213809Y-34916666D01*
X239137619Y-34954761D01*
X239099523Y-34992857D01*
X239061428Y-35069047D01*
X238413809Y-36611904D02*
X237956666Y-36611904D01*
X238185238Y-36611904D02*
X238185238Y-35811904D01*
X238109047Y-35926190D01*
X238032857Y-36002380D01*
X237956666Y-36040476D01*
X238909047Y-35811904D02*
X238985238Y-35811904D01*
X239061428Y-35850000D01*
X239099523Y-35888095D01*
X239137619Y-35964285D01*
X239175714Y-36116666D01*
X239175714Y-36307142D01*
X239137619Y-36459523D01*
X239099523Y-36535714D01*
X239061428Y-36573809D01*
X238985238Y-36611904D01*
X238909047Y-36611904D01*
X238832857Y-36573809D01*
X238794761Y-36535714D01*
X238756666Y-36459523D01*
X238718571Y-36307142D01*
X238718571Y-36116666D01*
X238756666Y-35964285D01*
X238794761Y-35888095D01*
X238832857Y-35850000D01*
X238909047Y-35811904D01*
X239518571Y-36611904D02*
X239518571Y-35811904D01*
X239594761Y-36307142D02*
X239823333Y-36611904D01*
X239823333Y-36078571D02*
X239518571Y-36383333D01*
%TO.C,R5*%
X237976666Y-33461904D02*
X237710000Y-33080952D01*
X237519523Y-33461904D02*
X237519523Y-32661904D01*
X237824285Y-32661904D01*
X237900476Y-32700000D01*
X237938571Y-32738095D01*
X237976666Y-32814285D01*
X237976666Y-32928571D01*
X237938571Y-33004761D01*
X237900476Y-33042857D01*
X237824285Y-33080952D01*
X237519523Y-33080952D01*
X238700476Y-32661904D02*
X238319523Y-32661904D01*
X238281428Y-33042857D01*
X238319523Y-33004761D01*
X238395714Y-32966666D01*
X238586190Y-32966666D01*
X238662380Y-33004761D01*
X238700476Y-33042857D01*
X238738571Y-33119047D01*
X238738571Y-33309523D01*
X238700476Y-33385714D01*
X238662380Y-33423809D01*
X238586190Y-33461904D01*
X238395714Y-33461904D01*
X238319523Y-33423809D01*
X238281428Y-33385714D01*
X237252857Y-31728571D02*
X237252857Y-32261904D01*
X237062380Y-31423809D02*
X236871904Y-31995238D01*
X237367142Y-31995238D01*
X237595714Y-31461904D02*
X238129047Y-31461904D01*
X237786190Y-32261904D01*
X238586190Y-31461904D02*
X238662380Y-31461904D01*
X238738571Y-31500000D01*
X238776666Y-31538095D01*
X238814761Y-31614285D01*
X238852857Y-31766666D01*
X238852857Y-31957142D01*
X238814761Y-32109523D01*
X238776666Y-32185714D01*
X238738571Y-32223809D01*
X238662380Y-32261904D01*
X238586190Y-32261904D01*
X238510000Y-32223809D01*
X238471904Y-32185714D01*
X238433809Y-32109523D01*
X238395714Y-31957142D01*
X238395714Y-31766666D01*
X238433809Y-31614285D01*
X238471904Y-31538095D01*
X238510000Y-31500000D01*
X238586190Y-31461904D01*
X239195714Y-32261904D02*
X239195714Y-31728571D01*
X239195714Y-31880952D02*
X239233809Y-31804761D01*
X239271904Y-31766666D01*
X239348095Y-31728571D01*
X239424285Y-31728571D01*
%TO.C,R4*%
X228261904Y-34243333D02*
X227880952Y-34510000D01*
X228261904Y-34700476D02*
X227461904Y-34700476D01*
X227461904Y-34395714D01*
X227500000Y-34319523D01*
X227538095Y-34281428D01*
X227614285Y-34243333D01*
X227728571Y-34243333D01*
X227804761Y-34281428D01*
X227842857Y-34319523D01*
X227880952Y-34395714D01*
X227880952Y-34700476D01*
X227728571Y-33557619D02*
X228261904Y-33557619D01*
X227423809Y-33748095D02*
X227995238Y-33938571D01*
X227995238Y-33443333D01*
X229461904Y-34205238D02*
X229461904Y-34662380D01*
X229461904Y-34433809D02*
X228661904Y-34433809D01*
X228776190Y-34510000D01*
X228852380Y-34586190D01*
X228890476Y-34662380D01*
X229461904Y-33862380D02*
X228661904Y-33862380D01*
X229157142Y-33786190D02*
X229461904Y-33557619D01*
X228928571Y-33557619D02*
X229233333Y-33862380D01*
%TO.C,R3*%
X224761904Y-34243333D02*
X224380952Y-34510000D01*
X224761904Y-34700476D02*
X223961904Y-34700476D01*
X223961904Y-34395714D01*
X224000000Y-34319523D01*
X224038095Y-34281428D01*
X224114285Y-34243333D01*
X224228571Y-34243333D01*
X224304761Y-34281428D01*
X224342857Y-34319523D01*
X224380952Y-34395714D01*
X224380952Y-34700476D01*
X223961904Y-33976666D02*
X223961904Y-33481428D01*
X224266666Y-33748095D01*
X224266666Y-33633809D01*
X224304761Y-33557619D01*
X224342857Y-33519523D01*
X224419047Y-33481428D01*
X224609523Y-33481428D01*
X224685714Y-33519523D01*
X224723809Y-33557619D01*
X224761904Y-33633809D01*
X224761904Y-33862380D01*
X224723809Y-33938571D01*
X224685714Y-33976666D01*
X225238095Y-35043333D02*
X225200000Y-35005238D01*
X225161904Y-34929047D01*
X225161904Y-34738571D01*
X225200000Y-34662380D01*
X225238095Y-34624285D01*
X225314285Y-34586190D01*
X225390476Y-34586190D01*
X225504761Y-34624285D01*
X225961904Y-35081428D01*
X225961904Y-34586190D01*
X225238095Y-34281428D02*
X225200000Y-34243333D01*
X225161904Y-34167142D01*
X225161904Y-33976666D01*
X225200000Y-33900476D01*
X225238095Y-33862380D01*
X225314285Y-33824285D01*
X225390476Y-33824285D01*
X225504761Y-33862380D01*
X225961904Y-34319523D01*
X225961904Y-33824285D01*
X225961904Y-33481428D02*
X225161904Y-33481428D01*
X225657142Y-33405238D02*
X225961904Y-33176666D01*
X225428571Y-33176666D02*
X225733333Y-33481428D01*
%TO.C,R2*%
X240256666Y-47761904D02*
X239990000Y-47380952D01*
X239799523Y-47761904D02*
X239799523Y-46961904D01*
X240104285Y-46961904D01*
X240180476Y-47000000D01*
X240218571Y-47038095D01*
X240256666Y-47114285D01*
X240256666Y-47228571D01*
X240218571Y-47304761D01*
X240180476Y-47342857D01*
X240104285Y-47380952D01*
X239799523Y-47380952D01*
X240561428Y-47038095D02*
X240599523Y-47000000D01*
X240675714Y-46961904D01*
X240866190Y-46961904D01*
X240942380Y-47000000D01*
X240980476Y-47038095D01*
X241018571Y-47114285D01*
X241018571Y-47190476D01*
X240980476Y-47304761D01*
X240523333Y-47761904D01*
X241018571Y-47761904D01*
X239532857Y-48961904D02*
X239075714Y-48961904D01*
X239304285Y-48961904D02*
X239304285Y-48161904D01*
X239228095Y-48276190D01*
X239151904Y-48352380D01*
X239075714Y-48390476D01*
X240256666Y-48161904D02*
X239875714Y-48161904D01*
X239837619Y-48542857D01*
X239875714Y-48504761D01*
X239951904Y-48466666D01*
X240142380Y-48466666D01*
X240218571Y-48504761D01*
X240256666Y-48542857D01*
X240294761Y-48619047D01*
X240294761Y-48809523D01*
X240256666Y-48885714D01*
X240218571Y-48923809D01*
X240142380Y-48961904D01*
X239951904Y-48961904D01*
X239875714Y-48923809D01*
X239837619Y-48885714D01*
X240790000Y-48161904D02*
X240866190Y-48161904D01*
X240942380Y-48200000D01*
X240980476Y-48238095D01*
X241018571Y-48314285D01*
X241056666Y-48466666D01*
X241056666Y-48657142D01*
X241018571Y-48809523D01*
X240980476Y-48885714D01*
X240942380Y-48923809D01*
X240866190Y-48961904D01*
X240790000Y-48961904D01*
X240713809Y-48923809D01*
X240675714Y-48885714D01*
X240637619Y-48809523D01*
X240599523Y-48657142D01*
X240599523Y-48466666D01*
X240637619Y-48314285D01*
X240675714Y-48238095D01*
X240713809Y-48200000D01*
X240790000Y-48161904D01*
X241399523Y-48961904D02*
X241399523Y-48161904D01*
X241475714Y-48657142D02*
X241704285Y-48961904D01*
X241704285Y-48428571D02*
X241399523Y-48733333D01*
%TO.C,R1*%
X239476666Y-45461904D02*
X239210000Y-45080952D01*
X239019523Y-45461904D02*
X239019523Y-44661904D01*
X239324285Y-44661904D01*
X239400476Y-44700000D01*
X239438571Y-44738095D01*
X239476666Y-44814285D01*
X239476666Y-44928571D01*
X239438571Y-45004761D01*
X239400476Y-45042857D01*
X239324285Y-45080952D01*
X239019523Y-45080952D01*
X240238571Y-45461904D02*
X239781428Y-45461904D01*
X240010000Y-45461904D02*
X240010000Y-44661904D01*
X239933809Y-44776190D01*
X239857619Y-44852380D01*
X239781428Y-44890476D01*
X239381428Y-44261904D02*
X238924285Y-44261904D01*
X239152857Y-44261904D02*
X239152857Y-43461904D01*
X239076666Y-43576190D01*
X239000476Y-43652380D01*
X238924285Y-43690476D01*
X239724285Y-44261904D02*
X239724285Y-43461904D01*
X239990952Y-44033333D01*
X240257619Y-43461904D01*
X240257619Y-44261904D01*
D10*
%TO.C,J3*%
X255750000Y-34789285D02*
X255750000Y-35325000D01*
X255714285Y-35432142D01*
X255642857Y-35503571D01*
X255535714Y-35539285D01*
X255464285Y-35539285D01*
X256035714Y-34789285D02*
X256500000Y-34789285D01*
X256250000Y-35075000D01*
X256357142Y-35075000D01*
X256428571Y-35110714D01*
X256464285Y-35146428D01*
X256500000Y-35217857D01*
X256500000Y-35396428D01*
X256464285Y-35467857D01*
X256428571Y-35503571D01*
X256357142Y-35539285D01*
X256142857Y-35539285D01*
X256071428Y-35503571D01*
X256035714Y-35467857D01*
X256738095Y-27071428D02*
X257500000Y-27071428D01*
X258500000Y-27452380D02*
X257928571Y-27452380D01*
X258214285Y-27452380D02*
X258214285Y-26452380D01*
X258119047Y-26595238D01*
X258023809Y-26690476D01*
X257928571Y-26738095D01*
X258880952Y-26547619D02*
X258928571Y-26500000D01*
X259023809Y-26452380D01*
X259261904Y-26452380D01*
X259357142Y-26500000D01*
X259404761Y-26547619D01*
X259452380Y-26642857D01*
X259452380Y-26738095D01*
X259404761Y-26880952D01*
X258833333Y-27452380D01*
X259452380Y-27452380D01*
X259738095Y-26452380D02*
X260071428Y-27452380D01*
X260404761Y-26452380D01*
X257743095Y-43071428D02*
X258505000Y-43071428D01*
X258124047Y-43452380D02*
X258124047Y-42690476D01*
X259505000Y-43452380D02*
X258933571Y-43452380D01*
X259219285Y-43452380D02*
X259219285Y-42452380D01*
X259124047Y-42595238D01*
X259028809Y-42690476D01*
X258933571Y-42738095D01*
X259885952Y-42547619D02*
X259933571Y-42500000D01*
X260028809Y-42452380D01*
X260266904Y-42452380D01*
X260362142Y-42500000D01*
X260409761Y-42547619D01*
X260457380Y-42642857D01*
X260457380Y-42738095D01*
X260409761Y-42880952D01*
X259838333Y-43452380D01*
X260457380Y-43452380D01*
X260743095Y-42452380D02*
X261076428Y-43452380D01*
X261409761Y-42452380D01*
X254404761Y-29357142D02*
X254452380Y-29214285D01*
X254452380Y-28976190D01*
X254404761Y-28880952D01*
X254357142Y-28833333D01*
X254261904Y-28785714D01*
X254166666Y-28785714D01*
X254071428Y-28833333D01*
X254023809Y-28880952D01*
X253976190Y-28976190D01*
X253928571Y-29166666D01*
X253880952Y-29261904D01*
X253833333Y-29309523D01*
X253738095Y-29357142D01*
X253642857Y-29357142D01*
X253547619Y-29309523D01*
X253500000Y-29261904D01*
X253452380Y-29166666D01*
X253452380Y-28928571D01*
X253500000Y-28785714D01*
X253452380Y-28500000D02*
X253452380Y-27928571D01*
X254452380Y-28214285D02*
X253452380Y-28214285D01*
X254452380Y-27023809D02*
X253976190Y-27357142D01*
X254452380Y-27595238D02*
X253452380Y-27595238D01*
X253452380Y-27214285D01*
X253500000Y-27119047D01*
X253547619Y-27071428D01*
X253642857Y-27023809D01*
X253785714Y-27023809D01*
X253880952Y-27071428D01*
X253928571Y-27119047D01*
X253976190Y-27214285D01*
X253976190Y-27595238D01*
X254452380Y-26595238D02*
X253452380Y-26595238D01*
X254452380Y-26119047D02*
X253452380Y-26119047D01*
X253452380Y-25738095D01*
X253500000Y-25642857D01*
X253547619Y-25595238D01*
X253642857Y-25547619D01*
X253785714Y-25547619D01*
X253880952Y-25595238D01*
X253928571Y-25642857D01*
X253976190Y-25738095D01*
X253976190Y-26119047D01*
X253928571Y-25119047D02*
X253928571Y-24785714D01*
X254452380Y-24642857D02*
X254452380Y-25119047D01*
X253452380Y-25119047D01*
X253452380Y-24642857D01*
%TO.C,D2*%
X256761904Y-22452380D02*
X256761904Y-21452380D01*
X257000000Y-21452380D01*
X257142857Y-21500000D01*
X257238095Y-21595238D01*
X257285714Y-21690476D01*
X257333333Y-21880952D01*
X257333333Y-22023809D01*
X257285714Y-22214285D01*
X257238095Y-22309523D01*
X257142857Y-22404761D01*
X257000000Y-22452380D01*
X256761904Y-22452380D01*
X257714285Y-21547619D02*
X257761904Y-21500000D01*
X257857142Y-21452380D01*
X258095238Y-21452380D01*
X258190476Y-21500000D01*
X258238095Y-21547619D01*
X258285714Y-21642857D01*
X258285714Y-21738095D01*
X258238095Y-21880952D01*
X257666666Y-22452380D01*
X258285714Y-22452380D01*
X261038095Y-23352380D02*
X261038095Y-22352380D01*
X261609523Y-23352380D02*
X261180952Y-22780952D01*
X261609523Y-22352380D02*
X261038095Y-22923809D01*
%TO.C,D1*%
X257761904Y-47952380D02*
X257761904Y-46952380D01*
X258000000Y-46952380D01*
X258142857Y-47000000D01*
X258238095Y-47095238D01*
X258285714Y-47190476D01*
X258333333Y-47380952D01*
X258333333Y-47523809D01*
X258285714Y-47714285D01*
X258238095Y-47809523D01*
X258142857Y-47904761D01*
X258000000Y-47952380D01*
X257761904Y-47952380D01*
X259285714Y-47952380D02*
X258714285Y-47952380D01*
X259000000Y-47952380D02*
X259000000Y-46952380D01*
X258904761Y-47095238D01*
X258809523Y-47190476D01*
X258714285Y-47238095D01*
X252638095Y-49752380D02*
X252638095Y-48752380D01*
X253209523Y-49752380D02*
X252780952Y-49180952D01*
X253209523Y-48752380D02*
X252638095Y-49323809D01*
%TO.C,C3*%
X249333333Y-26357142D02*
X249285714Y-26404761D01*
X249142857Y-26452380D01*
X249047619Y-26452380D01*
X248904761Y-26404761D01*
X248809523Y-26309523D01*
X248761904Y-26214285D01*
X248714285Y-26023809D01*
X248714285Y-25880952D01*
X248761904Y-25690476D01*
X248809523Y-25595238D01*
X248904761Y-25500000D01*
X249047619Y-25452380D01*
X249142857Y-25452380D01*
X249285714Y-25500000D01*
X249333333Y-25547619D01*
X249666666Y-25452380D02*
X250285714Y-25452380D01*
X249952380Y-25833333D01*
X250095238Y-25833333D01*
X250190476Y-25880952D01*
X250238095Y-25928571D01*
X250285714Y-26023809D01*
X250285714Y-26261904D01*
X250238095Y-26357142D01*
X250190476Y-26404761D01*
X250095238Y-26452380D01*
X249809523Y-26452380D01*
X249714285Y-26404761D01*
X249666666Y-26357142D01*
%TO.C,C1*%
X248288446Y-48107142D02*
X248240827Y-48154761D01*
X248097970Y-48202380D01*
X248002732Y-48202380D01*
X247859874Y-48154761D01*
X247764636Y-48059523D01*
X247717017Y-47964285D01*
X247669398Y-47773809D01*
X247669398Y-47630952D01*
X247717017Y-47440476D01*
X247764636Y-47345238D01*
X247859874Y-47250000D01*
X248002732Y-47202380D01*
X248097970Y-47202380D01*
X248240827Y-47250000D01*
X248288446Y-47297619D01*
X249240827Y-48202380D02*
X248669398Y-48202380D01*
X248955113Y-48202380D02*
X248955113Y-47202380D01*
X248859874Y-47345238D01*
X248764636Y-47440476D01*
X248669398Y-47488095D01*
D12*
%TO.C,C6*%
X242120000Y-27630000D02*
X234880000Y-27630000D01*
X242120000Y-30370000D02*
X234880000Y-30370000D01*
X242120000Y-30370000D02*
X242120000Y-27630000D01*
X234880000Y-30370000D02*
X234880000Y-27630000D01*
%TO.C,C2*%
X234880000Y-40370000D02*
X242120000Y-40370000D01*
X234880000Y-37630000D02*
X242120000Y-37630000D01*
X234880000Y-37630000D02*
X234880000Y-40370000D01*
X242120000Y-37630000D02*
X242120000Y-40370000D01*
%TO.C,U1*%
X248010000Y-29870000D02*
G75*
G03*
X250010000Y-29870000I1000000J0D01*
G01*
X248010000Y-29870000D02*
X246760000Y-29870000D01*
X246760000Y-29870000D02*
X246760000Y-40150000D01*
X246760000Y-40150000D02*
X251260000Y-40150000D01*
X251260000Y-40150000D02*
X251260000Y-29870000D01*
X251260000Y-29870000D02*
X250010000Y-29870000D01*
X243760000Y-29810000D02*
X243760000Y-40210000D01*
X243760000Y-40210000D02*
X254260000Y-40210000D01*
X254260000Y-40210000D02*
X254260000Y-29810000D01*
X254260000Y-29810000D02*
X243760000Y-29810000D01*
%TO.C,RV2*%
X230030000Y-28830000D02*
X228700000Y-28830000D01*
X230030000Y-27500000D02*
X230030000Y-28830000D01*
X230030000Y-26230000D02*
X227370000Y-26230000D01*
X227370000Y-26230000D02*
X227370000Y-21090000D01*
X230030000Y-26230000D02*
X230030000Y-21090000D01*
X230030000Y-21090000D02*
X227370000Y-21090000D01*
%TO.C,RV1*%
X223670000Y-41645000D02*
X225000000Y-41645000D01*
X223670000Y-42975000D02*
X223670000Y-41645000D01*
X223670000Y-44245000D02*
X226330000Y-44245000D01*
X226330000Y-44245000D02*
X226330000Y-49385000D01*
X223670000Y-44245000D02*
X223670000Y-49385000D01*
X223670000Y-49385000D02*
X226330000Y-49385000D01*
%TO.C,R7*%
X242730000Y-23040000D02*
X242730000Y-23370000D01*
X242730000Y-23370000D02*
X249270000Y-23370000D01*
X242730000Y-20630000D02*
X249270000Y-20630000D01*
X242730000Y-20960000D02*
X242730000Y-20630000D01*
X249270000Y-23370000D02*
X249270000Y-23040000D01*
X249270000Y-20630000D02*
X249270000Y-20960000D01*
%TO.C,R6*%
X235230000Y-36690000D02*
X235230000Y-37020000D01*
X235230000Y-37020000D02*
X241770000Y-37020000D01*
X235230000Y-34280000D02*
X241770000Y-34280000D01*
X235230000Y-34610000D02*
X235230000Y-34280000D01*
X241770000Y-37020000D02*
X241770000Y-36690000D01*
X241770000Y-34280000D02*
X241770000Y-34610000D01*
%TO.C,R5*%
X241770000Y-31460000D02*
X241770000Y-31130000D01*
X241770000Y-31130000D02*
X235230000Y-31130000D01*
X241770000Y-33870000D02*
X235230000Y-33870000D01*
X241770000Y-33540000D02*
X241770000Y-33870000D01*
X235230000Y-31130000D02*
X235230000Y-31460000D01*
X235230000Y-33870000D02*
X235230000Y-33540000D01*
%TO.C,R4*%
X229540000Y-37770000D02*
X229870000Y-37770000D01*
X229870000Y-37770000D02*
X229870000Y-31230000D01*
X227130000Y-37770000D02*
X227130000Y-31230000D01*
X227460000Y-37770000D02*
X227130000Y-37770000D01*
X229870000Y-31230000D02*
X229540000Y-31230000D01*
X227130000Y-31230000D02*
X227460000Y-31230000D01*
%TO.C,R3*%
X226040000Y-37770000D02*
X226370000Y-37770000D01*
X226370000Y-37770000D02*
X226370000Y-31230000D01*
X223630000Y-37770000D02*
X223630000Y-31230000D01*
X223960000Y-37770000D02*
X223630000Y-37770000D01*
X226370000Y-31230000D02*
X226040000Y-31230000D01*
X223630000Y-31230000D02*
X223960000Y-31230000D01*
%TO.C,R2*%
X236730000Y-49040000D02*
X236730000Y-49370000D01*
X236730000Y-49370000D02*
X243270000Y-49370000D01*
X236730000Y-46630000D02*
X243270000Y-46630000D01*
X236730000Y-46960000D02*
X236730000Y-46630000D01*
X243270000Y-49370000D02*
X243270000Y-49040000D01*
X243270000Y-46630000D02*
X243270000Y-46960000D01*
%TO.C,R1*%
X243270000Y-43460000D02*
X243270000Y-43130000D01*
X243270000Y-43130000D02*
X236730000Y-43130000D01*
X243270000Y-45870000D02*
X236730000Y-45870000D01*
X243270000Y-45540000D02*
X243270000Y-45870000D01*
X236730000Y-43130000D02*
X236730000Y-43460000D01*
X236730000Y-45870000D02*
X236730000Y-45540000D01*
%TO.C,J5*%
X240330000Y-20905000D02*
X237670000Y-20905000D01*
X240330000Y-23505000D02*
X240330000Y-20905000D01*
X237670000Y-23505000D02*
X237670000Y-20905000D01*
X240330000Y-23505000D02*
X237670000Y-23505000D01*
X240330000Y-24775000D02*
X240330000Y-26105000D01*
X240330000Y-26105000D02*
X239000000Y-26105000D01*
%TO.C,J4*%
X227670000Y-49095000D02*
X230330000Y-49095000D01*
X227670000Y-46495000D02*
X227670000Y-49095000D01*
X230330000Y-46495000D02*
X230330000Y-49095000D01*
X227670000Y-46495000D02*
X230330000Y-46495000D01*
X227670000Y-45225000D02*
X227670000Y-43895000D01*
X227670000Y-43895000D02*
X229000000Y-43895000D01*
%TO.C,J3*%
X263380000Y-44620000D02*
X255630000Y-44620000D01*
X255080000Y-24820000D02*
X263930000Y-24820000D01*
X255630000Y-37250000D02*
X255120000Y-37250000D01*
X263930000Y-45170000D02*
X255080000Y-45170000D01*
X255080000Y-45170000D02*
X255080000Y-24820000D01*
X264175000Y-45430000D02*
X254825000Y-45430000D01*
X263930000Y-24820000D02*
X263930000Y-45170000D01*
X264175000Y-24570000D02*
X264175000Y-45430000D01*
X255630000Y-32750000D02*
X255630000Y-25370000D01*
X255130000Y-32750000D02*
X255610000Y-32750000D01*
X255630000Y-44620000D02*
X255630000Y-37270000D01*
X255080000Y-24820000D02*
X255630000Y-25370000D01*
X255630000Y-25370000D02*
X263380000Y-25370000D01*
X255630000Y-44620000D02*
X255130000Y-45120000D01*
X254825000Y-24570000D02*
X264175000Y-24570000D01*
X254825000Y-45430000D02*
X254825000Y-24570000D01*
X263380000Y-44620000D02*
X263930000Y-45170000D01*
X263380000Y-25370000D02*
X263930000Y-24820000D01*
X263380000Y-25370000D02*
X263380000Y-44620000D01*
%TO.C,J2*%
X234330000Y-20905000D02*
X231670000Y-20905000D01*
X234330000Y-23505000D02*
X234330000Y-20905000D01*
X231670000Y-23505000D02*
X231670000Y-20905000D01*
X234330000Y-23505000D02*
X231670000Y-23505000D01*
X234330000Y-24775000D02*
X234330000Y-26105000D01*
X234330000Y-26105000D02*
X233000000Y-26105000D01*
%TO.C,J1*%
X231670000Y-49095000D02*
X234330000Y-49095000D01*
X231670000Y-46495000D02*
X231670000Y-49095000D01*
X234330000Y-46495000D02*
X234330000Y-49095000D01*
X231670000Y-46495000D02*
X234330000Y-46495000D01*
X231670000Y-45225000D02*
X231670000Y-43895000D01*
X231670000Y-43895000D02*
X233000000Y-43895000D01*
%TO.C,D2*%
X260720000Y-23470000D02*
X260720000Y-20530000D01*
X260720000Y-20530000D02*
X255280000Y-20530000D01*
X255280000Y-20530000D02*
X255280000Y-23470000D01*
X255280000Y-23470000D02*
X260720000Y-23470000D01*
X261740000Y-22000000D02*
X260720000Y-22000000D01*
X254260000Y-22000000D02*
X255280000Y-22000000D01*
X259820000Y-23470000D02*
X259820000Y-20530000D01*
X259700000Y-23470000D02*
X259700000Y-20530000D01*
X259940000Y-23470000D02*
X259940000Y-20530000D01*
%TO.C,D1*%
X255280000Y-46030000D02*
X255280000Y-48970000D01*
X255280000Y-48970000D02*
X260720000Y-48970000D01*
X260720000Y-48970000D02*
X260720000Y-46030000D01*
X260720000Y-46030000D02*
X255280000Y-46030000D01*
X254260000Y-47500000D02*
X255280000Y-47500000D01*
X261740000Y-47500000D02*
X260720000Y-47500000D01*
X256180000Y-46030000D02*
X256180000Y-48970000D01*
X256300000Y-46030000D02*
X256300000Y-48970000D01*
X256060000Y-46030000D02*
X256060000Y-48970000D01*
%TO.C,C3*%
X248075113Y-26500000D02*
G75*
G03*
X248075113Y-26500000I-2620000J0D01*
G01*
X245455113Y-25460000D02*
X245455113Y-23920000D01*
X245455113Y-29080000D02*
X245455113Y-27540000D01*
X245415113Y-25460000D02*
X245415113Y-23920000D01*
X245415113Y-29080000D02*
X245415113Y-27540000D01*
X245375113Y-29079000D02*
X245375113Y-27540000D01*
X245375113Y-25460000D02*
X245375113Y-23921000D01*
X245335113Y-29078000D02*
X245335113Y-27540000D01*
X245335113Y-25460000D02*
X245335113Y-23922000D01*
X245295113Y-29076000D02*
X245295113Y-27540000D01*
X245295113Y-25460000D02*
X245295113Y-23924000D01*
X245255113Y-29073000D02*
X245255113Y-27540000D01*
X245255113Y-25460000D02*
X245255113Y-23927000D01*
X245215113Y-29069000D02*
X245215113Y-27540000D01*
X245215113Y-25460000D02*
X245215113Y-23931000D01*
X245175113Y-29065000D02*
X245175113Y-27540000D01*
X245175113Y-25460000D02*
X245175113Y-23935000D01*
X245135113Y-29061000D02*
X245135113Y-27540000D01*
X245135113Y-25460000D02*
X245135113Y-23939000D01*
X245095113Y-29056000D02*
X245095113Y-27540000D01*
X245095113Y-25460000D02*
X245095113Y-23944000D01*
X245055113Y-29050000D02*
X245055113Y-27540000D01*
X245055113Y-25460000D02*
X245055113Y-23950000D01*
X245015113Y-29043000D02*
X245015113Y-27540000D01*
X245015113Y-25460000D02*
X245015113Y-23957000D01*
X244975113Y-29036000D02*
X244975113Y-27540000D01*
X244975113Y-25460000D02*
X244975113Y-23964000D01*
X244935113Y-29028000D02*
X244935113Y-27540000D01*
X244935113Y-25460000D02*
X244935113Y-23972000D01*
X244895113Y-29020000D02*
X244895113Y-27540000D01*
X244895113Y-25460000D02*
X244895113Y-23980000D01*
X244855113Y-29011000D02*
X244855113Y-27540000D01*
X244855113Y-25460000D02*
X244855113Y-23989000D01*
X244815113Y-29001000D02*
X244815113Y-27540000D01*
X244815113Y-25460000D02*
X244815113Y-23999000D01*
X244775113Y-28991000D02*
X244775113Y-27540000D01*
X244775113Y-25460000D02*
X244775113Y-24009000D01*
X244734113Y-28980000D02*
X244734113Y-27540000D01*
X244734113Y-25460000D02*
X244734113Y-24020000D01*
X244694113Y-28968000D02*
X244694113Y-27540000D01*
X244694113Y-25460000D02*
X244694113Y-24032000D01*
X244654113Y-28955000D02*
X244654113Y-27540000D01*
X244654113Y-25460000D02*
X244654113Y-24045000D01*
X244614113Y-28942000D02*
X244614113Y-27540000D01*
X244614113Y-25460000D02*
X244614113Y-24058000D01*
X244574113Y-28928000D02*
X244574113Y-27540000D01*
X244574113Y-25460000D02*
X244574113Y-24072000D01*
X244534113Y-28914000D02*
X244534113Y-27540000D01*
X244534113Y-25460000D02*
X244534113Y-24086000D01*
X244494113Y-28898000D02*
X244494113Y-27540000D01*
X244494113Y-25460000D02*
X244494113Y-24102000D01*
X244454113Y-28882000D02*
X244454113Y-27540000D01*
X244454113Y-25460000D02*
X244454113Y-24118000D01*
X244414113Y-28865000D02*
X244414113Y-27540000D01*
X244414113Y-25460000D02*
X244414113Y-24135000D01*
X244374113Y-28848000D02*
X244374113Y-27540000D01*
X244374113Y-25460000D02*
X244374113Y-24152000D01*
X244334113Y-28829000D02*
X244334113Y-27540000D01*
X244334113Y-25460000D02*
X244334113Y-24171000D01*
X244294113Y-28810000D02*
X244294113Y-27540000D01*
X244294113Y-25460000D02*
X244294113Y-24190000D01*
X244254113Y-28790000D02*
X244254113Y-27540000D01*
X244254113Y-25460000D02*
X244254113Y-24210000D01*
X244214113Y-28768000D02*
X244214113Y-27540000D01*
X244214113Y-25460000D02*
X244214113Y-24232000D01*
X244174113Y-28747000D02*
X244174113Y-27540000D01*
X244174113Y-25460000D02*
X244174113Y-24253000D01*
X244134113Y-28724000D02*
X244134113Y-27540000D01*
X244134113Y-25460000D02*
X244134113Y-24276000D01*
X244094113Y-28700000D02*
X244094113Y-27540000D01*
X244094113Y-25460000D02*
X244094113Y-24300000D01*
X244054113Y-28675000D02*
X244054113Y-27540000D01*
X244054113Y-25460000D02*
X244054113Y-24325000D01*
X244014113Y-28649000D02*
X244014113Y-27540000D01*
X244014113Y-25460000D02*
X244014113Y-24351000D01*
X243974113Y-28622000D02*
X243974113Y-27540000D01*
X243974113Y-25460000D02*
X243974113Y-24378000D01*
X243934113Y-28595000D02*
X243934113Y-27540000D01*
X243934113Y-25460000D02*
X243934113Y-24405000D01*
X243894113Y-28565000D02*
X243894113Y-27540000D01*
X243894113Y-25460000D02*
X243894113Y-24435000D01*
X243854113Y-28535000D02*
X243854113Y-27540000D01*
X243854113Y-25460000D02*
X243854113Y-24465000D01*
X243814113Y-28504000D02*
X243814113Y-27540000D01*
X243814113Y-25460000D02*
X243814113Y-24496000D01*
X243774113Y-28471000D02*
X243774113Y-27540000D01*
X243774113Y-25460000D02*
X243774113Y-24529000D01*
X243734113Y-28437000D02*
X243734113Y-27540000D01*
X243734113Y-25460000D02*
X243734113Y-24563000D01*
X243694113Y-28401000D02*
X243694113Y-27540000D01*
X243694113Y-25460000D02*
X243694113Y-24599000D01*
X243654113Y-28364000D02*
X243654113Y-27540000D01*
X243654113Y-25460000D02*
X243654113Y-24636000D01*
X243614113Y-28326000D02*
X243614113Y-27540000D01*
X243614113Y-25460000D02*
X243614113Y-24674000D01*
X243574113Y-28285000D02*
X243574113Y-27540000D01*
X243574113Y-25460000D02*
X243574113Y-24715000D01*
X243534113Y-28243000D02*
X243534113Y-27540000D01*
X243534113Y-25460000D02*
X243534113Y-24757000D01*
X243494113Y-28199000D02*
X243494113Y-27540000D01*
X243494113Y-25460000D02*
X243494113Y-24801000D01*
X243454113Y-28153000D02*
X243454113Y-27540000D01*
X243454113Y-25460000D02*
X243454113Y-24847000D01*
X243414113Y-28105000D02*
X243414113Y-24895000D01*
X243374113Y-28054000D02*
X243374113Y-24946000D01*
X243334113Y-28000000D02*
X243334113Y-25000000D01*
X243294113Y-27943000D02*
X243294113Y-25057000D01*
X243254113Y-27883000D02*
X243254113Y-25117000D01*
X243214113Y-27819000D02*
X243214113Y-25181000D01*
X243174113Y-27751000D02*
X243174113Y-25249000D01*
X243134113Y-27678000D02*
X243134113Y-25322000D01*
X243094113Y-27598000D02*
X243094113Y-25402000D01*
X243054113Y-27511000D02*
X243054113Y-25489000D01*
X243014113Y-27415000D02*
X243014113Y-25585000D01*
X242974113Y-27305000D02*
X242974113Y-25695000D01*
X242934113Y-27177000D02*
X242934113Y-25823000D01*
X242894113Y-27018000D02*
X242894113Y-25982000D01*
X242854113Y-26784000D02*
X242854113Y-26216000D01*
X248259888Y-27975000D02*
X247759888Y-27975000D01*
X248009888Y-28225000D02*
X248009888Y-27725000D01*
%TO.C,C1*%
X251075113Y-44000000D02*
G75*
G03*
X251075113Y-44000000I-2620000J0D01*
G01*
X248455113Y-42960000D02*
X248455113Y-41420000D01*
X248455113Y-46580000D02*
X248455113Y-45040000D01*
X248415113Y-42960000D02*
X248415113Y-41420000D01*
X248415113Y-46580000D02*
X248415113Y-45040000D01*
X248375113Y-46579000D02*
X248375113Y-45040000D01*
X248375113Y-42960000D02*
X248375113Y-41421000D01*
X248335113Y-46578000D02*
X248335113Y-45040000D01*
X248335113Y-42960000D02*
X248335113Y-41422000D01*
X248295113Y-46576000D02*
X248295113Y-45040000D01*
X248295113Y-42960000D02*
X248295113Y-41424000D01*
X248255113Y-46573000D02*
X248255113Y-45040000D01*
X248255113Y-42960000D02*
X248255113Y-41427000D01*
X248215113Y-46569000D02*
X248215113Y-45040000D01*
X248215113Y-42960000D02*
X248215113Y-41431000D01*
X248175113Y-46565000D02*
X248175113Y-45040000D01*
X248175113Y-42960000D02*
X248175113Y-41435000D01*
X248135113Y-46561000D02*
X248135113Y-45040000D01*
X248135113Y-42960000D02*
X248135113Y-41439000D01*
X248095113Y-46556000D02*
X248095113Y-45040000D01*
X248095113Y-42960000D02*
X248095113Y-41444000D01*
X248055113Y-46550000D02*
X248055113Y-45040000D01*
X248055113Y-42960000D02*
X248055113Y-41450000D01*
X248015113Y-46543000D02*
X248015113Y-45040000D01*
X248015113Y-42960000D02*
X248015113Y-41457000D01*
X247975113Y-46536000D02*
X247975113Y-45040000D01*
X247975113Y-42960000D02*
X247975113Y-41464000D01*
X247935113Y-46528000D02*
X247935113Y-45040000D01*
X247935113Y-42960000D02*
X247935113Y-41472000D01*
X247895113Y-46520000D02*
X247895113Y-45040000D01*
X247895113Y-42960000D02*
X247895113Y-41480000D01*
X247855113Y-46511000D02*
X247855113Y-45040000D01*
X247855113Y-42960000D02*
X247855113Y-41489000D01*
X247815113Y-46501000D02*
X247815113Y-45040000D01*
X247815113Y-42960000D02*
X247815113Y-41499000D01*
X247775113Y-46491000D02*
X247775113Y-45040000D01*
X247775113Y-42960000D02*
X247775113Y-41509000D01*
X247734113Y-46480000D02*
X247734113Y-45040000D01*
X247734113Y-42960000D02*
X247734113Y-41520000D01*
X247694113Y-46468000D02*
X247694113Y-45040000D01*
X247694113Y-42960000D02*
X247694113Y-41532000D01*
X247654113Y-46455000D02*
X247654113Y-45040000D01*
X247654113Y-42960000D02*
X247654113Y-41545000D01*
X247614113Y-46442000D02*
X247614113Y-45040000D01*
X247614113Y-42960000D02*
X247614113Y-41558000D01*
X247574113Y-46428000D02*
X247574113Y-45040000D01*
X247574113Y-42960000D02*
X247574113Y-41572000D01*
X247534113Y-46414000D02*
X247534113Y-45040000D01*
X247534113Y-42960000D02*
X247534113Y-41586000D01*
X247494113Y-46398000D02*
X247494113Y-45040000D01*
X247494113Y-42960000D02*
X247494113Y-41602000D01*
X247454113Y-46382000D02*
X247454113Y-45040000D01*
X247454113Y-42960000D02*
X247454113Y-41618000D01*
X247414113Y-46365000D02*
X247414113Y-45040000D01*
X247414113Y-42960000D02*
X247414113Y-41635000D01*
X247374113Y-46348000D02*
X247374113Y-45040000D01*
X247374113Y-42960000D02*
X247374113Y-41652000D01*
X247334113Y-46329000D02*
X247334113Y-45040000D01*
X247334113Y-42960000D02*
X247334113Y-41671000D01*
X247294113Y-46310000D02*
X247294113Y-45040000D01*
X247294113Y-42960000D02*
X247294113Y-41690000D01*
X247254113Y-46290000D02*
X247254113Y-45040000D01*
X247254113Y-42960000D02*
X247254113Y-41710000D01*
X247214113Y-46268000D02*
X247214113Y-45040000D01*
X247214113Y-42960000D02*
X247214113Y-41732000D01*
X247174113Y-46247000D02*
X247174113Y-45040000D01*
X247174113Y-42960000D02*
X247174113Y-41753000D01*
X247134113Y-46224000D02*
X247134113Y-45040000D01*
X247134113Y-42960000D02*
X247134113Y-41776000D01*
X247094113Y-46200000D02*
X247094113Y-45040000D01*
X247094113Y-42960000D02*
X247094113Y-41800000D01*
X247054113Y-46175000D02*
X247054113Y-45040000D01*
X247054113Y-42960000D02*
X247054113Y-41825000D01*
X247014113Y-46149000D02*
X247014113Y-45040000D01*
X247014113Y-42960000D02*
X247014113Y-41851000D01*
X246974113Y-46122000D02*
X246974113Y-45040000D01*
X246974113Y-42960000D02*
X246974113Y-41878000D01*
X246934113Y-46095000D02*
X246934113Y-45040000D01*
X246934113Y-42960000D02*
X246934113Y-41905000D01*
X246894113Y-46065000D02*
X246894113Y-45040000D01*
X246894113Y-42960000D02*
X246894113Y-41935000D01*
X246854113Y-46035000D02*
X246854113Y-45040000D01*
X246854113Y-42960000D02*
X246854113Y-41965000D01*
X246814113Y-46004000D02*
X246814113Y-45040000D01*
X246814113Y-42960000D02*
X246814113Y-41996000D01*
X246774113Y-45971000D02*
X246774113Y-45040000D01*
X246774113Y-42960000D02*
X246774113Y-42029000D01*
X246734113Y-45937000D02*
X246734113Y-45040000D01*
X246734113Y-42960000D02*
X246734113Y-42063000D01*
X246694113Y-45901000D02*
X246694113Y-45040000D01*
X246694113Y-42960000D02*
X246694113Y-42099000D01*
X246654113Y-45864000D02*
X246654113Y-45040000D01*
X246654113Y-42960000D02*
X246654113Y-42136000D01*
X246614113Y-45826000D02*
X246614113Y-45040000D01*
X246614113Y-42960000D02*
X246614113Y-42174000D01*
X246574113Y-45785000D02*
X246574113Y-45040000D01*
X246574113Y-42960000D02*
X246574113Y-42215000D01*
X246534113Y-45743000D02*
X246534113Y-45040000D01*
X246534113Y-42960000D02*
X246534113Y-42257000D01*
X246494113Y-45699000D02*
X246494113Y-45040000D01*
X246494113Y-42960000D02*
X246494113Y-42301000D01*
X246454113Y-45653000D02*
X246454113Y-45040000D01*
X246454113Y-42960000D02*
X246454113Y-42347000D01*
X246414113Y-45605000D02*
X246414113Y-42395000D01*
X246374113Y-45554000D02*
X246374113Y-42446000D01*
X246334113Y-45500000D02*
X246334113Y-42500000D01*
X246294113Y-45443000D02*
X246294113Y-42557000D01*
X246254113Y-45383000D02*
X246254113Y-42617000D01*
X246214113Y-45319000D02*
X246214113Y-42681000D01*
X246174113Y-45251000D02*
X246174113Y-42749000D01*
X246134113Y-45178000D02*
X246134113Y-42822000D01*
X246094113Y-45098000D02*
X246094113Y-42902000D01*
X246054113Y-45011000D02*
X246054113Y-42989000D01*
X246014113Y-44915000D02*
X246014113Y-43085000D01*
X245974113Y-44805000D02*
X245974113Y-43195000D01*
X245934113Y-44677000D02*
X245934113Y-43323000D01*
X245894113Y-44518000D02*
X245894113Y-43482000D01*
X245854113Y-44284000D02*
X245854113Y-43716000D01*
X251259888Y-45475000D02*
X250759888Y-45475000D01*
X251009888Y-45725000D02*
X251009888Y-45225000D01*
%TD*%
%LPC*%
D13*
%TO.C,H1*%
X225500000Y-22500000D03*
%TD*%
D14*
%TO.C,C6*%
X241000000Y-29000000D03*
X236000000Y-29000000D03*
%TD*%
%TO.C,C2*%
X236000000Y-39000000D03*
X241000000Y-39000000D03*
%TD*%
D15*
%TO.C,U1*%
X245200000Y-31200000D03*
D16*
X252820000Y-38820000D03*
X245200000Y-33740000D03*
X252820000Y-36280000D03*
X245200000Y-36280000D03*
X252820000Y-33740000D03*
X245200000Y-38820000D03*
X252820000Y-31200000D03*
%TD*%
D17*
%TO.C,RV2*%
X228700000Y-22420000D03*
X228700000Y-24960000D03*
D18*
X228700000Y-27500000D03*
%TD*%
D17*
%TO.C,RV1*%
X225000000Y-48055000D03*
X225000000Y-45515000D03*
D18*
X225000000Y-42975000D03*
%TD*%
D14*
%TO.C,R7*%
X242190000Y-22000000D03*
D19*
X249810000Y-22000000D03*
%TD*%
D14*
%TO.C,R6*%
X234690000Y-35650000D03*
D19*
X242310000Y-35650000D03*
%TD*%
D14*
%TO.C,R5*%
X242310000Y-32500000D03*
D19*
X234690000Y-32500000D03*
%TD*%
D14*
%TO.C,R4*%
X228500000Y-38310000D03*
D19*
X228500000Y-30690000D03*
%TD*%
D14*
%TO.C,R3*%
X225000000Y-38310000D03*
D19*
X225000000Y-30690000D03*
%TD*%
D14*
%TO.C,R2*%
X236190000Y-48000000D03*
D19*
X243810000Y-48000000D03*
%TD*%
D14*
%TO.C,R1*%
X243810000Y-44500000D03*
D19*
X236190000Y-44500000D03*
%TD*%
D18*
%TO.C,J5*%
X239000000Y-24775000D03*
D17*
X239000000Y-22235000D03*
%TD*%
D18*
%TO.C,J4*%
X229000000Y-45225000D03*
D17*
X229000000Y-47765000D03*
%TD*%
D20*
%TO.C,J3*%
X258230000Y-29920000D03*
D21*
X260770000Y-29920000D03*
X258230000Y-32460000D03*
X260770000Y-32460000D03*
X258230000Y-35000000D03*
X260770000Y-35000000D03*
X258230000Y-37540000D03*
X260770000Y-37540000D03*
X258230000Y-40080000D03*
X260770000Y-40080000D03*
%TD*%
D18*
%TO.C,J2*%
X233000000Y-24775000D03*
D17*
X233000000Y-22235000D03*
%TD*%
D18*
%TO.C,J1*%
X233000000Y-45225000D03*
D17*
X233000000Y-47765000D03*
%TD*%
D22*
%TO.C,D2*%
X263080000Y-22000000D03*
D23*
X252920000Y-22000000D03*
%TD*%
D22*
%TO.C,D1*%
X252920000Y-47500000D03*
D23*
X263080000Y-47500000D03*
%TD*%
D14*
%TO.C,C5*%
X247750000Y-31000000D03*
X250250000Y-31000000D03*
%TD*%
%TO.C,C4*%
X247750000Y-38500000D03*
X250250000Y-38500000D03*
%TD*%
D24*
%TO.C,C3*%
X246455113Y-26500000D03*
D14*
X244455113Y-26500000D03*
%TD*%
D24*
%TO.C,C1*%
X249455113Y-44000000D03*
D14*
X247455113Y-44000000D03*
%TD*%
M02*
